<svg width="20" height="20" viewBox="0 0 20 20" fill="none" xmlns="http://www.w3.org/2000/svg">
<path fill-rule="evenodd" clip-rule="evenodd" d="M1 5.38462C1 3.79149 2.28599 2.5 3.87234 2.5H16.1277C17.714 2.5 19 3.79149 19 5.38462V14.6154C19 16.2085 17.714 17.5 16.1277 17.5H3.87234C2.28599 17.5 1 16.2085 1 14.6154V5.38462ZM3.87234 3.65385C3.46928 3.65385 3.09806 3.79304 2.8045 4.02604C2.66422 4.13738 2.60998 4.30018 2.62621 4.45439C2.64205 4.60498 2.72397 4.74741 2.85248 4.84187L9.43451 9.6801C9.77123 9.92761 10.2288 9.92761 10.5655 9.6801L17.1475 4.84188C17.276 4.74742 17.358 4.60499 17.3738 4.4544C17.39 4.30018 17.3358 4.13739 17.1955 4.02605C16.9019 3.79304 16.5307 3.65385 16.1277 3.65385H3.87234ZM2.75631 6.18382C2.50306 5.99992 2.14894 6.18165 2.14894 6.4955V14.6154C2.14894 15.5713 2.92053 16.3462 3.87234 16.3462H16.1277C17.0795 16.3462 17.8511 15.5713 17.8511 14.6154V6.49551C17.8511 6.18166 17.4969 5.99993 17.2437 6.18383L10.7854 10.8734C10.3167 11.2138 9.68336 11.2138 9.21462 10.8734L2.75631 6.18382Z" fill="#AAAAAA"/>
</svg>
