<svg width="24" height="24" viewBox="0 0 24 24" fill="none" xmlns="http://www.w3.org/2000/svg">
<path fill-rule="evenodd" clip-rule="evenodd" d="M4.7108 10.3333C4.7108 5.84603 7.51515 2.20834 12.0025 2.20834C16.4898 2.20834 19.2941 5.84603 19.2941 10.3333V12.7038C19.2941 13.3664 19.4206 14.0229 19.6666 14.6381L20.5186 16.7679C20.6828 17.1784 20.3804 17.625 19.9383 17.625H15.9608V17.8333C15.9608 20.0195 14.1886 21.7917 12.0025 21.7917C9.81634 21.7917 8.04413 20.0195 8.04413 17.8333V17.625H4.06666C3.62449 17.625 3.32214 17.1784 3.48636 16.7679L4.33828 14.6381C4.58436 14.0229 4.7108 13.3664 4.7108 12.7038V10.3333ZM12.0025 3.45834C8.20551 3.45834 5.9608 6.53639 5.9608 10.3333V12.7038C5.9608 13.5254 5.80402 14.3395 5.49887 15.1023L4.9898 16.375H19.0151L18.506 15.1023C18.2009 14.3395 18.0441 13.5254 18.0441 12.7038V10.3333C18.0441 6.53639 15.7994 3.45834 12.0025 3.45834ZM14.7108 17.8333V17.625H9.29413V17.8333C9.29413 19.3291 10.5067 20.5417 12.0025 20.5417C13.4982 20.5417 14.7108 19.3291 14.7108 17.8333Z" fill="#AAAAAA"/>
</svg>
