<svg width="24" height="24" viewBox="0 0 24 24" fill="none" xmlns="http://www.w3.org/2000/svg">
<path fill-rule="evenodd" clip-rule="evenodd" d="M2.25295 10C2.25295 4.61522 6.61818 0.25 12.003 0.25C17.3877 0.25 21.753 4.61522 21.753 10V12.8445C21.753 13.6396 21.9047 14.4274 22.2 15.1657L23.2223 17.7215C23.4193 18.2141 23.0565 18.75 22.5259 18.75H16.753V19C16.753 21.6234 14.6263 23.75 12.003 23.75C9.3796 23.75 7.25295 21.6234 7.25295 19V18.75H1.47999C0.949389 18.75 0.586571 18.2141 0.78363 17.7215L1.80593 15.1657C2.10123 14.4274 2.25295 13.6396 2.25295 12.8445V10ZM12.003 1.75C7.44661 1.75 3.75295 5.44365 3.75295 10V12.8445C3.75295 13.8305 3.56482 14.8074 3.19865 15.7228L2.58776 17.25H21.4181L20.8073 15.7228C20.4411 14.8074 20.253 13.8305 20.253 12.8445V10C20.253 5.44365 16.5593 1.75 12.003 1.75ZM15.253 19V18.75H8.75296V19C8.75296 20.7949 10.208 22.25 12.003 22.25C13.7979 22.25 15.253 20.7949 15.253 19Z" fill="#AAAAAA"/>
</svg>
