<svg width="25" height="24" viewBox="0 0 25 24" fill="none" xmlns="http://www.w3.org/2000/svg">
<path d="M19.2016 4.24461H0.884038C1.14676 4.03041 1.45765 3.86966 1.80222 3.78103L16.2035 0.0768984C17.7223 -0.313748 19.2016 0.833226 19.2016 2.40145V4.24461Z" fill="white"/>
<path fill-rule="evenodd" clip-rule="evenodd" d="M0 5.77936C0 5.61366 0.134326 5.47933 0.300027 5.47933H21.6019C22.9275 5.47933 24.0021 6.55394 24.0021 7.87954V21.5998C24.0021 22.9254 22.9275 24 21.6019 24H2.40021C1.07461 24 0 22.9254 0 21.5998V5.77936ZM19.2017 14.7396C19.2017 15.7625 18.3957 16.5917 17.4015 16.5917C16.4073 16.5917 15.6014 15.7625 15.6014 14.7396C15.6014 13.7168 16.4073 12.8876 17.4015 12.8876C18.3957 12.8876 19.2017 13.7168 19.2017 14.7396Z" fill="white"/>
</svg>
