<svg width="44" height="44" viewBox="0 0 44 44" fill="none" xmlns="http://www.w3.org/2000/svg">
<rect width="44" height="44" rx="22" fill="#222222"/>
<path fill-rule="evenodd" clip-rule="evenodd" d="M33.4619 18.1828C33.8988 18.1828 34.1529 18.6599 33.899 19.0033L23.2414 34.5585C22.5757 35.4589 21.3543 34.8727 21.5557 33.7834L22.8667 24.8934H16.6071C16.163 24.8934 15.9107 24.4023 16.1793 24.0606L26.8276 9.39693C27.5159 8.52136 28.3915 9.21661 28.1724 10.2956L27.1636 18.1828H33.4619ZM12.5948 13.4305C12.0378 13.4305 11.5862 13.8821 11.5862 14.4391C11.5862 14.9962 12.0378 15.4477 12.5948 15.4477H18.6465C19.2036 15.4477 19.6552 14.9962 19.6552 14.4391C19.6552 13.8821 19.2036 13.4305 18.6465 13.4305H12.5948ZM8 21.6115C8 21.0544 8.45158 20.6029 9.00862 20.6029H13.2672C13.8243 20.6029 14.2759 21.0544 14.2759 21.6115C14.2759 22.1685 13.8243 22.6201 13.2672 22.6201H9.00862C8.45157 22.6201 8 22.1685 8 21.6115ZM10.8017 27.7754C10.2447 27.7754 9.79311 28.2269 9.79311 28.784C9.79311 29.341 10.2447 29.7926 10.8017 29.7926H17.75C18.3071 29.7926 18.7586 29.341 18.7586 28.784C18.7586 28.2269 18.3071 27.7754 17.75 27.7754H10.8017Z" fill="#FFA02F"/>
</svg>
