<svg width="24" height="24" viewBox="0 0 24 24" fill="none" xmlns="http://www.w3.org/2000/svg">
<rect width="24" height="24" rx="12" fill="black" fill-opacity="0.6"/>
<path d="M8.09735 7.18833C7.84633 6.93722 7.43931 6.93722 7.18828 7.18833C6.93724 7.43935 6.93724 7.84637 7.18828 8.0974L11.0909 12L7.18828 15.9026C6.93726 16.1537 6.93726 16.5607 7.18828 16.8118C7.43933 17.0628 7.84635 17.0628 8.09737 16.8118L12 12.9091L15.9026 16.8117C16.1537 17.0628 16.5607 17.0628 16.8117 16.8117C17.0628 16.5607 17.0628 16.1537 16.8117 15.9026L12.9091 12L16.8117 8.0974C17.0628 7.84637 17.0628 7.43935 16.8117 7.18833C16.5607 6.9373 16.1537 6.9373 15.9026 7.18833L12 11.0909L8.09735 7.18833Z" fill="white"/>
</svg>
