<svg width="100" height="98" viewBox="0 0 100 98" fill="none" xmlns="http://www.w3.org/2000/svg">
<path d="M38.3976 46.2012C38.9249 45.6733 39.7806 45.6719 40.3083 46.1994C40.8358 46.7269 40.8358 47.5826 40.3083 48.1101L37.3095 51.109C34.4983 53.9208 34.4979 58.4804 37.3095 61.292C40.1209 64.103 44.679 64.1026 47.4907 61.292L50.4895 58.2914C51.0166 57.7641 51.8713 57.7644 52.3985 58.2914C52.9256 58.8184 52.9272 59.6732 52.4003 60.2004L49.3997 63.201L49.0306 63.5525C45.1444 67.0626 39.1455 66.9456 35.4005 63.201C31.5345 59.335 31.5349 53.0662 35.4005 49.2L38.3976 46.2012Z" fill="#666666"/>
<path d="M53.5464 42.6451C54.0736 42.1185 54.9284 42.1181 55.4554 42.6451C55.9821 43.1721 55.9819 44.0269 55.4554 44.5541L44.6554 55.3541C44.1282 55.8812 43.2736 55.881 42.7464 55.3541C42.2192 54.8269 42.2192 53.9723 42.7464 53.4451L53.5464 42.6451Z" fill="#666666"/>
<path d="M49.3997 35.199C53.2657 31.333 59.5344 31.3333 63.4007 35.199C67.2669 39.0652 67.2669 45.3338 63.4007 49.2L60.6726 51.9281C60.1454 52.4546 59.2905 52.4551 58.7636 51.9281C58.2366 51.4012 58.237 50.5463 58.7636 50.0191L61.4917 47.291C64.3035 44.4792 64.3035 39.9198 61.4917 37.108C58.6801 34.297 54.1221 34.2972 51.3104 37.108L48.5806 39.8361C48.0533 40.3626 47.1985 40.3631 46.6716 39.8361C46.1447 39.3091 46.1451 38.4544 46.6716 37.9271L49.3997 35.199Z" fill="#666666"/>
</svg>
