<svg width="100" height="98" viewBox="0 0 100 98" fill="none" xmlns="http://www.w3.org/2000/svg">
<path fill-rule="evenodd" clip-rule="evenodd" d="M47.5556 27C47.3512 27 47.1476 27.0031 46.9447 27.0094C46.2597 27.0304 45.5834 27.0867 44.9176 27.1765C44.2525 27.2662 43.5979 27.3893 42.9556 27.5442C42.8613 27.5669 42.7673 27.5903 42.6736 27.6144C42.569 27.6413 42.4648 27.669 42.3608 27.6976C36.0955 29.4197 31.0896 34.1791 29.0241 40.2939C29.0056 40.3488 28.9873 40.4038 28.9692 40.459C28.7947 40.9913 28.6424 41.5337 28.5135 42.085C28.2222 43.3304 28.05 44.6218 28.0093 45.9453L28.0081 45.988C28.0068 46.0327 28.0057 46.0775 28.0047 46.1223L28.0024 46.2461C28.0008 46.3491 28 46.4522 28 46.5556C28 46.6383 28.0005 46.7209 28.0015 46.8034C28.0021 46.8492 28.0028 46.8949 28.0037 46.9406C28.0048 46.9979 28.0062 47.0558 28.0078 47.1129L28.0094 47.1664C28.05 48.4899 28.2222 49.7807 28.5135 51.0261C28.5241 51.0717 28.5349 51.1172 28.5459 51.1626C28.6815 51.724 28.8413 52.2759 29.0241 52.8172C31.1053 58.9785 36.1718 63.7637 42.5041 65.4523C43.2903 65.6619 44.0959 65.8238 44.9176 65.9346C45.5834 66.0244 46.2597 66.0807 46.9447 66.1018C47.1476 66.108 47.3512 66.1111 47.5556 66.1111C47.7453 66.1111 47.9349 66.1084 48.1234 66.103L48.1664 66.1018C48.8913 66.0795 49.6065 66.0178 50.3098 65.9186C51.1412 65.8014 51.9558 65.6319 52.7503 65.4135C53.6424 65.1683 54.509 64.8615 55.3452 64.498C55.0494 63.6068 54.8889 62.6525 54.8889 61.6536V59.4967C54.8889 58.182 55.5488 57.1047 56.4994 56.4498C56.0466 55.7967 55.6768 55.0836 55.4063 54.3226C53.308 54.6849 51.0399 54.9077 48.6609 54.9607V47.6609H54.8889V46.1242C54.8889 45.8972 54.8972 45.6724 54.9135 45.4502H48.6609V38.1504C51.1799 38.2065 53.5746 38.453 55.7749 38.8539C55.9519 39.6733 56.1019 40.5232 56.2222 41.3993C57.2108 39.791 58.6859 38.5055 60.4312 37.7025C59.5285 37.4271 58.5812 37.1802 57.5957 36.9644C57.0104 34.7357 56.2248 32.724 55.2788 31.0206C58.0604 32.4063 60.4177 34.5172 62.1027 37.1057C62.8715 36.9054 63.674 36.7929 64.4957 36.7792C61.9548 32.3858 57.7542 29.073 52.7503 27.6976C52.7025 27.6845 52.6548 27.6716 52.6071 27.6588C52.0854 27.5197 51.5552 27.4016 51.0173 27.3055C50.7446 27.2568 50.47 27.2138 50.1935 27.1765C49.5277 27.0867 48.8514 27.0304 48.1664 27.0094C47.9641 27.0031 47.761 27 47.5572 27H47.5556ZM41.4925 32.6036C42.0914 31.4391 42.7376 30.476 43.4074 29.7097C44.3911 29.4683 45.408 29.3108 46.4502 29.2453V35.9393C44.1793 35.9877 41.9937 36.1845 39.9404 36.509C40.3762 35.067 40.9002 33.7553 41.4925 32.6036ZM48.6609 35.9393V29.2453C49.7031 29.3108 50.72 29.4683 51.7038 29.7097C52.3736 30.476 53.0197 31.4391 53.6186 32.6036C54.2109 33.7553 54.7349 35.067 55.1707 36.509C53.1174 36.1845 50.9318 35.9877 48.6609 35.9393ZM37.5154 36.9644C35.5551 37.3937 33.7458 37.946 32.1379 38.6012C33.8295 35.3293 36.5323 32.6645 39.8323 31.0206C38.8863 32.724 38.1008 34.7357 37.5154 36.9644ZM38.5585 45.4502C38.6241 43.1085 38.897 40.8872 39.3362 38.8539C41.5366 38.453 43.9312 38.2065 46.4502 38.1504V45.4502H38.5585ZM32.2577 40.9534C33.6384 40.3357 35.2265 39.7965 36.9798 39.3597C36.6221 41.278 36.4035 43.3234 36.347 45.4502H30.2453C30.3287 44.1231 30.5613 42.8369 30.9264 41.6079C31.3418 41.3831 31.7859 41.1645 32.2577 40.9534ZM30.9264 51.5032C30.5613 50.2743 30.3287 48.988 30.2453 47.6609H36.347C36.4035 49.7877 36.6221 51.8331 36.9798 53.7514C35.2265 53.3146 33.6384 52.7754 32.2577 52.1577C31.7859 51.9466 31.3418 51.728 30.9264 51.5032ZM39.3362 54.2572C38.897 52.2239 38.6241 50.0027 38.5585 47.6609H46.4502V54.9607C43.9312 54.9046 41.5366 54.6581 39.3362 54.2572ZM39.8323 62.0905C36.5323 60.4466 33.8295 57.7818 32.1379 54.5099C33.7458 55.1651 35.5551 55.7174 37.5154 56.1467C38.1008 58.3754 38.8863 60.3871 39.8323 62.0905ZM41.4925 60.5075C40.9002 59.3558 40.3762 58.0441 39.9404 56.6021C41.9937 56.9266 44.1793 57.1234 46.4502 57.1718V63.8659C45.408 63.8003 44.3911 63.6428 43.4074 63.4014C42.7376 62.6351 42.0914 61.672 41.4925 60.5075ZM48.6609 63.8659V57.1718C50.9318 57.1234 53.1174 56.9266 55.1707 56.6021C54.7349 58.0441 54.2109 59.3558 53.6186 60.5075C53.0197 61.672 52.3735 62.6351 51.7037 63.4014C50.72 63.6428 49.7031 63.8003 48.6609 63.8659Z" fill="#666666"/>
<path d="M72 48.281C72 48.9958 71.3844 49.5752 70.625 49.5752C69.8656 49.5752 69.25 48.9958 69.25 48.281V46.1242C69.25 43.7418 67.198 41.8105 64.6667 41.8105C62.1354 41.8105 60.0833 43.7418 60.0833 46.1242V51.3007C60.0833 53.6831 62.1354 55.6144 64.6667 55.6144C65.1969 55.6144 65.5915 55.5296 65.917 55.3737C66.5448 55.0731 67.4167 55.294 67.4167 55.957V56.5328C67.4167 56.9948 67.1574 57.4259 66.7358 57.6623C66.1153 58.0103 65.6772 58.2026 64.6667 58.2026C60.6166 58.2026 57.3333 55.1125 57.3333 51.3007V46.1242C57.3333 42.3123 60.6166 39.2222 64.6667 39.2222C68.7168 39.2222 72 42.3123 72 46.1242V48.281Z" fill="#666666"/>
<path d="M57.3333 59.4967C57.3333 58.782 57.9489 58.2026 58.7083 58.2026C59.4677 58.2026 60.0833 58.782 60.0833 59.4967V61.6536C60.0833 64.036 62.1354 65.9673 64.6667 65.9673C67.198 65.9673 69.25 64.036 69.25 61.6536V56.4771C69.25 54.0947 67.198 52.1634 64.6667 52.1634C64.1364 52.1634 63.7418 52.2482 63.4163 52.404C62.7885 52.7047 61.9167 52.4838 61.9167 51.8208L61.9167 51.245C61.9167 50.783 62.1759 50.3519 62.5976 50.1155C63.218 49.7675 63.6562 49.5752 64.6667 49.5752C68.7168 49.5752 72 52.6653 72 56.4771V61.6536C72 65.4654 68.7168 68.5556 64.6667 68.5556C60.6166 68.5556 57.3333 65.4654 57.3333 61.6536V59.4967Z" fill="#666666"/>
</svg>
