<svg width="36" height="35" viewBox="0 0 36 35" fill="none" xmlns="http://www.w3.org/2000/svg">
<path fill-rule="evenodd" clip-rule="evenodd" d="M16 0.981445C15.8328 0.981445 15.6662 0.984011 15.5002 0.989106C14.9398 1.00631 14.3864 1.05235 13.8417 1.12582C13.2975 1.19922 12.7619 1.29999 12.2364 1.4267C12.1593 1.4453 12.0824 1.46445 12.0057 1.48415C11.9201 1.50615 11.8348 1.52884 11.7498 1.55221C6.62357 2.96121 2.52782 6.85528 0.83793 11.8582C0.822747 11.9032 0.80776 11.9482 0.792968 11.9934C0.650194 12.4289 0.525606 12.8726 0.420102 13.3237C0.181794 14.3427 0.040887 15.3993 0.00764654 16.4821L0.00661352 16.517C0.00556959 16.5537 0.00464869 16.5903 0.00385125 16.627L0.00196318 16.7283C0.000655962 16.8125 0 16.8969 0 16.9814C0 17.0491 0.000420579 17.1167 0.00125935 17.1842C0.00172477 17.2217 0.0023189 17.2591 0.00304141 17.2965C0.00394655 17.3433 0.0050694 17.3907 0.00637655 17.4374L0.00766054 17.4812C0.0409009 18.5641 0.181795 19.6202 0.420103 20.6391C0.428823 20.6764 0.437675 20.7137 0.446656 20.7509C0.557585 21.2102 0.688328 21.6617 0.83793 22.1046C2.54067 27.1456 6.68601 31.0609 11.867 32.4424C12.5102 32.6139 13.1694 32.7464 13.8417 32.8371C14.3864 32.9105 14.9398 32.9566 15.5002 32.9738C15.6662 32.9789 15.8328 32.9814 16 32.9814C16.1552 32.9814 16.3104 32.9792 16.4646 32.9748L16.4998 32.9738C17.0929 32.9556 17.6781 32.9051 18.2535 32.8239C18.9337 32.728 19.6002 32.5893 20.2502 32.4107C20.9802 32.21 21.6892 31.959 22.3734 31.6616C22.1314 30.9325 22 30.1516 22 29.3344V27.5697C22 26.494 22.5399 25.6125 23.3177 25.0768C22.9472 24.5423 22.6446 23.9589 22.4233 23.3363C20.7066 23.6327 18.8509 23.815 16.9043 23.8584V17.8858H22V16.6285C22 16.4428 22.0068 16.2589 22.0201 16.0771H16.9043V10.1045C18.9654 10.1504 20.9246 10.3521 22.7249 10.6801C22.8697 11.3505 22.9925 12.0459 23.0909 12.7627C23.8997 11.4468 25.1067 10.395 26.5346 9.73806C25.796 9.51273 25.021 9.31074 24.2147 9.13416C23.7357 7.31067 23.093 5.66473 22.3191 4.27105C24.5949 5.40475 26.5235 7.1319 27.9022 9.24974C28.5312 9.08582 29.1878 8.99384 29.8601 8.98261C27.7812 5.38804 24.3444 2.67753 20.2502 1.5522C20.2112 1.54146 20.1721 1.5309 20.133 1.52048C19.7062 1.40667 19.2724 1.31006 18.8324 1.23144C18.6092 1.19157 18.3845 1.15634 18.1583 1.12583C17.6136 1.05236 17.0602 1.00631 16.4998 0.989102C16.3342 0.984022 16.1681 0.98146 16.0014 0.981445H16ZM11.0393 5.56619C11.5293 4.61342 12.058 3.82547 12.606 3.19845C13.4109 3.00095 14.2429 2.87208 15.0957 2.81848V8.29541C13.2376 8.33502 11.4494 8.49603 9.76943 8.76153C10.126 7.58169 10.5547 6.50854 11.0393 5.56619ZM16.9043 8.29541V2.81848C17.7571 2.87208 18.5891 3.00095 19.394 3.19845C19.942 3.82547 20.4707 4.61342 20.9607 5.56619C21.4453 6.50854 21.874 7.58169 22.2306 8.76153C20.5506 8.49603 18.7624 8.33502 16.9043 8.29541ZM7.78531 9.13416C6.18141 9.48542 4.70108 9.93724 3.38557 10.4733C4.76959 7.79633 6.98096 5.61605 9.68094 4.27106C8.90697 5.66473 8.26425 7.31067 7.78531 9.13416ZM8.63873 16.0771C8.69246 14.1611 8.91569 12.3437 9.27509 10.6801C11.0754 10.3521 13.0346 10.1504 15.0957 10.1045V16.0771H8.63873ZM3.48361 12.3978C4.6132 11.8925 5.9126 11.4513 7.34713 11.0939C7.05441 12.6635 6.87558 14.3369 6.82937 16.0771H1.83703C1.90529 14.9912 2.0956 13.9389 2.3943 12.9334C2.73424 12.7494 3.09753 12.5706 3.48361 12.3978ZM2.3943 21.0295C2.0956 20.024 1.90529 18.9716 1.83703 17.8858H6.82937C6.87558 19.6259 7.05441 21.2994 7.34713 22.8689C5.9126 22.5116 4.6132 22.0704 3.48361 21.5651C3.09753 21.3923 2.73424 21.2134 2.3943 21.0295ZM9.27509 23.2828C8.91569 21.6192 8.69247 19.8018 8.63873 17.8858H15.0957V23.8584C13.0346 23.8125 11.0754 23.6108 9.27509 23.2828ZM9.68095 29.6918C6.98096 28.3468 4.76959 26.1666 3.38558 23.4896C4.70108 24.0256 6.18141 24.4775 7.78531 24.8287C8.26426 26.6522 8.90698 28.2982 9.68095 29.6918ZM11.0393 28.3967C10.5547 27.4543 10.126 26.3812 9.76943 25.2014C11.4494 25.4669 13.2376 25.6279 15.0957 25.6675V31.1444C14.2429 31.0908 13.4109 30.9619 12.606 30.7644C12.058 30.1374 11.5293 29.3495 11.0393 28.3967ZM16.9043 31.1444V25.6675C18.7624 25.6279 20.5506 25.4669 22.2306 25.2014C21.874 26.3812 21.4453 27.4543 20.9607 28.3967C20.4707 29.3495 19.942 30.1374 19.394 30.7644C18.5891 30.9619 17.7571 31.0908 16.9043 31.1444Z" fill="#757575" fill-opacity="0.7"/>
<path d="M36 18.3932C36 18.978 35.4963 19.452 34.875 19.452C34.2537 19.452 33.75 18.978 33.75 18.3932V16.6285C33.75 14.6793 32.0711 13.0991 30 13.0991C27.9289 13.0991 26.25 14.6793 26.25 16.6285V20.8638C26.25 22.813 27.9289 24.3932 30 24.3932C30.4338 24.3932 30.7567 24.3239 31.023 24.1963C31.5367 23.9503 32.25 24.1311 32.25 24.6735V25.1447C32.25 25.5226 32.0379 25.8753 31.6929 26.0688C31.1852 26.3535 30.8268 26.5109 30 26.5109C26.6863 26.5109 24 23.9826 24 20.8638V16.6285C24 13.5097 26.6863 10.9814 30 10.9814C33.3137 10.9814 36 13.5097 36 16.6285V18.3932Z" fill="#757575" fill-opacity="0.7"/>
<path d="M24 27.5697C24 26.9849 24.5037 26.5109 25.125 26.5109C25.7463 26.5109 26.25 26.9849 26.25 27.5697V29.3344C26.25 31.2836 27.9289 32.8638 30 32.8638C32.0711 32.8638 33.75 31.2836 33.75 29.3344V25.0991C33.75 23.1499 32.0711 21.5697 30 21.5697C29.5662 21.5697 29.2433 21.639 28.977 21.7666C28.4633 22.0126 27.75 21.8318 27.75 21.2894L27.75 20.8182C27.75 20.4403 27.9621 20.0876 28.3071 19.8941C28.8148 19.6094 29.1732 19.452 30 19.452C33.3137 19.452 36 21.9803 36 25.0991V29.3344C36 32.4532 33.3137 34.9814 30 34.9814C26.6863 34.9814 24 32.4532 24 29.3344V27.5697Z" fill="#757575" fill-opacity="0.7"/>
</svg>
