<svg width="32" height="32" viewBox="0 0 32 32" fill="none" xmlns="http://www.w3.org/2000/svg">
<path d="M10.5 14.5C11.3284 14.5 12 15.1716 12 16C12 16.8284 11.3284 17.5 10.5 17.5C9.67157 17.5 9 16.8284 9 16C9 15.1716 9.67157 14.5 10.5 14.5Z" fill="#AAAAAA"/>
<path d="M16 14.5C16.8284 14.5 17.5 15.1716 17.5 16C17.5 16.8284 16.8284 17.5 16 17.5C15.1716 17.5 14.5 16.8284 14.5 16C14.5 15.1716 15.1716 14.5 16 14.5Z" fill="#AAAAAA"/>
<path d="M21.5 14.5C22.3284 14.5 23 15.1716 23 16C23 16.8284 22.3284 17.5 21.5 17.5C20.6716 17.5 20 16.8284 20 16C20 15.1716 20.6716 14.5 21.5 14.5Z" fill="#AAAAAA"/>
<path fill-rule="evenodd" clip-rule="evenodd" d="M16 4C22.6274 4 28 9.37258 28 16C28 22.6274 22.6274 28 16 28C9.37258 28 4 22.6274 4 16C4 9.37258 9.37258 4 16 4ZM16 5.25C10.0629 5.25 5.25 10.0629 5.25 16C5.25 21.9371 10.0629 26.75 16 26.75C21.9371 26.75 26.75 21.9371 26.75 16C26.75 10.0629 21.9371 5.25 16 5.25Z" fill="#AAAAAA"/>
</svg>
