<svg width="36" height="36" viewBox="0 0 36 36" fill="none" xmlns="http://www.w3.org/2000/svg">
<path d="M13 19.5C13.8284 19.5 14.5 18.8284 14.5 18C14.5 17.1716 13.8284 16.5 13 16.5C12.1716 16.5 11.5 17.1716 11.5 18C11.5 18.8284 12.1716 19.5 13 19.5Z" fill="#AAAAAA"/>
<path d="M24.5 18C24.5 18.8284 23.8284 19.5 23 19.5C22.1716 19.5 21.5 18.8284 21.5 18C21.5 17.1716 22.1716 16.5 23 16.5C23.8284 16.5 24.5 17.1716 24.5 18Z" fill="#AAAAAA"/>
<path d="M18 19.5C18.8284 19.5 19.5 18.8284 19.5 18C19.5 17.1716 18.8284 16.5 18 16.5C17.1716 16.5 16.5 17.1716 16.5 18C16.5 18.8284 17.1716 19.5 18 19.5Z" fill="#AAAAAA"/>
<path fill-rule="evenodd" clip-rule="evenodd" d="M30 18C30 24.6274 24.6274 30 18 30C11.3726 30 6 24.6274 6 18C6 11.3726 11.3726 6 18 6C24.6274 6 30 11.3726 30 18ZM28 18C28 23.5229 23.5228 28 18 28C12.4772 28 8 23.5229 8 18C8 12.4771 12.4772 8 18 8C23.5228 8 28 12.4771 28 18Z" fill="#AAAAAA"/>
</svg>
