<svg width="52" height="52" viewBox="0 0 52 52" fill="none" xmlns="http://www.w3.org/2000/svg">
<g id="Frame 29" clip-path="url(#clip0_3258_695)">
<g id="Group 127">
<path id="Subtract" d="M31.5875 51.3979C29.7876 51.7921 27.9179 51.9998 25.9997 51.9998C20.7347 51.9998 15.8352 50.4349 11.741 47.7448C10.7247 46.2911 10.2687 45.4908 9.9361 44.9071C9.77129 44.6178 9.63676 44.3817 9.47937 44.1456C7.92843 41.6513 7.11697 38.4475 6.94002 34.6831C6.39189 23.0192 13.4805 15.5709 20.722 14.3483C25.3124 13.5734 28.9604 14.3582 31.7583 15.8545C29.2847 15.1664 26.3359 15.125 22.9742 16.0874C14.825 18.714 12.1084 26.701 13.2727 35.5457C15.3048 46.6284 26.1713 50.6006 31.5875 51.3979Z" fill="url(#paint0_linear_3258_695)"/>
<path id="Subtract_2" d="M8.37664 45.1161C6.86083 42.4245 5.48813 38.4084 5.3166 34.7593C4.7347 22.3768 12.3019 14.1217 20.4513 12.7459C31.5599 10.8705 37.7357 17.4468 39.8647 22.328C39.9538 22.2679 39.99 22.1491 39.943 22.0468C36.4425 14.4351 29.2024 9.20801 20.8392 9.20801C11.3429 9.20801 2.86955 16.02 0 26.1439C0.0407538 33.6458 3.25866 40.3956 8.37664 45.1161Z" fill="url(#paint1_linear_3258_695)"/>
<g id="Union">
<path d="M40.625 47.4998C38.7496 48.778 36.6983 49.8172 34.5149 50.5737C33.4665 50.3912 32.305 50.1638 31.4872 50.0037C31.0996 49.9278 30.7891 49.867 30.6047 49.8333C25.6589 48.9299 16.8159 45.743 14.8786 35.2929C14.3313 31.091 14.7233 27.223 16.1115 24.1548C17.4792 21.1322 19.8395 18.815 23.4391 17.6452C27.6229 16.5053 31.0899 17.0703 33.665 18.4534C33.0311 18.3197 32.3759 18.2496 31.7054 18.2496C26.1331 18.2496 21.6159 23.0895 21.6159 29.0598C21.6159 31.4437 22.3361 33.6474 23.5562 35.4347C23.5562 35.4347 27.0487 42.0319 36.5562 41.4423C45.0335 40.9165 49.4358 33.3125 49.9605 30.5038C50.2331 29.0442 50.3757 27.5387 50.3757 26C50.3757 12.5381 39.4627 1.625 26.0007 1.625C15.814 1.625 7.08685 7.87379 3.44322 16.7473C2.2125 18.3506 1.15276 20.128 0.298828 22.05C2.20171 9.56519 12.9842 0 26.0007 0C40.3601 0 52.0007 11.6406 52.0007 26C52.0007 34.9368 47.4919 42.8199 40.625 47.4998Z" fill="url(#paint2_linear_3258_695)"/>
<path d="M40.625 47.4998C38.7496 48.778 36.6983 49.8172 34.5149 50.5737C33.4665 50.3912 32.305 50.1638 31.4872 50.0037C31.0996 49.9278 30.7891 49.867 30.6047 49.8333C25.6589 48.9299 16.8159 45.743 14.8786 35.2929C14.3313 31.091 14.7233 27.223 16.1115 24.1548C17.4792 21.1322 19.8395 18.815 23.4391 17.6452C27.6229 16.5053 31.0899 17.0703 33.665 18.4534C33.0311 18.3197 32.3759 18.2496 31.7054 18.2496C26.1331 18.2496 21.6159 23.0895 21.6159 29.0598C21.6159 31.4437 22.3361 33.6474 23.5562 35.4347C23.5562 35.4347 27.0487 42.0319 36.5562 41.4423C45.0335 40.9165 49.4358 33.3125 49.9605 30.5038C50.2331 29.0442 50.3757 27.5387 50.3757 26C50.3757 12.5381 39.4627 1.625 26.0007 1.625C15.814 1.625 7.08685 7.87379 3.44322 16.7473C2.2125 18.3506 1.15276 20.128 0.298828 22.05C2.20171 9.56519 12.9842 0 26.0007 0C40.3601 0 52.0007 11.6406 52.0007 26C52.0007 34.9368 47.4919 42.8199 40.625 47.4998Z" fill="url(#paint3_linear_3258_695)"/>
</g>
</g>
</g>
<defs>
<linearGradient id="paint0_linear_3258_695" x1="16.2372" y1="21.5401" x2="16.1976" y2="44.6478" gradientUnits="userSpaceOnUse">
<stop offset="0.0297309" stop-color="#2394EF"/>
<stop offset="1" stop-color="#3861E4"/>
</linearGradient>
<linearGradient id="paint1_linear_3258_695" x1="12.6974" y1="10.5658" x2="11.4099" y2="33.68" gradientUnits="userSpaceOnUse">
<stop stop-color="#02E1FF"/>
<stop offset="1" stop-color="#2394EF"/>
</linearGradient>
<linearGradient id="paint2_linear_3258_695" x1="23.4589" y1="52.405" x2="23.5492" y2="18.5066" gradientUnits="userSpaceOnUse">
<stop stop-color="#5A10D2"/>
<stop offset="1" stop-color="#3861E4"/>
</linearGradient>
<linearGradient id="paint3_linear_3258_695" x1="30.8755" y1="51.4583" x2="30.9469" y2="24.646" gradientUnits="userSpaceOnUse">
<stop stop-color="#5B12A4"/>
<stop offset="1" stop-color="#3861E4"/>
</linearGradient>
<clipPath id="clip0_3258_695">
<rect width="52" height="52" fill="white"/>
</clipPath>
</defs>
</svg>
