<svg width="20" height="20" viewBox="0 0 20 20" fill="none" xmlns="http://www.w3.org/2000/svg">
<path d="M10.8333 0.866197C10.8333 0.38781 10.4603 0 10 0C9.53978 0 9.16668 0.38781 9.16668 0.866197V10.9758L5.70901 8.0043C5.35957 7.69297 4.83349 7.73504 4.53397 8.09826C4.23445 8.46147 4.27492 9.00831 4.62436 9.31964L9.44566 13.5061C9.76163 13.7876 10.2384 13.7876 10.5544 13.5061L15.3757 9.31964C15.7251 9.00831 15.7656 8.46147 15.4661 8.09826C15.1665 7.73504 14.6405 7.69297 14.291 8.0043L10.8333 10.9758V0.866197Z" fill="white"/>
<path d="M0.833333 11C0.373096 11 0 11.3731 0 11.8333V18.3333C0 19.2538 0.746192 20 1.66667 20H18.3333C19.2538 20 20 19.2538 20 18.3333V11.8333C20 11.3731 19.6269 11 19.1667 11C18.7064 11 18.3333 11.3731 18.3333 11.8333V17.5C18.3333 17.9602 17.9602 18.3333 17.5 18.3333H2.5C2.03976 18.3333 1.66667 17.9602 1.66667 17.5V11.8333C1.66667 11.3731 1.29357 11 0.833333 11Z" fill="white"/>
</svg>
