<svg width="20" height="20" viewBox="0 0 20 20" fill="none" xmlns="http://www.w3.org/2000/svg">
<path fill-rule="evenodd" clip-rule="evenodd" d="M3.75 3.19903C3.75 1.97735 4.68971 1 5.83333 1H14.1667C15.3103 1 16.25 1.97735 16.25 3.19903V18.3949C16.25 18.8987 15.7223 19.1628 15.357 18.8916L10.2213 15.0784C10.0891 14.9803 9.91087 14.9803 9.77868 15.0784L4.64297 18.8916C4.2777 19.1628 3.75 18.8987 3.75 18.3949V3.19903ZM5.83333 2.21068C5.30337 2.21068 4.88636 2.66036 4.88636 3.19903V17.2353L9.12911 14.0852C9.65172 13.6971 10.3483 13.6971 10.8709 14.0852L15.1136 17.2353V3.19903C15.1136 2.66036 14.6966 2.21068 14.1667 2.21068H5.83333Z" fill="#AAAAAA"/>
</svg>
