<svg width="20" height="20" viewBox="0 0 20 20" fill="none" xmlns="http://www.w3.org/2000/svg">
<g id="Copy note link" clip-path="url(#clip0_2609_751)">
<rect id="Rectangle 492" x="0.75" y="0.75" width="13.5" height="13.5" rx="1.25" stroke="white" stroke-width="1.5"/>
<rect id="Rectangle 494" x="3" y="3" width="16" height="13" fill="#282828"/>
<g id="Link">
<path d="M8.18043 11.8084C7.8611 11.4891 7.35858 11.4739 7.05803 11.7744L6.15103 12.6814C4.54809 14.2843 4.6293 16.9644 6.33243 18.6676C8.03556 20.3707 10.7157 20.4519 12.3186 18.849L14.4954 16.6722C16.0983 15.0692 16.0171 12.3891 14.314 10.686C13.8891 10.2611 13.6239 10.1577 13.2167 10.0431C12.94 9.96524 12.6497 10.0375 12.4554 10.2318L12.2133 10.4739C11.9345 10.7527 12.2082 11.2122 12.5986 11.3498C12.8011 11.4211 13.0026 11.5514 13.2256 11.7744C14.2901 12.8389 14.3408 14.5139 13.339 15.5158L11.1622 17.6925C10.1603 18.6944 8.48528 18.6436 7.42083 17.5792C6.35637 16.5147 6.30561 14.8397 7.30745 13.8378L8.21445 12.9308C8.515 12.6303 8.49977 12.1278 8.18043 11.8084Z" fill="white"/>
<path d="M16.8196 13.1916C17.1389 13.5109 17.6414 13.5261 17.942 13.2256L18.849 12.3186C20.4519 10.7157 20.3707 8.03556 18.6676 6.33243C16.9644 4.6293 14.2843 4.54809 12.6814 6.15103L10.5046 8.32782C8.90167 9.93076 8.98288 12.6109 10.686 14.314C11.1109 14.7389 11.3761 14.8423 11.7833 14.9569C12.06 15.0348 12.3503 14.9625 12.5446 14.7682L12.7867 14.5261C13.0655 14.2473 12.7918 13.7878 12.4014 13.6502C12.1989 13.5789 11.9974 13.4486 11.7744 13.2256C10.7099 12.1611 10.6592 10.4861 11.661 9.48424L13.8378 7.30745C14.8397 6.30561 16.5147 6.35637 17.5792 7.42083C18.6436 8.48528 18.6944 10.1603 17.6925 11.1622L16.7856 12.0692C16.485 12.3697 16.5002 12.8722 16.8196 13.1916Z" fill="white"/>
</g>
</g>
<defs>
<clipPath id="clip0_2609_751">
<rect width="20" height="20" fill="white"/>
</clipPath>
</defs>
</svg>
