<svg width="20" height="20" viewBox="0 0 20 20" fill="none" xmlns="http://www.w3.org/2000/svg">
<g clip-path="url(#clip0_6375_8633)">
<path d="M3.5541 8.445C3.84708 8.15175 4.32245 8.15098 4.61562 8.44402C4.90868 8.73708 4.90866 9.21248 4.61562 9.50555L2.9496 11.1716C1.38786 12.7337 1.38763 15.2668 2.9496 16.8288C4.51153 18.3905 7.04378 18.3903 8.60585 16.8288L10.2719 15.1618C10.5647 14.8689 11.0395 14.869 11.3324 15.1618C11.6252 15.4546 11.6261 15.9295 11.3334 16.2223L9.6664 17.8893L9.46132 18.0846C7.30234 20.0347 3.96963 19.9697 1.88906 17.8893C-0.258707 15.7416 -0.258477 12.2589 1.88906 10.111L3.5541 8.445Z" fill="white"/>
<path d="M11.9701 6.46941C12.263 6.17687 12.7379 6.17664 13.0307 6.46941C13.3233 6.7622 13.3232 7.23709 13.0307 7.52996L7.03066 13.53C6.73781 13.8228 6.26302 13.8227 5.97011 13.53C5.67722 13.2371 5.67722 12.7623 5.97011 12.4694L11.9701 6.46941Z" fill="white"/>
<path d="M9.6664 2.3327C11.8142 0.184906 15.2968 0.185094 17.4447 2.3327C19.5926 4.48058 19.5926 7.96313 17.4447 10.111L15.9291 11.6266C15.6362 11.9192 15.1613 11.9194 14.8685 11.6266C14.5758 11.3339 14.576 10.859 14.8685 10.5661L16.3842 9.05047C17.9463 7.48837 17.9463 4.95534 16.3842 3.39324C14.8222 1.83157 12.29 1.83167 10.7279 3.39324L9.21132 4.90887C8.91838 5.20136 8.44353 5.20162 8.15078 4.90887C7.85808 4.6161 7.85831 4.14123 8.15078 3.84832L9.6664 2.3327Z" fill="white"/>
</g>
<defs>
<clipPath id="clip0_6375_8633">
<rect width="20" height="20" fill="white"/>
</clipPath>
</defs>
</svg>
