<svg width="44" height="44" viewBox="0 0 44 44" fill="none" xmlns="http://www.w3.org/2000/svg">
<g id="Union">
<path d="M12.8597 24.2281L18.4094 30.0416C18.5177 30.1551 18.6989 30.1551 18.8073 30.0416L31.1409 17.1217C31.7202 16.5148 31.722 15.5603 31.1449 14.9512C30.5257 14.2976 29.4856 14.2953 28.8634 14.9461L18.8069 25.4655C18.6987 25.5787 18.5179 25.5788 18.4095 25.4657L15.1372 22.0501C14.5145 21.4 13.4747 21.4029 12.8556 22.0564C12.2782 22.6658 12.2801 23.6209 12.8597 24.2281Z" fill="white" fill-opacity="0.8"/>
<path fill-rule="evenodd" clip-rule="evenodd" d="M44 22C44 34.1503 34.1503 44 22 44C9.84974 44 0 34.1503 0 22C0 9.84974 9.84974 0 22 0C34.1503 0 44 9.84974 44 22ZM41.25 22C41.25 32.6315 32.6315 41.25 22 41.25C11.3685 41.25 2.75 32.6315 2.75 22C2.75 11.3685 11.3685 2.75 22 2.75C32.6315 2.75 41.25 11.3685 41.25 22Z" fill="white" fill-opacity="0.8"/>
</g>
</svg>
