<svg width="18" height="18" viewBox="0 0 18 18" fill="none" xmlns="http://www.w3.org/2000/svg">
<g id="NEW - Delete">
<g id="Delete">
<path d="M6.7522 1.5C6.7522 0.671573 7.42377 0 8.2522 0H9.7522C10.5806 0 11.2522 0.671573 11.2522 1.5H16.0522C16.7149 1.5 17.2522 2.03726 17.2522 2.7C17.2522 2.86569 17.1179 3 16.9522 3H1.0522C0.886512 3 0.752197 2.86569 0.752197 2.7C0.752197 2.03726 1.28946 1.5 1.9522 1.5H6.7522Z" fill="#FE3D2F"/>
<path d="M6.3772 6C6.3772 5.58579 6.71298 5.25 7.1272 5.25C7.54141 5.25 7.8772 5.58579 7.8772 6V13.5C7.8772 13.9142 7.54141 14.25 7.1272 14.25C6.71298 14.25 6.3772 13.9142 6.3772 13.5V6Z" fill="#FE3D2F"/>
<path d="M10.8772 5.25C10.463 5.25 10.1272 5.58579 10.1272 6V13.5C10.1272 13.9142 10.463 14.25 10.8772 14.25C11.2914 14.25 11.6272 13.9142 11.6272 13.5V6C11.6272 5.58579 11.2914 5.25 10.8772 5.25Z" fill="#FE3D2F"/>
<path d="M3.0022 4.5C2.58798 4.5 2.2522 4.83579 2.2522 5.25V16.5C2.2522 17.3284 2.92377 18 3.7522 18H14.2522C15.0806 18 15.7522 17.3284 15.7522 16.5V5.25C15.7522 4.83579 15.4164 4.5 15.0022 4.5C14.588 4.5 14.2522 4.83579 14.2522 5.25V15.75C14.2522 16.1642 13.9164 16.5 13.5022 16.5H4.5022C4.08798 16.5 3.7522 16.1642 3.7522 15.75V5.25C3.7522 4.83579 3.41641 4.5 3.0022 4.5Z" fill="#FE3D2F"/>
</g>
</g>
</svg>
