<svg width="8" height="12" viewBox="0 0 8 12" fill="none" xmlns="http://www.w3.org/2000/svg">
<path fill-rule="evenodd" clip-rule="evenodd" d="M5.65178 5.45065C7.05539 4.98828 8.02283 3.96659 7.99959 2.79533C7.9683 1.2179 6.1521 -0.0332429 3.94334 0.000673584C1.73458 0.03459 -0.0308829 1.34073 0.000409643 2.91816C0.0236448 4.08942 1.03101 5.08079 2.45211 5.49978L2.56163 11.0205C2.56484 11.1826 2.62968 11.3391 2.74585 11.4639L3.12352 11.8707C3.26684 12.0247 3.52353 12.044 3.69323 11.9132L5.56693 10.4694C5.61003 10.4363 5.63297 10.3911 5.63596 10.345C5.63955 10.2897 5.6146 10.2332 5.56149 10.195L4.53098 9.45527L5.53152 8.68434C5.58 8.64698 5.60318 8.59431 5.60059 8.54239C5.59844 8.4929 5.57364 8.44411 5.52607 8.40996L4.49557 7.67022L5.60693 6.8139C5.65196 6.7792 5.67713 6.7286 5.67608 6.6756L5.65178 5.45065ZM5.18571 2.1243C5.19745 2.71577 4.6699 3.20358 4.00708 3.21375C3.34426 3.22393 2.79769 2.75262 2.78596 2.16115C2.77422 1.56968 3.30177 1.08188 3.96459 1.0717C4.62741 1.06152 5.17398 1.53283 5.18571 2.1243Z" fill="#808080"/>
</svg>
