<svg width="25" height="24" viewBox="0 0 25 24" fill="none" xmlns="http://www.w3.org/2000/svg">
<path fill-rule="evenodd" clip-rule="evenodd" d="M0.00292969 4C0.00292969 2.89543 0.89836 2 2.00293 2H22.0029C23.1075 2 24.0029 2.89543 24.0029 4V20C24.0029 21.1046 23.1075 22 22.0029 22H2.00293C0.89836 22 0.00292969 21.1046 0.00292969 20V4ZM2.54295 4.44324C2.36149 4.2943 2.46681 4 2.70156 4H21.3043C21.5391 4 21.6444 4.2943 21.4629 4.44324L13.2718 11.1664C12.5342 11.7719 11.4716 11.7719 10.734 11.1664L2.54295 4.44324ZM2.81955 7.27839C2.49308 7.01128 2.00293 7.24355 2.00293 7.66536V19C2.00293 19.5523 2.45064 20 3.00293 20H21.0029C21.5552 20 22.0029 19.5523 22.0029 19V7.66536C22.0029 7.24355 21.5128 7.01128 21.1863 7.27839L13.2694 13.7559C12.5327 14.3586 11.4732 14.3586 10.7365 13.7559L2.81955 7.27839Z" fill="#AAAAAA"/>
</svg>
