<svg width="21" height="20" viewBox="0 0 21 20" fill="none" xmlns="http://www.w3.org/2000/svg">
<path fill-rule="evenodd" clip-rule="evenodd" d="M0.666687 5.00332C0.666687 3.16237 2.15907 1.66998 4.00002 1.66998H17.3334C19.1743 1.66998 20.6667 3.16237 20.6667 5.00332V15.0033C20.6667 16.8443 19.1743 18.3366 17.3334 18.3366H4.00002C2.15907 18.3366 0.666687 16.8443 0.666687 15.0033V5.00332ZM4.00002 3.33665H17.3334C17.8848 3.33665 18.3738 3.60451 18.6771 4.01722C18.9155 4.34153 18.7435 4.77049 18.4187 5.00822L11.1589 10.322C10.8658 10.5365 10.4676 10.5365 10.1745 10.322L2.91464 5.00821C2.58986 4.77049 2.41785 4.34152 2.65623 4.01722C2.9596 3.60451 3.44853 3.33665 4.00002 3.33665ZM2.72984 6.91906C2.56452 6.79953 2.33335 6.91765 2.33335 7.12165V15.0033C2.33335 15.9238 3.07955 16.67 4.00002 16.67H17.3334C18.2538 16.67 19 15.9238 19 15.0033V7.12166C19 6.91765 18.7689 6.79953 18.6035 6.91906L11.6432 11.9517C11.0604 12.3731 10.273 12.3731 9.69014 11.9517L2.72984 6.91906Z" fill="#AAAAAA"/>
</svg>
