<svg width="18" height="20" viewBox="0 0 18 20" fill="none" xmlns="http://www.w3.org/2000/svg">
<path fill-rule="evenodd" clip-rule="evenodd" d="M17.8889 3.33333C17.8889 5.17428 16.3965 6.66667 14.5556 6.66667C13.6446 6.66667 12.819 6.30124 12.2173 5.70897L6.64173 9.05431C6.73026 9.35411 6.77778 9.6715 6.77778 10C6.77778 10.329 6.73011 10.6469 6.6413 10.9471L12.2162 14.2921C12.818 13.6992 13.644 13.3333 14.5556 13.3333C16.3965 13.3333 17.8889 14.8257 17.8889 16.6667C17.8889 18.5076 16.3965 20 14.5556 20C12.7146 20 11.2222 18.5076 11.2222 16.6667C11.2222 16.3382 11.2697 16.0208 11.3583 15.721L5.78272 12.3756C5.18104 12.9679 4.35542 13.3333 3.44445 13.3333C1.6035 13.3333 0.111115 11.841 0.111115 10C0.111115 8.15905 1.6035 6.66667 3.44445 6.66667C4.35596 6.66667 5.18202 7.03253 5.78378 7.62542L11.3587 4.28047C11.2699 3.98024 11.2222 3.66236 11.2222 3.33333C11.2222 1.49238 12.7146 0 14.5556 0C16.3965 0 17.8889 1.49238 17.8889 3.33333ZM16.2222 3.33333C16.2222 4.25381 15.476 5 14.5556 5C13.6351 5 12.8889 4.25381 12.8889 3.33333C12.8889 2.41286 13.6351 1.66667 14.5556 1.66667C15.476 1.66667 16.2222 2.41286 16.2222 3.33333ZM16.2222 16.6667C16.2222 17.5871 15.476 18.3333 14.5556 18.3333C13.6351 18.3333 12.8889 17.5871 12.8889 16.6667C12.8889 15.7462 13.6351 15 14.5556 15C15.476 15 16.2222 15.7462 16.2222 16.6667ZM3.44445 11.6667C4.36492 11.6667 5.11111 10.9205 5.11111 10C5.11111 9.07953 4.36492 8.33333 3.44445 8.33333C2.52397 8.33333 1.77778 9.07953 1.77778 10C1.77778 10.9205 2.52397 11.6667 3.44445 11.6667Z" fill="white"/>
</svg>
