<svg width="32" height="32" viewBox="0 0 32 32" fill="none" xmlns="http://www.w3.org/2000/svg">
<path fill-rule="evenodd" clip-rule="evenodd" d="M6 5C4.89543 5 4 5.89543 4 7V23C4 24.1046 4.89543 25 6 25H20.1678C20.0572 24.6872 19.9971 24.3506 19.9971 24C19.9971 23.6494 20.0572 23.3128 20.1678 23H7C6.44772 23 6 22.5523 6 22V10.6654C6 10.2436 6.49015 10.0113 6.81662 10.2784L14.7335 16.7559C15.4703 17.3586 16.5297 17.3586 17.2665 16.7559L25.1834 10.2784C25.5098 10.0113 26 10.2435 26 10.6654V17.1697C26.312 17.0598 26.6475 17 26.9971 17C27.3488 17 27.6864 17.0605 28 17.1717V7C28 5.89543 27.1046 5 26 5H6ZM6.69863 7C6.46388 7 6.35856 7.2943 6.54002 7.44324L14.7311 14.1664C15.4687 14.7719 16.5313 14.7719 17.2689 14.1664L25.46 7.44324C25.6414 7.2943 25.5361 7 25.3014 7H6.69863Z" fill="white"/>
<path d="M21.9971 24C21.9971 23.4477 22.4448 23 22.9971 23H25.9971V20C25.9971 19.4477 26.4448 19 26.9971 19C27.5494 19 27.9971 19.4477 27.9971 20V23H30.9971C31.5494 23 31.9971 23.4477 31.9971 24C31.9971 24.5523 31.5494 25 30.9971 25H27.9971V28C27.9971 28.5523 27.5494 29 26.9971 29C26.4448 29 25.9971 28.5523 25.9971 28V25H22.9971C22.4448 25 21.9971 24.5523 21.9971 24Z" fill="white"/>
</svg>
