<svg width="28" height="24" viewBox="0 0 28 24" fill="none" xmlns="http://www.w3.org/2000/svg">
<path fill-rule="evenodd" clip-rule="evenodd" d="M2 0C0.89543 0 0 0.895431 0 2V18C0 19.1046 0.895431 20 2 20H16.1678C16.0572 19.6872 15.9971 19.3506 15.9971 19C15.9971 18.6494 16.0572 18.3128 16.1678 18H3C2.44772 18 2 17.5523 2 17V5.66536C2 5.24355 2.49015 5.01128 2.81662 5.27839L10.7335 11.7559C11.4703 12.3586 12.5297 12.3586 13.2665 11.7559L21.1834 5.27839C21.5098 5.01128 22 5.24355 22 5.66536V12.1697C22.312 12.0598 22.6475 12 22.9971 12C23.3488 12 23.6864 12.0605 24 12.1717V2C24 0.895431 23.1046 0 22 0H2ZM2.69863 2C2.46388 2 2.35856 2.2943 2.54002 2.44324L10.7311 9.16644C11.4687 9.77186 12.5313 9.77186 13.2689 9.16644L21.46 2.44324C21.6414 2.2943 21.5361 2 21.3014 2H2.69863Z" fill="white"/>
<path d="M17.9971 19C17.9971 18.4477 18.4448 18 18.9971 18H21.9971V15C21.9971 14.4477 22.4448 14 22.9971 14C23.5494 14 23.9971 14.4477 23.9971 15V18H26.9971C27.5494 18 27.9971 18.4477 27.9971 19C27.9971 19.5523 27.5494 20 26.9971 20H23.9971V23C23.9971 23.5523 23.5494 24 22.9971 24C22.4448 24 21.9971 23.5523 21.9971 23V20H18.9971C18.4448 20 17.9971 19.5523 17.9971 19Z" fill="white"/>
</svg>
