<svg width="59" height="68" viewBox="0 0 59 68" fill="none" xmlns="http://www.w3.org/2000/svg">
<path d="M45.6211 21.6028C45.9404 21.7389 46.2545 21.83 46.5233 21.83C46.7441 21.83 46.9345 21.7701 47.1575 21.6999C47.4729 21.6007 47.8536 21.4809 48.4782 21.4809C49.1682 21.4809 49.5233 21.5231 49.8889 21.5665C50.2767 21.6125 50.6762 21.66 51.4995 21.66C55.4093 20.7649 55.587 17.3638 55.587 17.3638C55.587 14.2713 54.6994 13.4656 53.674 12.5347C53.4854 12.3635 53.2922 12.1881 53.099 11.9935C50.6109 10.2035 49.0114 8.59238 48.4782 6.62329C47.6244 3.46985 48.4782 2.1481 48.8337 1.61107C48.8844 1.53435 48.9352 1.44668 48.9896 1.35274C49.316 0.789096 49.773 0 51.144 0C52.1981 0 53.0978 0.699678 53.8432 1.27931C54.2288 1.57923 54.5732 1.84701 54.8762 1.96909C55.2309 2.112 55.9254 2.28344 56.6433 2.46063C57.7237 2.72732 58.857 3.00704 58.9637 3.22214C59.0695 3.32863 58.9236 3.49846 58.7881 3.65628C58.6958 3.76375 58.6083 3.86565 58.6083 3.93817C58.6083 4.01232 58.6693 4.11718 58.7407 4.24003C58.8418 4.41377 58.9637 4.62349 58.9637 4.83321C58.9637 5.07053 57.2457 4.99323 56.0356 4.93877C55.4202 4.91108 54.9361 4.8893 54.8762 4.91782C54.8376 4.93616 54.699 4.95098 54.5017 4.97206C53.7888 5.04825 52.311 5.2062 52.0326 5.90726C51.8549 6.8023 52.3881 7.33932 52.5658 7.51833C52.5999 7.55272 52.7259 7.64658 52.9198 7.79102C53.735 8.39839 55.7508 9.90012 57.1865 11.6355C58.8168 13.6061 58.802 15.426 58.7885 17.0953C58.7872 17.2457 58.786 17.3948 58.786 17.5428C58.786 19.3329 57.7197 21.3019 56.6534 22.913C55.587 24.5241 53.8098 26.4932 51.4995 27.5672C49.5445 28.4623 49.7223 29.3573 49.7223 29.3573V31.6844L49.715 31.6872C49.534 36.1664 45.9459 39.7398 37.6373 39.7398C37.5777 39.7398 37.5182 39.7394 37.459 39.7387L37.4595 39.7398L37.3844 39.7377C37.2713 39.7359 37.1589 39.7328 37.0473 39.7285L36.2947 39.708C35.9702 39.8157 35.6744 39.9918 35.5046 40.2768C34.9714 41.1718 33.7274 41.8879 33.7274 41.8879C33.7274 41.8879 33.1942 42.0669 32.8388 42.4249C32.4834 42.7829 31.5948 44.215 31.7725 44.394C31.9502 44.573 38.1704 42.4249 38.1704 42.4249C38.1704 42.4249 42.6134 40.8138 44.0352 40.8138C44.0846 40.8138 44.1387 40.8123 44.1965 40.8106C44.7631 40.7945 45.7007 40.7677 46.3456 42.0669C46.8787 42.9619 48.4782 45.289 48.4782 45.289C48.4782 45.289 49.5445 46.7211 49.0114 47.2581C48.6559 47.4371 47.4119 46.9001 46.8787 46.3631C46.701 46.184 46.5233 45.9454 46.3456 45.7067C45.9901 45.2293 45.6347 44.752 45.2792 44.752C45.1183 44.833 45.176 45.171 45.2378 45.5332C45.3125 45.971 45.3933 46.4441 45.1015 46.5421C45.0837 46.5421 45.0642 46.5438 45.0427 46.5458C44.8491 46.5635 44.4973 46.5958 43.8575 45.468C43.6797 45.11 43.6798 44.7967 43.6798 44.5506C43.6798 44.3045 43.6798 44.1255 43.502 44.0359C42.9689 43.7674 40.3031 44.573 40.3031 44.573C40.3031 44.573 32.4834 47.0791 32.1279 47.2581C32.0703 47.2871 31.9777 47.3509 31.858 47.4334C31.239 47.86 29.8958 48.7857 28.9289 47.9741C27.9159 47.1238 28.1861 45.7887 28.368 44.89C28.3776 44.8428 28.3869 44.7966 28.3958 44.752C28.5735 43.8569 29.8176 41.5298 29.8176 41.5298V40.8798L26.6186 42.0669C26.6186 42.0669 21.1093 46.184 20.9315 46.5421C20.8773 46.6513 20.8231 46.8106 20.7587 46.9995C20.6122 47.4297 20.4134 48.0136 20.0429 48.5111C19.5098 49.2272 17.9103 49.5852 17.9103 49.5852L10.2683 59.7886C10.2683 59.7886 9.02427 61.9367 8.66881 62.4738C8.31336 63.0108 6.8916 64.2638 6.8916 64.2638C6.8916 64.2638 5.64755 65.6959 4.93668 67.307C4.93668 67.307 4.22579 68.739 3.87036 67.486C3.5149 65.6959 4.2258 64.0848 4.58124 63.3688C4.73543 63.0582 4.95651 62.8149 5.14292 62.6098C5.38622 62.3422 5.57046 62.1394 5.46983 61.9367C5.30425 61.77 5.06153 61.914 4.81354 62.0611C4.5292 62.2298 4.23794 62.4026 4.04808 62.1157C4.00487 62.0505 3.69264 61.2207 4.93668 60.0263C4.93668 60.0263 5.46984 59.2516 7.42477 58.8936C8.49109 58.5356 9.02425 57.4615 9.02425 57.4615C9.02425 57.4615 15.4222 48.5111 15.5999 48.1531C15.6571 48.0379 15.6775 47.8115 15.7025 47.5336C15.7553 46.9477 15.8286 46.1327 16.3108 45.647C16.9587 44.9945 17.701 44.8177 18.1934 44.7004C18.3764 44.6568 18.5249 44.6215 18.6212 44.573C18.9766 44.394 23.0642 40.6348 23.0642 40.6348L24.3082 39.0237L24.1517 38.4719C23.0914 38.2798 22.1716 38.095 21.6424 37.9497C19.6887 37.413 16.6698 36.5187 14.36 34.7308C13.6475 34.6809 12.6073 34.7192 11.3346 35.0855C11.3346 35.0855 9.02425 35.4436 6.89161 37.0545C6.88999 37.0558 6.88673 37.0587 6.88198 37.0629C6.79241 37.1431 6.17177 37.6986 6.003 36.3386C6.003 36.2775 5.99782 36.2111 5.99188 36.1351C5.96303 35.7659 5.91635 35.1684 6.35845 33.8324C6.35845 33.6533 6.24078 33.2346 4.75896 34.7274C4.60112 34.8865 4.4513 35.0769 4.30238 35.2661C3.94828 35.7162 3.59926 36.1597 3.15948 36.1595C2.98176 36.1594 2.44859 35.9807 2.44859 34.7275C2.44859 34.0329 2.72161 33.3384 2.93472 32.7962C3.10607 32.3603 3.23869 32.0229 3.15948 31.8633C3.07437 31.6918 2.45949 31.9719 1.80269 32.2711C1.0879 32.5967 0.323461 32.945 0.138226 32.7584C-0.0394902 32.5793 -0.39494 31.5054 1.73771 28.4623C2.27087 27.7461 4.04808 25.598 6.89161 25.24C9.35729 24.9296 9.81856 25.2921 10.2452 25.6273C10.3106 25.6787 10.3752 25.7295 10.446 25.777C10.6642 25.9236 11.0015 25.9502 11.3239 25.9305C11.2494 25.7504 10.8165 24.6728 10.9792 24.3451C11.0831 24.1358 11.5511 24.1712 12.4189 24.2367C13.0359 24.2833 13.8551 24.3451 14.889 24.3451C17.3771 24.3451 19.6875 23.271 19.6875 23.271L26.7954 19.8618C29.0352 18.6377 31.9218 17.9008 35.0722 17.9008C39.5189 17.9008 43.3615 19.369 45.6211 21.6028Z" fill="#CA077C"/>
</svg>
