<svg width="100" height="100" viewBox="0 0 100 100" fill="none" xmlns="http://www.w3.org/2000/svg">
<path id="Subtract" fill-rule="evenodd" clip-rule="evenodd" d="M50 100C77.6142 100 100 77.6142 100 50C100 22.3858 77.6142 0 50 0C22.3858 0 0 22.3858 0 50C0 77.6142 22.3858 100 50 100ZM69.583 42.2438C70.5982 42.2438 71.1887 43.3499 70.5986 44.1461L46.405 80.233C44.858 82.3205 41.4483 80.9369 41.9163 78.4115L44.9627 57.8014H30.4171C29.3851 57.8014 28.7989 56.6628 29.4231 55.8707L53.4323 21.7942C55.0318 19.7643 58.3787 21.211 57.8696 23.7123L54.9475 42.2438H69.583Z" fill="white"/>
</svg>
