<svg width="26" height="26" viewBox="0 0 26 26" fill="none" xmlns="http://www.w3.org/2000/svg">
<g id="Frame 888">
<g id="Union">
<path fill-rule="evenodd" clip-rule="evenodd" d="M16.2005 3.07831C18.171 1.7263 20.8473 1.956 22.5481 3.62309C24.2489 5.29019 24.4832 7.91352 23.1039 9.84497L14.6083 21.7412C13.1254 23.8176 10.0892 24.0782 8.26067 22.2859L3.50812 17.6275C1.67962 15.8352 1.94547 12.8592 4.06391 11.4056L16.2005 3.07831ZM13.726 17.0743C12.3726 18.4009 10.1783 18.4009 8.82495 17.0743C7.47155 15.7477 7.47155 13.5969 8.82495 12.2703C10.1783 10.9437 12.3726 10.9437 13.726 12.2703C15.0794 13.5969 15.0794 15.7477 13.726 17.0743Z" fill="white"/>
<path d="M6.8643 22.8391L2.94343 18.9959L0.408798 21.4804C-0.464481 22.3363 0.154008 23.7999 1.38901 23.7999L5.30989 23.7999C5.67754 23.7999 6.03014 23.6568 6.29011 23.402L6.8643 22.8391Z" fill="white"/>
</g>
<rect id="Rectangle 648" x="0.139535" y="3.40002" width="3.9" height="31.5" rx="1.95" transform="rotate(-45 0.139535 3.40002)" fill="white" stroke="#282828" stroke-width="1.5"/>
</g>
</svg>
