<svg width="24" height="24" viewBox="0 0 24 24" fill="none" xmlns="http://www.w3.org/2000/svg">
<path fill-rule="evenodd" clip-rule="evenodd" d="M16.2005 2.07831C18.171 0.726302 20.8473 0.955999 22.5481 2.62309C24.2489 4.29019 24.4832 6.91352 23.1039 8.84497L14.6083 20.7412C13.1254 22.8176 10.0892 23.0782 8.26067 21.2859L3.50812 16.6275C1.67962 14.8352 1.94547 11.8592 4.06391 10.4056L16.2005 2.07831ZM13.726 16.0743C12.3726 17.4009 10.1783 17.4009 8.82495 16.0743C7.47155 14.7477 7.47155 12.5969 8.82495 11.2703C10.1783 9.94369 12.3726 9.94368 13.726 11.2703C15.0794 12.5969 15.0794 14.7477 13.726 16.0743Z" fill="white"/>
<path d="M6.8643 21.8391L2.94343 17.9959L0.408798 20.4804C-0.464481 21.3363 0.154008 22.7999 1.38901 22.7999L5.30989 22.7999C5.67754 22.7999 6.03014 22.6568 6.29011 22.402L6.8643 21.8391Z" fill="white"/>
</svg>
