<svg width="30" height="22" viewBox="0 0 30 22" fill="none" xmlns="http://www.w3.org/2000/svg">
<path d="M25.6408 21.8448C26.0209 22.1295 26.5686 22.0156 26.8703 21.56C28.8264 18.6783 30 15.0221 30 11.0015C30 6.96941 28.7928 3.33599 26.8703 0.442932C26.5686 -0.024058 26.0209 -0.126568 25.6408 0.158182C25.2161 0.454322 25.1602 0.989653 25.462 1.45664C27.1945 4.06495 28.2899 7.34528 28.2899 11.0015C28.2899 14.6463 27.1945 17.9494 25.462 20.5463C25.1602 21.0133 25.2161 21.5486 25.6408 21.8448ZM2.269 15.6372H5.4769C5.5775 15.6372 5.66691 15.6714 5.74516 15.7397L10.7861 20.3413C11.3227 20.831 11.7362 21.0588 12.2727 21.0588C12.9881 21.0588 13.5358 20.5235 13.5358 19.7832V2.31089C13.5358 1.57054 12.9881 0.966873 12.2504 0.966873C11.7139 0.966873 11.3674 1.21745 10.7861 1.75278L5.74516 6.30879C5.66691 6.37713 5.5775 6.4113 5.4769 6.4113H2.269C0.748882 6.4113 0 7.19721 0 8.84876V13.2111C0 14.8627 0.76006 15.6372 2.269 15.6372ZM21.4493 18.8264C21.8629 19.1112 22.377 19.0086 22.6788 18.5758C24.1095 16.5712 24.9478 13.8148 24.9478 11.0015C24.9478 8.18814 24.1207 5.40898 22.6788 3.42711C22.377 2.99429 21.8629 2.89178 21.4493 3.17653C21.0358 3.46128 20.9687 3.99661 21.2928 4.4636C22.5112 6.21767 23.2153 8.5754 23.2153 11.0015C23.2153 13.4275 22.4888 15.7625 21.2928 17.5393C20.9799 18.0063 21.0358 18.5417 21.4493 18.8264ZM2.34724 13.9743C1.93368 13.9743 1.74367 13.7806 1.74367 13.3592V8.70069C1.74367 8.26787 1.93368 8.07424 2.34724 8.07424H5.92399C6.2146 8.07424 6.43815 8.01729 6.69523 7.7781L11.4568 3.37016C11.5127 3.31321 11.5686 3.27904 11.6468 3.27904C11.725 3.27904 11.7921 3.33599 11.7921 3.4385V18.5758C11.7921 18.6783 11.725 18.7467 11.6468 18.7467C11.5909 18.7467 11.5238 18.7125 11.4568 18.6556L6.69523 14.2704C6.43815 14.0426 6.2146 13.9743 5.92399 13.9743H2.34724ZM17.3137 15.8536C17.6826 16.1156 18.2079 16.0359 18.5097 15.5916C19.3703 14.4413 19.8845 12.7441 19.8845 11.0015C19.8845 9.2588 19.3703 7.57308 18.5097 6.4113C18.2079 5.96709 17.6826 5.87597 17.3137 6.14933C16.8554 6.46825 16.7884 7.03775 17.1349 7.50474C17.7832 8.41594 18.152 9.68023 18.152 11.0015C18.152 12.3227 17.772 13.5756 17.1349 14.4982C16.7996 14.9766 16.8554 15.5233 17.3137 15.8536Z" fill="white"/>
</svg>
