<svg width="28" height="20" viewBox="0 0 28 20" fill="none" xmlns="http://www.w3.org/2000/svg">
<path d="M19.9501 9.47014C20.212 9.68049 20.6 9.49328 20.6 9.15655V7.58261H24C25.3255 7.58261 26.4 8.66137 26.4 9.99209V13.0079C26.4 13.2813 26.3547 13.544 26.2711 13.7889C26.2099 13.9684 26.2511 14.1734 26.3987 14.2919L27.0578 14.8213C27.2457 14.9722 27.5244 14.924 27.6262 14.7051C27.8661 14.1896 28 13.6145 28 13.0079V9.99209C28 7.77422 26.2091 5.97628 24 5.97628H20.6V4.40233C20.6 4.06561 20.212 3.8784 19.9501 4.08875L16.9904 6.46586C16.7903 6.62663 16.7903 6.93226 16.9904 7.09303L19.9501 9.47014Z" fill="#52CE0A"/>
<path d="M15.9422 9.17868C15.7543 9.02779 15.4756 9.07601 15.3738 9.29486C15.1339 9.8104 15 10.3855 15 10.9921V14.0079C15 16.2258 16.7909 18.0237 19 18.0237H22.4V19.5977C22.4 19.9344 22.788 20.1216 23.0499 19.9112L26.0096 17.5341C26.2097 17.3734 26.2097 17.0677 26.0096 16.907L23.0499 14.5299C22.788 14.3195 22.4 14.5067 22.4 14.8434V16.4174H19C17.6745 16.4174 16.6 15.3386 16.6 14.0079V10.9921C16.6 10.7187 16.6453 10.456 16.7289 10.2111C16.7901 10.0316 16.7489 9.82659 16.6013 9.70809L15.9422 9.17868Z" fill="#52CE0A"/>
<path d="M3.76471 19.4501C3.76471 19.939 4.2716 20.1839 4.56805 19.8382L9.41177 14.1896H13.0027C13.0009 14.1292 13 14.0687 13 14.0079V10.9921C13 10.0884 13.2001 9.22584 13.5603 8.45134C13.8488 7.83123 14.32 7.43618 14.85 7.24149V7C14.78 6.23294 15.0763 5.43804 15.738 4.90654L18.6977 2.52943C18.9368 2.33743 19.1926 2.20053 19.4548 2.11335C18.7944 0.846327 17.5996 0 16.2353 0H3.76471C1.68552 0 0 1.9656 0 4.3903V9.79927C0 12.224 1.68552 14.1896 3.76471 14.1896L3.76471 19.4501Z" fill="#808080"/>
</svg>
