<svg width="16" height="16" viewBox="0 0 16 16" fill="none" xmlns="http://www.w3.org/2000/svg">
<path d="M9.71922 15.8147C9.1654 15.936 8.59011 15.9999 7.99989 15.9999C6.3799 15.9999 4.87238 15.5184 3.61264 14.6907C3.29993 14.2434 3.15962 13.9971 3.05728 13.8175C3.00656 13.7285 2.96517 13.6559 2.91674 13.5832C2.43954 12.8158 2.18986 11.83 2.13541 10.6717C1.96675 7.08282 4.14786 4.79104 6.37601 4.41487C7.78841 4.17642 8.91087 4.4179 9.77178 4.87829C9.01065 4.66658 8.10334 4.65385 7.06899 4.94995C4.56154 5.75814 3.72566 8.21567 4.08393 10.9371C4.70917 14.3472 8.05271 15.5694 9.71922 15.8147Z" fill="url(#paint0_linear_1_13423)"/>
<path d="M2.57742 13.8822C2.11101 13.054 1.68865 11.8183 1.63587 10.6955C1.45683 6.88552 3.78517 4.34551 6.29268 3.92219C9.7107 3.34514 11.6109 5.36863 12.266 6.87051C12.2934 6.85203 12.3046 6.81547 12.2901 6.78399C11.213 4.44194 8.9853 2.83362 6.41203 2.83362C3.49012 2.83362 0.882936 4.92962 0 8.04465C0.0125396 10.3529 1.00266 12.4298 2.57742 13.8822Z" fill="url(#paint1_linear_1_13423)"/>
<path d="M12.4998 14.6153C11.9227 15.0085 11.2916 15.3283 10.6198 15.5611C10.2972 15.5049 9.93979 15.4349 9.68816 15.3857C9.56892 15.3623 9.47338 15.3436 9.41663 15.3333C7.89485 15.0553 5.17396 14.0747 4.57788 10.8593C4.40946 9.56641 4.53007 8.37627 4.95723 7.43222C5.37805 6.50217 6.10429 5.78922 7.21186 5.42926C8.49917 5.07854 9.56592 5.25236 10.3583 5.67793C10.1632 5.6368 9.96162 5.61523 9.75532 5.61523C8.04077 5.61523 6.65085 7.10442 6.65085 8.94142C6.65085 9.67494 6.87246 10.353 7.24787 10.9029C7.24787 10.9029 8.32249 12.9328 11.2478 12.7514C13.8562 12.5896 15.2108 10.25 15.3722 9.38575C15.4561 8.93663 15.5 8.47342 15.5 7.99996C15.5 3.85785 12.1422 0.499998 8.00003 0.499998C4.86569 0.499998 2.18041 2.42269 1.0593 5.15299C0.680616 5.64631 0.354544 6.19321 0.0917969 6.78459C0.677295 2.94312 3.99496 0 8.00003 0C12.4183 0 16 3.58171 16 7.99996C16 10.7497 14.6127 13.1753 12.4998 14.6153Z" fill="url(#paint2_linear_1_13423)"/>
<defs>
<linearGradient id="paint0_linear_1_13423" x1="4.99607" y1="6.62772" x2="4.98387" y2="13.7377" gradientUnits="userSpaceOnUse">
<stop offset="0.0297309" stop-color="#FA3C3C"/>
<stop offset="1" stop-color="#BC1870"/>
</linearGradient>
<linearGradient id="paint1_linear_1_13423" x1="3.90687" y1="3.25139" x2="3.51073" y2="10.3634" gradientUnits="userSpaceOnUse">
<stop stop-color="#FF9F2F"/>
<stop offset="1" stop-color="#FA3C3C"/>
</linearGradient>
<linearGradient id="paint2_linear_1_13423" x1="9.49995" y1="15.8333" x2="9.52192" y2="7.58336" gradientUnits="userSpaceOnUse">
<stop stop-color="#5B09AD"/>
<stop offset="1" stop-color="#BC1870"/>
</linearGradient>
</defs>
</svg>
