<svg width="20" height="20" viewBox="0 0 20 20" fill="none" xmlns="http://www.w3.org/2000/svg">
<path d="M9.84772 0C15.4547 0 20 4.47715 20 10C20 15.5228 15.4547 20 9.84772 20C5.86757 20 2.42248 17.7439 0.758348 14.4593C0.266022 13.443 0 12.3011 0 11.1C0 6.79218 3.54536 3.3 7.91878 3.3C11.1197 3.3 13.877 5.17077 15.1253 7.86283C15.1851 7.99179 14.9917 8.10815 14.8843 8.01379C14.1666 7.38326 13.2201 7 12.1827 7C9.93996 7 8.12183 8.79086 8.12183 11C8.12183 11.1693 8.13262 11.3362 8.15335 11.5V11.502C8.62944 14.4 10.9207 15.85 13.6041 15.85C16.2875 15.85 18.5275 13.9855 19.0643 11.5C19.1455 11.0119 19.1878 10.5108 19.1878 10C19.1878 4.91898 15.0061 0.8 9.84772 0.8C6.73878 0.8 3.98461 2.29617 2.28687 4.5974C2.24819 4.64983 2.2037 4.69789 2.15429 4.7407C1.6421 5.18453 1.1831 5.68653 0.787966 6.23622C0.681347 6.38454 0.422492 6.27243 0.494412 6.10506C2.0362 2.51724 5.64348 0 9.84772 0Z" fill="#FAFAFA"/>
<path d="M9.84772 0C15.4547 0 20 4.47715 20 10C20 15.5228 15.4547 20 9.84772 20C5.86757 20 2.42248 17.7439 0.758348 14.4593C0.266022 13.443 0 12.3011 0 11.1C0 6.79218 3.54536 3.3 7.91878 3.3C11.1197 3.3 13.877 5.17077 15.1253 7.86283C15.1851 7.99179 14.9917 8.10815 14.8843 8.01379C14.1666 7.38326 13.2201 7 12.1827 7C9.93996 7 8.12183 8.79086 8.12183 11C8.12183 11.1693 8.13262 11.3362 8.15335 11.5V11.502C8.62944 14.4 10.9207 15.85 13.6041 15.85C16.2875 15.85 18.5275 13.9855 19.0643 11.5C19.1455 11.0119 19.1878 10.5108 19.1878 10C19.1878 4.91898 15.0061 0.8 9.84772 0.8C6.73878 0.8 3.98461 2.29617 2.28687 4.5974C2.24819 4.64983 2.2037 4.69789 2.15429 4.7407C1.6421 5.18453 1.1831 5.68653 0.787966 6.23622C0.681347 6.38454 0.422492 6.27243 0.494412 6.10506C2.0362 2.51724 5.64348 0 9.84772 0Z" fill="url(#paint0_linear_3645_27796)"/>
<path d="M9.84772 0C15.4547 0 20 4.47715 20 10C20 15.5228 15.4547 20 9.84772 20C5.86757 20 2.42248 17.7439 0.758348 14.4593C0.266022 13.443 0 12.3011 0 11.1C0 6.79218 3.54536 3.3 7.91878 3.3C11.1197 3.3 13.877 5.17077 15.1253 7.86283C15.1851 7.99179 14.9917 8.10815 14.8843 8.01379C14.1666 7.38326 13.2201 7 12.1827 7C9.93996 7 8.12183 8.79086 8.12183 11C8.12183 11.1693 8.13262 11.3362 8.15335 11.5V11.502C8.62944 14.4 10.9207 15.85 13.6041 15.85C16.2875 15.85 18.5275 13.9855 19.0643 11.5C19.1455 11.0119 19.1878 10.5108 19.1878 10C19.1878 4.91898 15.0061 0.8 9.84772 0.8C6.73878 0.8 3.98461 2.29617 2.28687 4.5974C2.24819 4.64983 2.2037 4.69789 2.15429 4.7407C1.6421 5.18453 1.1831 5.68653 0.787966 6.23622C0.681347 6.38454 0.422492 6.27243 0.494412 6.10506C2.0362 2.51724 5.64348 0 9.84772 0Z" fill="url(#paint1_linear_3645_27796)"/>
<defs>
<linearGradient id="paint0_linear_3645_27796" x1="10" y1="0" x2="10" y2="20" gradientUnits="userSpaceOnUse">
<stop stop-color="#FA3C3C"/>
<stop offset="1" stop-color="#CA077C"/>
</linearGradient>
<linearGradient id="paint1_linear_3645_27796" x1="0.603431" y1="0.280374" x2="20.2274" y2="20.2031" gradientUnits="userSpaceOnUse">
<stop stop-color="#00E0FF"/>
<stop offset="0.355769" stop-color="#0090F8"/>
<stop offset="0.716346" stop-color="#2554ED"/>
</linearGradient>
</defs>
</svg>
