<svg width="10" height="10" viewBox="0 0 10 10" fill="none" xmlns="http://www.w3.org/2000/svg">
<path d="M1.31683 0.225993C1.0156 -0.0753309 0.527169 -0.0753309 0.22594 0.225993C-0.0753133 0.527222 -0.0753133 1.01565 0.22594 1.31688L3.9091 5.00001L0.22594 8.68315C-0.0752897 8.98447 -0.0752897 9.47281 0.22594 9.77413C0.527193 10.0754 1.01562 10.0754 1.31685 9.77413L5.00003 6.0909L8.68314 9.77404C8.9844 10.0754 9.4728 10.0754 9.77406 9.77404C10.0753 9.47281 10.0753 8.98438 9.77406 8.68315L6.09092 5.00001L9.77408 1.31688C10.0753 1.01565 10.0753 0.527222 9.77408 0.225993C9.47283 -0.0752368 8.98442 -0.0752368 8.68317 0.225993L4.99999 3.90913L1.31683 0.225993Z" fill="#AAAAAA"/>
</svg>
