<svg width="21" height="21" viewBox="0 0 21 21" fill="none" xmlns="http://www.w3.org/2000/svg">
<path d="M5.88938 15.0074C6.21173 15.3834 6.81463 15.3243 7.14942 14.9592C7.97204 14.0623 9.15367 13.5 10.4666 13.5C11.7797 13.5 12.9613 14.0623 13.7839 14.9593C14.1187 15.3244 14.7216 15.3836 15.044 15.0075C15.2556 14.7607 15.2774 14.3991 15.0686 14.1499C13.968 12.8357 12.3149 12 10.4666 12C8.61842 12 6.96538 12.8357 5.86475 14.1498C5.656 14.399 5.67781 14.7605 5.88938 15.0074Z" fill="white"/>
<path d="M3.28793 11.9723C3.58832 12.3228 4.13191 12.3137 4.4584 11.9874C5.99643 10.4505 8.12053 9.5 10.4666 9.5C12.8128 9.5 14.9369 10.4505 16.475 11.9875C16.8015 12.3138 17.3451 12.3229 17.6455 11.9725C17.883 11.6953 17.8849 11.2841 17.6302 11.0227C15.8138 9.15803 13.2754 8 10.4666 8C7.6579 8 5.11962 9.15797 3.30316 11.0226C3.04845 11.284 3.05039 11.6952 3.28793 11.9723Z" fill="white"/>
<path d="M0.684649 8.93517C0.97589 9.27495 1.49781 9.28166 1.82098 8.97209C4.06615 6.82141 7.11208 5.5 10.4666 5.5C13.8212 5.5 16.8672 6.82145 19.1124 8.9722C19.4356 9.28178 19.9575 9.27507 20.2487 8.93528C20.4961 8.64671 20.488 8.21658 20.2153 7.9519C17.6946 5.50587 14.2565 4 10.4666 4C6.67687 4 3.2388 5.50582 0.71812 7.95178C0.445354 8.21646 0.437299 8.6466 0.684649 8.93517Z" fill="white"/>
<path d="M12.4666 18C12.4666 19.1046 11.5712 20 10.4666 20C9.36207 20 8.46664 19.1046 8.46664 18C8.46664 16.8954 9.36207 16 10.4666 16C11.5712 16 12.4666 16.8954 12.4666 18Z" fill="white"/>
<path d="M12.4666 18C12.4666 19.1046 11.5712 20 10.4666 20C9.36204 20 8.46661 19.1046 8.46661 18C8.46661 16.8954 9.36204 16 10.4666 16C11.5712 16 12.4666 16.8954 12.4666 18Z" fill="#FA3C3C"/>
<path d="M10.5 1.25C9.25454 1.25 8.26734 2.30083 8.34503 3.54386L8.95468 13.2982C9.00568 14.1143 9.68238 14.75 10.5 14.75C11.3176 14.75 11.9943 14.1143 12.0453 13.2982L12.655 3.54386C12.7327 2.30083 11.7455 1.25 10.5 1.25Z" fill="#FA3C3C" stroke="#111111" stroke-width="1.5"/>
</svg>
