<svg width="20" height="21" viewBox="0 0 20 21" fill="none" xmlns="http://www.w3.org/2000/svg">
<path d="M5.38938 15.0074C5.71173 15.3834 6.31463 15.3243 6.64942 14.9592C7.47204 14.0623 8.65367 13.5 9.96664 13.5C11.2797 13.5 12.4613 14.0623 13.2839 14.9593C13.6187 15.3244 14.2216 15.3836 14.544 15.0075C14.7556 14.7607 14.7774 14.3991 14.5686 14.1499C13.468 12.8357 11.8149 12 9.96664 12C8.11842 12 6.46538 12.8357 5.36475 14.1498C5.156 14.399 5.17781 14.7605 5.38938 15.0074Z" fill="#111111"/>
<path d="M2.78793 11.9723C3.08832 12.3228 3.63191 12.3137 3.9584 11.9874C5.49643 10.4505 7.62053 9.5 9.96664 9.5C12.3128 9.5 14.4369 10.4505 15.975 11.9875C16.3015 12.3138 16.8451 12.3229 17.1455 11.9725C17.383 11.6953 17.3849 11.2841 17.1302 11.0227C15.3138 9.15803 12.7754 8 9.96664 8C7.1579 8 4.61962 9.15797 2.80316 11.0226C2.54845 11.284 2.55039 11.6952 2.78793 11.9723Z" fill="#111111"/>
<path d="M0.184649 8.93517C0.47589 9.27495 0.99781 9.28166 1.32098 8.97209C3.56615 6.82141 6.61208 5.5 9.96664 5.5C13.3212 5.5 16.3672 6.82145 18.6124 8.9722C18.9356 9.28178 19.4575 9.27507 19.7487 8.93528C19.9961 8.64671 19.988 8.21658 19.7153 7.9519C17.1946 5.50587 13.7565 4 9.96664 4C6.17687 4 2.7388 5.50582 0.21812 7.95178C-0.0546461 8.21646 -0.0627009 8.6466 0.184649 8.93517Z" fill="#111111"/>
<path d="M11.9666 18C11.9666 19.1046 11.0712 20 9.96664 20C8.86207 20 7.96664 19.1046 7.96664 18C7.96664 16.8954 8.86207 16 9.96664 16C11.0712 16 11.9666 16.8954 11.9666 18Z" fill="#111111"/>
<path d="M11.9667 18C11.9667 19.1046 11.0712 20 9.96667 20C8.86211 20 7.96667 19.1046 7.96667 18C7.96667 16.8954 8.86211 16 9.96667 16C11.0712 16 11.9667 16.8954 11.9667 18Z" fill="#FA3C3C"/>
<path d="M10 1.25C8.75454 1.25 7.76734 2.30083 7.84503 3.54386L8.45468 13.2982C8.50568 14.1143 9.18238 14.75 10 14.75C10.8176 14.75 11.4943 14.1143 11.5453 13.2982L12.155 3.54386C12.2327 2.30083 11.2455 1.25 10 1.25Z" fill="#FA3C3C" stroke="#E5E5E5" stroke-width="1.5"/>
</svg>
