<svg width="16" height="17" viewBox="0 0 16 17" fill="none" xmlns="http://www.w3.org/2000/svg">
<path d="M4 2C4.27614 2 4.5 2.22386 4.5 2.5C4.5 2.77614 4.27614 3 4 3H3.5C2.98232 3 2.55621 3.39333 2.50488 3.89746L2.5 4V14C2.5 14.5523 2.94772 15 3.5 15H12.5C13.0523 15 13.5 14.5523 13.5 14V4C13.5 3.48232 13.1067 3.05621 12.6025 3.00488L12.5 3H12C11.7239 3 11.5 2.77614 11.5 2.5C11.5 2.22386 11.7239 2 12 2H12.5L12.7041 2.01074C13.7128 2.113 14.5 2.96435 14.5 4V14C14.5 15.0357 13.7128 15.887 12.7041 15.9893L12.5 16H3.5C2.46435 16 1.613 15.2128 1.51074 14.2041L1.5 14V4C1.5 2.89543 2.39543 2 3.5 2H4Z" fill="#AAAAAA"/>
<path d="M10 1C10.5523 1 11 1.44772 11 2V3C11 3.55228 10.5523 4 10 4H6C5.44772 4 5 3.55228 5 3V2C5 1.44772 5.44772 1 6 1H6.5C6.5 0.447715 6.94772 1.61064e-08 7.5 0H8.5C9.05228 0 9.5 0.447715 9.5 1H10Z" fill="#AAAAAA"/>
</svg>
