<svg width="60" height="60" viewBox="0 0 60 60" fill="none" xmlns="http://www.w3.org/2000/svg">
<circle cx="30" cy="30" r="30" fill="black"/>
<path d="M37.369 24.8014C37.5326 24.8695 37.6934 24.915 37.8311 24.915C37.9443 24.915 38.0418 24.885 38.156 24.85C38.3176 24.8004 38.5126 24.7405 38.8325 24.7405C39.186 24.7405 39.3679 24.7616 39.5551 24.7833C39.7538 24.8063 39.9584 24.83 40.3801 24.83C42.3829 24.3825 42.474 22.6819 42.474 22.6819C42.474 21.1357 42.0193 20.7328 41.494 20.2674C41.3974 20.1818 41.2984 20.0941 41.1995 19.9968C39.925 19.1017 39.1056 18.2962 38.8325 17.3116C38.3952 15.7349 38.8325 15.074 39.0146 14.8055C39.0406 14.7672 39.0666 14.7233 39.0945 14.6764C39.2617 14.3945 39.4958 14 40.1981 14C40.738 14 41.1989 14.3498 41.5807 14.6397C41.7782 14.7896 41.9546 14.9235 42.1098 14.9845C42.2915 15.056 42.6473 15.1417 43.015 15.2303C43.5685 15.3637 44.1489 15.5035 44.2036 15.6111C44.2578 15.6643 44.1831 15.7492 44.1137 15.8281C44.0664 15.8819 44.0216 15.9328 44.0216 15.9691C44.0216 16.0062 44.0528 16.0586 44.0894 16.12C44.1412 16.2069 44.2036 16.3117 44.2036 16.4166C44.2036 16.5353 43.3236 16.4966 42.7037 16.4694C42.3885 16.4555 42.1405 16.4446 42.1098 16.4589C42.0901 16.4681 42.0191 16.4755 41.918 16.486C41.5529 16.5241 40.7959 16.6031 40.6532 16.9536C40.5622 17.4012 40.8353 17.6697 40.9264 17.7592C40.9438 17.7764 41.0084 17.8233 41.1077 17.8955C41.5253 18.1992 42.5578 18.9501 43.2933 19.8178C44.1284 20.803 44.1208 21.713 44.1139 22.5476C44.1132 22.6228 44.1126 22.6974 44.1126 22.7714C44.1126 23.6664 43.5664 24.651 43.0202 25.4565C42.474 26.262 41.5636 27.2466 40.3801 27.7836C39.3787 28.2311 39.4698 28.6786 39.4698 28.6786V29.8422L39.4661 29.8436C39.3733 32.0832 37.5354 33.8699 33.2794 33.8699C33.2488 33.8699 33.2184 33.8697 33.188 33.8694L33.1883 33.8699L33.1498 33.8689C33.0919 33.8679 33.0343 33.8664 32.9771 33.8643L32.5916 33.854C32.4254 33.9079 32.2739 33.9959 32.1869 34.1384C31.9138 34.5859 31.2766 34.9439 31.2766 34.9439C31.2766 34.9439 31.0035 35.0334 30.8214 35.2124C30.6393 35.3914 30.1841 36.1075 30.2752 36.197C30.3662 36.2865 33.5525 35.2124 33.5525 35.2124C33.5525 35.2124 35.8284 34.4069 36.5566 34.4069C36.582 34.4069 36.6096 34.4061 36.6393 34.4053C36.9295 34.3972 37.4098 34.3839 37.7401 35.0334C38.0132 35.4809 38.8325 36.6445 38.8325 36.6445C38.8325 36.6445 39.3787 37.3605 39.1056 37.629C38.9236 37.7185 38.2863 37.45 38.0132 37.1815C37.9222 37.092 37.8311 36.9727 37.7401 36.8533C37.558 36.6147 37.376 36.376 37.1939 36.376C37.1114 36.4165 37.141 36.5855 37.1727 36.7666C37.2109 36.9855 37.2523 37.2221 37.1028 37.271C37.0937 37.271 37.0837 37.2719 37.0727 37.2729C36.9736 37.2818 36.7933 37.2979 36.4656 36.734C36.3746 36.555 36.3746 36.3984 36.3746 36.2753C36.3746 36.1522 36.3746 36.0627 36.2835 36.018C36.0104 35.8837 34.6449 36.2865 34.6449 36.2865C34.6449 36.2865 30.6393 37.5395 30.4572 37.629C30.4277 37.6435 30.3803 37.6755 30.319 37.7167C30.0019 37.93 29.3139 38.3928 28.8186 37.9871C28.2997 37.5619 28.4381 36.8944 28.5313 36.445C28.5362 36.4214 28.5409 36.3983 28.5455 36.376C28.6365 35.9285 29.2738 34.7649 29.2738 34.7649V34.4399L27.6351 35.0334C27.6351 35.0334 24.813 37.092 24.722 37.271C24.6942 37.3257 24.6664 37.4053 24.6335 37.4997C24.5584 37.7148 24.4566 38.0068 24.2668 38.2556C23.9937 38.6136 23.1744 38.7926 23.1744 38.7926L19.2598 43.8943C19.2598 43.8943 18.6226 44.9684 18.4405 45.2369C18.2584 45.5054 17.5302 46.1319 17.5302 46.1319C17.5302 46.1319 16.8929 46.848 16.5288 47.6535C16.5288 47.6535 16.1646 48.3695 15.9826 47.743C15.8005 46.848 16.1646 46.0424 16.3467 45.6844C16.4257 45.5291 16.5389 45.4075 16.6344 45.3049C16.759 45.1711 16.8534 45.0697 16.8019 44.9684C16.7171 44.885 16.5927 44.957 16.4657 45.0305C16.32 45.1149 16.1708 45.2013 16.0736 45.0579C16.0515 45.0252 15.8915 44.6104 16.5288 44.0131C16.5288 44.0131 16.8019 43.6258 17.8033 43.4468C18.3495 43.2678 18.6226 42.7308 18.6226 42.7308C18.6226 42.7308 21.8999 38.2556 21.9909 38.0766C22.0202 38.019 22.0307 37.9058 22.0435 37.7668C22.0705 37.4738 22.1081 37.0663 22.3551 36.8235C22.6869 36.4972 23.0672 36.4088 23.3194 36.3502C23.4131 36.3284 23.4892 36.3107 23.5385 36.2865C23.7206 36.197 25.8144 34.3174 25.8144 34.3174L26.4517 33.5119L26.3715 33.2359C25.8284 33.1399 25.3572 33.0475 25.0861 32.9748C24.0853 32.7065 22.539 32.2593 21.3558 31.3654C20.9908 31.3404 20.458 31.3596 19.8061 31.5427C19.8061 31.5427 18.6226 31.7218 17.5302 32.5273C17.5293 32.5279 17.5277 32.5293 17.5252 32.5315C17.4794 32.5716 17.1614 32.8493 17.075 32.1693C17.075 32.1387 17.0723 32.1056 17.0693 32.0675C17.0545 31.8829 17.0306 31.5842 17.2571 30.9162C17.2571 30.8266 17.1968 30.6173 16.4377 31.3637C16.3569 31.4432 16.2801 31.5384 16.2039 31.6331C16.0225 31.8581 15.8437 32.0799 15.6184 32.0798C15.5274 32.0797 15.2543 31.9903 15.2543 31.3638C15.2543 31.0165 15.3941 30.6692 15.5033 30.3981C15.5911 30.1801 15.659 30.0115 15.6184 29.9317C15.5748 29.8459 15.2599 29.986 14.9234 30.1356C14.5573 30.2984 14.1657 30.4725 14.0708 30.3792C13.9798 30.2896 13.7977 29.7527 14.8901 28.2311C15.1632 27.8731 16.0736 26.799 17.5302 26.62C18.7932 26.4648 19.0295 26.646 19.248 26.8137C19.2815 26.8394 19.3146 26.8647 19.3509 26.8885C19.4627 26.9618 19.6354 26.9751 19.8006 26.9653C19.7624 26.8752 19.5407 26.3364 19.624 26.1725C19.6772 26.0679 19.917 26.0856 20.3615 26.1183C20.6775 26.1416 21.0972 26.1725 21.6268 26.1725C22.9013 26.1725 24.0847 25.6355 24.0847 25.6355L27.7257 23.9309C28.873 23.3189 30.3516 22.9504 31.9654 22.9504C34.2432 22.9504 36.2115 23.6845 37.369 24.8014Z" fill="white"/>
</svg>
