<svg width="40" height="44" viewBox="0 0 40 44" fill="none" xmlns="http://www.w3.org/2000/svg">
<path d="M30.4785 13.9783C30.6918 14.0664 30.9016 14.1253 31.0812 14.1253C31.2288 14.1253 31.356 14.0865 31.5049 14.0411C31.7156 13.9769 31.97 13.8994 32.3873 13.8994C32.8482 13.8994 33.0855 13.9267 33.3297 13.9548C33.5888 13.9846 33.8557 14.0153 34.4057 14.0153C37.0178 13.4361 37.1365 11.2354 37.1365 11.2354C37.1365 9.23438 36.5435 8.71302 35.8584 8.11069C35.7325 7.99994 35.6034 7.88645 35.4743 7.76052C33.8121 6.60223 32.7435 5.55978 32.3873 4.28566C31.8169 2.2452 32.3873 1.38994 32.6247 1.04246C32.6587 0.992817 32.6926 0.936085 32.7289 0.8753C32.947 0.510592 33.2523 0 34.1683 0C34.8725 0 35.4735 0.452733 35.9715 0.827789C36.2291 1.02185 36.4592 1.19512 36.6616 1.27412C36.8986 1.36659 37.3626 1.47752 37.8422 1.59218C38.564 1.76474 39.3211 1.94573 39.3924 2.08492C39.4631 2.15382 39.3656 2.26371 39.2751 2.36583C39.2134 2.43537 39.155 2.50131 39.155 2.54823C39.155 2.59621 39.1957 2.66406 39.2435 2.74355C39.311 2.85597 39.3924 2.99167 39.3924 3.12737C39.3924 3.28093 38.2447 3.23091 37.4362 3.19568C37.0251 3.17776 36.7016 3.16366 36.6616 3.18212C36.6359 3.19398 36.5432 3.20357 36.4115 3.21722C35.9352 3.26652 34.9479 3.36872 34.7619 3.82235C34.6432 4.40149 34.9994 4.74897 35.1181 4.8648C35.1409 4.88706 35.2251 4.94779 35.3546 5.04125C35.8993 5.43425 37.2459 6.40596 38.2051 7.52886C39.2943 8.80393 39.2844 9.98152 39.2753 11.0616C39.2745 11.159 39.2737 11.2555 39.2737 11.3512C39.2737 12.5095 38.5613 13.7836 37.8489 14.8261C37.1365 15.8685 35.9492 17.1426 34.4057 17.8376C33.0997 18.4168 33.2184 18.9959 33.2184 18.9959V20.5017L33.2136 20.5035C33.0926 23.4018 30.6955 25.714 25.1447 25.714C25.1049 25.714 25.0652 25.7137 25.0256 25.7133L25.0259 25.714L24.9757 25.7126C24.9002 25.7115 24.8251 25.7095 24.7505 25.7067L24.2477 25.6934C24.031 25.7631 23.8333 25.877 23.7199 26.0614C23.3637 26.6406 22.5326 27.1039 22.5326 27.1039C22.5326 27.1039 22.1764 27.2197 21.9389 27.4514C21.7015 27.683 21.1078 28.6097 21.2265 28.7255C21.3453 28.8413 25.5009 27.4514 25.5009 27.4514C25.5009 27.4514 28.4692 26.4089 29.419 26.4089C29.452 26.4089 29.4881 26.4079 29.5268 26.4069C29.9053 26.3964 30.5317 26.3791 30.9625 27.2197C31.3187 27.7989 32.3873 29.3046 32.3873 29.3046C32.3873 29.3046 33.0997 30.2313 32.7435 30.5788C32.506 30.6946 31.6749 30.3471 31.3187 29.9996C31.2 29.8838 31.0812 29.7294 30.9625 29.5749C30.725 29.266 30.4876 28.9572 30.2501 28.9572C30.1426 29.0096 30.1811 29.2283 30.2224 29.4627C30.2723 29.7459 30.3263 30.0521 30.1314 30.1154C30.1195 30.1154 30.1064 30.1166 30.0921 30.1179C29.9628 30.1293 29.7277 30.1502 29.3003 29.4205C29.1815 29.1888 29.1815 28.9861 29.1815 28.8268C29.1815 28.6676 29.1815 28.5518 29.0628 28.4938C28.7066 28.3201 26.9256 28.8413 26.9256 28.8413C26.9256 28.8413 21.7015 30.4629 21.464 30.5788C21.4255 30.5975 21.3636 30.6388 21.2837 30.6922C20.8701 30.9683 19.9728 31.5672 19.3268 31.0421C18.65 30.4919 18.8306 29.628 18.9521 29.0464C18.9585 29.0159 18.9647 28.986 18.9706 28.9572C19.0894 28.378 19.9205 26.8722 19.9205 26.8722V26.4516L17.7833 27.2197C17.7833 27.2197 14.1026 29.8838 13.9839 30.1154C13.9477 30.1861 13.9115 30.2892 13.8685 30.4114C13.7706 30.6898 13.6378 31.0676 13.3903 31.3896C13.0341 31.8529 11.9655 32.0845 11.9655 32.0845L6.86004 38.6868C6.86004 38.6868 6.02892 40.0767 5.79145 40.4242C5.55398 40.7717 4.60413 41.5825 4.60413 41.5825C4.60413 41.5825 3.77301 42.5091 3.29809 43.5516C3.29809 43.5516 2.82316 44.4782 2.58571 43.6674C2.34823 42.5091 2.82317 41.4667 3.06063 41.0033C3.16364 40.8024 3.31134 40.645 3.43588 40.5122C3.59842 40.339 3.7215 40.2079 3.65428 40.0767C3.54366 39.9688 3.3815 40.062 3.21582 40.1572C3.02586 40.2663 2.83128 40.3782 2.70444 40.1925C2.67557 40.1503 2.46697 39.6134 3.29809 38.8405C3.29809 38.8405 3.65429 38.3393 4.96033 38.1076C5.67272 37.876 6.02892 37.181 6.02892 37.181C6.02892 37.181 10.3032 31.3896 10.422 31.1579C10.4602 31.0834 10.4738 30.9369 10.4905 30.757C10.5258 30.3779 10.5748 29.8505 10.8969 29.5363C11.3297 29.1141 11.8257 28.9997 12.1546 28.9238C12.2769 28.8956 12.3761 28.8727 12.4404 28.8413C12.6779 28.7255 15.4087 26.2931 15.4087 26.2931L16.2398 25.2506L16.1352 24.8936C15.4269 24.7693 14.8124 24.6497 14.4588 24.5557C13.1536 24.2084 11.1368 23.6297 9.59363 22.4728C9.11759 22.4406 8.42267 22.4654 7.57242 22.7024C7.57242 22.7024 6.02891 22.9341 4.60414 23.9765C4.60306 23.9773 4.60088 23.9791 4.59771 23.9819C4.53787 24.0338 4.12323 24.3932 4.01048 23.5132C4.01048 23.4737 4.00702 23.4307 4.00305 23.3815C3.98378 23.1426 3.95259 22.756 4.24794 21.8916C4.24794 21.7757 4.16934 21.5048 3.17936 22.4707C3.07391 22.5736 2.97382 22.6968 2.87433 22.8193C2.63777 23.1105 2.40459 23.3975 2.11078 23.3973C1.99205 23.3973 1.63585 23.2816 1.63585 22.4708C1.63585 22.0213 1.81825 21.5719 1.96062 21.2211C2.0751 20.939 2.1637 20.7207 2.11078 20.6174C2.05392 20.5065 1.64313 20.6877 1.20434 20.8813C0.726801 21.092 0.216097 21.3173 0.092346 21.1966C-0.0263826 21.0807 -0.263851 20.3858 1.16093 18.4168C1.51712 17.9534 2.70444 16.5634 4.60414 16.3318C6.25141 16.1309 6.55957 16.3654 6.84462 16.5824C6.88828 16.6156 6.93145 16.6485 6.97877 16.6793C7.12456 16.7741 7.34991 16.7913 7.56527 16.7786C7.51551 16.662 7.22629 15.9647 7.33497 15.7527C7.40436 15.6173 7.71707 15.6402 8.2968 15.6826C8.70902 15.7127 9.25631 15.7527 9.94705 15.7527C11.6093 15.7527 13.1528 15.0577 13.1528 15.0577L17.9014 12.8517C19.3978 12.0597 21.3263 11.5829 23.431 11.5829C26.4018 11.5829 28.9689 12.5329 30.4785 13.9783Z" fill="white"/>
</svg>
