<svg width="24" height="24" viewBox="0 0 24 24" fill="none" xmlns="http://www.w3.org/2000/svg">
<path d="M0.398686 6.29495C0.233676 6.17288 0 6.29067 0 6.49593V18C0 20.2091 1.79086 22 4 22H20C22.2091 22 24 20.2091 24 18V6.49593C24 6.29067 23.7663 6.17288 23.6013 6.29495L13.1864 14C12.4809 14.5199 11.5191 14.5199 10.8136 14L0.398686 6.29495Z" fill="white"/>
<path d="M23.2462 4.47121C23.4416 4.32719 23.5082 4.06152 23.3779 3.85665C22.6682 2.74054 21.4206 2 20 2H4C2.57942 2 1.33179 2.74054 0.622116 3.85665C0.491845 4.06152 0.558382 4.32719 0.753839 4.47121L11.4068 12.3208C11.7596 12.5807 12.2404 12.5807 12.5932 12.3208L23.2462 4.47121Z" fill="white"/>
</svg>
