<svg width="24" height="24" viewBox="0 0 24 24" fill="none" xmlns="http://www.w3.org/2000/svg">
<path d="M0 6.89071C0 6.63835 0.292614 6.49875 0.488759 6.65753L10.2403 14.5517C11.2648 15.381 12.73 15.3802 13.7536 14.5498L23.511 6.63339C23.7071 6.4743 24 6.61385 24 6.86636V20C24 21.1046 23.1046 22 22 22H2C0.895431 22 0 21.1046 0 20V6.89071Z" fill="white"/>
<path d="M0.149358 3.83532C0.0679121 3.76939 0.0250898 3.66528 0.0478857 3.563C0.247229 2.6686 1.04553 2 2 2H22C22.9451 2 23.737 2.65548 23.946 3.5366C23.9705 3.63974 23.9278 3.74549 23.8455 3.81228L12.5061 13.0122C12.209 13.2533 11.7836 13.2535 11.4861 13.0127L0.149358 3.83532Z" fill="white"/>
</svg>
