<svg width="21" height="20" viewBox="0 0 21 20" fill="none" xmlns="http://www.w3.org/2000/svg">
<path d="M1.3983 5.96019C1.23323 5.83856 1 5.95642 1 6.16146V15.3333C1 17.1743 2.49238 18.6667 4.33333 18.6667H17.6667C19.5076 18.6667 21 17.1743 21 15.3333V6.16145C21 5.95642 20.7668 5.83856 20.6017 5.96019L11.9887 12.3066C11.4007 12.7398 10.5993 12.7398 10.0113 12.3066L1.3983 5.96019Z" fill="white"/>
<path d="M20.3155 4.10085C20.5109 3.95683 20.5779 3.69064 20.4434 3.48854C19.8461 2.59126 18.8254 2 17.6667 2H4.33333C3.17458 2 2.15393 2.59126 1.5566 3.48854C1.42206 3.69064 1.48908 3.95683 1.68453 4.10085L10.5057 10.6006C10.7996 10.8172 11.2004 10.8172 11.4943 10.6006L20.3155 4.10085Z" fill="white"/>
</svg>
