<svg width="18" height="18" viewBox="0 0 18 18" fill="none" xmlns="http://www.w3.org/2000/svg">
<path d="M14.3999 3.18345H0.66297C0.859997 3.0228 1.09314 2.90224 1.35154 2.83577L12.1515 0.0576738C13.2905 -0.235311 14.3999 0.624919 14.3999 1.80109V3.18345Z" fill="#AAAAAA"/>
<path fill-rule="evenodd" clip-rule="evenodd" d="M0 4.33452C0 4.21024 0.100736 4.1095 0.225 4.1095H16.2C17.1941 4.1095 18 4.91545 18 5.90965V16.1998C18 17.194 17.1941 18 16.2 18H1.8C0.805888 18 0 17.194 0 16.1998V4.33452ZM14.4 11.0547C14.4 11.8219 13.7956 12.4438 13.05 12.4438C12.3044 12.4438 11.7 11.8219 11.7 11.0547C11.7 10.2876 12.3044 9.66566 13.05 9.66566C13.7956 9.66566 14.4 10.2876 14.4 11.0547Z" fill="#AAAAAA"/>
</svg>
