<svg width="16" height="16" viewBox="0 0 16 16" fill="none" xmlns="http://www.w3.org/2000/svg">
<path fill-rule="evenodd" clip-rule="evenodd" d="M3.19184 10.1439L3.19102 10.1431C3.18184 10.1345 3.16917 10.1225 3.15334 10.1072C3.1217 10.0767 3.07736 10.0332 3.02299 9.97759C2.91441 9.86664 2.76494 9.70696 2.59626 9.50725C2.26168 9.11112 1.83813 8.54177 1.51212 7.86988C1.18758 7.20103 0.939062 6.38784 1.01317 5.52239C1.08919 4.6345 1.49895 3.76497 2.36228 3.00255C3.21126 2.25281 4.06452 1.9518 4.88267 2.00621C5.68309 2.05944 6.35475 2.44673 6.87044 2.88429C7.29896 3.24788 7.64673 3.6686 7.90476 4.02983C8.16277 3.6686 8.51053 3.24789 8.93903 2.8843C9.45471 2.44673 10.1264 2.05944 10.9268 2.00621C11.745 1.9518 12.5982 2.25281 13.4473 3.00253C14.2773 3.73552 14.7388 4.51188 14.9157 5.29286C15.0919 6.07083 14.9705 6.78627 14.7487 7.37383C14.5287 7.95687 14.2041 8.43098 13.943 8.75379C13.8111 8.91694 13.6917 9.04599 13.6035 9.13582C13.5594 9.18083 13.5228 9.21627 13.4961 9.24151C13.4855 9.25149 13.4764 9.25988 13.4691 9.26666L8.26359 14.6303C8.06719 14.8327 7.74238 14.8327 7.54598 14.6303L3.19184 10.1439Z" fill="#F800C1"/>
</svg>
