<svg width="18" height="15" viewBox="0 0 18 15" fill="none" xmlns="http://www.w3.org/2000/svg">
<path fill-rule="evenodd" clip-rule="evenodd" d="M3.30858 9.39677L3.30759 9.39588C3.29652 9.38594 3.28125 9.37209 3.26217 9.35448C3.22404 9.31929 3.17059 9.26902 3.10505 9.20492C2.97417 9.07689 2.79401 8.89265 2.59069 8.66221C2.1874 8.20514 1.67688 7.54819 1.28391 6.77294C0.892721 6.00119 0.593173 5.06289 0.682497 4.0643C0.774137 3.0398 1.26803 2.0365 2.30866 1.15679C3.33198 0.291708 4.36046 -0.0556197 5.34663 0.00716146C6.31142 0.0685823 7.12101 0.515462 7.74261 1.02034C8.25912 1.43987 8.67831 1.9253 8.98933 2.34212C9.30033 1.9253 9.71949 1.43987 10.236 1.02035C10.8576 0.515461 11.6672 0.068581 12.632 0.00716043C13.6181 -0.0556198 14.6466 0.291703 15.67 1.15677C16.6706 2.00252 17.2268 2.89832 17.44 3.79945C17.6524 4.69711 17.5061 5.52262 17.2388 6.20057C16.9735 6.87331 16.5823 7.42036 16.2676 7.79284C16.1086 7.98108 15.9646 8.12999 15.8584 8.23363C15.8052 8.28557 15.7611 8.32647 15.7288 8.35559C15.7161 8.3671 15.7052 8.37679 15.6963 8.38461L9.34047 14.6537C9.14578 14.8457 8.83293 14.8457 8.63824 14.6537L3.30858 9.39677Z" fill="#CA079F"/>
</svg>
