<svg width="28" height="20" viewBox="0 0 28 20" fill="none" xmlns="http://www.w3.org/2000/svg">
<path fill-rule="evenodd" clip-rule="evenodd" d="M16.1918 15.1439L16.191 15.1431C16.1818 15.1345 16.1692 15.1225 16.1533 15.1072C16.1217 15.0767 16.0774 15.0332 16.023 14.9776C15.9144 14.8666 15.7649 14.707 15.5963 14.5073C15.2617 14.1111 14.8381 13.5418 14.5121 12.8699C14.1876 12.201 13.9391 11.3878 14.0132 10.5224C14.0892 9.6345 14.4989 8.76497 15.3623 8.00255C16.2113 7.25281 17.0645 6.9518 17.8827 7.00621C18.6831 7.05944 19.3547 7.44673 19.8704 7.88429C20.299 8.24788 20.6467 8.6686 20.9048 9.02983C21.1628 8.6686 21.5105 8.24789 21.939 7.8843C22.4547 7.44673 23.1264 7.05944 23.9268 7.00621C24.745 6.9518 25.5982 7.25281 26.4473 8.00253C27.2773 8.73552 27.7388 9.51188 27.9157 10.2929C28.0919 11.0708 27.9705 11.7863 27.7487 12.3738C27.5287 12.9569 27.2041 13.431 26.943 13.7538C26.8111 13.9169 26.6917 14.046 26.6035 14.1358C26.5594 14.1808 26.5228 14.2163 26.4961 14.2415C26.4855 14.2515 26.4764 14.2599 26.4691 14.2667L21.2636 19.6303C21.0672 19.8327 20.7424 19.8327 20.546 19.6303L16.1918 15.1439Z" fill="#BC1870"/>
<path d="M3.76471 19.4501C3.76471 19.939 4.2716 20.1839 4.56805 19.8382L9.41177 14.1896H12.946C12.8658 14.046 12.7876 13.897 12.7128 13.743C12.2955 12.8829 11.9051 11.6993 12.0205 10.3518C12.1434 8.91693 12.8165 7.58253 14.0385 6.50343C15.1998 5.47783 16.5588 4.91374 18.0154 5.01061C18.7745 5.06109 19.4387 5.28359 20 5.57317V4.3903C20 1.9656 18.3145 0 16.2353 0H3.76471C1.68552 0 0 1.9656 0 4.3903V9.79927C0 12.224 1.68552 14.1896 3.76471 14.1896L3.76471 19.4501Z" fill="#AAAAAA"/>
</svg>
