<svg width="20" height="20" viewBox="0 0 20 20" fill="none" xmlns="http://www.w3.org/2000/svg">
<path fill-rule="evenodd" clip-rule="evenodd" d="M14.5833 1.73372H5.41663C4.95639 1.73372 4.58329 2.12182 4.58329 2.60057V17.4587L8.91868 14.2753C9.56692 13.7993 10.433 13.7993 11.0812 14.2753L15.4166 17.4587V2.60057C15.4166 2.12182 15.0435 1.73372 14.5833 1.73372ZM5.41663 0C4.03591 0 2.91663 1.16432 2.91663 2.60057V19.1316C2.91663 19.8345 3.67852 20.2452 4.23053 19.8398L9.87982 15.6917C9.95184 15.6388 10.0481 15.6388 10.1201 15.6917L15.7694 19.8398C16.3214 20.2452 17.0833 19.8345 17.0833 19.1316V2.60057C17.0833 1.16432 15.964 0 14.5833 0H5.41663Z" fill="white"/>
</svg>
