<svg width="60" height="90" viewBox="0 0 60 90" fill="none" xmlns="http://www.w3.org/2000/svg">
<path d="M1.88379 80.3379V79.709C1.88379 78.1413 2.28711 76.9382 3.09375 76.0996C3.90495 75.2611 4.94857 74.8418 6.22461 74.8418C7.45508 74.8418 8.42578 75.1699 9.13672 75.8262C9.85221 76.4779 10.21 77.2982 10.21 78.2871V78.4238H8.36426V78.2734C8.36426 77.6628 8.18652 77.1797 7.83105 76.8242C7.47559 76.4688 6.93555 76.291 6.21094 76.291C5.48633 76.291 4.89616 76.5508 4.44043 77.0703C3.98926 77.5853 3.76367 78.4147 3.76367 79.5586V80.4883C3.76367 81.5456 3.98698 82.3545 4.43359 82.915C4.88021 83.4756 5.47721 83.7559 6.22461 83.7559C6.91276 83.7559 7.43001 83.5713 7.77637 83.2021C8.12272 82.833 8.31641 82.3545 8.35742 81.7666L8.36426 81.6299H10.21L10.2031 81.7666C10.1439 82.7464 9.77246 83.5645 9.08887 84.2207C8.40983 84.877 7.45508 85.2051 6.22461 85.2051C4.94401 85.2051 3.90039 84.7835 3.09375 83.9404C2.28711 83.0973 1.88379 81.8965 1.88379 80.3379ZM11.2312 85L15.0115 74.9922H16.8709L20.699 85H18.7439L16.1189 77.8018C16.0643 77.6514 16.0187 77.5055 15.9822 77.3643C15.9503 77.223 15.9184 77.0794 15.8865 76.9336H15.825C15.7977 77.0794 15.7658 77.223 15.7293 77.3643C15.6928 77.5055 15.6473 77.6514 15.5926 77.8018L12.9676 85H11.2312ZM13.2 82.6689L13.658 81.2744H18.1492L18.6072 82.6689H13.2ZM22.3766 85V75.0469H24.318L28.2076 81.4863C28.2896 81.6276 28.3626 81.762 28.4264 81.8896C28.4947 82.0127 28.554 82.1403 28.6041 82.2725H28.6588C28.6542 82.1266 28.6497 81.9808 28.6451 81.835C28.6451 81.6846 28.6451 81.5342 28.6451 81.3838V75.0469H30.2789V85H28.3033L24.441 78.5947C24.359 78.458 24.2861 78.3236 24.2223 78.1914C24.1585 78.0592 24.0992 77.9271 24.0445 77.7949H23.9967C24.0012 77.9408 24.0058 78.0957 24.0104 78.2598C24.0149 78.4193 24.0172 78.5719 24.0172 78.7178V85H22.3766ZM32.7904 80.3379V79.709C32.7904 78.1413 33.1938 76.9382 34.0004 76.0996C34.8116 75.2611 35.8552 74.8418 37.1313 74.8418C38.3617 74.8418 39.3324 75.1699 40.0434 75.8262C40.7589 76.4779 41.1166 77.2982 41.1166 78.2871V78.4238H39.2709V78.2734C39.2709 77.6628 39.0932 77.1797 38.7377 76.8242C38.3822 76.4688 37.8422 76.291 37.1176 76.291C36.393 76.291 35.8028 76.5508 35.3471 77.0703C34.8959 77.5853 34.6703 78.4147 34.6703 79.5586V80.4883C34.6703 81.5456 34.8936 82.3545 35.3402 82.915C35.7868 83.4756 36.3839 83.7559 37.1313 83.7559C37.8194 83.7559 38.3367 83.5713 38.683 83.2021C39.0294 82.833 39.223 82.3545 39.2641 81.7666L39.2709 81.6299H41.1166L41.1098 81.7666C41.0505 82.7464 40.6791 83.5645 39.9955 84.2207C39.3165 84.877 38.3617 85.2051 37.1313 85.2051C35.8507 85.2051 34.807 84.7835 34.0004 83.9404C33.1938 83.0973 32.7904 81.8965 32.7904 80.3379ZM43.3547 85V75.0469H49.9035V76.4688H45.1799V79.1689H49.2814V80.5771H45.1799V83.585H49.9787V85H43.3547ZM52.2168 85V75.0469H54.0488V83.5781H58.5332V85H52.2168Z" fill="white"/>
<rect x="1" y="1" width="58" height="58" rx="29" stroke="white" stroke-width="2"/>
<path d="M30.8887 30L37.627 36.748L36.748 37.627L30 30.8887L23.252 37.627L22.373 36.748L29.1113 30L22.373 23.252L23.252 22.373L30 29.1113L36.748 22.373L37.627 23.252L30.8887 30Z" fill="white"/>
<path d="M30.8887 30L30.5349 29.6467L30.1821 30L30.5349 30.3533L30.8887 30ZM37.627 36.748L37.9805 37.1016L38.3338 36.7483L37.9808 36.3947L37.627 36.748ZM36.748 37.627L36.3947 37.9808L36.7483 38.3338L37.1016 37.9805L36.748 37.627ZM30 30.8887L30.3533 30.5349L30 30.1821L29.6467 30.5349L30 30.8887ZM23.252 37.627L22.8984 37.9805L23.2517 38.3338L23.6053 37.9808L23.252 37.627ZM22.373 36.748L22.0192 36.3947L21.6662 36.7483L22.0195 37.1016L22.373 36.748ZM29.1113 30L29.4651 30.3533L29.8179 30L29.4651 29.6467L29.1113 30ZM22.373 23.252L22.0195 22.8984L21.6662 23.2517L22.0192 23.6053L22.373 23.252ZM23.252 22.373L23.6053 22.0192L23.2517 21.6662L22.8984 22.0195L23.252 22.373ZM30 29.1113L29.6467 29.4651L30 29.8179L30.3533 29.4651L30 29.1113ZM36.748 22.373L37.1016 22.0195L36.7483 21.6662L36.3947 22.0192L36.748 22.373ZM37.627 23.252L37.9808 23.6053L38.3338 23.2517L37.9805 22.8984L37.627 23.252ZM30.5349 30.3533L37.2731 37.1013L37.9808 36.3947L31.2425 29.6467L30.5349 30.3533ZM37.2734 36.3945L36.3945 37.2734L37.1016 37.9805L37.9805 37.1016L37.2734 36.3945ZM37.1013 37.2731L30.3533 30.5349L29.6467 31.2425L36.3947 37.9808L37.1013 37.2731ZM29.6467 30.5349L22.8987 37.2731L23.6053 37.9808L30.3533 31.2425L29.6467 30.5349ZM23.6055 37.2734L22.7266 36.3945L22.0195 37.1016L22.8984 37.9805L23.6055 37.2734ZM22.7269 37.1013L29.4651 30.3533L28.7575 29.6467L22.0192 36.3947L22.7269 37.1013ZM29.4651 29.6467L22.7269 22.8987L22.0192 23.6053L28.7575 30.3533L29.4651 29.6467ZM22.7266 23.6055L23.6055 22.7266L22.8984 22.0195L22.0195 22.8984L22.7266 23.6055ZM22.8987 22.7269L29.6467 29.4651L30.3533 28.7575L23.6053 22.0192L22.8987 22.7269ZM30.3533 29.4651L37.1013 22.7269L36.3947 22.0192L29.6467 28.7575L30.3533 29.4651ZM36.3945 22.7266L37.2734 23.6055L37.9805 22.8984L37.1016 22.0195L36.3945 22.7266ZM37.2731 22.8987L30.5349 29.6467L31.2425 30.3533L37.9808 23.6053L37.2731 22.8987Z" fill="white"/>
</svg>
