<svg width="24" height="24" viewBox="0 0 24 24" fill="none" xmlns="http://www.w3.org/2000/svg">
<path d="M7.35989 3.47886C7.68885 3.1597 8.11685 3 8.55959 3H9.33798C9.53888 3 9.65885 3.24968 9.5465 3.42938C8.81572 4.60243 6.9 8.00134 6.90048 11.4H8.85C9.92688 11.4 10.8 12.3403 10.8 13.5V17.7C10.8 18.8597 9.92688 19.8 8.85 19.8H6.9C4.74624 19.8 3 17.9197 3 15.6L3.00048 11.4C3.00048 8.04774 6.10591 4.69548 7.35989 3.47886Z" fill="white"/>
<path d="M17.5599 3.47886C17.8889 3.1597 18.3168 3 18.7596 3H19.538C19.7389 3 19.8589 3.24968 19.7465 3.42938C19.0157 4.60243 17.1 8.00134 17.1005 11.4H19.05C20.1269 11.4 21 12.3403 21 13.5V17.7C21 18.8597 20.1269 19.8 19.05 19.8H17.1C14.9462 19.8 13.2 17.9197 13.2 15.6L13.2005 11.4C13.2005 8.04774 16.3059 4.69548 17.5599 3.47886Z" fill="white"/>
</svg>
