<svg width="28" height="28" viewBox="0 0 28 28" fill="none" xmlns="http://www.w3.org/2000/svg">
<path d="M13.8145 1.95747C13.772 1.34453 14.3228 0.85475 14.9209 1.0395C15.8193 1.31729 16.9805 1.81171 17.5234 2.60884C18.4757 4.00803 18.4766 5.40789 18.4766 6.80708C18.4766 7.49912 18.2425 8.76229 18.0068 9.86177C17.8813 10.4485 18.3343 11.0053 18.9463 11.0053H25.1426C26.7203 11.0053 27.9996 12.2587 28 13.8042C28 14.4239 27.794 14.9957 27.4455 15.4586C26.9939 16.0586 26.792 17.0917 26.9701 17.8212C27.0209 18.029 27.0478 18.246 27.0479 18.4692C27.0479 19.3905 26.5928 20.2062 25.8912 20.7153C25.4361 21.0455 25.1424 21.6384 25.1426 22.2006C25.1426 23.7463 23.8639 24.9992 22.2861 24.9995H18.668C19.7948 24.2298 20.5476 22.947 20.5479 21.4692C20.5477 20.8907 20.4295 20.3414 20.2207 19.8413C21.0053 19.0693 21.4999 18.0013 21.5 16.8051C21.4997 14.4024 19.5197 12.5063 17.1426 12.5063H11.6113C11.6252 12.4368 11.6367 12.3659 11.6504 12.2954C12.4787 11.1705 13.4534 9.52626 13.7139 7.74067C14.0369 6.15821 13.922 3.50179 13.8145 1.95747Z" fill="#808080"/>
<path d="M10.6484 13.9584C10.7075 13.9774 10.769 13.9921 10.833 13.9995L10.7314 13.9819C10.7032 13.9755 10.6756 13.9672 10.6484 13.9584Z" fill="#808080"/>
<path d="M5.81473 4.95786C5.77209 4.3448 6.32237 3.85472 6.92057 4.0395C7.81915 4.31731 8.98093 4.81183 9.52381 5.60929C10.4761 7.00859 10.4762 8.40824 10.4762 9.80755C10.4762 10.4996 10.2429 11.7621 10.0072 12.8616C9.88144 13.4484 10.3339 14.0058 10.9461 14.0058H17.1429C18.7207 14.0058 19.9998 15.259 20 16.8046C20 17.4243 19.7941 17.9961 19.4458 18.4591C18.9943 19.0591 18.7923 20.0923 18.9701 20.8219C19.0207 21.0296 19.0476 21.2463 19.0476 21.4694C19.0476 22.3908 18.5926 23.2067 17.891 23.7159C17.4359 24.0461 17.1428 24.6389 17.1429 25.2012C17.1429 26.7469 15.8637 28 14.2857 28H7.61905C7.61905 28 4.76188 28 2.85714 26.1341C2.4121 25.6982 2.01888 25.3643 1.67783 25.1082C0.842793 24.4815 0 23.4328 0 22.4023V18.891C4.23545e-05 18.1843 0.407558 17.538 1.05283 17.2219L2.77995 16.3755C3.58376 15.4712 5.34928 13.2434 5.71429 10.7405C6.03728 9.15803 5.92228 6.50218 5.81473 4.95786Z" fill="#808080"/>
</svg>
