<svg width="300" height="300" viewBox="0 0 300 300" fill="none" xmlns="http://www.w3.org/2000/svg">
<path fill-rule="evenodd" clip-rule="evenodd" d="M211.452 134.91C211.629 135.673 211.793 136.44 211.944 137.212C211.837 137.211 211.729 137.21 211.621 137.21C210.331 137.21 209.062 137.313 207.822 137.512C207.417 135.522 206.917 133.567 206.326 131.651C204.672 130.725 202.891 129.83 200.986 128.972C195.425 126.469 188.937 124.342 181.752 122.708C183.385 130.526 184.337 139.03 184.465 147.938H191.836C191.024 149.228 190.346 150.609 189.821 152.062H184.465C184.337 160.97 183.385 169.474 181.752 177.292C184.176 176.741 186.521 176.133 188.777 175.474C188.977 176.86 189.309 178.199 189.76 179.483C186.876 180.32 183.861 181.075 180.732 181.738C178.156 192.017 174.368 200.923 169.733 207.74C176.712 205.028 183.077 201.071 188.557 196.139V198.496C188.557 199.478 188.623 200.443 188.75 201.386C181.85 206.99 173.8 211.215 165.011 213.646C162.347 214.383 159.615 214.955 156.827 215.35C154.468 215.685 152.069 215.893 149.637 215.968L149.491 215.973C148.858 215.991 148.224 216 147.587 216C146.901 216 146.218 215.989 145.538 215.968C143.239 215.897 140.971 215.707 138.738 215.404C135.982 215.03 133.28 214.484 130.644 213.777C109.409 208.079 92.4141 191.927 85.4345 171.134C84.8213 169.307 84.2855 167.445 83.8309 165.55C83.7941 165.397 83.7578 165.243 83.722 165.09C82.7454 160.887 82.1677 156.531 82.0314 152.062L82.0261 151.88C82.0207 151.687 82.0162 151.494 82.0125 151.3C82.0095 151.146 82.0071 150.991 82.0052 150.837C82.0017 150.558 82 150.279 82 150C82 149.651 82.0027 149.303 82.0081 148.955C82.0102 148.816 82.0128 148.676 82.0158 148.537C82.0191 148.386 82.0228 148.235 82.0271 148.083L82.0314 147.938C82.1677 143.469 82.7454 139.113 83.722 134.91C84.1544 133.05 84.6651 131.22 85.2502 129.424C85.3108 129.238 85.3722 129.052 85.4345 128.866C92.3614 108.23 109.153 92.1656 130.164 86.3542C130.512 86.2579 130.862 86.1643 131.212 86.0736C131.527 85.9923 131.842 85.9133 132.158 85.8366C134.312 85.314 136.507 84.8984 138.738 84.5956C140.971 84.2926 143.239 84.1026 145.538 84.0316C146.218 84.0106 146.901 84 147.587 84H147.593C148.277 84.0001 148.958 84.0106 149.637 84.0316C151.935 84.1026 154.204 84.2926 156.437 84.5957C157.364 84.7215 158.285 84.8669 159.2 85.0313C161.003 85.3556 162.781 85.754 164.53 86.2234C164.691 86.2664 164.851 86.31 165.011 86.3542C186.021 92.1655 202.813 108.23 209.74 128.866C210.361 130.718 210.903 132.605 211.362 134.526L211.399 134.682C211.417 134.758 211.434 134.834 211.452 134.91ZM145.538 185.051V211.841C141 211.692 136.586 211.047 132.348 209.96C129.797 207.109 127.368 203.508 125.145 199.158C122.684 194.342 120.57 188.767 118.906 182.609C127.182 184.085 136.153 184.941 145.538 185.051ZM149.637 185.051V211.841C154.175 211.692 158.588 211.047 162.826 209.96C165.377 207.109 167.806 203.508 170.029 199.158C172.49 194.342 174.604 188.767 176.268 182.609C167.992 184.085 159.021 184.941 149.637 185.051ZM177.356 178.213C168.852 179.846 159.5 180.808 149.637 180.925V152.062H180.365C180.228 161.396 179.159 170.225 177.356 178.213ZM204.256 125.947C197.787 110.532 185.288 98.305 169.733 92.2597C174.368 99.0774 178.156 107.983 180.732 118.262C189.623 120.147 197.593 122.766 204.256 125.947ZM176.268 117.391C174.604 111.233 172.49 105.658 170.029 100.842C167.806 96.4925 165.377 92.8909 162.826 90.04C158.588 88.9527 154.175 88.3083 149.637 88.1587V114.949C159.021 115.059 167.992 115.915 176.268 117.391ZM149.637 119.075C159.5 119.192 168.852 120.154 177.356 121.787C179.159 129.775 180.228 138.604 180.365 147.938H149.637V119.075ZM145.538 114.949V88.1587C141 88.3083 136.586 88.9527 132.348 90.04C129.797 92.8909 127.368 96.4925 125.145 100.842C122.684 105.658 120.57 111.233 118.906 117.391C127.182 115.915 136.153 115.059 145.538 114.949ZM117.818 121.787C126.322 120.154 135.674 119.192 145.538 119.075V147.938H114.809C114.946 138.604 116.016 129.775 117.818 121.787ZM114.442 118.262C117.018 107.983 120.806 99.0774 125.441 92.2597C109.886 98.305 97.3872 110.532 90.9179 125.947C97.5815 122.766 105.552 120.147 114.442 118.262ZM88.8478 131.651C90.502 130.725 92.2837 129.83 94.1883 128.972C99.7496 126.469 106.237 124.342 113.422 122.708C111.789 130.526 110.837 139.03 110.709 147.938H86.1327C86.3167 142.284 87.2544 136.823 88.8478 131.651ZM90.9179 174.053C97.3872 189.468 109.886 201.695 125.441 207.74C120.806 200.923 117.018 192.017 114.442 181.738C105.552 179.853 97.5815 177.234 90.9179 174.053ZM113.422 177.292C106.237 175.658 99.7496 173.531 94.1883 171.028C92.2837 170.17 90.502 169.275 88.8478 168.349C87.2544 163.177 86.3167 157.716 86.1327 152.062H110.709C110.837 160.97 111.789 169.474 113.422 177.292ZM117.818 178.213C116.016 170.225 114.946 161.396 114.809 152.062H145.538V180.925C135.674 180.808 126.322 179.846 117.818 178.213Z" fill="#808080" fill-opacity="0.3"/>
<path d="M230 164.771C230 166.573 228.457 168.034 226.554 168.034C224.651 168.034 223.108 166.573 223.108 164.771V159.331C223.108 153.323 217.965 148.452 211.621 148.452C205.277 148.452 200.134 153.323 200.134 159.331V172.386C200.134 178.395 205.277 183.265 211.621 183.265C212.95 183.265 213.939 183.052 214.755 182.658C216.328 181.9 218.513 182.457 218.513 184.129V185.582C218.513 186.747 217.863 187.834 216.807 188.43C215.252 189.308 214.154 189.793 211.621 189.793C201.471 189.793 193.242 182 193.242 172.386V159.331C193.242 149.718 201.471 141.924 211.621 141.924C221.771 141.924 230 149.718 230 159.331V164.771Z" fill="#808080" fill-opacity="0.3"/>
<path d="M193.242 193.057C193.242 191.254 194.785 189.793 196.688 189.793C198.591 189.793 200.134 191.254 200.134 193.057V198.496C200.134 204.505 205.277 209.375 211.621 209.375C217.965 209.375 223.108 204.505 223.108 198.496V185.441C223.108 179.433 217.965 174.562 211.621 174.562C210.292 174.562 209.303 174.776 208.487 175.169C206.914 175.927 204.729 175.37 204.729 173.698V172.246C204.729 171.081 205.379 169.993 206.435 169.397C207.99 168.52 209.088 168.034 211.621 168.034C221.771 168.034 230 175.828 230 185.441V198.496C230 208.11 221.771 215.903 211.621 215.903C201.471 215.903 193.242 208.11 193.242 198.496V193.057Z" fill="#808080" fill-opacity="0.3"/>
</svg>
