<svg width="20" height="20" viewBox="0 0 20 20" fill="none" xmlns="http://www.w3.org/2000/svg">
<path d="M16 1.25H7.99997C7.24874 1.25 6.60808 1.72334 6.35995 2.38805C6.23923 2.71143 5.97015 3 5.62497 3C5.27979 3 4.99319 2.71711 5.06425 2.37932C5.35015 1.02029 6.55591 0 7.99997 0H16C17.6568 0 19 1.34315 19 3V17C19 18.6569 17.6568 20 16 20H7.99997C6.55591 20 5.35015 18.9797 5.06425 17.6207C4.99319 17.2829 5.27979 17 5.62497 17C5.97015 17 6.23923 17.2886 6.35995 17.612C6.60808 18.2767 7.24875 18.75 7.99997 18.75H16C16.9665 18.75 17.75 17.9665 17.75 17V3C17.75 2.0335 16.9665 1.25 16 1.25Z" fill="#AAAAAA"/>
<path d="M5.46714 5.91523C5.69646 5.65724 5.67322 5.2622 5.41524 5.03288C5.15725 4.80355 4.7622 4.82679 4.53288 5.08478L0.459059 9.66782C0.290665 9.85727 0.290665 10.1427 0.459059 10.3322L4.53288 14.9152C4.7622 15.1732 5.15725 15.1965 5.41524 14.9671C5.67322 14.7378 5.69646 14.3428 5.46714 14.0848L2.39179 10.625H12C12.3452 10.625 12.625 10.3452 12.625 10C12.625 9.65483 12.3452 9.37501 12 9.37501H2.39179L5.46714 5.91523Z" fill="#AAAAAA"/>
</svg>
