<svg width="16" height="16" viewBox="0 0 16 16" fill="none" xmlns="http://www.w3.org/2000/svg">
<path fill-rule="evenodd" clip-rule="evenodd" d="M0.00195312 2.66671C0.00195312 1.93033 0.598907 1.33337 1.33529 1.33337H14.6686C15.405 1.33337 16.002 1.93033 16.002 2.66671V13.3334C16.002 14.0698 15.405 14.6667 14.6686 14.6667H1.33529C0.598907 14.6667 0.00195312 14.0698 0.00195312 13.3334V2.66671ZM1.6953 2.9622C1.57433 2.86291 1.64454 2.66671 1.80104 2.66671H14.2029C14.3594 2.66671 14.4296 2.86291 14.3086 2.9622L8.84788 7.44433C8.35615 7.84795 7.64776 7.84795 7.15602 7.44433L1.6953 2.9622ZM1.8797 4.8523C1.66206 4.67423 1.33529 4.82907 1.33529 5.11028V12.6667C1.33529 13.0349 1.63376 13.3334 2.00195 13.3334H14.002C14.3701 13.3334 14.6686 13.0349 14.6686 12.6667V5.11028C14.6686 4.82907 14.3419 4.67423 14.1242 4.8523L8.84627 9.17061C8.35512 9.57246 7.64879 9.57246 7.15764 9.17061L1.8797 4.8523Z" fill="#111111"/>
</svg>
