<svg width="20" height="20" viewBox="0 0 20 20" fill="none" xmlns="http://www.w3.org/2000/svg">
<path fill-rule="evenodd" clip-rule="evenodd" d="M1.66669 4.66683C1.66669 3.93045 2.28851 3.3335 3.05558 3.3335H16.9445C17.7115 3.3335 18.3334 3.93045 18.3334 4.66683V15.3335C18.3334 16.0699 17.7115 16.6668 16.9445 16.6668H3.05558C2.28851 16.6668 1.66669 16.0699 1.66669 15.3335V4.66683ZM3.43059 4.96232C3.30458 4.86303 3.37771 4.66683 3.54073 4.66683H16.4593C16.6223 4.66683 16.6955 4.86303 16.5695 4.96232L10.8812 9.44446C10.369 9.84807 9.63107 9.84807 9.11884 9.44446L3.43059 4.96232ZM3.62267 6.85242C3.39596 6.67435 3.05558 6.8292 3.05558 7.11041V14.6668C3.05558 15.035 3.36649 15.3335 3.75002 15.3335H16.25C16.6335 15.3335 16.9445 15.035 16.9445 14.6668V7.1104C16.9445 6.8292 16.6041 6.67435 16.3774 6.85242L10.8795 11.1707C10.3679 11.5726 9.63214 11.5726 9.12052 11.1707L3.62267 6.85242Z" fill="#CCCCCC"/>
</svg>
