<svg width="16" height="16" viewBox="0 0 16 16" fill="none" xmlns="http://www.w3.org/2000/svg">
<g clip-path="url(#clip0_13794_7333)">
<path fill-rule="evenodd" clip-rule="evenodd" d="M8 0C12.4183 0 16 3.58172 16 8C16 12.4183 12.4183 16 8 16C3.58172 16 0 12.4183 0 8C0 3.58172 3.58172 0 8 0ZM11.9355 4.75C11.6206 4.417 11.0902 4.41673 10.7744 4.74902L6.38379 9.37012L4.87891 7.78906C4.56301 7.4571 4.03365 7.45807 3.71875 7.79102C3.42697 8.09977 3.42729 8.58248 3.71973 8.89062L6.06934 11.3652C6.24004 11.545 6.5265 11.5449 6.69727 11.3652L11.9346 5.85059C12.2272 5.54242 12.2276 5.05875 11.9355 4.75Z" fill="white"/>
</g>
<defs>
<clipPath id="clip0_13794_7333">
<rect width="16" height="16" rx="8" fill="white"/>
</clipPath>
</defs>
</svg>
