<svg width="24" height="24" viewBox="0 0 24 24" fill="none" xmlns="http://www.w3.org/2000/svg">
<path d="M1.38928 18.9959C0.732533 18.9375 0.301259 18.2567 0.55249 17.6286L1.57479 15.0729C1.85828 14.3641 2.00393 13.6078 2.00393 12.8445V10C2.00393 4.47715 6.48109 0 12.0039 0C17.5268 0 22.0039 4.47715 22.0039 10V12.8445C22.0039 13.6078 22.1496 14.3641 22.4331 15.0728L23.4554 17.6286C23.7066 18.2567 23.2753 18.9375 22.6186 18.9959H1.38928Z" fill="white"/>
<path d="M16.7763 20.4959C16.1404 22.5266 14.2442 24 12.0039 24C9.76362 24 7.86744 22.5266 7.23156 20.4959H16.7763Z" fill="white"/>
</svg>
