<svg width="24" height="24" viewBox="0 0 24 24" fill="none" xmlns="http://www.w3.org/2000/svg">
<path d="M3.99103 17.83C3.44374 17.7812 3.08434 17.2139 3.2937 16.6905L4.14562 14.5607C4.38186 13.9701 4.50324 13.3399 4.50324 12.7038V10.3333C4.50324 5.73096 7.40087 2 12.0032 2C16.6056 2 19.5032 5.73096 19.5032 10.3333V12.7038C19.5032 13.3399 19.6246 13.9701 19.8609 14.5607L20.7128 16.6905C20.9221 17.2139 20.5627 17.7812 20.0154 17.83H3.99103Z" fill="white"/>
<path d="M15.9802 19.08C15.4503 20.7722 13.8702 22 12.0032 22C10.1363 22 8.55616 20.7722 8.02626 19.08H15.9802Z" fill="white"/>
</svg>
