<svg width="24" height="24" viewBox="0 0 24 24" fill="none" xmlns="http://www.w3.org/2000/svg">
<path d="M1.38931 18.9959C0.732564 18.9375 0.30129 18.2567 0.55252 17.6286L1.57482 15.0729C1.85831 14.3641 2.00396 13.6078 2.00396 12.8445V10C2.00396 4.47715 6.48112 0 12.004 0C17.5268 0 22.004 4.47715 22.004 10V12.8445C22.004 13.6078 22.1496 14.3641 22.4331 15.0728L23.4554 17.6286C23.7066 18.2567 23.2754 18.9375 22.6186 18.9959H1.38931Z" fill="white"/>
<path d="M16.7763 20.4959C16.1405 22.5266 14.2443 24 12.004 24C9.76365 24 7.86748 22.5266 7.2316 20.4959H16.7763Z" fill="white"/>
</svg>
