<svg width="20" height="20" viewBox="0 0 20 20" fill="none" xmlns="http://www.w3.org/2000/svg">
<path d="M14 2C14.5523 2 15 2.44772 15 3V17C15 17.5523 14.5523 18 14 18C13.4477 18 13 17.5523 13 17V3C13 2.44772 13.4477 2 14 2Z" fill="white"/>
<path d="M6 5C6.55228 5 7 5.44772 7 6V14C7 14.5523 6.55228 15 6 15C5.44772 15 5 14.5523 5 14V6C5 5.44772 5.44772 5 6 5Z" fill="white"/>
<path d="M10 8C10.5523 8 11 8.44772 11 9V11C11 11.5523 10.5523 12 10 12C9.44772 12 9 11.5523 9 11V9C9 8.44772 9.44772 8 10 8Z" fill="white"/>
</svg>
