<svg width="20" height="20" viewBox="0 0 20 20" fill="none" xmlns="http://www.w3.org/2000/svg">
<path fill-rule="evenodd" clip-rule="evenodd" d="M15 1.73372H5.83331C5.37308 1.73372 4.99998 2.12182 4.99998 2.60057V17.4587L9.33537 14.2753C9.9836 13.7993 10.8497 13.7993 11.4979 14.2753L15.8333 17.4587V2.60057C15.8333 2.12182 15.4602 1.73372 15 1.73372ZM5.83331 0C4.4526 0 3.33331 1.16432 3.33331 2.60057V19.1316C3.33331 19.8345 4.0952 20.2452 4.64722 19.8398L10.2965 15.6917C10.3685 15.6388 10.4648 15.6388 10.5368 15.6917L16.1861 19.8398C16.7381 20.2452 17.5 19.8345 17.5 19.1316V2.60057C17.5 1.16432 16.3807 0 15 0H5.83331Z" fill="#AAAAAA"/>
</svg>
