<svg width="28" height="28" viewBox="0 0 28 28" fill="none" xmlns="http://www.w3.org/2000/svg">
<path d="M21.7408 5.04883C22.1573 5.04883 22.4923 5.39199 22.4739 5.80806C22.3613 8.35483 21.963 12.4689 20.6563 15.6904C19.7122 18.0175 17.9186 19.872 16.2764 21.1748C15.4654 21.8181 14.7166 22.3078 14.1739 22.6338C14.0913 22.6834 14.0126 22.7277 13.9405 22.7695C13.8868 22.742 13.829 22.7133 13.7696 22.6816C13.256 22.408 12.5402 21.9827 11.7559 21.3867C10.1808 20.1897 8.37964 18.3439 7.33108 15.7012C5.91512 12.132 5.5449 8.19801 5.4666 5.79584C5.45318 5.38419 5.78652 5.04883 6.19839 5.04883H21.7408Z" fill="white"/>
<path fill-rule="evenodd" clip-rule="evenodd" d="M24.7901 1C25.7383 1 26.5089 1.75124 26.4873 2.69922C26.4195 5.66232 26.029 11.924 24.0469 16.8037C21.3632 23.4102 14.0588 26.9775 14.0127 27C14.0127 27 6.91544 24.1959 3.97854 16.8037C1.83272 11.4027 1.51592 5.45745 1.501 2.64648C1.49614 1.71957 2.25473 1.00005 3.18166 1H24.7901ZM5.38674 3.54883C4.59247 3.54924 3.94193 4.16855 3.94827 4.96289L3.96975 5.93164C4.05695 8.42941 4.44923 12.5048 5.93655 16.2539L6.16702 16.8008C8.32492 21.6212 12.6594 23.8483 13.7422 24.3428L13.9912 24.4512C13.9912 24.4512 19.5225 21.7581 21.833 16.7461L22.0469 16.2539C23.4216 12.8648 23.8426 8.64664 23.9668 6.02539L24.003 5.00684C24.0233 4.19422 23.3637 3.54883 22.5508 3.54883H5.38674Z" fill="white"/>
</svg>
