<svg width="12" height="12" viewBox="0 0 12 12" fill="none" xmlns="http://www.w3.org/2000/svg">
<path d="M1.39113 0.238642C1.07294 -0.0795472 0.557062 -0.0795473 0.238878 0.238642C-0.0793068 0.556831 -0.0793061 1.07272 0.238879 1.39091L4.84779 5.99988L0.238639 10.6091C-0.0795461 10.9273 -0.0795462 11.4432 0.238638 11.7614C0.556823 12.0795 1.0727 12.0795 1.39089 11.7614L6.00004 7.15215L10.6091 11.7613C10.9273 12.0795 11.4432 12.0795 11.7614 11.7613C12.0795 11.4431 12.0795 10.9272 11.7614 10.609L7.15229 5.99988L11.7611 1.39098C12.0793 1.07279 12.0793 0.556904 11.7611 0.238715C11.4429 -0.0794741 10.9271 -0.0794733 10.6089 0.238716L6.00004 4.84762L1.39113 0.238642Z" fill="white"/>
</svg>
