<svg width="24" height="24" viewBox="0 0 24 24" fill="none" xmlns="http://www.w3.org/2000/svg">
<path d="M5.31681 4.22592C5.01558 3.9246 4.52715 3.9246 4.22592 4.22592C3.92467 4.52715 3.92467 5.01558 4.22592 5.31681L10.9091 12L4.22592 18.6831C3.92469 18.9844 3.92469 19.4728 4.22592 19.7741C4.52718 20.0753 5.0156 20.0753 5.31683 19.7741L12 13.0908L18.6831 19.774C18.9844 20.0753 19.4728 20.0753 19.7741 19.774C20.0753 19.4728 20.0753 18.9843 19.7741 18.6831L13.0909 12L19.7741 5.31681C20.0753 5.01558 20.0753 4.52715 19.7741 4.22592C19.4728 3.92469 18.9844 3.92469 18.6832 4.22592L12 10.9091L5.31681 4.22592Z" fill="#AAAAAA"/>
</svg>
