<svg width="28" height="28" viewBox="0 0 28 28" fill="none" xmlns="http://www.w3.org/2000/svg">
<path d="M1.25 15.3333C0.798643 15.3333 0.578328 14.7825 0.905172 14.4713L13.3103 2.65681C13.6965 2.289 14.3034 2.289 14.6897 2.65681L27.0948 14.4713C27.4217 14.7825 27.2014 15.3333 26.75 15.3333H22.9091V19.3333V25C22.9091 25.5523 22.4614 26 21.9091 26H17.5455C16.9932 26 16.5455 25.5523 16.5455 25V19C16.5455 18.4477 16.0977 18 15.5455 18H14H12.4545C11.9023 18 11.4545 18.4477 11.4545 19V25C11.4545 25.5523 11.0068 26 10.4545 26H6.09091C5.53862 26 5.09091 25.5523 5.09091 25V19.3333V15.3333H1.25Z" fill="white"/>
</svg>
