<svg width="20" height="18" viewBox="0 0 20 18" fill="none" xmlns="http://www.w3.org/2000/svg">
<path d="M13.75 0C14.1642 0 14.5 0.335786 14.5 0.75V3C14.5 3.82843 15.1716 4.5 16 4.5H19.25C19.6642 4.5 20 4.83579 20 5.25C20 5.66421 19.6642 6 19.25 6H16C14.3949 6 13.0842 4.73945 13.0039 3.1543L13 3V0.75C13 0.335786 13.3358 0 13.75 0Z" fill="white"/>
<path d="M7 3C7 4.65685 5.65685 6 4 6H0.75C0.335786 6 0 5.66421 0 5.25C0 4.83579 0.335786 4.5 0.75 4.5H4C4.82843 4.5 5.5 3.82843 5.5 3V0.75C5.5 0.335786 5.83579 0 6.25 0C6.66421 0 7 0.335786 7 0.75V3Z" fill="white"/>
<path d="M4 12C5.65685 12 7 13.3431 7 15V17.25C7 17.6642 6.66421 18 6.25 18C5.83579 18 5.5 17.6642 5.5 17.25V15C5.5 14.1716 4.82843 13.5 4 13.5H0.75C0.335786 13.5 0 13.1642 0 12.75C0 12.3358 0.335786 12 0.75 12H4Z" fill="white"/>
<path d="M20 12.75C20 13.1642 19.6642 13.5 19.25 13.5H16C15.1716 13.5 14.5 14.1716 14.5 15V17.25C14.5 17.6642 14.1642 18 13.75 18C13.3358 18 13 17.6642 13 17.25V15C13 13.3431 14.3431 12 16 12H19.25C19.6642 12 20 12.3358 20 12.75Z" fill="white"/>
</svg>
