<svg width="20" height="20" viewBox="0 0 20 20" fill="none" xmlns="http://www.w3.org/2000/svg">
<path fill-rule="evenodd" clip-rule="evenodd" d="M4.04659 11.5519L4.04549 11.551C4.03319 11.5399 4.01622 11.5245 3.99503 11.505C3.95265 11.4659 3.89327 11.41 3.82045 11.3388C3.67502 11.1965 3.47484 10.9918 3.24893 10.7358C2.80084 10.2279 2.23358 9.49796 1.79696 8.63657C1.3623 7.77907 1.02947 6.73652 1.12872 5.62697C1.23054 4.48864 1.77932 3.37386 2.93557 2.39641C4.07259 1.4352 5.21535 1.04928 6.31108 1.11904C7.38308 1.18729 8.28262 1.68382 8.97329 2.2448C9.54719 2.71094 10.013 3.25031 10.3585 3.71343C10.7041 3.25031 11.1698 2.71094 11.7437 2.2448C12.4344 1.68382 13.3339 1.18729 14.4059 1.11904C15.5017 1.04928 16.6444 1.4352 17.7815 2.39638C18.8932 3.33611 19.5113 4.33144 19.7482 5.3327C19.9841 6.33009 19.8216 7.24733 19.5246 8.00061C19.2299 8.74809 18.7951 9.35593 18.4455 9.76979C18.2688 9.97895 18.1089 10.1444 17.9908 10.2596C17.9317 10.3173 17.8827 10.3627 17.8469 10.3951C17.8327 10.4079 17.8206 10.4186 17.8107 10.4273L10.7097 17.4314C10.515 17.6235 10.2021 17.6235 10.0074 17.4314L4.04659 11.5519Z" fill="#CA077C"/>
</svg>
