<svg width="24" height="24" viewBox="0 0 24 24" fill="none" xmlns="http://www.w3.org/2000/svg">
<path fill-rule="evenodd" clip-rule="evenodd" d="M19.8311 11.416C21.4161 11.4965 22.6768 12.8071 22.6768 14.4121V18.5L22.6729 18.6543C22.5951 20.1882 21.365 21.4182 19.8311 21.4961L19.6768 21.5H4.5C2.84323 21.5 1.50013 20.1567 1.5 18.5V14.4121C1.5 12.7553 2.84315 11.4121 4.5 11.4121H19.6768L19.8311 11.416Z" fill="white"/>
<path d="M18.9707 7.25C19.3849 7.25 19.7207 7.58579 19.7207 8C19.7207 8.41421 19.3849 8.75 18.9707 8.75H5.20605C4.79184 8.75 4.45605 8.41421 4.45605 8C4.45605 7.58579 4.79184 7.25 5.20605 7.25H18.9707Z" fill="white"/>
<path d="M16.3242 3.25C16.7382 3.25033 17.0742 3.58599 17.0742 4C17.0742 4.41401 16.7382 4.74967 16.3242 4.75H7.85352C7.4393 4.75 7.10352 4.41421 7.10352 4C7.10352 3.58579 7.4393 3.25 7.85352 3.25H16.3242Z" fill="white"/>
</svg>
