<svg width="24" height="24" viewBox="0 0 24 24" fill="none" xmlns="http://www.w3.org/2000/svg">
<path d="M13.25 12.0001C13.25 12.6904 12.6904 13.2501 12 13.2501C11.3096 13.2501 10.75 12.6904 10.75 12.0001C10.75 11.3097 11.3096 10.7501 12 10.7501C12.6904 10.7501 13.25 11.3097 13.25 12.0001Z" fill="white"/>
<path fill-rule="evenodd" clip-rule="evenodd" d="M12 23C18.0751 23 23 18.0751 23 12C23 5.92487 18.0751 1 12 1C5.92487 1 1 5.92487 1 12C1 18.0751 5.92487 23 12 23ZM16.7401 5.79448C17.6135 5.32416 18.5649 6.27559 18.0946 7.14905L14.632 13.5797C14.4 14.0104 14.0468 14.3637 13.6161 14.5956L7.18543 18.0582C6.31197 18.5286 5.36053 17.5771 5.83086 16.7037L9.2935 10.2731C9.52544 9.8423 9.87868 9.48907 10.3094 9.25712L16.7401 5.79448Z" fill="white"/>
</svg>
