<svg width="20" height="20" viewBox="0 0 20 20" fill="none" xmlns="http://www.w3.org/2000/svg">
<path fill-rule="evenodd" clip-rule="evenodd" d="M12.2969 14.5121C11.0425 15.3469 9.53641 15.8333 7.91667 15.8333C3.54441 15.8333 0 12.2889 0 7.91667C0 3.54441 3.54441 0 7.91667 0C12.2889 0 15.8333 3.54441 15.8333 7.91667C15.8333 9.53641 15.3469 11.0425 14.5121 12.2969L18.8924 16.6772C19.5041 17.2889 19.5041 18.2807 18.8924 18.8924C18.2807 19.5041 17.2889 19.5041 16.6772 18.8924L12.2969 14.5121ZM14.1667 7.91667C14.1667 11.3684 11.3684 14.1667 7.91667 14.1667C4.46489 14.1667 1.66667 11.3684 1.66667 7.91667C1.66667 4.46489 4.46489 1.66667 7.91667 1.66667C11.3684 1.66667 14.1667 4.46489 14.1667 7.91667Z" fill="white"/>
</svg>
