<svg width="21" height="17" viewBox="0 0 21 17" fill="none" xmlns="http://www.w3.org/2000/svg">
<path d="M6 8.5C6 9.32843 5.32843 10 4.5 10C3.67157 10 3 9.32843 3 8.5C3 7.67157 3.67157 7 4.5 7C5.32843 7 6 7.67157 6 8.5Z" fill="white"/>
<path d="M12 8.5C12 9.32843 11.3284 10 10.5 10C9.67157 10 9 9.32843 9 8.5C9 7.67157 9.67157 7 10.5 7C11.3284 7 12 7.67157 12 8.5Z" fill="white"/>
<path d="M16.5 10C17.3284 10 18 9.32843 18 8.5C18 7.67157 17.3284 7 16.5 7C15.6716 7 15 7.67157 15 8.5C15 9.32843 15.6716 10 16.5 10Z" fill="white"/>
</svg>
