<svg width="28" height="20" viewBox="0 0 28 20" fill="none" xmlns="http://www.w3.org/2000/svg">
<path fill-rule="evenodd" clip-rule="evenodd" d="M23.4999 6.89751C23.906 6.89751 24.1422 7.33996 23.9061 7.65844L15.062 19.5932C14.4432 20.4282 13.0794 19.8747 13.2665 18.8646L14.4851 12.2872H9.50018C9.0874 12.2872 8.8529 11.8318 9.10258 11.5149L17.8729 0.384328C18.5127 -0.427623 19.8515 0.151052 19.6479 1.1516L18.479 6.89751H23.4999ZM6 4.875C6 4.39173 6.39172 4 6.875 4H10.625C11.1083 4 11.5 4.39173 11.5 4.875C11.5 5.35828 11.1083 5.75 10.625 5.75H6.875C6.39172 5.75 6 5.35828 6 4.875ZM4.875 9C4.39172 9 4 9.39173 4 9.875C4 10.3583 4.39172 10.75 4.875 10.75H7.125C7.60828 10.75 8 10.3583 8 9.875C8 9.39173 7.60828 9 7.125 9H4.875ZM5 14.875C5 14.3917 5.39172 14 5.875 14H10.125C10.6083 14 11 14.3917 11 14.875C11 15.3583 10.6083 15.75 10.125 15.75H5.875C5.39172 15.75 5 15.3583 5 14.875Z" fill="#FF9F2F"/>
</svg>
