<svg width="16" height="16" viewBox="0 0 16 16" fill="none" xmlns="http://www.w3.org/2000/svg">
<path fill-rule="evenodd" clip-rule="evenodd" d="M10.1674 11.999C9.13022 12.6892 7.88492 13.0914 6.54568 13.0914C2.9306 13.0914 0 10.1608 0 6.54568C0 2.9306 2.9306 0 6.54568 0C10.1608 0 13.0914 2.9306 13.0914 6.54568C13.0914 7.88492 12.6892 9.13022 11.999 10.1674L15.6207 13.7891C16.1264 14.2949 16.1264 15.1149 15.6207 15.6207C15.1149 16.1264 14.2949 16.1264 13.7891 15.6207L10.1674 11.999ZM11.7133 6.54568C11.7133 9.39969 9.39969 11.7133 6.54568 11.7133C3.69167 11.7133 1.37804 9.39969 1.37804 6.54568C1.37804 3.69167 3.69167 1.37804 6.54568 1.37804C9.39969 1.37804 11.7133 3.69167 11.7133 6.54568Z" fill="#757575"/>
</svg>
