<svg width="26" height="26" viewBox="0 0 26 26" fill="none" xmlns="http://www.w3.org/2000/svg">
<path d="M20.2222 0.962963C20.2222 0.431141 20.6534 0 21.1852 0C21.717 0 22.1481 0.431141 22.1481 0.962963V3.85185H25.037C25.5688 3.85185 26 4.28299 26 4.81482C26 5.34664 25.5688 5.77778 25.037 5.77778H22.1481V8.66667C22.1481 9.19849 21.717 9.62963 21.1852 9.62963C20.6534 9.62963 20.2222 9.19849 20.2222 8.66667V5.77778H17.3333C16.8015 5.77778 16.3704 5.34664 16.3704 4.81482C16.3704 4.28299 16.8015 3.85185 17.3333 3.85185H20.2222V0.962963Z" fill="#AAAAAA"/>
<path fill-rule="evenodd" clip-rule="evenodd" d="M11.5556 2.88889C12.6952 2.88889 13.7963 3.05386 14.8362 3.36122C14.5872 3.7882 14.4444 4.28484 14.4444 4.81482C14.4444 4.96857 14.4565 5.11952 14.4796 5.26678C13.5574 4.97323 12.575 4.81482 11.5556 4.81482C6.23726 4.81482 1.92593 9.12615 1.92593 14.4444C1.92593 16.4787 2.55671 18.3657 3.63336 19.9203C4.5575 18.3711 6.25016 17.3333 8.18519 17.3333H14.9259C16.861 17.3333 18.5536 18.3711 19.4778 19.9203C20.5544 18.3657 21.1852 16.4787 21.1852 14.4444C21.1852 13.425 21.0268 12.4426 20.7332 11.5204C20.8805 11.5435 21.0314 11.5556 21.1852 11.5556C21.7151 11.5556 22.2118 11.4128 22.6388 11.1637C22.9461 12.2037 23.1111 13.3048 23.1111 14.4444C23.1111 20.8264 17.9375 26 11.5556 26C5.1736 26 0 20.8264 0 14.4444C0 8.06249 5.1736 2.88889 11.5556 2.88889ZM11.5556 24.0741C14.0845 24.0741 16.3858 23.0992 18.104 21.5048C17.6409 20.1965 16.3929 19.2593 14.9259 19.2593H8.18519C6.71823 19.2593 5.47017 20.1965 5.0071 21.5048C6.72536 23.0992 9.02661 24.0741 11.5556 24.0741Z" fill="#AAAAAA"/>
<path fill-rule="evenodd" clip-rule="evenodd" d="M15.4074 11.5556C15.4074 13.6829 13.6829 15.4074 11.5556 15.4074C9.42824 15.4074 7.7037 13.6829 7.7037 11.5556C7.7037 9.42824 9.42824 7.7037 11.5556 7.7037C13.6829 7.7037 15.4074 9.42824 15.4074 11.5556ZM13.4815 11.5556C13.4815 12.6192 12.6192 13.4815 11.5556 13.4815C10.4919 13.4815 9.62963 12.6192 9.62963 11.5556C9.62963 10.4919 10.4919 9.62963 11.5556 9.62963C12.6192 9.62963 13.4815 10.4919 13.4815 11.5556Z" fill="#AAAAAA"/>
</svg>
