<svg width="32" height="32" viewBox="0 0 32 32" fill="none" xmlns="http://www.w3.org/2000/svg">
<path fill-rule="evenodd" clip-rule="evenodd" d="M16 4C16.6165 4 17.2222 4.048 17.8135 4.13867C18.1785 4.19498 18.3382 4.62746 18.1992 4.96973C18.0961 5.22343 17.8383 5.405 17.5674 5.36523C17.0558 5.28992 16.5324 5.25 16 5.25C10.0629 5.25 5.25 10.0629 5.25 16C5.25 18.3878 6.02968 20.5928 7.34668 22.377C7.96915 20.9771 9.36913 20 11 20H21C22.6307 20 24.0298 20.9773 24.6523 22.377C25.9696 20.5927 26.75 18.388 26.75 16C26.75 15.4672 26.7094 14.9435 26.6338 14.4316C26.594 14.1607 26.7756 13.9029 27.0293 13.7998C27.3716 13.6607 27.804 13.8205 27.8604 14.1855C27.9514 14.7772 28 15.3831 28 16C28 22.6274 22.6274 28 16 28C9.37258 28 4 22.6274 4 16C4 9.37258 9.37258 4 16 4ZM11 21.25C9.65345 21.25 8.53467 22.2181 8.29785 23.4961C10.2508 25.5023 12.9791 26.75 16 26.75C19.0207 26.75 21.7483 25.5021 23.7012 23.4961C23.4643 22.2182 22.3465 21.25 21 21.25H11Z" fill="#AAAAAA"/>
<path fill-rule="evenodd" clip-rule="evenodd" d="M16 10C18.2091 10 20 11.7909 20 14C20 16.2091 18.2091 18 16 18C13.7909 18 12 16.2091 12 14C12 11.7909 13.7909 10 16 10ZM16 11.25C14.4812 11.25 13.25 12.4812 13.25 14C13.25 15.5188 14.4812 16.75 16 16.75C17.5188 16.75 18.75 15.5188 18.75 14C18.75 12.4812 17.5188 11.25 16 11.25Z" fill="#AAAAAA"/>
<path d="M26 0C26.4142 0 26.75 0.335786 26.75 0.75V5.25H31.25C31.6642 5.25 32 5.58579 32 6C32 6.41421 31.6642 6.75 31.25 6.75H26.75V11.25C26.75 11.6642 26.4142 12 26 12C25.5858 12 25.25 11.6642 25.25 11.25V6.75H20.75C20.3358 6.75 20 6.41421 20 6C20 5.58579 20.3358 5.25 20.75 5.25H25.25V0.75C25.25 0.335786 25.5858 0 26 0Z" fill="#AAAAAA"/>
</svg>
