<svg width="12" height="16" viewBox="0 0 12 16" fill="none" xmlns="http://www.w3.org/2000/svg">
<path d="M6.81825 6.14301L6.97074 5.39342L7.90583 0.796692L7.90584 0.796632C7.91573 0.748067 7.90587 0.725944 7.89797 0.712468C7.88603 0.692109 7.85913 0.664101 7.81336 0.644317C7.76777 0.624611 7.72193 0.621251 7.68671 0.628601C7.65786 0.634618 7.62459 0.649437 7.58925 0.694278L6.81825 6.14301ZM6.81825 6.14301H7.5832H11.1349L4.34744 15.3024C4.3134 15.3484 4.28079 15.3638 4.25244 15.3705C4.21755 15.3787 4.17131 15.3765 4.12463 15.3575C4.07778 15.3385 4.04983 15.3107 4.0373 15.2903C4.02903 15.2768 4.01863 15.2548 4.02775 15.2055L3.41321 15.0917L4.02776 15.2055L5.00261 9.94363L5.13949 9.20478H4.38806H0.883423L7.58923 0.694296L6.81825 6.14301ZM11.4228 5.75457L11.4227 5.75464L11.4228 5.75457Z" stroke="#AAAAAA" stroke-width="1.25"/>
</svg>
