<svg width="1875" height="812" viewBox="0 0 1875 812" fill="none" xmlns="http://www.w3.org/2000/svg">
<g clip-path="url(#clip0_747_2)">
<g clip-path="url(#clip1_747_2)">
<rect width="1935" height="812" fill="white"/>
<rect width="1935" height="812" fill="url(#paint0_linear_747_2)" fill-opacity="0.85"/>
</g>
<g opacity="0.75" clip-path="url(#clip2_747_2)">
<g opacity="0.3">
<path d="M502.422 969.043C462.34 977.821 420.703 982.447 377.986 982.447C260.739 982.447 151.632 947.598 60.4582 887.692C37.8258 855.319 27.6711 837.497 20.2638 824.498C16.5936 818.057 13.5978 812.799 10.0928 807.542C-24.4452 751.996 -42.5158 680.65 -46.4563 596.82C-58.6627 337.074 99.1945 171.207 260.457 143.982C362.68 126.724 443.918 144.201 506.226 177.522C451.14 162.199 385.473 161.277 310.612 182.708C129.135 241.2 68.6382 419.064 94.5677 616.028C139.82 862.831 381.809 951.289 502.422 969.043Z" fill="url(#paint1_linear_747_2)"/>
<path d="M502.422 969.043C462.34 977.821 420.703 982.447 377.986 982.447C260.739 982.447 151.632 947.598 60.4582 887.692C37.8258 855.319 27.6711 837.497 20.2638 824.498C16.5936 818.057 13.5978 812.799 10.0928 807.542C-24.4452 751.996 -42.5158 680.65 -46.4563 596.82C-58.6627 337.074 99.1945 171.207 260.457 143.982C362.68 126.724 443.918 144.201 506.226 177.522C451.14 162.199 385.473 161.277 310.612 182.708C129.135 241.2 68.6382 419.064 94.5677 616.028C139.82 862.831 381.809 951.289 502.422 969.043Z" fill="url(#paint2_linear_747_2)"/>
<path d="M-14.4595 829.156C-48.2153 769.217 -78.784 679.781 -82.6038 598.519C-95.5622 322.77 72.952 138.937 254.433 108.299C501.812 66.5354 639.341 212.986 686.753 321.684C688.736 320.347 689.542 317.701 688.496 315.422C610.543 145.916 449.311 29.5139 263.071 29.5139C51.5975 29.5139 -137.098 181.212 -201 406.662C-200.092 573.723 -128.432 724.035 -14.4595 829.156Z" fill="url(#paint3_linear_747_2)"/>
<path d="M-14.4595 829.156C-48.2153 769.217 -78.784 679.781 -82.6038 598.519C-95.5622 322.77 72.952 138.937 254.433 108.299C501.812 66.5354 639.341 212.986 686.753 321.684C688.736 320.347 689.542 317.701 688.496 315.422C610.543 145.916 449.311 29.5139 263.071 29.5139C51.5975 29.5139 -137.098 181.212 -201 406.662C-200.092 573.723 -128.432 724.035 -14.4595 829.156Z" fill="url(#paint4_linear_747_2)"/>
<path d="M703.672 882.232C661.908 910.696 616.227 933.839 567.605 950.684C544.26 946.62 518.392 941.556 500.181 937.991C491.551 936.302 484.636 934.948 480.528 934.198C370.389 914.079 173.466 843.109 130.324 610.395C118.134 516.822 126.864 430.685 157.779 362.36C188.236 295.047 240.798 243.447 320.958 217.395C414.127 192.012 491.333 204.592 548.68 235.393C534.563 232.415 519.972 230.855 505.041 230.855C380.951 230.855 280.355 338.634 280.355 471.588C280.355 524.676 296.394 573.751 323.564 613.553C323.564 613.553 401.34 760.467 613.063 747.336C801.845 735.628 899.881 566.293 911.565 503.746C917.637 471.241 920.812 437.716 920.812 403.45C920.812 103.664 677.788 -139.361 378.002 -139.361C151.154 -139.361 -43.193 -0.205414 -124.334 197.4C-151.741 233.104 -175.34 272.686 -194.356 315.487C-151.981 37.4606 88.1353 -175.548 378.002 -175.548C697.774 -175.548 957 83.6782 957 403.45C957 602.464 856.592 778.015 703.672 882.232Z" fill="url(#paint5_linear_747_2)"/>
<path d="M703.672 882.232C661.908 910.696 616.227 933.839 567.605 950.684C544.26 946.62 518.392 941.556 500.181 937.991C491.551 936.302 484.636 934.948 480.528 934.198C370.389 914.079 173.466 843.109 130.324 610.395C118.134 516.822 126.864 430.685 157.779 362.36C188.236 295.047 240.798 243.447 320.958 217.395C414.127 192.012 491.333 204.592 548.68 235.393C534.563 232.415 519.972 230.855 505.041 230.855C380.951 230.855 280.355 338.634 280.355 471.588C280.355 524.676 296.394 573.751 323.564 613.553C323.564 613.553 401.34 760.467 613.063 747.336C801.845 735.628 899.881 566.293 911.565 503.746C917.637 471.241 920.812 437.716 920.812 403.45C920.812 103.664 677.788 -139.361 378.002 -139.361C151.154 -139.361 -43.193 -0.205414 -124.334 197.4C-151.741 233.104 -175.34 272.686 -194.356 315.487C-151.981 37.4606 88.1353 -175.548 378.002 -175.548C697.774 -175.548 957 83.6782 957 403.45C957 602.464 856.592 778.015 703.672 882.232Z" fill="url(#paint6_linear_747_2)"/>
</g>
</g>
<g opacity="0.25" clip-path="url(#clip3_747_2)">
<g opacity="0.7">
<path d="M1544.85 -134.369C1590.47 -129.554 1636.27 -119.786 1681.59 -104.729C1805.98 -63.4032 1909.45 12.0269 1985.07 107.719C1997.67 150.042 2002.16 172.528 2005.44 188.93C2007.06 197.058 2008.39 203.691 2010.25 210.505C2027.32 281.608 2021.34 363.671 1995.97 453.997C1917.37 733.871 1691.43 854.204 1510.75 826.247C1396.21 808.526 1316.19 761.349 1261.83 704.037C1314.87 739.71 1384.21 763.833 1471.19 767.483C1684.34 769.393 1811.21 602.015 1853.13 383.912C1892.11 106.121 1666.56 -73.0203 1544.85 -134.369Z" fill="url(#paint7_linear_747_2)"/>
<path d="M1544.85 -134.369C1590.47 -129.554 1636.27 -119.786 1681.59 -104.729C1805.98 -63.4032 1909.45 12.0269 1985.07 107.719C1997.67 150.042 2002.16 172.528 2005.44 188.93C2007.06 197.058 2008.39 203.691 2010.25 210.505C2027.32 281.608 2021.34 363.671 1995.97 453.997C1917.37 733.871 1691.43 854.204 1510.75 826.247C1396.21 808.526 1316.19 761.349 1261.83 704.037C1314.87 739.71 1384.21 763.833 1471.19 767.483C1684.34 769.393 1811.21 602.015 1853.13 383.912C1892.11 106.121 1666.56 -73.0203 1544.85 -134.369Z" fill="url(#paint8_linear_747_2)"/>
<path d="M1544.85 -134.369C1590.47 -129.554 1636.27 -119.786 1681.59 -104.729C1805.98 -63.4032 1909.45 12.0269 1985.07 107.719C1997.67 150.042 2002.16 172.528 2005.44 188.93C2007.06 197.058 2008.39 203.691 2010.25 210.505C2027.32 281.608 2021.34 363.671 1995.97 453.997C1917.37 733.871 1691.43 854.204 1510.75 826.247C1396.21 808.526 1316.19 761.349 1261.83 704.037C1314.87 739.71 1384.21 763.833 1471.19 767.483C1684.34 769.393 1811.21 602.015 1853.13 383.912C1892.11 106.121 1666.56 -73.0203 1544.85 -134.369Z" fill="url(#paint9_linear_747_2)"/>
<path d="M1544.85 -134.369C1590.47 -129.554 1636.27 -119.786 1681.59 -104.729C1805.98 -63.4032 1909.45 12.0269 1985.07 107.719C1997.67 150.042 2002.16 172.528 2005.44 188.93C2007.06 197.058 2008.39 203.691 2010.25 210.505C2027.32 281.608 2021.34 363.671 1995.97 453.997C1917.37 733.871 1691.43 854.204 1510.75 826.247C1396.21 808.526 1316.19 761.349 1261.83 704.037C1314.87 739.71 1384.21 763.833 1471.19 767.483C1684.34 769.393 1811.21 602.015 1853.13 383.912C1892.11 106.121 1666.56 -73.0203 1544.85 -134.369Z" fill="url(#paint10_linear_747_2)"/>
<path d="M2043.92 196.227C2058.6 271.717 2059.51 377.377 2034.92 464.936C1951.48 762.052 1707.9 897.689 1504.56 866.227C1227.39 823.341 1133.1 619.493 1121.11 487.46C1118.54 488.18 1116.75 490.704 1117.06 493.49C1140.01 700.8 1270.04 881.123 1467.63 946.768C1691.99 1021.31 1945.65 926.876 2092.91 710.213C2150.83 532.654 2127.78 347.926 2043.92 196.227Z" fill="url(#paint11_linear_747_2)"/>
<path d="M2043.92 196.227C2058.6 271.717 2059.51 377.377 2034.92 464.936C1951.48 762.052 1707.9 897.689 1504.56 866.227C1227.39 823.341 1133.1 619.493 1121.11 487.46C1118.54 488.18 1116.75 490.704 1117.06 493.49C1140.01 700.8 1270.04 881.123 1467.63 946.768C1691.99 1021.31 1945.65 926.876 2092.91 710.213C2150.83 532.654 2127.78 347.926 2043.92 196.227Z" fill="url(#paint12_linear_747_2)"/>
<path d="M2043.92 196.227C2058.6 271.717 2059.51 377.377 2034.92 464.936C1951.48 762.052 1707.9 897.689 1504.56 866.227C1227.39 823.341 1133.1 619.493 1121.11 487.46C1118.54 488.18 1116.75 490.704 1117.06 493.49C1140.01 700.8 1270.04 881.123 1467.63 946.768C1691.99 1021.31 1945.65 926.876 2092.91 710.213C2150.83 532.654 2127.78 347.926 2043.92 196.227Z" fill="url(#paint13_linear_747_2)"/>
</g>
</g>
</g>
<defs>
<linearGradient id="paint0_linear_747_2" x1="-60.5" y1="-2.03054e-05" x2="653.669" y2="1465.27" gradientUnits="userSpaceOnUse">
<stop stop-color="#FF9F2F"/>
<stop offset="0.315689" stop-color="#FA3C3C"/>
<stop offset="0.675289" stop-color="#5B09AD"/>
<stop offset="0.802691" stop-color="#4C00C7"/>
<stop offset="0.99467" stop-color="#0090F8"/>
</linearGradient>
<linearGradient id="paint1_linear_747_2" x1="160.584" y1="304.137" x2="159.701" y2="818.724" gradientUnits="userSpaceOnUse">
<stop offset="0.0297309" stop-color="#FA3C3C"/>
<stop offset="1" stop-color="#BC1870"/>
</linearGradient>
<linearGradient id="paint2_linear_747_2" x1="-47.1213" y1="108.301" x2="735.803" y2="651.635" gradientUnits="userSpaceOnUse">
<stop stop-color="#FF9F2F"/>
<stop offset="0.31973" stop-color="#FA3C3C"/>
<stop offset="1" stop-color="#5B09AD"/>
</linearGradient>
<linearGradient id="paint3_linear_747_2" x1="81.7596" y1="59.7505" x2="53.0891" y2="574.485" gradientUnits="userSpaceOnUse">
<stop stop-color="#FF9F2F"/>
<stop offset="1" stop-color="#FA3C3C"/>
</linearGradient>
<linearGradient id="paint4_linear_747_2" x1="-201" y1="29.5139" x2="548.633" y2="944.163" gradientUnits="userSpaceOnUse">
<stop stop-color="#FF9F2F"/>
<stop offset="0.31973" stop-color="#FA3C3C"/>
<stop offset="1" stop-color="#5B09AD"/>
</linearGradient>
<linearGradient id="paint5_linear_747_2" x1="486.559" y1="970.385" x2="488.149" y2="373.298" gradientUnits="userSpaceOnUse">
<stop stop-color="#5B09AD"/>
<stop offset="1" stop-color="#BC1870"/>
</linearGradient>
<linearGradient id="paint6_linear_747_2" x1="-194.356" y1="-175.548" x2="875.445" y2="1023.45" gradientUnits="userSpaceOnUse">
<stop stop-color="#FF9F2F"/>
<stop offset="0.31973" stop-color="#FA3C3C"/>
<stop offset="1" stop-color="#5B09AD"/>
</linearGradient>
<linearGradient id="paint7_linear_747_2" x1="1673.16" y1="691.537" x2="1855.47" y2="145.908" gradientUnits="userSpaceOnUse">
<stop offset="0.0297309" stop-color="#FA3C3C"/>
<stop offset="1" stop-color="#BC1870"/>
</linearGradient>
<linearGradient id="paint8_linear_747_2" x1="1824.49" y1="972.514" x2="1185.37" y2="120.118" gradientUnits="userSpaceOnUse">
<stop stop-color="#FF9F2F"/>
<stop offset="0.31973" stop-color="#FA3C3C"/>
<stop offset="1" stop-color="#5B09AD"/>
</linearGradient>
<linearGradient id="paint9_linear_747_2" x1="1848.41" y1="922.668" x2="1152.32" y2="206.209" gradientUnits="userSpaceOnUse">
<stop stop-color="#FF9F2F"/>
<stop offset="0.315689" stop-color="#FA3C3C"/>
<stop offset="0.660184" stop-color="#5B09AD"/>
<stop offset="0.781405" stop-color="#4C00C7"/>
<stop offset="1" stop-color="#0090F8"/>
</linearGradient>
<linearGradient id="paint10_linear_747_2" x1="1520.41" y1="35.018" x2="2195.03" y2="762.143" gradientUnits="userSpaceOnUse">
<stop stop-color="#FF9F2F"/>
<stop offset="0.315689" stop-color="#FA3C3C"/>
<stop offset="0.660184" stop-color="#5B09AD"/>
<stop offset="0.781405" stop-color="#4C00C7"/>
<stop offset="1" stop-color="#0090F8"/>
</linearGradient>
<linearGradient id="paint11_linear_747_2" x1="1670.64" y1="978.596" x2="1882.49" y2="442.606" gradientUnits="userSpaceOnUse">
<stop stop-color="#FF9F2F"/>
<stop offset="1" stop-color="#FA3C3C"/>
</linearGradient>
<linearGradient id="paint12_linear_747_2" x1="1959.97" y1="1110.34" x2="1487.06" y2="-124.26" gradientUnits="userSpaceOnUse">
<stop stop-color="#FF9F2F"/>
<stop offset="0.31973" stop-color="#FA3C3C"/>
<stop offset="1" stop-color="#5B09AD"/>
</linearGradient>
<linearGradient id="paint13_linear_747_2" x1="1201.23" y1="-23.4171" x2="1737.71" y2="1181.03" gradientUnits="userSpaceOnUse">
<stop stop-color="#FF9F2F"/>
<stop offset="0.315689" stop-color="#FA3C3C"/>
<stop offset="0.660184" stop-color="#5B09AD"/>
<stop offset="0.781405" stop-color="#4C00C7"/>
<stop offset="1" stop-color="#0090F8"/>
</linearGradient>
<clipPath id="clip0_747_2">
<rect width="1875" height="812" fill="white"/>
</clipPath>
<clipPath id="clip1_747_2">
<rect width="1935" height="812" fill="white"/>
</clipPath>
<clipPath id="clip2_747_2">
<rect width="1102" height="1102" fill="white" transform="translate(0 -144.548)"/>
</clipPath>
<clipPath id="clip3_747_2">
<rect width="1294.58" height="1294.58" fill="white" transform="translate(1865.04 1332.75) rotate(-161.622)"/>
</clipPath>
</defs>
</svg>
