<svg width="30" height="30" viewBox="0 0 30 30" fill="none" xmlns="http://www.w3.org/2000/svg">
<path fill-rule="evenodd" clip-rule="evenodd" d="M18.5004 6.73197C20.1425 5.60529 22.3728 5.79671 23.7901 7.18595C25.2074 8.5752 25.4027 10.7613 24.2532 12.3708L17.1736 22.2843C15.9378 24.0147 13.4076 24.2319 11.8839 22.7383L7.92343 18.8563C6.39968 17.3627 6.62122 14.8827 8.38659 13.6714L18.5004 6.73197ZM16.4384 18.3953C15.3105 19.5008 13.482 19.5008 12.3541 18.3953C11.2263 17.2898 11.2263 15.4974 12.3541 14.3919C13.482 13.2864 15.3105 13.2864 16.4384 14.3919C17.5662 15.4974 17.5662 17.2898 16.4384 18.3953Z" fill="white"/>
<path d="M10.7203 23.1993L7.45286 19.9967L5.34067 22.067C4.61293 22.7803 5.12834 24 6.15751 24L9.42491 24C9.73128 24 10.0251 23.8807 10.2418 23.6684L10.7203 23.1993Z" fill="white"/>
</svg>
