<svg width="24" height="24" viewBox="0 0 24 24" fill="none" xmlns="http://www.w3.org/2000/svg">
<g clip-path="url(#clip0_1391_1029)">
<path d="M8.34602 7.74936C8.71705 8.04736 9.26668 7.78215 9.26668 7.30512V5.07536H18.3333C20.2111 5.07536 21.7333 6.60361 21.7333 8.4888V12.7612C21.7333 13.1485 21.6691 13.5207 21.5507 13.8677C21.464 14.1219 21.5225 14.4123 21.7315 14.5802L22.6653 15.3302C22.9314 15.544 23.3263 15.4757 23.4705 15.1656C23.8103 14.4353 24 13.6205 24 12.7612V8.4888C24 5.34682 21.463 2.79973 18.3333 2.79973H9.26668V0.569975C9.26668 0.0929427 8.71705 -0.172266 8.34602 0.125733L4.15313 3.49331C3.86956 3.72105 3.86956 4.15404 4.15313 4.38179L8.34602 7.74936Z" fill="white"/>
<path d="M2.66807 7.33646C2.40192 7.1227 2.00705 7.19101 1.86283 7.50105C1.5231 8.23141 1.33334 9.04619 1.33334 9.90547V14.1779C1.33334 17.3199 3.8704 19.8669 7.00001 19.8669H16.0667V22.0967C16.0667 22.5737 16.6163 22.8389 16.9873 22.5409L21.1802 19.1734C21.4638 18.9456 21.4638 18.5126 21.1802 18.2849L16.9873 14.9173C16.6163 14.6193 16.0667 14.8845 16.0667 15.3615V17.5913H7.00001C5.12224 17.5913 3.60001 16.0631 3.60001 14.1779V9.90547C3.60001 9.51819 3.66425 9.14598 3.78262 8.79899C3.86934 8.54476 3.81089 8.25434 3.60188 8.08647L2.66807 7.33646Z" fill="white"/>
</g>
<defs>
<clipPath id="clip0_1391_1029">
<rect width="24" height="24" fill="white"/>
</clipPath>
</defs>
</svg>
