<svg width="120" height="120" viewBox="0 0 120 120" fill="none" xmlns="http://www.w3.org/2000/svg">
<path d="M88.3333 80C88.3333 82.7614 86.0948 85 83.3333 85C80.5719 85 78.3333 82.7614 78.3333 80C78.3333 77.2386 80.5719 75 83.3333 75C86.0948 75 88.3333 77.2386 88.3333 80Z" fill="#666666"/>
<path fill-rule="evenodd" clip-rule="evenodd" d="M92.6664 40H103.333C108.856 40 113.333 44.4771 113.333 50V60.569C117.217 61.9418 120 65.6459 120 70V90C120 94.3541 117.217 98.0582 113.333 99.431V110C113.333 115.523 108.856 120 103.333 120H10C4.47713 120 0 115.523 0 110V43.3333C0 34.1286 7.46195 26.6667 16.6667 26.6667H27.3334C30.422 11.4517 43.8737 0 60 0C76.1263 0 89.578 11.4517 92.6666 26.6667H100C101.841 26.6667 103.333 28.159 103.333 30C103.333 31.8409 101.841 33.3333 100 33.3333H93.3333C93.3333 35.6164 93.1036 37.8459 92.6664 40ZM26.6667 33.3333H16.6667C11.1438 33.3333 6.66667 37.8105 6.66667 43.3333V110C6.66667 111.841 8.15898 113.333 10 113.333H103.333C105.174 113.333 106.667 111.841 106.667 110V100H76.6667C71.1438 100 66.6667 95.5229 66.6667 90V70C66.6667 64.4771 71.1438 60 76.6667 60H106.667V50C106.667 48.1591 105.174 46.6667 103.333 46.6667H20C18.159 46.6667 16.6667 45.1743 16.6667 43.3333C16.6667 41.4924 18.159 40 20 40H27.3336C26.8964 37.8459 26.6667 35.6164 26.6667 33.3333ZM34.1736 40C33.6251 37.8692 33.3333 35.6353 33.3333 33.3333C33.3333 18.6057 45.2724 6.66667 60 6.66667C74.7276 6.66667 86.6667 18.6057 86.6667 33.3333C86.6667 35.6353 86.3749 37.8692 85.8264 40H70.7648C70.8382 38.9861 70.6925 38.0454 70.3377 37.2097C69.8155 35.9801 68.8409 34.978 67.4469 34.305L67.4089 34.2868L67.4481 34.1791L67.4601 34.1792C69.3638 34.1984 70.4635 33.8484 71.2681 32.8961C71.7407 32.3366 72.1116 31.5693 72.4837 30.5468C73.8415 26.816 71.9979 23.844 67.5946 21.8644C67.266 21.7167 67.0976 21.3431 67.2205 21.0058L68.6367 17.1146C68.763 16.7677 68.5832 16.3838 68.2349 16.2571L66.3029 15.5539L66.2968 15.5517C65.9503 15.4293 65.5695 15.6077 65.4439 15.9526L64.0419 19.8046C63.9158 20.1515 63.5311 20.33 63.183 20.2033L61.9879 19.7683C61.6396 19.6416 61.4598 19.2576 61.5861 18.9107L62.9881 15.0587C63.1136 14.7138 62.9366 14.3323 62.5924 14.2034L62.5863 14.2011L60.6543 13.498C60.3062 13.3713 59.9217 13.5497 59.7953 13.8966L58.3933 17.7487C58.2672 18.0956 57.8825 18.2741 57.5344 18.1474L52.3551 16.2622C52.0837 16.1635 51.7836 16.3038 51.6848 16.5757L50.767 19.0968C50.6681 19.3687 50.8079 19.6691 51.0791 19.7678L53.2894 20.5723C53.9677 20.8192 54.3168 21.5702 54.0694 22.2498L48.4261 37.7547L45.1493 36.562C44.9133 36.4761 44.6493 36.5707 44.5209 36.7872L42.9067 39.5074C42.8131 39.6653 42.8125 39.8491 42.8839 40H34.1736ZM63.0739 40H55.3178L54.8627 39.8343C54.5915 39.7356 54.4517 39.4352 54.5508 39.1633L56.5818 33.583C56.6807 33.3112 56.9808 33.1709 57.2522 33.2696L60.187 34.3378C62.4817 35.173 64.2668 37.1187 63.5081 39.2028C63.399 39.5023 63.252 39.7675 63.0739 40ZM58.4965 29.8506C58.2253 29.7519 58.0855 29.4515 58.1844 29.1796L60.0848 23.9587C60.1837 23.6868 60.4838 23.5465 60.755 23.6452L63.5105 24.6482C65.5544 25.392 66.5114 26.8736 65.779 28.8858C64.9943 31.0417 63.0448 31.5061 61.1802 30.8275L58.4965 29.8506ZM73.3333 70C73.3333 68.159 74.8256 66.6667 76.6667 66.6667H110C111.841 66.6667 113.333 68.159 113.333 70V90C113.333 91.841 111.841 93.3333 110 93.3333H76.6667C74.8256 93.3333 73.3333 91.841 73.3333 90V70Z" fill="#666666"/>
</svg>
