<svg width="16" height="16" viewBox="0 0 16 16" fill="none" xmlns="http://www.w3.org/2000/svg">
<g clip-path="url(#clip0_5108_2080)">
<path fill-rule="evenodd" clip-rule="evenodd" d="M15.5999 5.51801C15.9248 5.51801 16.1137 5.87196 15.9249 6.12675L8.84959 15.6746C8.35458 16.3425 7.26349 15.8998 7.41321 15.0917L8.38806 9.82978H4.40014C4.06992 9.82978 3.88232 9.46542 4.08206 9.21196L11.0983 0.307462C11.6102 -0.342098 12.6812 0.120841 12.5183 0.921281L11.5832 5.51801H15.5999ZM9.88461 6.86542L10.6497 3.10463L6.41231 8.48237H10.0577L9.2564 12.8074L13.6596 6.86542H9.88461Z" fill="#111111"/>
<path d="M1.6 3.90001C1.6 3.51339 1.91338 3.20001 2.3 3.20001H5.3C5.68662 3.20001 6 3.51339 6 3.90001C6 4.28663 5.68662 4.60001 5.3 4.60001H2.3C1.91338 4.60001 1.6 4.28663 1.6 3.90001Z" fill="#111111"/>
<path d="M0.7 7.20001C0.313379 7.20001 0 7.51339 0 7.90001C0 8.28663 0.313379 8.60001 0.7 8.60001H2.5C2.88662 8.60001 3.2 8.28663 3.2 7.90001C3.2 7.51339 2.88662 7.20001 2.5 7.20001H0.7Z" fill="#111111"/>
<path d="M0.8 11.9C0.8 11.5134 1.11338 11.2 1.5 11.2H4.9C5.28662 11.2 5.6 11.5134 5.6 11.9C5.6 12.2866 5.28662 12.6 4.9 12.6H1.5C1.11338 12.6 0.8 12.2866 0.8 11.9Z" fill="#111111"/>
</g>
<defs>
<clipPath id="clip0_5108_2080">
<rect width="16" height="16" fill="white"/>
</clipPath>
</defs>
</svg>
