<svg width="30" height="22" viewBox="0 0 30 22" fill="none" xmlns="http://www.w3.org/2000/svg">
<path d="M13.3544 19C12.9104 19 12.5243 18.8727 12.09 18.6083L2.16787 12.7038C1.41503 12.2534 1 11.705 1 10.9902C1 10.2656 1.40538 9.74663 2.16787 9.28641L12.09 3.38189C12.534 3.1175 12.92 3 13.364 3C14.2713 3 15.0241 3.68544 15.0241 4.9388V10.5789C15.1496 10.06 15.5357 9.64872 16.1437 9.28641L26.0658 3.38189C26.5098 3.1175 26.8959 3 27.3399 3C28.2472 3 29 3.68544 29 4.9388V17.0514C29 18.3048 28.2375 19 27.3399 19C26.8862 19 26.5002 18.8727 26.0658 18.6083L16.1437 12.7038C15.5453 12.3513 15.1593 11.9204 15.0241 11.4015V17.0514C15.0241 18.3048 14.2616 19 13.3544 19Z" fill="white"/>
</svg>
