<svg width="32" height="32" viewBox="0 0 32 32" fill="none" xmlns="http://www.w3.org/2000/svg">
<path fill-rule="evenodd" clip-rule="evenodd" d="M16 4C16.4407 4 16.5688 4.58999 16.21 4.8457C16.1394 4.89587 16.0691 4.94708 16 4.99902C15.6947 5.22832 15.4027 5.4753 15.126 5.7373C15.0108 5.84636 14.898 5.95789 14.7881 6.07227C13.0614 7.86943 12 10.311 12 13C12 18.5228 16.4772 23 22 23C22.4102 23 22.8147 22.9757 23.2119 22.9277C23.3432 22.9119 23.4739 22.893 23.6035 22.8721C23.9444 22.8171 24.2799 22.7448 24.6084 22.6562C24.6997 22.6317 24.7907 22.6062 24.8809 22.5791C25.3538 22.4372 25.7955 22.9514 25.4932 23.3418C25.4023 23.4592 25.309 23.5746 25.2139 23.6885C24.9922 23.9538 24.7591 24.2099 24.5156 24.4551C24.3964 24.5751 24.2746 24.6927 24.1504 24.8076C22.0102 26.789 19.1465 28 16 28C9.37258 28 4 22.6274 4 16C4 10.1064 8.249 5.20551 13.8506 4.19238C14.0516 4.15602 14.2546 4.12386 14.459 4.09766C14.8381 4.04906 15.223 4.01822 15.6123 4.00586C15.741 4.00177 15.8703 4 16 4ZM12.9053 5.96484C8.61712 7.28542 5.5 11.2792 5.5 16C5.5 21.799 10.201 26.5 16 26.5C18.305 26.5 20.4324 25.7559 22.1641 24.4971C22.1094 24.4978 22.0548 24.5 22 24.5C15.6487 24.5 10.5 19.3513 10.5 13C10.5 10.3502 11.3995 7.90917 12.9053 5.96484Z" fill="#AAAAAA"/>
<path d="M24.1631 11.1904C24.2476 10.9369 24.6069 10.9369 24.6914 11.1904L25.4258 13.3955C25.4535 13.4784 25.5187 13.5436 25.6016 13.5713L27.8066 14.3066C28.0602 14.3912 28.0602 14.7495 27.8066 14.834L25.6016 15.5693C25.5187 15.5971 25.4534 15.6622 25.4258 15.7451L24.6914 17.9502C24.6068 18.2035 24.2477 18.2034 24.1631 17.9502L23.4287 15.7451C23.4011 15.6623 23.3357 15.5971 23.2529 15.5693L21.0469 14.834C20.7939 14.7493 20.794 14.3914 21.0469 14.3066L23.2529 13.5713C23.3357 13.5435 23.4011 13.4784 23.4287 13.3955L24.1631 11.1904Z" fill="#AAAAAA"/>
<path d="M18.667 7.56934C18.7278 7.387 18.9861 7.387 19.0469 7.56934L19.5752 9.15527C19.5951 9.21499 19.6424 9.26134 19.7021 9.28125L21.2881 9.81055C21.4701 9.87145 21.4701 10.1285 21.2881 10.1895L19.7021 10.7188C19.6425 10.7386 19.5951 10.785 19.5752 10.8447L19.0469 12.4307C18.9861 12.613 18.7278 12.613 18.667 12.4307L18.1387 10.8447C18.1188 10.7853 18.0721 10.7387 18.0127 10.7188L16.4268 10.1895C16.2444 10.1287 16.2444 9.87133 16.4268 9.81055L18.0127 9.28125C18.0721 9.26125 18.1188 9.21476 18.1387 9.15527L18.667 7.56934Z" fill="#AAAAAA"/>
</svg>
