<svg width="32" height="32" viewBox="0 0 32 32" fill="none" xmlns="http://www.w3.org/2000/svg">
<path d="M16 26C16.5523 26 17 26.4477 17 27V29C17 29.5523 16.5523 30 16 30C15.4477 30 15 29.5523 15 29V27C15 26.4477 15.4477 26 16 26Z" fill="#AAAAAA"/>
<path d="M7.51465 23.0713C7.90517 22.6808 8.53819 22.6808 8.92871 23.0713C9.31923 23.4618 9.31923 24.0948 8.92871 24.4854L7.51465 25.8994C7.12412 26.2899 6.49111 26.2899 6.10059 25.8994C5.71006 25.5089 5.71006 24.8759 6.10059 24.4854L7.51465 23.0713Z" fill="#AAAAAA"/>
<path d="M23.0713 23.0713C23.4618 22.6808 24.0948 22.6808 24.4854 23.0713L25.8994 24.4854C26.2899 24.8759 26.2899 25.5089 25.8994 25.8994C25.5089 26.2899 24.8759 26.2899 24.4854 25.8994L23.0713 24.4854C22.6808 24.0948 22.6808 23.4618 23.0713 23.0713Z" fill="#AAAAAA"/>
<path fill-rule="evenodd" clip-rule="evenodd" d="M16 8.5C20.1421 8.5 23.5 11.8579 23.5 16C23.5 20.1421 20.1421 23.5 16 23.5C11.8579 23.5 8.5 20.1421 8.5 16C8.5 11.8579 11.8579 8.5 16 8.5ZM16 10C12.6863 10 10 12.6863 10 16C10 19.3137 12.6863 22 16 22C19.3137 22 22 19.3137 22 16C22 12.6863 19.3137 10 16 10Z" fill="#AAAAAA"/>
<path d="M5 15C5.55228 15 6 15.4477 6 16C6 16.5523 5.55228 17 5 17H3C2.44772 17 2 16.5523 2 16C2 15.4477 2.44772 15 3 15H5Z" fill="#AAAAAA"/>
<path d="M29 15C29.5523 15 30 15.4477 30 16C30 16.5523 29.5523 17 29 17H27C26.4477 17 26 16.5523 26 16C26 15.4477 26.4477 15 27 15H29Z" fill="#AAAAAA"/>
<path d="M6.10059 6.10059C6.49111 5.71006 7.12412 5.71006 7.51465 6.10059L8.92871 7.51465C9.31923 7.90517 9.31923 8.53819 8.92871 8.92871C8.53819 9.31924 7.90517 9.31924 7.51465 8.92871L6.10059 7.51465C5.71006 7.12412 5.71006 6.49111 6.10059 6.10059Z" fill="#AAAAAA"/>
<path d="M24.4854 6.10059C24.8759 5.71006 25.5089 5.71006 25.8994 6.10059C26.2899 6.49111 26.2899 7.12412 25.8994 7.51465L24.4854 8.92871C24.0948 9.31923 23.4618 9.31923 23.0713 8.92871C22.6808 8.53819 22.6808 7.90517 23.0713 7.51465L24.4854 6.10059Z" fill="#AAAAAA"/>
<path d="M16 2C16.5523 2 17 2.44772 17 3V5C17 5.55228 16.5523 6 16 6C15.4477 6 15 5.55228 15 5V3C15 2.44772 15.4477 2 16 2Z" fill="#AAAAAA"/>
</svg>
