<svg width="22" height="22" viewBox="0 0 22 22" fill="none" xmlns="http://www.w3.org/2000/svg">
<path d="M11.5615 22C9.70491 22 8.05798 21.7557 6.62066 21.267C5.18933 20.784 3.98258 20.0711 3.00041 19.1282C2.01824 18.191 1.27263 17.0412 0.763577 15.6786C0.254526 14.316 0 12.7607 0 11.0129C0 9.31112 0.25752 7.78179 0.77256 6.42493C1.2876 5.06808 2.03621 3.91245 3.01837 2.95806C4.00653 1.99791 5.2073 1.26486 6.62066 0.758918C8.03403 0.252973 9.63904 0 11.4357 0C13.1545 0 14.6697 0.258722 15.9812 0.776167C17.2928 1.29361 18.3947 2.00366 19.2871 2.90631C20.1854 3.80896 20.8621 4.84385 21.3173 6.01098C21.7724 7.1781 22 8.41134 22 9.7107C22 10.6191 21.9401 11.5074 21.8203 12.3755C21.7006 13.2379 21.479 14.0199 21.1556 14.7213C20.8382 15.417 20.377 15.9747 19.7722 16.3944C19.1733 16.8083 18.3947 17.0239 17.4365 17.0412C16.9275 17.0584 16.4334 17.0009 15.9543 16.8687C15.4752 16.7364 15.0679 16.5237 14.7325 16.2305C14.3972 15.9315 14.1935 15.5521 14.1217 15.0921H14.0139C13.8702 15.4313 13.6306 15.7476 13.2952 16.0408C12.9598 16.3282 12.5316 16.5582 12.0106 16.7307C11.4956 16.8974 10.8967 16.9664 10.214 16.9377C9.45937 16.9089 8.77964 16.7451 8.17477 16.4461C7.56989 16.1471 7.05186 15.7332 6.62066 15.2042C6.19545 14.6753 5.86906 14.0486 5.64149 13.3242C5.41391 12.5998 5.30012 11.7949 5.30012 10.9094C5.30012 10.0585 5.42888 9.29675 5.6864 8.62407C5.94392 7.94564 6.29427 7.36208 6.73744 6.87338C7.18661 6.37894 7.70165 5.98798 8.28257 5.70051C8.86348 5.41304 9.47734 5.23194 10.1241 5.15719C10.753 5.0882 11.3309 5.10545 11.8579 5.20894C12.3849 5.31243 12.8221 5.47053 13.1695 5.68326C13.5228 5.89599 13.7444 6.12884 13.8342 6.38181H13.951L-nan -nanL13.951 6.38181C13.951 5.84836 14.4015 5.41592 14.9571 5.41592H15.1068C15.689 5.41592 16.1609 5.86895 16.1609 6.42781V13.4191C16.1609 13.8733 16.2837 14.2585 16.5292 14.5747C16.7807 14.8909 17.1371 15.049 17.5982 15.049C18.1432 15.049 18.5684 14.8564 18.8738 14.4712C19.1852 14.086 19.4038 13.4938 19.5296 12.6946C19.6614 11.8955 19.7272 10.8721 19.7272 9.62446C19.7272 8.75056 19.6045 7.92839 19.3589 7.15798C19.1194 6.38181 18.763 5.68039 18.2899 5.05371C17.8228 4.42127 17.2479 3.87796 16.5651 3.42376C15.8824 2.96955 15.1039 2.61884 14.2295 2.37162C13.3611 2.1244 12.3999 2.00078 11.3459 2.00078C9.91452 2.00078 8.64189 2.21351 7.52797 2.63897C6.41405 3.05867 5.4738 3.66523 4.70723 4.45864C3.94665 5.25206 3.36872 6.20358 2.97346 7.31321C2.58418 8.41709 2.38955 9.65608 2.38955 11.0302C2.38955 12.4618 2.59017 13.7324 2.99142 14.842C3.39268 15.9459 3.98557 16.8773 4.77011 17.6362C5.55465 18.3951 6.52484 18.9701 7.68069 19.361C8.83653 19.7577 10.169 19.9561 11.6782 19.9561C12.349 19.9561 13.0078 19.8986 13.6546 19.7836C14.3013 19.6744 14.8763 19.5479 15.3793 19.4042C15.4131 19.395 15.4463 19.386 15.479 19.377C16.0522 19.2203 16.6706 19.5196 16.8521 20.0647L16.8668 20.1089C17.0282 20.5936 16.7883 21.1179 16.2837 21.2736C16.0939 21.3321 15.8882 21.3903 15.6668 21.4481C15.0559 21.609 14.3912 21.7413 13.6725 21.8448C12.9598 21.9483 12.2562 22 11.5615 22ZM10.735 14.8248C11.5135 14.8248 12.1394 14.6753 12.6125 14.3763C13.0916 14.0774 13.436 13.6318 13.6456 13.0396C13.8612 12.4417 13.969 11.6942 13.969 10.7973C13.963 9.92343 13.8462 9.22775 13.6186 8.71031C13.397 8.18712 13.0497 7.81341 12.5766 7.58918C12.1094 7.35921 11.5076 7.24422 10.7709 7.24422C10.0942 7.24422 9.51627 7.40233 9.03716 7.71854C8.56404 8.03476 8.20172 8.46309 7.95018 9.00353C7.70464 9.54397 7.57888 10.1448 7.57289 10.806C7.57888 11.5016 7.68069 12.1571 7.87832 12.7722C8.08194 13.3817 8.41132 13.8761 8.86648 14.2556C9.32762 14.635 9.95046 14.8248 10.735 14.8248Z" fill="#AAAAAA"/>
</svg>
