<svg width="20" height="20" viewBox="0 0 20 20" fill="none" xmlns="http://www.w3.org/2000/svg">
<g clip-path="url(#clip0_332_2)">
<path d="M12.4945 6.25831C12.8389 5.9139 13.3973 5.9139 13.7417 6.25831C14.0861 6.60271 14.0861 7.16112 13.7417 7.50554L11.2472 9.99999L13.7417 12.4945C14.0861 12.8389 14.0861 13.3973 13.7417 13.7417C13.3973 14.0861 12.8389 14.0861 12.4945 13.7417L10 11.2472L7.50554 13.7417C7.16112 14.0861 6.60271 14.0861 6.25832 13.7417C5.9139 13.3973 5.9139 12.8389 6.25832 12.4945L8.75277 10L6.25832 7.50554C5.91392 7.16113 5.91392 6.60271 6.25832 6.25831C6.60274 5.9139 7.16115 5.9139 7.50554 6.25831L10 8.75277L12.4945 6.25831Z" fill="white"/>
<path fill-rule="evenodd" clip-rule="evenodd" d="M10 0C4.47715 0 0 4.47715 0 10C0 15.5228 4.47715 20 10 20C15.5228 20 20 15.5228 20 10C20 4.47715 15.5228 0 10 0ZM1.5 10C1.5 14.6944 5.30558 18.5 10 18.5C14.6944 18.5 18.5 14.6944 18.5 10C18.5 5.30558 14.6944 1.5 10 1.5C5.30558 1.5 1.5 5.30558 1.5 10Z" fill="white"/>
</g>
<defs>
<clipPath id="clip0_332_2">
<rect width="20" height="20" fill="white"/>
</clipPath>
</defs>
</svg>
