<svg width="35" height="26" viewBox="0 0 35 26" fill="none" xmlns="http://www.w3.org/2000/svg">
<path fill-rule="evenodd" clip-rule="evenodd" d="M14.5867 0C12.1978 0 9.93397 1.06755 8.41426 2.91066L0.456904 12.5614C-0.186494 13.3418 -0.146104 14.4796 0.551006 15.2123L8.44925 23.5142C9.95936 25.1015 12.0544 26 14.2452 26H28.0016C31.8676 26 35.0017 22.866 35.0017 19V7C35.0017 3.13401 31.8676 0 28.0016 0H14.5867ZM20.0343 12.9929L15.0574 8.05898L16.8661 6.26844L21.8503 11.1952L26.8344 6.26844L28.6432 8.05898L23.6663 12.9929L28.6432 17.9268L26.8344 19.7173L21.8503 14.7906L16.8661 19.7173L15.0574 17.9268L20.0343 12.9929Z" fill="#F9F9F9"/>
</svg>
