<svg width="30" height="22" viewBox="0 0 30 22" fill="none" xmlns="http://www.w3.org/2000/svg">
<path d="M16.6456 19C17.0896 19 17.4757 18.8727 17.91 18.6083L27.8321 12.7038C28.585 12.2534 29 11.705 29 10.9902C29 10.2656 28.5946 9.74663 27.8321 9.28641L17.91 3.38189C17.466 3.1175 17.08 3 16.636 3C15.7287 3 14.9759 3.68544 14.9759 4.9388V10.5789C14.8504 10.06 14.4643 9.64872 13.8563 9.28641L3.93416 3.38189C3.49018 3.1175 3.1041 3 2.66012 3C1.75284 3 1 3.68544 1 4.9388V17.0514C1 18.3048 1.7625 19 2.66012 19C3.11375 19 3.49983 18.8727 3.93416 18.6083L13.8563 12.7038C14.4547 12.3513 14.8407 11.9204 14.9759 11.4015V17.0514C14.9759 18.3048 15.7384 19 16.6456 19Z" fill="white"/>
</svg>
