<svg width="16" height="16" viewBox="0 0 16 16" fill="none" xmlns="http://www.w3.org/2000/svg">
<g clip-path="url(#clip0_6642_1489)">
<path d="M2.8149 10.721L2.84904 10.332L2.54987 10.0809C1.39827 9.11456 0.75 7.88169 0.75 6.5777C0.75 5.18425 1.49163 3.86892 2.79685 2.87732C4.10262 1.88531 5.93972 1.25 8 1.25C10.0603 1.25 11.8974 1.88531 13.2032 2.87732C14.5084 3.86892 15.25 5.18425 15.25 6.5777C15.25 7.97116 14.5084 9.28649 13.2032 10.2781C11.8974 11.2701 10.0603 11.9054 8 11.9054C7.61212 11.9054 7.23171 11.8829 6.86092 11.8395L6.58988 11.8079L6.36186 11.9578L2.48256 14.5082L2.8149 10.721Z" stroke="#AAAAAA" stroke-width="1.5"/>
</g>
<defs>
<clipPath id="clip0_6642_1489">
<rect width="16" height="16" fill="white"/>
</clipPath>
</defs>
</svg>
