<svg width="24" height="24" viewBox="0 0 24 24" fill="none" xmlns="http://www.w3.org/2000/svg">
<path d="M12.1904 2.82107C12.6633 2.31581 12.6633 1.53041 12.1904 1.02515C11.6711 0.470288 10.7908 0.470287 10.2715 1.02515L0.63953 11.3167C0.279684 11.7012 0.279685 12.2988 0.63953 12.6833L10.2715 22.9748C10.7908 23.5297 11.6711 23.5297 12.1904 22.9748C12.6633 22.4696 12.6633 21.6842 12.1904 21.1789L4.8764 13.3641H22.6359C23.3893 13.3641 24 12.7534 24 12C24 11.2466 23.3893 10.6359 22.6359 10.6359H4.8764L12.1904 2.82107Z" fill="url(#paint0_linear_2228_60)"/>
<defs>
<linearGradient id="paint0_linear_2228_60" x1="0" y1="0" x2="26.6431" y2="20.5778" gradientUnits="userSpaceOnUse">
<stop stop-color="#0090F8"/>
<stop offset="1" stop-color="#4C00C7"/>
</linearGradient>
</defs>
</svg>
