<svg width="20" height="20" viewBox="0 0 20 20" fill="none" xmlns="http://www.w3.org/2000/svg">
<g clip-path="url(#clip0_1716_1977)">
<path d="M10 0.00341797L5.50612 3.93556C5.19439 4.20832 5.16281 4.68215 5.43557 4.99387C5.70833 5.3056 6.18215 5.33719 6.49388 5.06443L9.25 2.65282V14C9.25 14.4142 9.58579 14.75 10 14.75C10.4142 14.75 10.75 14.4142 10.75 14V2.65282L13.5061 5.06443C13.8178 5.33719 14.2917 5.3056 14.5644 4.99387C14.8372 4.68215 14.8056 4.20832 14.4939 3.93556L10 0.00341797Z" fill="white"/>
<path d="M6.75 6.99999C7.16421 6.99999 7.5 7.33578 7.5 7.74999C7.5 8.16421 7.16421 8.49999 6.75 8.49999H4C3.72386 8.49999 3.5 8.72385 3.5 8.99999V18C3.5 18.2761 3.72386 18.5 4 18.5H16C16.2761 18.5 16.5 18.2761 16.5 18V8.99999C16.5 8.72385 16.2761 8.49999 16 8.49999H13.25C12.8358 8.49999 12.5 8.16421 12.5 7.74999C12.5 7.33578 12.8358 6.99999 13.25 6.99999H16C17.1046 6.99999 18 7.89542 18 8.99999V18C18 19.1046 17.1046 20 16 20H4C2.89543 20 2 19.1046 2 18V8.99999C2 7.89542 2.89543 6.99999 4 6.99999H6.75Z" fill="white"/>
</g>
<defs>
<clipPath id="clip0_1716_1977">
<rect width="20" height="20" fill="white"/>
</clipPath>
</defs>
</svg>
