<svg width="20" height="21" viewBox="0 0 20 21" fill="none" xmlns="http://www.w3.org/2000/svg">
<path d="M14.2266 2.82659C13.5409 1.16746 11.9067 0 9.99993 0C7.4752 0 5.4285 2.0467 5.4285 4.57143C5.4285 6.47825 6.59596 8.11239 8.25509 8.79807L9.64626 7.4069C8.23518 7.23269 7.14279 6.02963 7.14279 4.57143C7.14279 2.99347 8.42198 1.71429 9.99993 1.71429C11.4581 1.71429 12.6612 2.80668 12.8354 4.21776L14.2266 2.82659Z" fill="#FA3C3C"/>
<path d="M0.902902 16.1503C1.26095 13.1052 3.67654 10.6896 6.72162 10.3315L0.902902 16.1503Z" fill="#FA3C3C"/>
<path d="M16.6493 19.4286H4.08956L5.80385 17.7143H16.6493C17.0796 17.7143 17.4285 17.3654 17.4285 16.9351C17.4285 14.2095 15.219 12 12.4934 12H11.5181L13.1958 10.3224C16.538 10.6732 19.1428 13.4999 19.1428 16.9351C19.1428 18.3122 18.0264 19.4286 16.6493 19.4286Z" fill="#FA3C3C"/>
<path d="M19.749 1.74895C20.0837 1.41421 20.0837 0.871501 19.749 0.536766C19.4142 0.202031 18.8715 0.202031 18.5368 0.536766L0.251051 18.8225C-0.0836838 19.1572 -0.0836838 19.6999 0.251051 20.0347C0.585786 20.3694 1.1285 20.3694 1.46323 20.0347L19.749 1.74895Z" fill="#FA3C3C"/>
</svg>
