<svg width="88" height="88" viewBox="0 0 88 88" fill="none" xmlns="http://www.w3.org/2000/svg">
<rect width="88" height="88" rx="44" fill="white"/>
<rect width="88" height="88" rx="44" fill="url(#paint0_radial_12983_9376)" fill-opacity="0.28"/>
<path d="M48.1985 14.9155C49.8109 12.8951 51.8638 14.5012 51.3506 16.991L49.061 34.6267C49.0221 34.9259 49.2551 35.191 49.5568 35.191H63.7394C64.7624 35.191 65.3578 36.2916 64.7642 37.0841L39.799 72.9815C38.2397 75.0589 35.3793 73.7058 35.8509 71.1922L38.837 51.2518C38.8822 50.9495 38.6481 50.6777 38.3425 50.6777H24.2604C23.2202 50.6777 22.6293 49.5438 23.2585 48.7554L48.1985 14.9155Z" fill="url(#paint1_radial_12983_9376)"/>
<defs>
<radialGradient id="paint0_radial_12983_9376" cx="0" cy="0" r="1" gradientUnits="userSpaceOnUse" gradientTransform="translate(44 44) rotate(90) scale(44)">
<stop stop-color="#3CC9FC"/>
<stop offset="0.884321" stop-color="#198AE5"/>
</radialGradient>
<radialGradient id="paint1_radial_12983_9376" cx="0" cy="0" r="1" gradientUnits="userSpaceOnUse" gradientTransform="translate(44 44) rotate(94.4672) scale(32.0975 22.4683)">
<stop offset="0.15603" stop-color="#35CCFF"/>
<stop offset="1" stop-color="#198AE5"/>
</radialGradient>
</defs>
</svg>
