<svg width="75" height="75" viewBox="0 0 75 75" fill="none" xmlns="http://www.w3.org/2000/svg">
<path d="M55.3991 0.062098C56.0782 -0.0964878 56.7329 0.0559003 57.2634 0.436712C58.3005 1.18127 58.7884 2.70906 58.4554 4.38841L55.6844 26.0546H72.8544C74.5497 26.0546 75.6226 27.9318 74.6025 29.3425L74.6035 29.3435L44.3638 73.4798L44.3571 73.4894L44.3514 73.498C43.2409 74.9997 41.5903 75.3188 40.2827 74.7064C38.9915 74.1015 38.1434 72.6397 38.4663 70.8431L42.0836 46.3251H25.0356C23.3043 46.3251 22.2337 44.3711 23.3384 42.966L53.5328 1.37901L53.5405 1.36941L53.5472 1.3598C54.0966 0.661083 54.7301 0.218393 55.3991 0.062098ZM31.7543 56.7489C31.754 58.6685 30.1971 60.2261 28.2773 60.2261H8.56387C6.64399 60.2261 5.08716 58.6686 5.08684 56.7489C5.08684 54.8289 6.64393 53.2717 8.56387 53.2717H28.2773C30.1972 53.2718 31.7543 54.8289 31.7543 56.7489ZM19.0334 36.3968C19.0334 38.3159 17.48 39.8733 15.5602 39.874H3.47703C1.61719 39.874 0.0980943 38.4132 0.00480253 36.5764L0 36.3968C0.000344875 34.4771 1.55724 32.9206 3.47703 32.9206H15.5602L15.7388 32.9244C17.5754 33.0181 19.0331 34.538 19.0334 36.3968ZM34.2929 16.2272C34.1993 18.0639 32.6799 19.5228 30.8207 19.5228H13.6507C11.7917 19.5227 10.2722 18.0639 10.1785 16.2272L10.1737 16.0485C10.1737 14.1285 11.731 12.5715 13.6507 12.5713H30.8207C32.7406 12.5713 34.2977 14.1285 34.2977 16.0485L34.2929 16.2272Z" fill="#CA077C" fill-opacity="0.15"/>
<path d="M55.3991 0.062098C56.0782 -0.0964878 56.7329 0.0559003 57.2634 0.436712C58.3005 1.18127 58.7884 2.70906 58.4554 4.38841L55.6844 26.0546H72.8544C74.5497 26.0546 75.6226 27.9318 74.6025 29.3425L74.6034 29.3435L44.3638 73.4798L44.3571 73.4894L44.3514 73.498C43.2409 74.9997 41.5903 75.3188 40.2827 74.7064C38.9915 74.1015 38.1434 72.6397 38.4663 70.8431L42.0836 46.3251H25.0356C23.3043 46.3251 22.2337 44.3711 23.3384 42.966L53.5328 1.37901L53.5405 1.36941L53.5472 1.3598C54.0966 0.661083 54.7301 0.218393 55.3991 0.062098ZM56.5469 1.43568C56.2896 1.25092 55.9953 1.18501 55.6786 1.25894C55.3541 1.33475 54.9476 1.57286 54.5241 2.10711L24.319 43.7076L24.3056 43.7268C23.8861 44.2604 24.247 45.0955 25.0356 45.0955H42.2258C42.9012 45.0955 43.4193 45.6953 43.3207 46.3635L39.6823 71.0227L39.6814 71.0333L39.6795 71.0448C39.4423 72.3284 40.039 73.2337 40.8042 73.5922C41.5581 73.9453 42.5839 73.8191 43.362 72.7671L73.5891 28.649L73.5949 28.6404L73.6016 28.6317C73.9971 28.0957 73.6299 27.2841 72.8544 27.2841H55.5451C54.8783 27.284 54.3636 26.6977 54.4482 26.0363L57.2394 4.21359L57.2413 4.1915L57.2461 4.16941C57.5246 2.79775 57.0807 1.81902 56.5469 1.43568ZM30.5249 56.7489C30.5249 55.508 29.5182 54.5013 28.2773 54.5012H8.56387C7.32293 54.5012 6.31629 55.5079 6.31629 56.7489C6.31661 57.9898 7.32327 58.9966 8.56387 58.9966H28.2773C29.5178 58.9966 30.5246 57.9897 30.5249 56.7489ZM17.8039 36.3968C17.8036 35.2333 16.9209 34.2768 15.7888 34.1616L15.5592 34.1501H3.47703C2.23637 34.1501 1.22979 35.156 1.22945 36.3968L1.24097 36.6273C1.35625 37.7603 2.31377 38.6445 3.47703 38.6445H15.5592C16.7993 38.6441 17.8039 37.6381 17.8039 36.3968ZM33.0683 16.0485C33.0683 14.8075 32.0616 13.8008 30.8207 13.8008H13.6507C12.4098 13.801 11.4031 14.8077 11.4031 16.0485C11.4038 17.2883 12.4098 18.2932 13.6507 18.2933H30.8207C32.0617 18.2933 33.0676 17.2885 33.0683 16.0485ZM31.7543 56.7489C31.754 58.6685 30.1971 60.2261 28.2773 60.2261H8.56387C6.64399 60.2261 5.08716 58.6686 5.08684 56.7489C5.08684 54.8289 6.64393 53.2717 8.56387 53.2717H28.2773C30.1972 53.2718 31.7543 54.8289 31.7543 56.7489ZM19.0334 36.3968C19.0334 38.3159 17.48 39.8733 15.5602 39.874H3.47703C1.61719 39.874 0.0980942 38.4132 0.00480253 36.5764L0 36.3968C0.000344875 34.4771 1.55724 32.9206 3.47703 32.9206H15.5602L15.7388 32.9244C17.5753 33.0181 19.033 34.538 19.0334 36.3968ZM34.2929 16.2272C34.1993 18.0639 32.6799 19.5228 30.8207 19.5228H13.6507C11.7917 19.5227 10.2722 18.0639 10.1785 16.2272L10.1737 16.0485C10.1737 14.1285 11.731 12.5715 13.6507 12.5713H30.8207C32.7406 12.5713 34.2977 14.1285 34.2977 16.0485L34.2929 16.2272Z" fill="#CA077C"/>
</svg>
