<svg width="28" height="20" viewBox="0 0 28 20" fill="none" xmlns="http://www.w3.org/2000/svg">
<path d="M19.9501 9.47014C20.212 9.68049 20.6 9.49328 20.6 9.15655V7.58261H24C25.3255 7.58261 26.4 8.66137 26.4 9.99209V13.0079C26.4 13.2813 26.3547 13.544 26.2711 13.7889C26.2099 13.9684 26.2511 14.1734 26.3987 14.2919L27.0578 14.8213C27.2457 14.9722 27.5244 14.924 27.6262 14.7051C27.8661 14.1896 28 13.6145 28 13.0079V9.99209C28 7.77422 26.2091 5.97628 24 5.97628H20.6V4.40233C20.6 4.06561 20.212 3.8784 19.9501 4.08875L16.9904 6.46586C16.7903 6.62663 16.7903 6.93226 16.9904 7.09303L19.9501 9.47014Z" fill="#52CE0A"/>
<path d="M15.9422 9.17868C15.7543 9.02779 15.4756 9.07601 15.3738 9.29486C15.1339 9.8104 15 10.3855 15 10.9921V14.0079C15 16.2258 16.7909 18.0237 19 18.0237H22.4V19.5977C22.4 19.9344 22.788 20.1216 23.0499 19.9112L26.0096 17.5341C26.2097 17.3734 26.2097 17.0677 26.0096 16.907L23.0499 14.5299C22.788 14.3195 22.4 14.5067 22.4 14.8434V16.4174H19C17.6745 16.4174 16.6 15.3386 16.6 14.0079V10.9921C16.6 10.7187 16.6453 10.456 16.7289 10.2111C16.7901 10.0316 16.7489 9.82659 16.6013 9.70809L15.9422 9.17868Z" fill="#52CE0A"/>
<path d="M10.5712 2.45457C10.5712 3.81018 9.42 4.90914 7.99984 4.90914C6.57969 4.90914 5.42844 3.81018 5.42844 2.45457C5.42844 1.09896 6.57969 0 7.99984 0C9.42 0 10.5712 1.09896 10.5712 2.45457Z" fill="#808080"/>
<path d="M13.7651 8.09022C13.6895 8.20082 13.6209 8.32112 13.5603 8.45134C13.2001 9.22584 13 10.0884 13 10.9921V14.0079C13 14.4219 13.0418 14.8264 13.1214 15.2172C13.0422 15.2424 12.9593 15.2605 12.8737 15.2707L12.661 15.2961C12.4465 15.3217 12.2856 15.4957 12.2856 15.7021V17.1818C12.2856 17.6337 11.9018 18 11.4285 18H4.57141C4.09806 18 3.71427 17.6337 3.71427 17.1818V15.7021C3.71427 15.4957 3.55335 15.3217 3.33886 15.2961L3.12625 15.2707C2.48287 15.194 2 14.6719 2 14.053V9.00008C2.0001 7.19262 4.68629 5.72732 7.99995 5.72732C10.7349 5.72732 13.0424 6.7254 13.7651 8.09022Z" fill="#808080"/>
</svg>
