<svg width="22" height="20" viewBox="0 0 22 20" fill="none" xmlns="http://www.w3.org/2000/svg">
<path d="M7.33333 9.0835C8.34586 9.0835 9.16667 8.26268 9.16667 7.25016C9.16667 6.23764 8.34586 5.41683 7.33333 5.41683C6.32081 5.41683 5.5 6.23764 5.5 7.25016C5.5 8.26268 6.32081 9.0835 7.33333 9.0835Z" fill="#AAAAAA"/>
<path fill-rule="evenodd" clip-rule="evenodd" d="M2.75 0.833496C1.23122 0.833496 0 2.06471 0 3.5835V16.4168C0 17.9356 1.23122 19.1668 2.75 19.1668H19.25C20.7688 19.1668 22 17.9356 22 16.4168V3.5835C22 2.06471 20.7688 0.833496 19.25 0.833496H2.75ZM19.25 2.66683H2.75C2.24374 2.66683 1.83333 3.07723 1.83333 3.5835V14.3739L4.28658 12.0609C4.9745 11.4123 6.04286 11.3932 6.75351 12.0168L8.21115 13.296C8.6125 13.6482 9.22873 13.5842 9.54911 13.157L13.2 8.28908C13.9333 7.31129 15.4 7.31129 16.1333 8.28907L20.1667 13.6669V3.5835C20.1667 3.07723 19.7563 2.66683 19.25 2.66683Z" fill="#AAAAAA"/>
</svg>
