<svg width="45" height="45" viewBox="0 0 45 45" fill="none" xmlns="http://www.w3.org/2000/svg">
<path d="M27.3354 44.4788C25.7778 44.8199 24.1598 44.9997 22.4998 44.9997C17.9436 44.9997 13.7037 43.6454 10.1607 41.3175C9.28115 40.0594 8.88654 39.3669 8.5987 38.8618C8.45607 38.6114 8.33965 38.4071 8.20345 38.2028C6.8613 36.0443 6.15907 33.2718 6.00594 30.0142C5.5316 19.9204 11.6659 13.4748 17.9326 12.4168C21.905 11.7462 25.0619 12.4254 27.4832 13.7202C25.3426 13.1248 22.7908 13.0889 19.8816 13.9217C12.8294 16.1948 10.4785 23.1066 11.4861 30.7606C13.2447 40.3514 22.6484 43.7889 27.3354 44.4788Z" fill="url(#paint0_linear_359_29)"/>
<path d="M7.24898 39.0437C5.93723 36.7144 4.74933 33.2389 4.60089 30.0811C4.09732 19.3655 10.6458 12.2217 17.6982 11.0311C27.3113 9.40814 32.6558 15.0992 34.4982 19.3232C34.5752 19.2713 34.6066 19.1684 34.5659 19.0799C31.5366 12.4929 25.2712 7.96948 18.0338 7.96948C9.81596 7.96948 2.48326 13.8645 0 22.6255C0.0352675 29.1175 2.81998 34.9586 7.24898 39.0437Z" fill="url(#paint1_linear_359_29)"/>
<path d="M35.1558 41.1054C33.5328 42.2115 31.7577 43.1109 29.8682 43.7655C28.961 43.6075 27.9558 43.4107 27.2481 43.2722C26.9127 43.2066 26.644 43.154 26.4844 43.1248C22.2044 42.343 14.5519 39.5851 12.8754 30.5418C12.4017 26.9055 12.741 23.5583 13.9423 20.9031C15.1259 18.2874 17.1684 16.2822 20.2835 15.2698C23.904 14.2834 26.9043 14.7723 29.1328 15.9692C28.5842 15.8535 28.0172 15.7928 27.437 15.7928C22.6148 15.7928 18.7056 19.9812 18.7056 25.1477C18.7056 27.2108 19.3289 29.1178 20.3847 30.6645C20.3847 30.6645 23.4071 36.3736 31.6347 35.8634C38.9708 35.4084 42.7805 28.828 43.2345 26.3974C43.4705 25.1343 43.5939 23.8315 43.5939 22.4999C43.5939 10.8502 34.1499 1.40624 22.5002 1.40624C13.6849 1.40624 6.13253 6.81382 2.9794 14.4928C1.91435 15.8802 0.997277 17.4184 0.258301 19.0817C1.90502 8.27752 11.236 0 22.5002 0C34.9266 0 45.0001 10.0735 45.0001 22.4999C45.0001 30.2336 41.0983 37.0555 35.1558 41.1054Z" fill="url(#paint2_linear_359_29)"/>
<defs>
<linearGradient id="paint0_linear_359_29" x1="14.0516" y1="18.6405" x2="14.0172" y2="38.6374" gradientUnits="userSpaceOnUse">
<stop offset="0.0297309" stop-color="#FA3C3C"/>
<stop offset="1" stop-color="#BC1870"/>
</linearGradient>
<linearGradient id="paint1_linear_359_29" x1="10.9881" y1="9.14448" x2="9.87393" y2="29.1471" gradientUnits="userSpaceOnUse">
<stop stop-color="#FF9F2F"/>
<stop offset="1" stop-color="#FA3C3C"/>
</linearGradient>
<linearGradient id="paint2_linear_359_29" x1="26.7187" y1="44.5311" x2="26.7805" y2="21.3282" gradientUnits="userSpaceOnUse">
<stop stop-color="#5B09AD"/>
<stop offset="1" stop-color="#BC1870"/>
</linearGradient>
</defs>
</svg>
