<svg width="16" height="18" viewBox="0 0 16 18" fill="none" xmlns="http://www.w3.org/2000/svg">
<path fill-rule="evenodd" clip-rule="evenodd" d="M11.75 4V2.75C11.75 1.36929 10.6307 0.25 9.25 0.25H3C1.61929 0.25 0.5 1.36929 0.5 2.75V11.5C0.5 12.8807 1.61929 14 3 14H4.25V15.25C4.25 16.6307 5.36929 17.75 6.75 17.75H13C14.3807 17.75 15.5 16.6307 15.5 15.25V6.5C15.5 5.11929 14.3807 4 13 4H11.75ZM9.25 2.125H3C2.65482 2.125 2.375 2.40482 2.375 2.75V11.5C2.375 11.8452 2.65482 12.125 3 12.125H4.25V6.5C4.25 5.11929 5.36929 4 6.75 4H9.875V2.75C9.875 2.40482 9.59518 2.125 9.25 2.125ZM6.125 6.5C6.125 6.15482 6.40482 5.875 6.75 5.875H13C13.3452 5.875 13.625 6.15482 13.625 6.5V15.25C13.625 15.5952 13.3452 15.875 13 15.875H6.75C6.40482 15.875 6.125 15.5952 6.125 15.25V6.5Z" fill="white"/>
</svg>
