<svg width="28" height="20" viewBox="0 0 28 20" fill="none" xmlns="http://www.w3.org/2000/svg">
<path d="M3.76471 19.4501C3.76471 19.939 4.2716 20.1839 4.56805 19.8382L9.41177 14.1896H12.1672C12.0572 13.754 12 13.3057 12 12.8595V9.07321C12 6.57085 13.7979 4 16.6353 4H19.9853C19.816 1.75813 18.2017 0 16.2353 0H3.76471C1.68552 0 0 1.9656 0 4.3903V9.79927C0 12.224 1.68552 14.1896 3.76471 14.1896L3.76471 19.4501Z" fill="#808080"/>
<path fill-rule="evenodd" clip-rule="evenodd" d="M24.8024 19.8867C25.0099 20.1287 25.3647 19.9573 25.3647 19.6151L25.3647 15.9327C26.8201 15.9327 28 14.5568 28 12.8595V9.07321C28 7.37592 26.8201 6 25.3647 6H16.6353C15.1799 6 14 7.37592 14 9.07321V12.8595C14 14.5568 15.1799 15.9327 16.6353 15.9327H21.4118L24.8024 19.8867Z" fill="#444444"/>
</svg>
