<svg width="20" height="20" viewBox="0 0 20 20" fill="none" xmlns="http://www.w3.org/2000/svg">
<g clip-path="url(#clip0_1775_1033)">
<path d="M19.4999 6.89751C19.906 6.89751 20.1422 7.33996 19.9061 7.65844L11.062 19.5932C10.4432 20.4282 9.07936 19.8747 9.26652 18.8646L10.4851 12.2872H5.50018C5.08741 12.2872 4.8529 11.8318 5.10258 11.5149L13.8729 0.384328C14.5127 -0.427623 15.8515 0.151052 15.6479 1.1516L14.479 6.89751H19.4999Z" fill="white"/>
<path d="M2 4.87501C2 4.39173 2.39172 4.00001 2.875 4.00001H6.625C7.10828 4.00001 7.5 4.39173 7.5 4.87501C7.5 5.35829 7.10828 5.75001 6.625 5.75001H2.875C2.39172 5.75001 2 5.35829 2 4.87501Z" fill="white"/>
<path d="M0.875 9.00001C0.391724 9.00001 0 9.39174 0 9.87501C0 10.3583 0.391724 10.75 0.875 10.75H3.125C3.60828 10.75 4 10.3583 4 9.87501C4 9.39174 3.60828 9.00001 3.125 9.00001H0.875Z" fill="white"/>
<path d="M1 14.875C1 14.3917 1.39172 14 1.875 14H6.125C6.60828 14 7 14.3917 7 14.875C7 15.3583 6.60828 15.75 6.125 15.75H1.875C1.39172 15.75 1 15.3583 1 14.875Z" fill="white"/>
</g>
<defs>
<clipPath id="clip0_1775_1033">
<rect width="20" height="20" fill="white"/>
</clipPath>
</defs>
</svg>
