<svg width="16" height="16" viewBox="0 0 16 16" fill="none" xmlns="http://www.w3.org/2000/svg">
<path fill-rule="evenodd" clip-rule="evenodd" d="M4.70591 2.34091C4.40391 2.34091 4.15912 2.58573 4.15912 2.88767V13.0526L7.19282 10.9112C7.19282 10.9112 7.19282 10.9112 7.19282 10.9112C7.67674 10.5696 8.3233 10.5696 8.80722 10.9112C8.80723 10.9112 8.80722 10.9112 8.80722 10.9112L11.8409 13.0526V2.88767C11.8409 2.58572 11.5962 2.34091 11.2941 2.34091H4.70591ZM8.08638 11.9324C8.03461 11.8959 7.96545 11.8959 7.91368 11.9324L3.85344 14.7984C3.4567 15.0785 2.90912 14.7947 2.90912 14.3091V2.88767C2.90912 1.89535 3.71357 1.09091 4.70591 1.09091H11.2941C12.2865 1.09091 13.0909 1.89535 13.0909 2.88767V14.3091C13.0909 14.7947 12.5434 15.0785 12.1466 14.7984L8.08638 11.9324Z" fill="#666666"/>
</svg>
