<svg width="16" height="16" viewBox="0 0 16 16" fill="none" xmlns="http://www.w3.org/2000/svg">
<path fill-rule="evenodd" clip-rule="evenodd" d="M11.2941 2.28878H4.70591C4.37513 2.28878 4.10698 2.55693 4.10698 2.8877V13.1533L7.22289 10.9539C7.68879 10.625 8.31126 10.625 8.77716 10.9539L11.8931 13.1533V2.8877C11.8931 2.55693 11.6249 2.28878 11.2941 2.28878ZM4.70591 1.09094C3.71357 1.09094 2.90912 1.89538 2.90912 2.8877V14.3092C2.90912 14.7948 3.4567 15.0785 3.85344 14.7985L7.91368 11.9325C7.96545 11.8959 8.03461 11.8959 8.08638 11.9325L12.1466 14.7985C12.5434 15.0785 13.0909 14.7948 13.0909 14.3092V2.8877C13.0909 1.89538 12.2865 1.09094 11.2941 1.09094H4.70591Z" fill="#666666"/>
</svg>
