<svg width="20" height="16" viewBox="0 0 20 16" fill="none" xmlns="http://www.w3.org/2000/svg">
<path d="M17.9044 0.244077C17.579 -0.0813593 17.0513 -0.0813589 16.7259 0.244078L2.58378 14.3862C2.25836 14.7116 2.25836 15.2393 2.58378 15.5647C2.9092 15.8901 3.43685 15.8901 3.76232 15.5647L17.9044 1.42259C18.2299 1.09715 18.2299 0.569514 17.9044 0.244077Z" fill="#CCCCCC"/>
<path d="M10 0.648478C11.1379 0.648478 12.2365 0.840573 13.2721 1.19787L11.926 2.54402C11.2999 2.39341 10.6553 2.31514 10 2.31514C6.63402 2.31514 3.54971 4.38008 1.81713 7.70905C1.67344 7.98509 1.67344 8.31185 1.81713 8.5879C2.28293 9.48287 2.84638 10.2865 3.48679 10.9832L2.29213 12.1778C1.51429 11.3475 0.839754 10.393 0.292778 9.34209C-0.0975925 8.59202 -0.0975925 7.70493 0.292778 6.95485C2.25775 3.17933 5.8696 0.648478 10 0.648478Z" fill="#CCCCCC"/>
<path d="M10 3.98181C10.1564 3.98181 10.3108 3.99043 10.4627 4.00722L5.85877 8.61124C5.84199 8.45929 5.83334 8.30489 5.83334 8.14847C5.83334 5.84729 7.69883 3.98181 10 3.98181Z" fill="#CCCCCC"/>
<path d="M9.2867 12.2543C9.51848 12.2943 9.75683 12.3151 10 12.3151C12.3012 12.3151 14.1667 10.4497 14.1667 8.14847C14.1667 7.90528 14.1458 7.66695 14.1058 7.43518L12.1951 9.34593C11.9652 9.76646 11.618 10.1137 11.1975 10.3436L9.2867 12.2543Z" fill="#CCCCCC"/>
<path d="M10 13.9818C9.26493 13.9818 8.5433 13.8833 7.84628 13.6947L6.51724 15.0238C7.61409 15.4293 8.78459 15.6485 10 15.6485C14.1304 15.6485 17.7422 13.1176 19.7072 9.34209C20.0976 8.59202 20.0976 7.70492 19.7072 6.95485C19.1278 5.84158 18.4052 4.83652 17.5683 3.97266L16.3749 5.16618C17.0726 5.89617 17.6838 6.75017 18.1829 7.70905C18.3266 7.98509 18.3266 8.31185 18.1829 8.5879C16.4503 11.9169 13.366 13.9818 10 13.9818Z" fill="#CCCCCC"/>
</svg>
