<svg width="188" height="64" viewBox="0 0 188 64" fill="none" xmlns="http://www.w3.org/2000/svg">
<g clip-path="url(#clip0_5897_7977)">
<path d="M27.3351 44.4791C25.7775 44.8202 24.1595 45 22.4995 45C17.9433 45 13.7033 43.6457 10.1603 41.3178C9.2808 40.0598 8.88619 39.3672 8.59834 38.8621C8.45571 38.6118 8.3393 38.4074 8.20309 38.2031C6.86094 36.0446 6.15871 33.2721 6.00558 30.0144C5.53123 19.9206 11.6656 13.475 17.9323 12.417C21.9047 11.7464 25.0616 12.4255 27.483 13.7204C25.3423 13.1249 22.7905 13.0891 19.8813 13.9219C12.8291 16.195 10.4782 23.1068 11.4858 30.7608C13.2443 40.3517 22.6481 43.7892 27.3351 44.4791Z" fill="white"/>
<path d="M7.24901 39.0431C5.93725 36.7138 4.74935 33.2383 4.60091 30.0804C4.09734 19.3648 10.6458 12.221 17.6982 11.0304C27.3115 9.40741 32.6559 15.0985 34.4983 19.3226C34.5754 19.2706 34.6067 19.1678 34.566 19.0792C31.5368 12.4922 25.2713 7.96875 18.0339 7.96875C9.816 7.96875 2.48327 13.8638 0 22.6248C0.0352677 29.1169 2.82 34.958 7.24901 39.0431Z" fill="white"/>
<path d="M35.1559 41.1056C33.533 42.2117 31.7578 43.1111 29.8683 43.7657C28.9611 43.6077 27.9559 43.4109 27.2482 43.2724C26.9128 43.2068 26.6441 43.1542 26.4845 43.125C22.2045 42.3432 14.552 39.5853 12.8755 30.5419C12.4018 26.9057 12.741 23.5584 13.9424 20.9032C15.1259 18.2874 17.1685 16.2822 20.2836 15.2699C23.9041 14.2835 26.9044 14.7723 29.1329 15.9693C28.5843 15.8536 28.0173 15.7929 27.4371 15.7929C22.6149 15.7929 18.7057 19.9813 18.7057 25.1479C18.7057 27.2109 19.329 29.1179 20.3848 30.6647C20.3848 30.6647 23.4072 36.3738 31.6348 35.8635C38.971 35.4085 42.7807 28.8281 43.2347 26.3975C43.4707 25.1344 43.5941 23.8316 43.5941 22.5C43.5941 10.8502 34.1501 1.40625 22.5003 1.40625C13.6849 1.40625 6.13255 6.81385 2.97941 14.4928C1.91436 15.8803 0.99728 17.4185 0.258301 19.0818C1.90502 8.27756 11.236 0 22.5003 0C34.9267 0 45.0003 10.0736 45.0003 22.5C45.0003 30.2337 41.0984 37.0557 35.1559 41.1056Z" fill="white"/>
</g>
<path d="M59 44.125H66.7986V32.1331C67.5 32.925 68.3614 33.5646 69.3829 34.0518C70.4197 34.5391 71.7157 34.7828 73.2708 34.7828C75.9542 34.7828 78.1345 33.8158 79.8116 31.8819C81.4888 29.948 82.3273 27.3364 82.3273 24.0472V23.3163C82.3273 19.9662 81.5116 17.3698 79.8802 15.5273C78.2489 13.6847 76.0838 12.7634 73.3852 12.7634C71.8453 12.7634 70.4883 13.0604 69.3143 13.6543C68.1403 14.2481 67.2713 14.9867 66.7072 15.8699H66.6386V13.3116H59V44.125ZM66.7986 26.9024V20.7123C67.0578 20.0271 67.5076 19.4332 68.148 18.9307C68.7883 18.4129 69.5812 18.1541 70.5264 18.1541C71.8376 18.1541 72.8134 18.6033 73.4538 19.5017C74.1094 20.3849 74.4372 21.5955 74.4372 23.1335V24.3441C74.4372 25.8517 74.1094 27.0928 73.4538 28.0673C72.8134 29.0267 71.8224 29.5064 70.4807 29.5064C69.5812 29.5064 68.8112 29.2475 68.1708 28.7297C67.5305 28.1968 67.0731 27.5877 66.7986 26.9024Z" fill="white"/>
<path d="M85.1175 34.3259H93.1448V22.0371C93.7242 20.9864 94.5017 20.1489 95.4775 19.5246C96.4533 18.885 97.4367 18.5652 98.4277 18.5652C98.9309 18.5652 99.3883 18.5957 99.7999 18.6566C100.212 18.7023 100.555 18.786 100.829 18.9078V13.1974C100.677 13.1365 100.395 13.0832 99.9829 13.0375C99.5712 12.9766 99.1367 12.9462 98.6793 12.9462C97.4443 12.9462 96.3466 13.2507 95.386 13.8598C94.4408 14.469 93.6632 15.2608 93.0533 16.2354H93.0304V13.3116H85.1175V34.3259Z" fill="white"/>
<path d="M102.933 34.3259H110.892V13.3116H102.933V34.3259ZM102.544 5.93379C102.544 7.03019 102.918 7.97431 103.665 8.76616C104.412 9.54277 105.487 9.93108 106.89 9.93108C108.292 9.93108 109.375 9.54277 110.137 8.76616C110.915 7.97431 111.304 7.02258 111.304 5.91095C111.304 4.7841 110.93 3.84759 110.183 3.10143C109.436 2.35527 108.353 1.98219 106.935 1.98219C105.533 1.98219 104.45 2.36288 103.688 3.12427C102.925 3.87043 102.544 4.80694 102.544 5.93379Z" fill="white"/>
<path d="M114.803 34.3259H122.624V21.1235C122.975 20.3773 123.425 19.7606 123.973 19.2733C124.538 18.7708 125.208 18.5195 125.986 18.5195C126.855 18.5195 127.526 18.7556 127.999 19.2276C128.486 19.6997 128.73 20.5296 128.73 21.7174V34.3259H136.575V21.1235C136.925 20.3621 137.383 19.7378 137.947 19.2505C138.511 18.7632 139.182 18.5195 139.96 18.5195C140.829 18.5195 141.499 18.7556 141.972 19.2276C142.445 19.6845 142.681 20.5144 142.681 21.7174V34.3259H150.525V20.3925C150.525 17.6516 149.893 15.6948 148.627 14.5222C147.362 13.3345 145.677 12.7406 143.573 12.7406C141.911 12.7406 140.409 13.0832 139.068 13.7685C137.726 14.4385 136.651 15.3674 135.843 16.5552H135.797C135.386 15.3065 134.623 14.3624 133.51 13.7228C132.397 13.0832 131.071 12.7634 129.531 12.7634C127.945 12.7634 126.565 13.0908 125.391 13.7456C124.217 14.4004 123.264 15.2912 122.533 16.4181H122.464V13.3345H114.803V34.3259Z" fill="white"/>
<path d="M153.224 28.2958C153.224 30.3667 153.872 31.9428 155.168 33.024C156.479 34.0899 158.278 34.6229 160.565 34.6229C162.486 34.6229 164.08 34.2955 165.345 33.6407C166.626 32.9707 167.525 32.2245 168.044 31.4022C168.105 31.9656 168.196 32.4986 168.318 33.0011C168.455 33.5036 168.646 33.9452 168.89 34.3259H176.597V34.0062C176.292 33.4275 176.064 32.7499 175.911 31.9733C175.759 31.1966 175.682 30.3667 175.682 29.4835V20.3469C175.682 17.682 174.844 15.7557 173.167 14.5679C171.49 13.3649 168.943 12.7634 165.528 12.7634C162.159 12.7634 159.506 13.3802 157.569 14.6136C155.648 15.8318 154.688 17.4536 154.688 19.4789V20.0499L161.8 20.0728V19.5931C161.8 18.8012 162.067 18.1921 162.601 17.7658C163.15 17.3242 163.935 17.1034 164.956 17.1034C165.993 17.1034 166.74 17.3546 167.198 17.8571C167.655 18.3596 167.884 19.083 167.884 20.0271V21.3747H162.509C159.689 21.3747 157.432 22.0067 155.74 23.2706C154.063 24.5193 153.224 26.1943 153.224 28.2958ZM160.931 27.7247C160.931 26.7958 161.267 26.141 161.938 25.7603C162.608 25.3796 163.638 25.1893 165.025 25.1893H167.884V26.811C167.884 27.7247 167.464 28.547 166.626 29.2779C165.803 30.0089 164.88 30.3743 163.859 30.3743C162.913 30.3743 162.189 30.1535 161.686 29.7119C161.183 29.2703 160.931 28.6079 160.931 27.7247Z" fill="white"/>
<path d="M179.547 34.3259H187.437V1H179.547V34.3259Z" fill="white"/>
<path d="M111.174 42V60H108.994V42H111.174ZM116.53 47.3203V60H114.35V47.3203H116.53ZM114.186 43.957C114.186 43.6055 114.292 43.3086 114.502 43.0664C114.721 42.8242 115.042 42.7031 115.463 42.7031C115.877 42.7031 116.194 42.8242 116.413 43.0664C116.639 43.3086 116.752 43.6055 116.752 43.957C116.752 44.293 116.639 44.582 116.413 44.8242C116.194 45.0586 115.877 45.1758 115.463 45.1758C115.042 45.1758 114.721 45.0586 114.502 44.8242C114.292 44.582 114.186 44.293 114.186 43.957ZM123.386 58.043L126.855 47.3203H129.069L124.511 60H123.058L123.386 58.043ZM120.491 47.3203L124.065 58.1016L124.312 60H122.858L118.265 47.3203H120.491ZM135.773 60.2344C134.89 60.2344 134.089 60.0859 133.371 59.7891C132.66 59.4844 132.046 59.0586 131.531 58.5117C131.023 57.9648 130.632 57.3164 130.359 56.5664C130.085 55.8164 129.949 54.9961 129.949 54.1055V53.6133C129.949 52.582 130.101 51.6641 130.406 50.8594C130.71 50.0469 131.125 49.3594 131.648 48.7969C132.171 48.2344 132.765 47.8086 133.429 47.5195C134.093 47.2305 134.781 47.0859 135.492 47.0859C136.398 47.0859 137.179 47.2422 137.835 47.5547C138.5 47.8672 139.042 48.3047 139.464 48.8672C139.886 49.4219 140.199 50.0781 140.402 50.8359C140.605 51.5859 140.707 52.4062 140.707 53.2969V54.2695H131.238V52.5H138.539V52.3359C138.507 51.7734 138.39 51.2266 138.187 50.6953C137.992 50.1641 137.679 49.7266 137.25 49.3828C136.82 49.0391 136.234 48.8672 135.492 48.8672C135 48.8672 134.546 48.9727 134.132 49.1836C133.718 49.3867 133.363 49.6914 133.066 50.0977C132.769 50.5039 132.539 51 132.375 51.5859C132.21 52.1719 132.128 52.8477 132.128 53.6133V54.1055C132.128 54.707 132.21 55.2734 132.375 55.8047C132.546 56.3281 132.792 56.7891 133.113 57.1875C133.441 57.5859 133.835 57.8984 134.296 58.125C134.765 58.3516 135.296 58.4648 135.89 58.4648C136.656 58.4648 137.304 58.3086 137.835 57.9961C138.367 57.6836 138.832 57.2656 139.23 56.7422L140.542 57.7852C140.269 58.1992 139.921 58.5938 139.5 58.9688C139.078 59.3438 138.558 59.6484 137.941 59.8828C137.332 60.1172 136.609 60.2344 135.773 60.2344ZM151.465 60H149.297V45.9844C149.297 45.0703 149.461 44.3008 149.79 43.6758C150.125 43.043 150.606 42.5664 151.231 42.2461C151.856 41.918 152.598 41.7539 153.457 41.7539C153.707 41.7539 153.957 41.7695 154.207 41.8008C154.465 41.832 154.715 41.8789 154.957 41.9414L154.84 43.7109C154.676 43.6719 154.489 43.6445 154.278 43.6289C154.075 43.6133 153.872 43.6055 153.668 43.6055C153.207 43.6055 152.809 43.6992 152.473 43.8867C152.145 44.0664 151.895 44.332 151.723 44.6836C151.551 45.0352 151.465 45.4688 151.465 45.9844V60ZM154.161 47.3203V48.9844H147.293V47.3203H154.161ZM158.263 49.3125V60H156.095V47.3203H158.204L158.263 49.3125ZM162.224 47.25L162.212 49.2656C162.032 49.2266 161.86 49.2031 161.696 49.1953C161.54 49.1797 161.36 49.1719 161.157 49.1719C160.657 49.1719 160.216 49.25 159.833 49.4062C159.45 49.5625 159.126 49.7812 158.86 50.0625C158.595 50.3438 158.384 50.6797 158.227 51.0703C158.079 51.4531 157.981 51.875 157.935 52.3359L157.325 52.6875C157.325 51.9219 157.399 51.2031 157.548 50.5312C157.704 49.8594 157.942 49.2656 158.263 48.75C158.583 48.2266 158.989 47.8203 159.481 47.5312C159.981 47.2344 160.575 47.0859 161.263 47.0859C161.419 47.0859 161.599 47.1055 161.802 47.1445C162.005 47.1758 162.145 47.2109 162.224 47.25ZM168.775 60.2344C167.892 60.2344 167.091 60.0859 166.372 59.7891C165.662 59.4844 165.048 59.0586 164.533 58.5117C164.025 57.9648 163.634 57.3164 163.361 56.5664C163.087 55.8164 162.951 54.9961 162.951 54.1055V53.6133C162.951 52.582 163.103 51.6641 163.408 50.8594C163.712 50.0469 164.126 49.3594 164.65 48.7969C165.173 48.2344 165.767 47.8086 166.431 47.5195C167.095 47.2305 167.783 47.0859 168.494 47.0859C169.4 47.0859 170.181 47.2422 170.837 47.5547C171.501 47.8672 172.044 48.3047 172.466 48.8672C172.888 49.4219 173.201 50.0781 173.404 50.8359C173.607 51.5859 173.708 52.4062 173.708 53.2969V54.2695H164.24V52.5H171.54V52.3359C171.509 51.7734 171.392 51.2266 171.189 50.6953C170.994 50.1641 170.681 49.7266 170.251 49.3828C169.822 49.0391 169.236 48.8672 168.494 48.8672C168.001 48.8672 167.548 48.9727 167.134 49.1836C166.72 49.3867 166.365 49.6914 166.068 50.0977C165.771 50.5039 165.54 51 165.376 51.5859C165.212 52.1719 165.13 52.8477 165.13 53.6133V54.1055C165.13 54.707 165.212 55.2734 165.376 55.8047C165.548 56.3281 165.794 56.7891 166.115 57.1875C166.443 57.5859 166.837 57.8984 167.298 58.125C167.767 58.3516 168.298 58.4648 168.892 58.4648C169.658 58.4648 170.306 58.3086 170.837 57.9961C171.369 57.6836 171.833 57.2656 172.232 56.7422L173.544 57.7852C173.271 58.1992 172.923 58.5938 172.501 58.9688C172.08 59.3438 171.56 59.6484 170.943 59.8828C170.333 60.1172 169.611 60.2344 168.775 60.2344ZM181.021 60.2344C180.139 60.2344 179.338 60.0859 178.619 59.7891C177.908 59.4844 177.295 59.0586 176.779 58.5117C176.271 57.9648 175.881 57.3164 175.607 56.5664C175.334 55.8164 175.197 54.9961 175.197 54.1055V53.6133C175.197 52.582 175.35 51.6641 175.654 50.8594C175.959 50.0469 176.373 49.3594 176.896 48.7969C177.42 48.2344 178.014 47.8086 178.678 47.5195C179.342 47.2305 180.029 47.0859 180.74 47.0859C181.646 47.0859 182.428 47.2422 183.084 47.5547C183.748 47.8672 184.291 48.3047 184.713 48.8672C185.135 49.4219 185.447 50.0781 185.65 50.8359C185.853 51.5859 185.955 52.4062 185.955 53.2969V54.2695H176.486V52.5H183.787V52.3359C183.756 51.7734 183.639 51.2266 183.435 50.6953C183.24 50.1641 182.928 49.7266 182.498 49.3828C182.068 49.0391 181.482 48.8672 180.74 48.8672C180.248 48.8672 179.795 48.9727 179.381 49.1836C178.967 49.3867 178.611 49.6914 178.314 50.0977C178.018 50.5039 177.787 51 177.623 51.5859C177.459 52.1719 177.377 52.8477 177.377 53.6133V54.1055C177.377 54.707 177.459 55.2734 177.623 55.8047C177.795 56.3281 178.041 56.7891 178.361 57.1875C178.689 57.5859 179.084 57.8984 179.545 58.125C180.014 58.3516 180.545 58.4648 181.139 58.4648C181.904 58.4648 182.553 58.3086 183.084 57.9961C183.615 57.6836 184.08 57.2656 184.478 56.7422L185.791 57.7852C185.518 58.1992 185.17 58.5938 184.748 58.9688C184.326 59.3438 183.807 59.6484 183.189 59.8828C182.58 60.1172 181.857 60.2344 181.021 60.2344Z" fill="white"/>
<defs>
<clipPath id="clip0_5897_7977">
<rect width="45" height="45" fill="white"/>
</clipPath>
</defs>
</svg>
