<svg width="194" height="66" viewBox="0 0 194 66" fill="none" xmlns="http://www.w3.org/2000/svg">
<path d="M62.6067 45.0657C62.6067 45.5311 62.981 45.9084 63.4428 45.9084H69.0399C69.5017 45.9084 69.876 45.5311 69.876 45.0657V34.1722C69.876 34.0917 69.9787 34.056 70.0299 34.1177C70.6633 34.8812 71.4904 35.4952 72.5112 35.9598C73.6319 36.4477 74.9494 36.6916 76.4639 36.6916C79.2808 36.6916 81.5676 35.6625 83.3243 33.6041C85.0811 31.5306 85.9595 28.7556 85.9595 25.2794V24.5475C85.9595 21.0255 85.0811 18.2582 83.3243 16.2456C81.5827 14.233 79.2732 13.2267 76.3957 13.2267C74.8964 13.2267 73.5486 13.5316 72.3522 14.1415C71.1686 14.7298 70.3111 15.4672 69.7797 16.3539C69.7689 16.3718 69.7497 16.3828 69.7289 16.3828C69.697 16.3828 69.6709 16.3572 69.6701 16.325L69.6247 14.5734C69.6129 14.1167 69.2421 13.7527 68.7888 13.7527H63.4428C62.981 13.7527 62.6067 14.13 62.6067 14.5954V45.0657ZM70.6267 29.7863C70.0094 29.0366 69.876 28.0261 69.876 27.0519V22.9877C69.876 21.935 70.0383 20.8428 70.7333 20.057C70.9443 19.8185 71.181 19.5924 71.4435 19.3788C72.1704 18.7994 73.0715 18.5097 74.1468 18.5097C75.6309 18.5097 76.7365 19.0205 77.4634 20.0421C78.1904 21.0483 78.5538 22.4587 78.5538 24.2731V25.5995C78.5538 27.3987 78.1904 28.8319 77.4634 29.8991C76.7516 30.9512 75.6461 31.4772 74.1468 31.4772C73.117 31.4772 72.2234 31.1875 71.4662 30.6081C71.1472 30.3525 70.8673 30.0786 70.6267 29.7863Z" fill="#111111"/>
<path d="M89.5942 35.3915C89.5942 35.8569 89.9685 36.2342 90.4303 36.2342H96.1637C96.6254 36.2342 96.9998 35.8569 96.9998 35.3915V23.0016C96.9998 22.6192 97.0789 22.2376 97.2734 21.9092C97.7322 21.1343 98.3301 20.489 99.067 19.9734C99.9606 19.3483 100.915 19.0358 101.929 19.0358C102.369 19.0358 102.762 19.0586 103.111 19.1044C103.248 19.1217 103.379 19.1422 103.503 19.166C103.784 19.2197 104.065 19.0133 104.065 18.7258V14.0948C104.065 13.7501 103.853 13.446 103.517 13.3814C103.447 13.3679 103.372 13.3545 103.292 13.3411C102.929 13.2801 102.55 13.2496 102.156 13.2496C101.021 13.2496 99.9984 13.5621 99.0897 14.1873C98.1883 14.8074 97.4731 15.5851 96.9443 16.5204C96.9365 16.5343 96.9219 16.5429 96.906 16.5429C96.8823 16.5429 96.8629 16.5239 96.8621 16.5001L96.7992 14.5678C96.7844 14.1134 96.4146 13.7527 95.9635 13.7527H90.4303C89.9685 13.7527 89.5942 14.13 89.5942 14.5954V35.3915Z" fill="#111111"/>
<path d="M106.927 35.3915C106.927 35.8569 107.301 36.2342 107.763 36.2342H113.474C113.936 36.2342 114.31 35.8569 114.31 35.3915V14.5954C114.31 14.13 113.936 13.7527 113.474 13.7527H107.763C107.301 13.7527 106.927 14.13 106.927 14.5954V35.3915ZM106.45 6.6858C106.45 7.75308 106.806 8.66027 107.518 9.40736C108.245 10.1545 109.274 10.528 110.607 10.528C111.94 10.528 112.97 10.1545 113.697 9.40736C114.424 8.66027 114.787 7.75308 114.787 6.6858C114.787 5.60327 114.431 4.69608 113.719 3.96423C113.008 3.23238 111.978 2.86646 110.63 2.86646C109.297 2.86646 108.267 3.23238 107.54 3.96423C106.813 4.69608 106.45 5.60327 106.45 6.6858Z" fill="#111111"/>
<path d="M119.171 35.3915C119.171 35.8569 119.546 36.2342 120.007 36.2342H125.627C126.089 36.2342 126.463 35.8569 126.463 35.3915V21.643C126.842 20.7434 127.357 20.0344 128.008 19.516C128.659 18.9976 129.424 18.7384 130.303 18.7384C131.317 18.7384 132.09 19.0281 132.62 19.6075C133.165 20.1869 133.437 21.1398 133.437 22.4663V35.3915C133.437 35.8569 133.812 36.2342 134.274 36.2342H139.916C140.378 36.2342 140.752 35.8569 140.752 35.3915V21.6201C141.131 20.751 141.646 20.0573 142.297 19.5389C142.963 19.0053 143.736 18.7384 144.614 18.7384C145.629 18.7537 146.401 19.051 146.931 19.6304C147.461 20.1945 147.726 21.1246 147.726 22.4206V35.3915C147.726 35.8569 148.101 36.2342 148.562 36.2342H154.182C154.644 36.2342 155.018 35.8569 155.018 35.3915V21.9174C155.018 18.7918 154.337 16.5658 152.974 15.2393C151.626 13.8976 149.831 13.2267 147.59 13.2267C145.985 13.2267 144.493 13.5698 143.115 14.2559C141.752 14.942 140.669 15.9254 139.866 17.2061H139.798C139.313 15.9102 138.488 14.9267 137.322 14.2559C136.171 13.5698 134.793 13.2267 133.188 13.2267C131.719 13.2267 130.393 13.5316 129.212 14.1415C128.046 14.7514 127.099 15.5976 126.373 16.6801H126.282L126.233 14.5756C126.222 14.1181 125.851 13.7527 125.397 13.7527H120.007C119.546 13.7527 119.171 14.13 119.171 14.5954V35.3915Z" fill="#111111"/>
<path d="M158.539 29.6933C158.539 31.9803 159.251 33.7032 160.675 34.862C162.113 36.0208 163.984 36.6001 166.286 36.6001C168.224 36.6001 169.83 36.2571 171.102 35.571C172.389 34.8849 173.283 34.1149 173.782 33.2611C173.828 33.81 173.919 34.3512 174.055 34.8849C174.149 35.2161 174.252 35.515 174.363 35.7816C174.482 36.0665 174.768 36.2342 175.075 36.2342H181.416C181.603 36.2342 181.756 36.0806 181.756 35.8912C181.453 35.2965 181.218 34.5876 181.052 33.7642C180.9 32.9257 180.825 32.049 180.825 31.1341V21.0712C180.825 18.3115 179.954 16.2989 178.212 15.0335C176.486 13.768 173.972 13.1352 170.67 13.1352C167.399 13.1352 164.779 13.7985 162.81 15.1249C160.857 16.4362 159.88 18.1362 159.88 20.225V20.2625C159.88 20.4946 160.066 20.683 160.296 20.6838L166.354 20.7039C166.58 20.7047 166.763 20.5208 166.763 20.2936C166.763 19.4855 167.043 18.8375 167.603 18.3496C168.164 17.8617 169.042 17.6178 170.239 17.6178C171.435 17.6178 172.283 17.9075 172.783 18.4869C173.283 19.0663 173.532 19.8591 173.532 20.8654V22.2147H168.535C165.582 22.23 163.174 22.8856 161.311 24.1816C159.463 25.4776 158.539 27.3148 158.539 29.6933ZM165.786 29.1216C165.786 28.1153 166.15 27.3758 166.876 26.9031C167.619 26.4305 168.762 26.1942 170.307 26.1942H173.532V28.1153C173.532 29.1978 173.093 30.1507 172.215 30.9741C171.352 31.7821 170.314 32.1862 169.103 32.1862C167.982 32.1862 167.149 31.9194 166.604 31.3857C166.059 30.8368 165.786 30.0821 165.786 29.1216Z" fill="#111111"/>
<path d="M185.709 35.3915C185.709 35.8569 186.083 36.2342 186.545 36.2342H192.21C192.672 36.2342 193.046 35.8569 193.046 35.3915V2.93155C193.046 2.46615 192.672 2.08887 192.21 2.08887H186.545C186.083 2.08887 185.709 2.46615 185.709 2.93155V35.3915Z" fill="#111111"/>
<path d="M23.76 0C37.0148 0 47.76 10.7452 47.76 24C47.76 37.2548 37.0148 48 23.76 48C14.351 48 6.20674 42.5854 2.27274 34.7023C1.10888 32.2632 0.480003 29.5226 0.480003 26.64C0.480003 16.3012 8.86123 7.92 19.2 7.92C26.7671 7.92 33.2852 12.4099 36.2363 18.8708C36.3777 19.1803 35.9204 19.4596 35.6665 19.2331C33.9698 17.7198 31.7324 16.8 29.28 16.8C23.9781 16.8 19.68 21.0981 19.68 26.4C19.68 26.8064 19.7055 27.2069 19.7545 27.6V27.6047C20.88 34.56 26.2964 38.04 32.64 38.04C38.9836 38.04 44.279 33.5652 45.548 27.6C45.7401 26.4285 45.84 25.2259 45.84 24C45.84 11.8056 35.9545 1.92 23.76 1.92C16.4105 1.92 9.89962 5.5108 5.88616 11.0338C5.79472 11.1596 5.68954 11.2749 5.57276 11.3777C4.36192 12.4429 3.27685 13.6477 2.34276 14.9669C2.09071 15.3229 1.47877 15.0538 1.64879 14.6522C5.29358 6.04138 13.8212 0 23.76 0Z" fill="url(#paint0_linear_13950_16763)"/>
<path d="M118.174 44V62H115.994V44H118.174ZM123.53 49.3203V62H121.35V49.3203H123.53ZM121.186 45.957C121.186 45.6055 121.292 45.3086 121.502 45.0664C121.721 44.8242 122.042 44.7031 122.463 44.7031C122.877 44.7031 123.194 44.8242 123.413 45.0664C123.639 45.3086 123.752 45.6055 123.752 45.957C123.752 46.293 123.639 46.582 123.413 46.8242C123.194 47.0586 122.877 47.1758 122.463 47.1758C122.042 47.1758 121.721 47.0586 121.502 46.8242C121.292 46.582 121.186 46.293 121.186 45.957ZM130.386 60.043L133.855 49.3203H136.069L131.511 62H130.058L130.386 60.043ZM127.491 49.3203L131.065 60.1016L131.312 62H129.858L125.265 49.3203H127.491ZM142.773 62.2344C141.89 62.2344 141.089 62.0859 140.371 61.7891C139.66 61.4844 139.046 61.0586 138.531 60.5117C138.023 59.9648 137.632 59.3164 137.359 58.5664C137.085 57.8164 136.949 56.9961 136.949 56.1055V55.6133C136.949 54.582 137.101 53.6641 137.406 52.8594C137.71 52.0469 138.125 51.3594 138.648 50.7969C139.171 50.2344 139.765 49.8086 140.429 49.5195C141.093 49.2305 141.781 49.0859 142.492 49.0859C143.398 49.0859 144.179 49.2422 144.835 49.5547C145.5 49.8672 146.042 50.3047 146.464 50.8672C146.886 51.4219 147.199 52.0781 147.402 52.8359C147.605 53.5859 147.707 54.4062 147.707 55.2969V56.2695H138.238V54.5H145.539V54.3359C145.507 53.7734 145.39 53.2266 145.187 52.6953C144.992 52.1641 144.679 51.7266 144.25 51.3828C143.82 51.0391 143.234 50.8672 142.492 50.8672C142 50.8672 141.546 50.9727 141.132 51.1836C140.718 51.3867 140.363 51.6914 140.066 52.0977C139.769 52.5039 139.539 53 139.375 53.5859C139.21 54.1719 139.128 54.8477 139.128 55.6133V56.1055C139.128 56.707 139.21 57.2734 139.375 57.8047C139.546 58.3281 139.792 58.7891 140.113 59.1875C140.441 59.5859 140.835 59.8984 141.296 60.125C141.765 60.3516 142.296 60.4648 142.89 60.4648C143.656 60.4648 144.304 60.3086 144.835 59.9961C145.367 59.6836 145.832 59.2656 146.23 58.7422L147.542 59.7852C147.269 60.1992 146.921 60.5938 146.5 60.9688C146.078 61.3438 145.558 61.6484 144.941 61.8828C144.332 62.1172 143.609 62.2344 142.773 62.2344ZM158.465 62H156.297V47.9844C156.297 47.0703 156.461 46.3008 156.79 45.6758C157.125 45.043 157.606 44.5664 158.231 44.2461C158.856 43.918 159.598 43.7539 160.457 43.7539C160.707 43.7539 160.957 43.7695 161.207 43.8008C161.465 43.832 161.715 43.8789 161.957 43.9414L161.84 45.7109C161.676 45.6719 161.489 45.6445 161.278 45.6289C161.075 45.6133 160.872 45.6055 160.668 45.6055C160.207 45.6055 159.809 45.6992 159.473 45.8867C159.145 46.0664 158.895 46.332 158.723 46.6836C158.551 47.0352 158.465 47.4688 158.465 47.9844V62ZM161.161 49.3203V50.9844H154.293V49.3203H161.161ZM165.263 51.3125V62H163.095V49.3203H165.204L165.263 51.3125ZM169.224 49.25L169.212 51.2656C169.032 51.2266 168.86 51.2031 168.696 51.1953C168.54 51.1797 168.36 51.1719 168.157 51.1719C167.657 51.1719 167.216 51.25 166.833 51.4062C166.45 51.5625 166.126 51.7812 165.86 52.0625C165.595 52.3438 165.384 52.6797 165.227 53.0703C165.079 53.4531 164.981 53.875 164.935 54.3359L164.325 54.6875C164.325 53.9219 164.399 53.2031 164.548 52.5312C164.704 51.8594 164.942 51.2656 165.263 50.75C165.583 50.2266 165.989 49.8203 166.481 49.5312C166.981 49.2344 167.575 49.0859 168.263 49.0859C168.419 49.0859 168.599 49.1055 168.802 49.1445C169.005 49.1758 169.145 49.2109 169.224 49.25ZM175.775 62.2344C174.892 62.2344 174.091 62.0859 173.372 61.7891C172.662 61.4844 172.048 61.0586 171.533 60.5117C171.025 59.9648 170.634 59.3164 170.361 58.5664C170.087 57.8164 169.951 56.9961 169.951 56.1055V55.6133C169.951 54.582 170.103 53.6641 170.408 52.8594C170.712 52.0469 171.126 51.3594 171.65 50.7969C172.173 50.2344 172.767 49.8086 173.431 49.5195C174.095 49.2305 174.783 49.0859 175.494 49.0859C176.4 49.0859 177.181 49.2422 177.837 49.5547C178.501 49.8672 179.044 50.3047 179.466 50.8672C179.888 51.4219 180.201 52.0781 180.404 52.8359C180.607 53.5859 180.708 54.4062 180.708 55.2969V56.2695H171.24V54.5H178.54V54.3359C178.509 53.7734 178.392 53.2266 178.189 52.6953C177.994 52.1641 177.681 51.7266 177.251 51.3828C176.822 51.0391 176.236 50.8672 175.494 50.8672C175.001 50.8672 174.548 50.9727 174.134 51.1836C173.72 51.3867 173.365 51.6914 173.068 52.0977C172.771 52.5039 172.54 53 172.376 53.5859C172.212 54.1719 172.13 54.8477 172.13 55.6133V56.1055C172.13 56.707 172.212 57.2734 172.376 57.8047C172.548 58.3281 172.794 58.7891 173.115 59.1875C173.443 59.5859 173.837 59.8984 174.298 60.125C174.767 60.3516 175.298 60.4648 175.892 60.4648C176.658 60.4648 177.306 60.3086 177.837 59.9961C178.369 59.6836 178.833 59.2656 179.232 58.7422L180.544 59.7852C180.271 60.1992 179.923 60.5938 179.501 60.9688C179.08 61.3438 178.56 61.6484 177.943 61.8828C177.333 62.1172 176.611 62.2344 175.775 62.2344ZM188.021 62.2344C187.139 62.2344 186.338 62.0859 185.619 61.7891C184.908 61.4844 184.295 61.0586 183.779 60.5117C183.271 59.9648 182.881 59.3164 182.607 58.5664C182.334 57.8164 182.197 56.9961 182.197 56.1055V55.6133C182.197 54.582 182.35 53.6641 182.654 52.8594C182.959 52.0469 183.373 51.3594 183.896 50.7969C184.42 50.2344 185.014 49.8086 185.678 49.5195C186.342 49.2305 187.029 49.0859 187.74 49.0859C188.646 49.0859 189.428 49.2422 190.084 49.5547C190.748 49.8672 191.291 50.3047 191.713 50.8672C192.135 51.4219 192.447 52.0781 192.65 52.8359C192.853 53.5859 192.955 54.4062 192.955 55.2969V56.2695H183.486V54.5H190.787V54.3359C190.756 53.7734 190.639 53.2266 190.435 52.6953C190.24 52.1641 189.928 51.7266 189.498 51.3828C189.068 51.0391 188.482 50.8672 187.74 50.8672C187.248 50.8672 186.795 50.9727 186.381 51.1836C185.967 51.3867 185.611 51.6914 185.314 52.0977C185.018 52.5039 184.787 53 184.623 53.5859C184.459 54.1719 184.377 54.8477 184.377 55.6133V56.1055C184.377 56.707 184.459 57.2734 184.623 57.8047C184.795 58.3281 185.041 58.7891 185.361 59.1875C185.689 59.5859 186.084 59.8984 186.545 60.125C187.014 60.3516 187.545 60.4648 188.139 60.4648C188.904 60.4648 189.553 60.3086 190.084 59.9961C190.615 59.6836 191.08 59.2656 191.478 58.7422L192.791 59.7852C192.518 60.1992 192.17 60.5938 191.748 60.9688C191.326 61.3438 190.807 61.6484 190.189 61.8828C189.58 62.1172 188.857 62.2344 188.021 62.2344Z" fill="#111111"/>
<defs>
<linearGradient id="paint0_linear_13950_16763" x1="1.90651" y1="0.672898" x2="49.0093" y2="47.7757" gradientUnits="userSpaceOnUse">
<stop stop-color="#00E0FF"/>
<stop offset="0.481323" stop-color="#0090F8"/>
<stop offset="1" stop-color="#2554ED"/>
</linearGradient>
</defs>
</svg>
