<svg width="188" height="45" viewBox="0 0 188 45" fill="none" xmlns="http://www.w3.org/2000/svg">
<g clip-path="url(#clip0_4080_1320)">
<path d="M27.3351 44.4791C25.7775 44.8202 24.1595 45 22.4995 45C17.9433 45 13.7033 43.6457 10.1603 41.3178C9.2808 40.0597 8.88619 39.3672 8.59834 38.862C8.45571 38.6117 8.3393 38.4074 8.20309 38.2031C6.86094 36.0446 6.15871 33.2721 6.00558 30.0144C5.53123 19.9206 11.6656 13.475 17.9323 12.417C21.9047 11.7464 25.0616 12.4255 27.483 13.7204C25.3423 13.1249 22.7905 13.0891 19.8813 13.9219C12.8291 16.1949 10.4782 23.1068 11.4858 30.7608C13.2443 40.3517 22.6481 43.7892 27.3351 44.4791Z" fill="white"/>
<path d="M7.24901 39.0431C5.93725 36.7138 4.74935 33.2383 4.60091 30.0804C4.09734 19.3648 10.6458 12.221 17.6982 11.0304C27.3115 9.40741 32.6559 15.0985 34.4983 19.3226C34.5754 19.2706 34.6067 19.1678 34.566 19.0792C31.5368 12.4922 25.2713 7.96875 18.0339 7.96875C9.816 7.96875 2.48327 13.8638 0 22.6248C0.0352677 29.1169 2.82 34.958 7.24901 39.0431Z" fill="white"/>
<path d="M35.1559 41.1056C33.533 42.2117 31.7578 43.1111 29.8683 43.7657C28.9611 43.6077 27.9559 43.4109 27.2482 43.2724C26.9128 43.2068 26.6441 43.1542 26.4845 43.125C22.2045 42.3432 14.552 39.5853 12.8755 30.5419C12.4018 26.9057 12.741 23.5584 13.9424 20.9032C15.1259 18.2874 17.1685 16.2822 20.2836 15.2699C23.9041 14.2835 26.9044 14.7723 29.1329 15.9693C28.5843 15.8536 28.0173 15.7929 27.4371 15.7929C22.6149 15.7929 18.7057 19.9813 18.7057 25.1479C18.7057 27.2109 19.329 29.1179 20.3848 30.6647C20.3848 30.6647 23.4072 36.3738 31.6348 35.8635C38.971 35.4085 42.7807 28.8281 43.2347 26.3975C43.4707 25.1344 43.5941 23.8316 43.5941 22.5C43.5941 10.8502 34.1501 1.40625 22.5003 1.40625C13.6849 1.40625 6.13255 6.81385 2.97941 14.4928C1.91436 15.8803 0.99728 17.4185 0.258301 19.0818C1.90502 8.27756 11.236 0 22.5003 0C34.9267 0 45.0003 10.0736 45.0003 22.5C45.0003 30.2337 41.0984 37.0557 35.1559 41.1056Z" fill="white"/>
</g>
<path d="M59.0002 44.0625H66.7989V32.0707C67.5002 32.8625 68.3617 33.5021 69.3832 33.9894C70.42 34.4766 71.7159 34.7203 73.2711 34.7203C75.9545 34.7203 78.1347 33.7533 79.8119 31.8194C81.489 29.8855 82.3276 27.2739 82.3276 23.9847V23.2538C82.3276 19.9037 81.5119 17.3074 79.8805 15.4648C78.2491 13.6222 76.0841 12.701 73.3854 12.701C71.8455 12.701 70.4886 12.9979 69.3146 13.5918C68.1406 14.1857 67.2715 14.9242 66.7074 15.8074H66.6388V13.2492H59.0002V44.0625ZM66.7989 26.8399V20.6498C67.0581 19.9646 67.5079 19.3707 68.1482 18.8682C68.7886 18.3505 69.5814 18.0916 70.5267 18.0916C71.8379 18.0916 72.8137 18.5408 73.454 19.4392C74.1096 20.3224 74.4374 21.5331 74.4374 23.0711V24.2817C74.4374 25.7892 74.1096 27.0303 73.454 28.0049C72.8137 28.9642 71.8226 29.4439 70.4809 29.4439C69.5814 29.4439 68.8114 29.185 68.1711 28.6673C67.5307 28.1343 67.0733 27.5252 66.7989 26.8399Z" fill="white"/>
<path d="M85.1177 34.2635H93.145V21.9747C93.7244 20.9239 94.502 20.0864 95.4778 19.4621C96.4536 18.8225 97.437 18.5027 98.428 18.5027C98.9311 18.5027 99.3885 18.5332 99.8002 18.5941C100.212 18.6398 100.555 18.7235 100.829 18.8454V13.1349C100.677 13.074 100.395 13.0207 99.9831 12.9751C99.5715 12.9141 99.137 12.8837 98.6796 12.8837C97.4446 12.8837 96.3468 13.1882 95.3863 13.7974C94.441 14.4065 93.6634 15.1983 93.0536 16.1729H93.0307V13.2492H85.1177V34.2635Z" fill="white"/>
<path d="M102.933 34.2635H110.892V13.2492H102.933V34.2635ZM102.545 5.87131C102.545 6.96771 102.918 7.91183 103.665 8.70367C104.412 9.48029 105.487 9.86859 106.89 9.86859C108.293 9.86859 109.375 9.48029 110.137 8.70367C110.915 7.91183 111.304 6.96009 111.304 5.84847C111.304 4.72161 110.93 3.78511 110.183 3.03895C109.436 2.29279 108.354 1.91971 106.936 1.91971C105.533 1.91971 104.45 2.3004 103.688 3.06179C102.926 3.80795 102.545 4.74445 102.545 5.87131Z" fill="white"/>
<path d="M114.803 34.2635H122.624V21.061C122.975 20.3148 123.425 19.6981 123.974 19.2108C124.538 18.7083 125.209 18.457 125.986 18.457C126.855 18.457 127.526 18.6931 127.999 19.1651C128.487 19.6372 128.731 20.4671 128.731 21.6549V34.2635H136.575V21.061C136.926 20.2996 137.383 19.6753 137.947 19.188C138.511 18.7007 139.182 18.457 139.96 18.457C140.829 18.457 141.5 18.6931 141.972 19.1651C142.445 19.622 142.681 20.4519 142.681 21.6549V34.2635H150.526V20.3301C150.526 17.5891 149.893 15.6323 148.627 14.4598C147.362 13.272 145.677 12.6781 143.573 12.6781C141.911 12.6781 140.41 13.0207 139.068 13.706C137.726 14.376 136.651 15.3049 135.843 16.4927H135.797C135.386 15.244 134.623 14.2999 133.51 13.6603C132.397 13.0207 131.071 12.701 129.531 12.701C127.945 12.701 126.566 13.0284 125.392 13.6831C124.218 14.3379 123.265 15.2288 122.533 16.3556H122.464V13.272H114.803V34.2635Z" fill="white"/>
<path d="M153.224 28.2333C153.224 30.3042 153.872 31.8803 155.168 32.9615C156.479 34.0274 158.279 34.5604 160.566 34.5604C162.487 34.5604 164.08 34.233 165.345 33.5782C166.626 32.9082 167.526 32.162 168.044 31.3397C168.105 31.9032 168.197 32.4361 168.318 32.9386C168.456 33.4412 168.646 33.8828 168.89 34.2635H176.597V33.9437C176.292 33.365 176.064 32.6874 175.911 31.9108C175.759 31.1342 175.683 30.3042 175.683 29.421V20.2844C175.683 17.6195 174.844 15.6932 173.167 14.5054C171.49 13.3025 168.944 12.701 165.528 12.701C162.159 12.701 159.506 13.3177 157.57 14.5511C155.649 15.7693 154.688 17.3911 154.688 19.4164V19.9874L161.801 20.0103V19.5306C161.801 18.7388 162.067 18.1297 162.601 17.7033C163.15 17.2617 163.935 17.0409 164.957 17.0409C165.993 17.0409 166.74 17.2921 167.198 17.7946C167.655 18.2972 167.884 19.0205 167.884 19.9646V21.3123H162.51C159.689 21.3123 157.432 21.9442 155.74 23.2081C154.063 24.4568 153.224 26.1318 153.224 28.2333ZM160.931 27.6622C160.931 26.7333 161.267 26.0785 161.938 25.6978C162.609 25.3172 163.638 25.1268 165.025 25.1268H167.884V26.7486C167.884 27.6622 167.465 28.4845 166.626 29.2155C165.803 29.9464 164.88 30.3119 163.859 30.3119C162.914 30.3119 162.189 30.0911 161.686 29.6494C161.183 29.2078 160.931 28.5454 160.931 27.6622Z" fill="white"/>
<path d="M179.548 34.2635H187.438V0.937515H179.548V34.2635Z" fill="white"/>
<defs>
<clipPath id="clip0_4080_1320">
<rect width="45" height="45" fill="white"/>
</clipPath>
</defs>
</svg>
