<svg width="28" height="28" viewBox="0 0 28 28" fill="none" xmlns="http://www.w3.org/2000/svg">
<path d="M9.81473 2.95786C9.77209 2.3448 10.3224 1.85472 10.9206 2.0395C11.8191 2.31731 12.9809 2.81183 13.5238 3.60929C14.4761 5.00859 14.4762 6.40824 14.4762 7.80755C14.4762 8.49958 14.2429 9.76209 14.0072 10.8616C13.8814 11.4484 14.3339 12.0058 14.9461 12.0058H21.1429C22.7207 12.0058 23.9998 13.259 24 14.8046C24 15.4243 23.7941 15.9961 23.4458 16.4591C22.9943 17.0591 22.7923 18.0923 22.9701 18.8219C23.0207 19.0296 23.0476 19.2463 23.0476 19.4694C23.0476 20.3908 22.5926 21.2067 21.891 21.7159C21.4359 22.0461 21.1428 22.6389 21.1429 23.2012C21.1429 24.7469 19.8637 26 18.2857 26H11.619C11.619 26 8.76188 26 6.85714 24.1341C6.4121 23.6982 6.01888 23.3643 5.67783 23.1082C4.84279 22.4815 4 21.4328 4 20.4023V16.891C4.00004 16.1843 4.40756 15.538 5.05283 15.2219L6.77995 14.3755C7.58376 13.4712 9.34928 11.2434 9.71429 8.74049C10.0373 7.15803 9.92228 4.50218 9.81473 2.95786Z" fill="white"/>
</svg>
