<svg width="24" height="24" viewBox="0 0 24 24" fill="none" xmlns="http://www.w3.org/2000/svg">
<path fill-rule="evenodd" clip-rule="evenodd" d="M16.9771 6.23464C17.4138 5.99948 17.8895 6.4752 17.6544 6.91193L14.1917 13.3425C14.0062 13.6872 13.7236 13.9697 13.379 14.1553L6.94837 17.6179C6.51164 17.8531 6.03592 17.3774 6.27108 16.9406L9.73372 10.51C9.91928 10.1654 10.2019 9.88284 10.5465 9.69729L16.9771 6.23464ZM13.25 11.9999C13.25 12.6903 12.6904 13.2499 12 13.2499C11.3096 13.2499 10.75 12.6903 10.75 11.9999C10.75 11.3096 11.3096 10.7499 12 10.7499C12.6904 10.7499 13.25 11.3096 13.25 11.9999Z" fill="#AAAAAA"/>
<path fill-rule="evenodd" clip-rule="evenodd" d="M23 12C23 18.0751 18.0751 23 12 23C5.92487 23 1 18.0751 1 12C1 5.92487 5.92487 1 12 1C18.0751 1 23 5.92487 23 12ZM21.75 12C21.75 17.3848 17.3848 21.75 12 21.75C6.61522 21.75 2.25 17.3848 2.25 12C2.25 6.61522 6.61522 2.25 12 2.25C17.3848 2.25 21.75 6.61522 21.75 12Z" fill="#AAAAAA"/>
</svg>
