<svg width="20" height="20" viewBox="0 0 20 20" fill="none" xmlns="http://www.w3.org/2000/svg">
<path fill-rule="evenodd" clip-rule="evenodd" d="M0.208374 7.91666C0.208374 3.65947 3.65951 0.208328 7.91671 0.208328C12.1739 0.208328 15.625 3.65947 15.625 7.91666C15.625 9.49408 15.1515 10.9602 14.3387 12.1815L14.2442 12.3236L18.7451 16.8245C19.2755 17.3549 19.2755 18.2147 18.7451 18.7451C18.2148 19.2754 17.3549 19.2754 16.8246 18.7451L12.3236 14.2442L12.1816 14.3387C10.9603 15.1514 9.49412 15.625 7.91671 15.625C3.65951 15.625 0.208374 12.1739 0.208374 7.91666ZM7.91671 1.45833C4.34987 1.45833 1.45837 4.34982 1.45837 7.91666C1.45837 11.4835 4.34987 14.375 7.91671 14.375C11.4835 14.375 14.375 11.4835 14.375 7.91666C14.375 4.34982 11.4835 1.45833 7.91671 1.45833Z" fill="#AAAAAA"/>
</svg>
