<svg width="100" height="100" viewBox="0 0 100 100" fill="none" xmlns="http://www.w3.org/2000/svg">
<path d="M80.0066 17.6859H3.68349C4.77818 16.7934 6.07353 16.1236 7.50923 15.7543L67.5145 0.32041C73.8428 -1.30728 80.0066 3.47177 80.0066 10.006V17.6859Z" fill="white"/>
<path fill-rule="evenodd" clip-rule="evenodd" d="M0 24.0807C0 23.3902 0.559694 22.8305 1.25011 22.8305H90.0079C95.5313 22.8305 100.009 27.3081 100.009 32.8314V89.9991C100.009 95.5225 95.5313 100 90.0079 100H10.0009C4.47755 100 0 95.5225 0 89.9992V24.0807ZM80.0071 61.4151C80.0071 65.6771 76.6489 69.132 72.5064 69.132C68.3639 69.132 65.0057 65.6771 65.0057 61.4151C65.0057 57.1531 68.3639 53.6982 72.5064 53.6982C76.6489 53.6982 80.0071 57.1531 80.0071 61.4151Z" fill="white"/>
</svg>
