<svg width="20" height="22" viewBox="0 0 20 22" fill="none" xmlns="http://www.w3.org/2000/svg">
<path d="M7.5 0C7.03976 0 6.66667 0.378836 6.66667 0.846154H5.83333C5.3731 0.846154 5 1.22499 5 1.69231V3.38462C5 3.85193 5.3731 4.23077 5.83333 4.23077H10.8333C11.2936 4.23077 11.6667 3.85193 11.6667 3.38462V1.69231C11.6667 1.22499 11.2936 0.846154 10.8333 0.846154H10C10 0.378836 9.6269 0 9.16667 0H7.5Z" fill="#AAAAAA"/>
<path d="M4.16667 2.53846C4.16667 2.07114 3.79357 1.69231 3.33333 1.69231H2.5C1.11938 1.69231 0 2.82891 0 4.23077V16.9231C0 18.3249 1.11938 19.4615 2.5 19.4615H4.15385C4.62116 19.4615 5 19.0827 5 18.6154C5 18.1481 4.62116 17.7692 4.15385 17.7692H2.91667C2.22616 17.7692 1.66667 17.2011 1.66667 16.5V4.65385C1.66667 3.95271 2.22616 3.38462 2.91667 3.38462H3.33333C3.79357 3.38462 4.16667 3.00578 4.16667 2.53846Z" fill="#AAAAAA"/>
<path d="M15 5.08974C15 5.54998 15.3731 5.92308 15.8333 5.92308C16.2936 5.92308 16.6667 5.54998 16.6667 5.08974V4.23077C16.6667 2.82891 15.5473 1.69231 14.1667 1.69231H13.3333C12.8731 1.69231 12.5 2.07114 12.5 2.53846C12.5 3.00578 12.8731 3.38462 13.3333 3.38462H13.75C14.4405 3.38462 15 3.95271 15 4.65385V5.08974Z" fill="#AAAAAA"/>
<path fill-rule="evenodd" clip-rule="evenodd" d="M17.5003 9.30754H9.16699C8.70675 9.30754 8.33366 9.68638 8.33366 10.1537V19.4614C8.33366 19.9287 8.70675 20.3075 9.16699 20.3075H17.5003C17.9606 20.3075 18.3337 19.9287 18.3337 19.4614V10.1537C18.3337 9.68638 17.9606 9.30754 17.5003 9.30754ZM9.16699 7.61523C7.78628 7.61523 6.66699 8.75174 6.66699 10.1537V19.4614C6.66699 20.8633 7.78628 21.9998 9.16699 21.9998H17.5003C18.881 21.9998 20.0003 20.8633 20.0003 19.4614V10.1537C20.0003 8.75174 18.881 7.61523 17.5003 7.61523H9.16699Z" fill="#AAAAAA"/>
</svg>
