<svg width="15" height="15" viewBox="0 0 15 15" fill="none" xmlns="http://www.w3.org/2000/svg">
<g id="Union">
<path d="M6.77129 6.00665C6.77129 5.60563 7.09754 5.28048 7.5 5.28048C7.90246 5.28048 8.22871 5.60563 8.22871 6.00665V8.91133C8.22871 9.31236 7.90246 9.63751 7.5 9.63751C7.09754 9.63751 6.77129 9.31236 6.77129 8.91133V6.00665Z" fill="white"/>
<path d="M7.5 10.3637C7.09754 10.3637 6.77129 10.6888 6.77129 11.0898C6.77129 11.4909 7.09754 11.816 7.5 11.816C7.90246 11.816 8.22871 11.4909 8.22871 11.0898C8.22871 10.6888 7.90246 10.3637 7.5 10.3637Z" fill="white"/>
<path fill-rule="evenodd" clip-rule="evenodd" d="M9.09932 1.66682C8.40884 0.40533 6.59116 0.40533 5.90068 1.66682L0.22502 12.0359C-0.437152 13.2458 0.441511 14.7207 1.82435 14.7207H13.1757C14.5585 14.7207 15.4372 13.2458 14.775 12.0359L9.09932 1.66682ZM8.13973 2.94666C7.86354 2.4421 7.13646 2.4421 6.86027 2.94666L1.79839 12.1944C1.53352 12.6783 1.88499 13.2684 2.43811 13.2684H12.5619C13.115 13.2684 13.4665 12.6783 13.2016 12.1944L8.13973 2.94666Z" fill="white"/>
</g>
</svg>
