<svg width="44" height="44" viewBox="0 0 44 44" fill="none" xmlns="http://www.w3.org/2000/svg">
<rect width="44" height="44" rx="22" fill="#222222"/>
<path fill-rule="evenodd" clip-rule="evenodd" d="M22.4464 8.24545C22.5426 7.98117 22.8356 7.84519 23.1009 7.94173L24.5727 8.47745C24.838 8.57399 24.975 8.86649 24.8788 9.13077L23.8107 12.0655C23.7145 12.3298 23.8515 12.6223 24.1168 12.7189L25.0273 13.0503C25.2926 13.1468 25.5856 13.0108 25.6817 12.7465L26.7499 9.81179C26.8461 9.54751 27.1391 9.41153 27.4043 9.50807L28.8762 10.0438C29.1415 10.1403 29.2785 10.4328 29.1823 10.6971L28.1033 13.6617C28.0098 13.9186 28.1381 14.2033 28.3884 14.3158C31.7431 15.824 33.1477 18.0883 32.1132 20.9307C31.346 23.0386 30.5862 23.7231 28.2768 23.6979L28.2469 23.7801C30.5844 24.8924 31.3917 27.2095 30.4053 29.9196C29.3813 32.733 26.1343 33.9931 21.7826 32.678C21.3788 32.556 20.9411 32.7575 20.7974 33.1524L19.7892 35.9224C19.693 36.1867 19.4 36.3226 19.1347 36.2261L17.6629 35.6904C17.3976 35.5938 17.2606 35.3013 17.3568 35.0371L18.4506 32.0318C18.5468 31.7675 18.4097 31.475 18.1445 31.3785L17.234 31.047C16.9687 30.9505 16.6757 31.0865 16.5795 31.3508L15.4857 34.356C15.3895 34.6203 15.0965 34.7563 14.8313 34.6598L13.3594 34.124C13.0941 34.0275 12.9571 33.735 13.0533 33.4707L14.06 30.7047C14.2043 30.3083 13.9988 29.8695 13.6009 29.7247L9.78534 28.336C9.55081 28.2506 9.45186 27.9726 9.57945 27.7575L10.8092 25.685C10.9071 25.52 11.1082 25.448 11.2881 25.5135L13.7846 26.4221L18.0841 14.6095C18.2725 14.0917 18.0064 13.5195 17.4898 13.3314L15.8058 12.7185C15.5991 12.6433 15.4927 12.4144 15.5681 12.2073L16.2672 10.2865C16.3425 10.0794 16.5712 9.9725 16.7779 10.0477L20.7238 11.4839C20.9891 11.5805 21.2821 11.4445 21.3783 11.1802L22.4464 8.24545ZM21.4568 20.4003C21.2502 20.3251 21.1437 20.0962 21.2191 19.8891L22.6669 15.9114C22.7422 15.7043 22.9709 15.5974 23.1776 15.6726L25.2769 16.4367C26.834 17.0034 27.5632 18.1322 27.0052 19.6652C26.4074 21.3077 24.9221 21.6615 23.5015 21.1445L21.4568 20.4003ZM18.6884 28.0065C18.4817 27.9313 18.3753 27.7024 18.4507 27.4953L19.9981 23.2439C20.0734 23.0368 20.3021 22.9298 20.5088 23.0051L22.7447 23.8189C24.493 24.4552 25.8529 25.9376 25.275 27.5254C24.6872 29.1405 22.6453 29.4467 21.0609 28.87L18.6884 28.0065Z" fill="#FA9011"/>
</svg>
