<svg width="24" height="24" viewBox="0 0 24 24" fill="none" xmlns="http://www.w3.org/2000/svg">
<path d="M12.8823 0.405319C12.3564 0.0227915 11.6438 0.0227915 11.1178 0.405319L0.411899 8.19144C-0.0347537 8.51628 -0.133504 9.14169 0.191334 9.58835C0.516173 10.035 1.14159 10.1337 1.58824 9.80891L11.1178 2.87831C11.6438 2.49579 12.3564 2.49579 12.8823 2.87831L22.4119 9.80891C22.8586 10.1337 23.484 10.035 23.8088 9.58835C24.1336 9.14169 24.0349 8.51628 23.5882 8.19144L12.8823 0.405319Z" fill="#AAAAAA"/>
<path d="M4.4 10.7C4.14819 10.8889 4 11.1852 4 11.5V21C4 22.1046 4.89543 23 6 23H18C19.1046 23 20 22.1046 20 21V11.5C20 11.1852 19.8518 10.8889 19.6 10.7L18.4 9.80001C18.2352 9.6764 18 9.79399 18 10V20C18 20.5523 17.5523 21 17 21H7C6.44771 21 6 20.5523 6 20V10C6 9.79399 5.76481 9.6764 5.6 9.80001L4.4 10.7Z" fill="#AAAAAA"/>
</svg>
