<svg width="20" height="20" viewBox="0 0 20 20" fill="none" xmlns="http://www.w3.org/2000/svg">
<path d="M4.64276 7.80951L3.38659 8.67142C1.91493 9.68117 1.51613 11.5726 2.3069 13.0393C2.46472 13.332 2.66992 13.6078 2.92343 13.8563L6.88389 17.7383C7.13731 17.9867 7.41857 18.1878 7.71708 18.3425C9.21344 19.1178 11.1433 18.727 12.1736 17.2843L13.0327 16.0813L11.9511 15.0149L10.9529 16.4126C10.2559 17.3886 8.8044 17.5204 7.93389 16.6671L3.97343 12.7851C3.12886 11.9573 3.2433 10.5889 4.23524 9.90827L5.73073 8.88216L4.64276 7.80951Z" fill="white"/>
<path d="M9.25989 6.46067L8.17193 5.38803L13.5004 1.73197C15.1425 0.605292 17.3728 0.796706 18.7901 2.18595C20.2074 3.5752 20.4027 5.76131 19.2532 7.37085L15.5057 12.6185L14.424 11.5521L18.0326 6.4991C18.7503 5.494 18.6325 4.13191 17.7401 3.25717C16.8373 2.3723 15.403 2.24569 14.3491 2.96882L9.25989 6.46067Z" fill="white"/>
<path fill-rule="evenodd" clip-rule="evenodd" d="M5.24176 18.6684L5.72025 18.1993L2.45286 14.9967L0.340665 17.067C-0.387067 17.7803 0.12834 19 1.15751 19L4.42491 19C4.73128 19 5.02511 18.8807 5.24176 18.6684Z" fill="white"/>
<path fill-rule="evenodd" clip-rule="evenodd" d="M5.72025 18.1993L5.24176 18.6684C5.02511 18.8807 4.73128 19 4.42491 19L1.15751 19C0.12834 19 -0.387067 17.7803 0.340665 17.067L2.45286 14.9967L5.72025 18.1993ZM7.71708 18.3425C9.21344 19.1178 11.1433 18.727 12.1736 17.2843L19.2532 7.37085C20.4027 5.76131 20.2074 3.5752 18.7901 2.18595C17.3728 0.796706 15.1425 0.605292 13.5004 1.73197L3.38659 8.67142C1.91493 9.68117 1.51613 11.5726 2.3069 13.0393C2.46472 13.332 2.66992 13.6078 2.92343 13.8563L6.88389 17.7383C7.13731 17.9867 7.41857 18.1878 7.71708 18.3425ZM17.7401 3.25717C16.8373 2.3723 15.403 2.24569 14.3491 2.96882L4.23524 9.90827C3.2433 10.5889 3.12886 11.9573 3.97343 12.7851L7.93389 16.6671C8.8044 17.5204 10.2559 17.3886 10.9529 16.4126L18.0326 6.4991C18.7503 5.494 18.6325 4.13191 17.7401 3.25717Z" fill="white"/>
</svg>
