<svg width="20" height="29" viewBox="0 0 20 29" fill="none" xmlns="http://www.w3.org/2000/svg">
<path fill-rule="evenodd" clip-rule="evenodd" d="M19.8873 11.1901C20.1706 10.8079 19.8872 10.277 19.3998 10.277H12.3748L13.7774 1.38192C14.0218 0.181262 12.4153 -0.513147 11.6475 0.461194L0.123092 16.8179C-0.176521 17.1981 0.104886 17.7447 0.600211 17.7447H7.5821L6.11982 27.6375C5.89523 28.8497 7.53187 29.5138 8.27439 28.5118L19.8873 11.1901Z" fill="url(#paint0_linear_1009_2143)"/>
<path fill-rule="evenodd" clip-rule="evenodd" d="M19.8873 11.1901C20.1706 10.8079 19.8872 10.277 19.3998 10.277H12.3748L13.7774 1.38192C14.0218 0.181262 12.4153 -0.513147 11.6475 0.461194L0.123092 16.8179C-0.176521 17.1981 0.104886 17.7447 0.600211 17.7447H7.5821L6.11982 27.6375C5.89523 28.8497 7.53187 29.5138 8.27439 28.5118L19.8873 11.1901Z" fill="white"/>
<defs>
<linearGradient id="paint0_linear_1009_2143" x1="6.5" y1="2" x2="14.5" y2="26.5" gradientUnits="userSpaceOnUse">
<stop offset="0.078125" stop-color="#FFD12F"/>
<stop offset="0.860784" stop-color="#FF9F2F"/>
</linearGradient>
</defs>
</svg>
