<?xml version="1.0" encoding="utf-8"?>
<!-- Generator: Adobe Illustrator 28.1.0, SVG Export Plug-In . SVG Version: 6.00 Build 0)  -->
<svg version="1.1" id="Layer_2" xmlns="http://www.w3.org/2000/svg" xmlns:xlink="http://www.w3.org/1999/xlink" x="0px" y="0px"
	 viewBox="0 0 375 812" style="enable-background:new 0 0 375 812;" xml:space="preserve">
<style type="text/css">
	.st0{fill-rule:evenodd;clip-rule:evenodd;enable-background:new    ;}
	.st1{fill-rule:evenodd;clip-rule:evenodd;fill:#222222;enable-background:new    ;}
</style>
<path class="st0" d="M375,0H0v812h375V0z M65,214c-8.8,0-16,7.2-16,16v245c0,8.8,7.2,16,16,16h245c8.8,0,16-7.2,16-16V230
	c0-8.8-7.2-16-16-16H65z"/>
<path class="st1" d="M65,214c-8.8,0-16,7.2-16,16v245c0,8.8,7.2,16,16,16h245c8.8,0,16-7.2,16-16V230c0-8.8-7.2-16-16-16H65z"/>
</svg>
