<svg width="20" height="16" viewBox="0 0 20 16" fill="none" xmlns="http://www.w3.org/2000/svg">
<g clip-path="url(#clip0_5694_5165)">
<path d="M0.396922 3.37927C0.231664 3.25923 0 3.37729 0 3.58154V12.9091C0 14.7166 1.49238 16.1819 3.33333 16.1819H16.6667C18.5076 16.1819 20 14.7166 20 12.9091V3.58154C20 3.37729 19.7683 3.25923 19.6031 3.37927L10.9887 9.63642C10.4007 10.0618 9.59926 10.0618 9.01133 9.63642L0.396922 3.37927Z" fill="#AAAAAA"/>
<path d="M19.3077 1.8865C19.5069 1.74241 19.575 1.47223 19.4363 1.26929C18.838 0.394172 17.8208 -0.181763 16.6667 -0.181763H3.33333C2.17916 -0.181763 1.16199 0.394172 0.563694 1.2693C0.424955 1.47223 0.493122 1.74241 0.692294 1.8865L9.50567 8.26249C9.79963 8.47516 10.2004 8.47516 10.4943 8.2625L19.3077 1.8865Z" fill="#AAAAAA"/>
</g>
<defs>
<clipPath id="clip0_5694_5165">
<rect width="20" height="16" rx="3" fill="white"/>
</clipPath>
</defs>
</svg>
