<svg width="108" height="108" viewBox="0 0 108 108" fill="none" xmlns="http://www.w3.org/2000/svg">
<g opacity="0.6">
<rect x="0.5" y="0.5" width="107" height="107" rx="53.5" fill="white" fill-opacity="0.6"/>
<rect x="0.5" y="0.5" width="107" height="107" rx="53.5" stroke="white"/>
<path d="M54 0C83.8234 0 108 24.1766 108 54C108 66.361 103.846 77.751 96.8584 86.8525L96.8594 86.8535C96.8051 86.9243 96.749 86.994 96.6943 87.0645C96.6138 87.1682 96.5344 87.2728 96.4531 87.376C96.4034 87.4391 96.3527 87.5015 96.3027 87.5645C96.1869 87.7102 96.0704 87.8554 95.9531 88C95.9113 88.0516 95.8692 88.1029 95.8271 88.1543C95.7465 88.253 95.6653 88.3512 95.584 88.4492C95.4913 88.5609 95.3982 88.6722 95.3047 88.7832C95.2405 88.8593 95.1759 88.935 95.1113 89.0107C95.0364 89.0986 94.9622 89.187 94.8867 89.2744C94.8137 89.3589 94.7395 89.4423 94.666 89.5264C94.3693 89.8657 94.0686 90.2014 93.7637 90.5332C93.6659 90.6395 93.5683 90.746 93.4697 90.8516C93.4095 90.916 93.3486 90.9798 93.2881 91.0439C93.1971 91.1404 93.1064 91.2372 93.0146 91.333C92.9075 91.4449 92.7995 91.556 92.6914 91.667C92.6643 91.6949 92.6376 91.7232 92.6104 91.751C92.4871 91.877 92.3628 92.0021 92.2383 92.127C92.1734 92.192 92.1081 92.2566 92.043 92.3213C91.9464 92.4171 91.8502 92.5133 91.7529 92.6084C91.496 92.8597 91.2365 93.1083 90.9746 93.3545C90.8329 93.4876 90.69 93.6194 90.5469 93.751C90.4423 93.8472 90.3378 93.9436 90.2324 94.0391C90.1647 94.1003 90.0963 94.1607 90.0283 94.2217C89.9224 94.3166 89.8166 94.4117 89.71 94.5059C89.6376 94.5697 89.5648 94.6329 89.4922 94.6963C89.3957 94.7805 89.2992 94.8647 89.2021 94.9482C89.1017 95.0347 89.0005 95.1203 88.8994 95.2061C88.8291 95.2656 88.7591 95.3255 88.6885 95.3848C88.5886 95.4686 88.4882 95.5517 88.3877 95.6348C88.0277 95.9324 87.6646 96.2263 87.2969 96.5146C87.2227 96.5728 87.1477 96.6297 87.0732 96.6875C86.9764 96.7626 86.8796 96.8376 86.7822 96.9121C86.6754 96.9938 86.5684 97.0753 86.4609 97.1562C86.3748 97.2212 86.2887 97.2862 86.2021 97.3506C86.1148 97.4156 86.0272 97.4804 85.9395 97.5449C85.8125 97.6382 85.6845 97.7301 85.5566 97.8223C85.4916 97.8692 85.4266 97.9162 85.3613 97.9629C85.2574 98.0371 85.1533 98.111 85.0488 98.1846C84.732 98.4076 84.4135 98.6284 84.0918 98.8447C83.7304 99.0877 83.3656 99.3261 82.998 99.5605C82.926 99.6065 82.8535 99.6517 82.7812 99.6973C82.6492 99.7806 82.5166 99.8631 82.3838 99.9453C82.3157 99.9875 82.248 100.03 82.1797 100.072C82.0315 100.163 81.8825 100.252 81.7334 100.342C81.6797 100.374 81.6261 100.406 81.5723 100.438C81.2056 100.657 80.8361 100.87 80.4639 101.08C80.2933 101.176 80.1219 101.271 79.9502 101.365C79.8708 101.409 79.7916 101.453 79.7119 101.496C79.63 101.541 79.548 101.585 79.4658 101.629C79.0942 101.828 78.7196 102.022 78.3428 102.213C78.2822 102.244 78.2218 102.274 78.1611 102.305C78.0559 102.357 77.9504 102.41 77.8447 102.462C77.7189 102.524 77.5932 102.586 77.4668 102.647C77.0549 102.847 76.6403 103.041 76.2227 103.229C76.1853 103.246 76.1477 103.263 76.1104 103.279C75.6919 103.467 75.2707 103.651 74.8467 103.828C74.7879 103.853 74.7288 103.877 74.6699 103.901C74.5228 103.962 74.3753 104.022 74.2275 104.082C74.1276 104.122 74.0279 104.163 73.9277 104.203C73.8215 104.245 73.7149 104.287 73.6084 104.328C73.4869 104.376 73.3651 104.422 73.2432 104.469C72.5761 104.723 71.9031 104.966 71.2236 105.194C71.1474 105.22 71.0706 105.244 70.9941 105.27C70.8466 105.318 70.6989 105.367 70.5508 105.415C70.4536 105.446 70.3562 105.477 70.2588 105.508C70.1388 105.546 70.0187 105.583 69.8984 105.62C69.7678 105.66 69.6369 105.7 69.5059 105.739C69.4275 105.763 69.349 105.785 69.2705 105.809C69.1142 105.855 68.9577 105.901 68.8008 105.945C68.7338 105.964 68.6667 105.983 68.5996 106.002C68.4533 106.043 68.307 106.084 68.1602 106.124C67.939 106.184 67.7174 106.243 67.4951 106.3C67.4129 106.321 67.3304 106.341 67.248 106.361C67.0732 106.405 66.8981 106.449 66.7227 106.491C66.667 106.505 66.6114 106.518 66.5557 106.531C66.3734 106.575 66.1908 106.617 66.0078 106.658C65.9336 106.675 65.8595 106.692 65.7852 106.709C65.599 106.75 65.4124 106.791 65.2256 106.83C65.1833 106.839 65.1409 106.848 65.0986 106.856C64.6546 106.949 64.2087 107.036 63.7607 107.118C63.6573 107.137 63.5539 107.157 63.4502 107.175C63.241 107.212 63.0314 107.248 62.8213 107.282C62.8021 107.285 62.7828 107.288 62.7637 107.291C62.5444 107.327 62.3247 107.361 62.1045 107.395C62.0332 107.405 61.962 107.416 61.8906 107.427C61.6989 107.455 61.5068 107.482 61.3145 107.508C61.2582 107.515 61.2018 107.523 61.1455 107.53C60.9833 107.552 60.8208 107.572 60.6582 107.592C60.5304 107.608 60.4025 107.623 60.2744 107.638C59.2874 107.752 58.2925 107.84 57.29 107.9C57.2494 107.903 57.2087 107.905 57.168 107.907C56.9619 107.919 56.7555 107.93 56.5488 107.939C56.4685 107.943 56.3881 107.947 56.3076 107.95C56.1385 107.957 55.9693 107.963 55.7998 107.969C55.7139 107.972 55.628 107.975 55.542 107.978C55.3882 107.982 55.2342 107.984 55.0801 107.987C54.9565 107.99 54.8328 107.993 54.709 107.994C54.473 107.997 54.2367 108 54 108C53.763 108 53.5263 107.997 53.29 107.994C53.1662 107.993 53.0425 107.99 52.9189 107.987C52.7648 107.984 52.6108 107.982 52.457 107.978C52.371 107.975 52.2851 107.972 52.1992 107.969C52.0298 107.963 51.8605 107.957 51.6914 107.95C51.611 107.947 51.5306 107.943 51.4502 107.939C51.2435 107.93 51.0371 107.919 50.8311 107.907C50.7904 107.905 50.7497 107.903 50.709 107.9C49.7065 107.84 48.7116 107.752 47.7246 107.638C47.5965 107.623 47.4686 107.608 47.3408 107.592C47.1782 107.572 47.0157 107.552 46.8535 107.53C46.7972 107.523 46.7409 107.515 46.6846 107.508C46.4922 107.482 46.3001 107.455 46.1084 107.427C46.037 107.416 45.9658 107.405 45.8945 107.395C45.6744 107.361 45.4546 107.327 45.2354 107.291C45.2162 107.288 45.1969 107.285 45.1777 107.282C44.9677 107.248 44.7581 107.212 44.5488 107.175C44.4452 107.157 44.3417 107.137 44.2383 107.118C43.7904 107.036 43.3444 106.949 42.9004 106.856C42.8581 106.848 42.8157 106.839 42.7734 106.83C42.5866 106.791 42.4 106.75 42.2139 106.709C42.1395 106.692 42.0654 106.675 41.9912 106.658C41.8083 106.617 41.6256 106.575 41.4434 106.531C41.3877 106.518 41.332 106.505 41.2764 106.491C41.1009 106.449 40.9258 106.405 40.751 106.361C40.669 106.341 40.5867 106.321 40.5049 106.3C40.2823 106.243 40.0603 106.184 39.8389 106.124C39.6924 106.084 39.5464 106.043 39.4004 106.002C39.333 105.983 39.2655 105.964 39.1982 105.945C39.0413 105.901 38.8849 105.855 38.7285 105.809C38.65 105.785 38.5715 105.763 38.4932 105.739C38.3621 105.7 38.2312 105.66 38.1006 105.62C37.9803 105.583 37.8602 105.546 37.7402 105.508C37.6428 105.477 37.5454 105.446 37.4482 105.415C37.3001 105.367 37.1525 105.318 37.0049 105.27C36.9285 105.244 36.8517 105.22 36.7754 105.194C36.096 104.966 35.4229 104.723 34.7559 104.469C34.6339 104.422 34.5121 104.376 34.3906 104.328C34.2844 104.287 34.1782 104.245 34.0723 104.203C33.9718 104.163 33.8717 104.123 33.7715 104.082C33.6238 104.022 33.4762 103.962 33.3291 103.901C33.2702 103.877 33.2112 103.853 33.1523 103.828C32.7283 103.65 32.3071 103.467 31.8887 103.279C31.8516 103.263 31.8144 103.246 31.7773 103.229C31.3595 103.041 30.9444 102.847 30.5322 102.647C30.4058 102.586 30.2801 102.524 30.1543 102.462C30.0486 102.41 29.9432 102.357 29.8379 102.305C29.7772 102.274 29.7168 102.244 29.6562 102.213C29.2795 102.022 28.9049 101.828 28.5332 101.629C28.451 101.585 28.369 101.541 28.2871 101.496C28.2074 101.453 28.1282 101.409 28.0488 101.365C27.8771 101.271 27.7057 101.176 27.5352 101.08C27.163 100.87 26.7934 100.657 26.4268 100.438C26.3729 100.406 26.3193 100.374 26.2656 100.342C26.1166 100.252 25.9675 100.163 25.8193 100.072C25.751 100.03 25.6833 99.9875 25.6152 99.9453C25.4824 99.8631 25.3498 99.7806 25.2178 99.6973C25.1455 99.6517 25.073 99.6065 25.001 99.5605C24.6337 99.3263 24.2694 99.0876 23.9082 98.8447C23.5862 98.6283 23.2672 98.4077 22.9502 98.1846C22.8458 98.111 22.7416 98.0371 22.6377 97.9629C22.5724 97.9162 22.5074 97.8692 22.4424 97.8223C22.3146 97.7301 22.1865 97.6382 22.0596 97.5449C21.9718 97.4804 21.8843 97.4156 21.7969 97.3506C21.7103 97.2862 21.6242 97.2212 21.5381 97.1562C21.4306 97.0753 21.3236 96.9938 21.2168 96.9121C21.1195 96.8376 21.0226 96.7626 20.9258 96.6875C20.8513 96.6297 20.7763 96.5728 20.7021 96.5146C20.3345 96.2263 19.9713 95.9324 19.6113 95.6348C19.5108 95.5517 19.4104 95.4686 19.3105 95.3848C19.2399 95.3255 19.1699 95.2656 19.0996 95.2061C18.9985 95.1203 18.8973 95.0347 18.7969 94.9482C18.6998 94.8647 18.6033 94.7805 18.5068 94.6963C18.4342 94.6329 18.3614 94.5697 18.2891 94.5059C18.1824 94.4117 18.0766 94.3166 17.9707 94.2217C17.9027 94.1607 17.8343 94.1003 17.7666 94.0391C17.6612 93.9436 17.5568 93.8472 17.4521 93.751C17.3092 93.6195 17.1669 93.4875 17.0254 93.3545C16.7633 93.1082 16.5032 92.8598 16.2461 92.6084C16.1488 92.5133 16.0526 92.4171 15.9561 92.3213C15.8909 92.2566 15.8256 92.192 15.7607 92.127C15.6364 92.0023 15.5128 91.8769 15.3896 91.751C15.3623 91.723 15.3349 91.695 15.3076 91.667C15.1995 91.556 15.0915 91.4449 14.9844 91.333C14.8927 91.2372 14.8019 91.1404 14.7109 91.0439C14.6504 90.9798 14.5895 90.916 14.5293 90.8516C14.4307 90.746 14.3331 90.6395 14.2354 90.5332C13.9304 90.2014 13.6297 89.8657 13.333 89.5264C13.2782 89.4637 13.2225 89.4018 13.168 89.3389L13.0566 89.21C12.9998 89.144 12.9442 89.077 12.8877 89.0107C12.8231 88.935 12.7585 88.8593 12.6943 88.7832C12.6008 88.6722 12.5077 88.5609 12.415 88.4492C12.3337 88.3512 12.2525 88.253 12.1719 88.1543C12.1299 88.1029 12.0877 88.0516 12.0459 88C11.9286 87.8554 11.8121 87.7102 11.6963 87.5645C11.6464 87.5017 11.5965 87.439 11.5469 87.376C11.4655 87.2726 11.3853 87.1684 11.3047 87.0645C11.2502 86.9941 11.1948 86.9241 11.1406 86.8535V86.8525C4.1537 77.7511 0 66.3608 0 54C0 24.1766 24.1766 0 54 0ZM54 3C25.8335 3 3 25.8335 3 54C3 65.9611 7.11961 76.9588 14.0146 85.6562C19.7215 83.3126 31.8634 78.5391 40.7998 76.5342V72.1445C38.753 69.627 37.1673 65.1897 36.4385 59.7979C35.0516 58.5026 33.6894 56.2118 32.793 53.4316C31.397 49.1015 31.6129 45.074 33.2012 43.8779C33.0693 42.4034 33 40.8713 33 39.2998C33 38.6158 33.0133 37.9391 33.0391 37.2715C33.0578 36.7805 33.0837 36.2942 33.1162 35.8135C32.6489 34.3411 32.4004 32.7948 32.4004 31.2002C32.4004 21.2592 42.0706 13.2002 54 13.2002C65.9294 13.2002 75.5996 21.2592 75.5996 31.2002C75.5996 32.7948 75.3511 34.3411 74.8838 35.8135C74.9186 36.332 74.9465 36.8569 74.9658 37.3877C74.9887 38.0175 75 38.6553 75 39.2998C75 40.8713 74.9307 42.4034 74.7988 43.8779C76.3871 45.074 76.603 49.1015 75.207 53.4316C74.3106 56.2118 72.9484 58.5026 71.5615 59.7979C70.8327 65.1897 69.247 69.627 67.2002 72.1445V76.5342C76.1362 78.539 88.2771 83.3125 93.9844 85.6562C100.88 76.9587 105 65.9613 105 54C105 25.8335 82.1665 3 54 3Z" fill="#1A295A"/>
</g>
</svg>
