<svg width="108" height="108" viewBox="0 0 108 108" fill="none" xmlns="http://www.w3.org/2000/svg">
<g id="default avatar">
<rect x="0.5" y="0.5" width="107" height="107" rx="53.5" fill="black"/>
<path id="Union" fill-rule="evenodd" clip-rule="evenodd" d="M14.0103 85.6548C19.7158 83.3116 31.8619 78.5398 40.8 76.5346V72.145C38.753 69.6275 37.1678 65.1899 36.4389 59.7978C35.052 58.5026 33.6894 56.2119 32.7929 53.4316C31.3969 49.1013 31.6128 45.0735 33.2013 43.8776C33.0694 42.4031 33 40.8715 33 39.3C33 38.6159 33.0132 37.9392 33.039 37.2715C33.0577 36.7805 33.0835 36.2941 33.116 35.8134C32.6487 34.3409 32.4 32.7946 32.4 31.2C32.4 21.259 42.0706 13.2 54 13.2C65.9294 13.2 75.6 21.259 75.6 31.2C75.6 32.7946 75.3513 34.3409 74.884 35.8134C74.9188 36.3319 74.9461 36.8569 74.9654 37.3878C74.9883 38.0177 75 38.6555 75 39.3C75 40.8715 74.9306 42.4031 74.7987 43.8776C76.3872 45.0735 76.6031 49.1013 75.2071 53.4316C74.3106 56.2119 72.948 58.5026 71.5611 59.7978C70.8322 65.1899 69.247 69.6275 67.2 72.145V76.5346C76.1381 78.5398 88.2842 83.3116 93.9897 85.6548C100.883 76.9579 105 65.9597 105 54C105 25.8335 82.1665 3 54 3C25.8335 3 3 25.8335 3 54C3 65.9597 7.11665 76.9579 14.0103 85.6548ZM11.1407 86.8539C4.15338 77.7523 0 66.3612 0 54C0 24.1766 24.1766 0 54 0C83.8234 0 108 24.1766 108 54C108 67.0477 103.372 79.0146 95.669 88.349C85.7646 100.35 70.7757 108 54 108C53.8835 108 53.7671 108 53.6508 107.999C36.3309 107.889 20.9456 99.6256 11.1407 86.8539Z" fill="white"/>
<rect x="0.5" y="0.5" width="107" height="107" rx="53.5" stroke="black"/>
</g>
</svg>
