<svg width="16" height="16" viewBox="0 0 16 16" fill="none" xmlns="http://www.w3.org/2000/svg">
<path d="M5.36599 5.81512C5.59218 5.99679 5.92725 5.83511 5.92725 5.5443V4.18498H11.4545C12.5993 4.18498 13.5272 5.11664 13.5272 6.2659V8.87047C13.5272 9.10656 13.4881 9.33347 13.4159 9.545C13.3631 9.69999 13.3987 9.87704 13.5261 9.97938L14.0954 10.4366C14.2576 10.5669 14.4984 10.5253 14.5863 10.3363C14.7934 9.89102 14.9091 9.3943 14.9091 8.87047V6.2659C14.9091 4.35047 13.3624 2.7977 11.4545 2.7977H5.92725V1.43838C5.92725 1.14757 5.59218 0.985894 5.36599 1.16756L2.80989 3.22052C2.63703 3.35936 2.63703 3.62332 2.80989 3.76216L5.36599 5.81512Z" fill="#666666"/>
<path d="M1.90456 5.56341C1.74231 5.43309 1.50159 5.47473 1.41367 5.66374C1.20656 6.10899 1.09088 6.6057 1.09088 7.12954V9.7341C1.09088 11.6495 2.63753 13.2023 4.54543 13.2023H10.0727V14.5616C10.0727 14.8524 10.4078 15.0141 10.634 14.8324L13.1901 12.7795C13.3629 12.6406 13.3629 12.3767 13.1901 12.2378L10.634 10.1849C10.4078 10.0032 10.0727 10.1649 10.0727 10.4557V11.815H4.54543C3.40069 11.815 2.4727 10.8834 2.4727 9.7341V7.12954C2.4727 6.89345 2.51186 6.66654 2.58402 6.455C2.63689 6.30002 2.60126 6.12297 2.47384 6.02063L1.90456 5.56341Z" fill="#666666"/>
</svg>
