<svg width="30" height="22" viewBox="0 0 30 22" fill="none" xmlns="http://www.w3.org/2000/svg">
<path d="M5.23438 1.2422C5.5682 0.919169 6.0959 0.919126 6.41895 1.2422L25.7617 20.5752C26.0846 20.9092 26.0738 21.4258 25.7617 21.749C25.4386 22.0831 24.911 22.0831 24.5879 21.749L5.23438 2.417C4.92205 2.10449 4.92205 1.55471 5.23438 1.2422Z" fill="white"/>
<path d="M7.5918 6.94728L6.69531 7.77833C6.43829 8.01741 6.21439 8.07423 5.92383 8.07423H2.34766C1.93422 8.07423 1.74426 8.26767 1.74414 8.70021V13.3594C1.74424 13.7806 1.9342 13.9736 2.34766 13.9736H5.92383C6.21443 13.9736 6.43825 14.0427 6.69531 14.2705L11.457 18.6553C11.5239 18.7121 11.5907 18.746 11.6465 18.7461C11.7247 18.7461 11.792 18.6777 11.792 18.5752V11.1426L13.5361 12.8848V19.7832C13.536 20.5235 12.9878 21.0586 12.2725 21.0586C11.7361 21.0585 11.3226 20.8305 10.7861 20.3408L5.74512 15.7393C5.66692 15.671 5.57707 15.6367 5.47656 15.6367H2.26855C0.75991 15.6366 0 14.8623 0 13.2109V8.84864C1.68335e-05 7.19729 0.748753 6.4113 2.26855 6.41114H5.47656C5.57716 6.41114 5.66688 6.37694 5.74512 6.3086L6.37793 5.73536L7.5918 6.94728Z" fill="white"/>
<path d="M25.6406 0.158213C26.0205 -0.126425 26.5683 -0.0242228 26.8701 0.442393C28.7926 3.33536 29.9999 6.96908 30 11.001C30 14.6054 29.0538 17.9155 27.4492 20.6387C27.3618 20.2133 27.1575 19.8046 26.8281 19.4639L26.3691 19.0059C27.5674 16.6926 28.29 13.9594 28.29 11.001C28.29 7.34496 27.1943 4.06428 25.4619 1.45607C25.1605 0.989247 25.2162 0.454303 25.6406 0.158213Z" fill="white"/>
<path d="M21.4492 3.17677C21.8627 2.89209 22.3769 2.99416 22.6787 3.42677C24.1205 5.40854 24.9482 8.18779 24.9482 11.001C24.9482 12.9291 24.5531 14.8305 23.8447 16.4815L22.4961 15.1338C22.9559 13.8537 23.2158 12.4437 23.2158 11.001C23.2157 8.57521 22.5111 6.21781 21.293 4.46388C20.9689 3.99699 21.0359 3.46155 21.4492 3.17677Z" fill="white"/>
<path d="M17.3135 6.14942C17.6823 5.8761 18.208 5.96698 18.5098 6.41114C19.3703 7.57283 19.8847 9.25847 19.8848 11.001C19.8848 11.4778 19.8441 11.9514 19.7705 12.4111L18.1475 10.7881C18.1101 9.54485 17.748 8.36691 17.1348 7.50489C16.7884 7.038 16.8555 6.46837 17.3135 6.14942Z" fill="white"/>
<path d="M12.25 0.966807C12.9876 0.966807 13.536 1.57032 13.5361 2.31056V6.17872L11.792 4.43556V3.43849C11.792 3.33601 11.7247 3.27931 11.6465 3.27931C11.5685 3.2794 11.5128 3.31331 11.457 3.37013L11.0762 3.72169L9.9043 2.54981L10.7861 1.75294C11.3672 1.21775 11.7137 0.966923 12.25 0.966807Z" fill="white"/>
</svg>
