<svg width="12" height="12" viewBox="0 0 12 12" fill="none" xmlns="http://www.w3.org/2000/svg">
<path d="M1.31683 0.225993C1.0156 -0.075331 0.52717 -0.075331 0.22594 0.225993C-0.0753134 0.527223 -0.0753134 1.01565 0.22594 1.31688L4.90911 6.00002L0.22594 10.6832C-0.0752901 10.9845 -0.0752901 11.4728 0.22594 11.7741C0.527193 12.0754 1.01562 12.0754 1.31685 11.7741L6.00004 7.09091L10.6832 11.7741C10.9844 12.0754 11.4728 12.0754 11.7741 11.7741C12.0753 11.4728 12.0753 10.9844 11.7741 10.6832L7.09093 6.00002L11.7741 1.31688C12.0753 1.01565 12.0753 0.527223 11.7741 0.225993C11.4728 -0.0752369 10.9844 -0.0752369 10.6832 0.225993L6 4.90914L1.31683 0.225993Z" fill="#121212"/>
</svg>
