<svg width="20" height="20" viewBox="0 0 20 20" fill="none" xmlns="http://www.w3.org/2000/svg">
<path d="M13.7034 13.001C15.3396 13.001 16.666 14.3434 16.6663 16C16.6663 17.6568 15.3398 19 13.7034 19H6.29614C4.65978 19 3.33325 17.6568 3.33325 16C3.33351 14.3435 4.65994 13.001 6.29614 13.001H13.7034Z" fill="white"/>
<path d="M16.7053 1.21777C16.9843 0.924948 17.4392 0.923455 17.6965 1.2373C19.1322 2.98809 20.0002 5.26724 20.0002 7.75879C20.0002 10.0972 19.2353 12.2482 17.9543 13.9512C17.7306 13.4805 17.4327 13.0518 17.0745 12.6816C18.0164 11.2925 18.5715 9.59389 18.5715 7.75879C18.5715 5.68136 17.8618 3.77726 16.6829 2.30078C16.4296 1.98337 16.4264 1.5106 16.7053 1.21777Z" fill="white"/>
<path d="M2.30396 1.2373C2.56128 0.92366 3.01526 0.925227 3.29419 1.21777C3.57302 1.51053 3.57074 1.98337 3.31763 2.30078C2.13873 3.77726 1.42896 5.68136 1.42896 7.75879C1.42902 9.59379 1.98325 11.2925 2.92505 12.6816C2.56702 13.0516 2.26886 13.4798 2.04517 13.9502C0.764583 12.2474 0.000317297 10.0969 0.000244141 7.75879C0.000250453 5.26718 0.868228 2.98811 2.30396 1.2373Z" fill="white"/>
<path d="M14.6848 3.33886C14.9637 3.04604 15.4195 3.04399 15.6672 3.36621C16.59 4.56708 17.1427 6.09471 17.1428 7.75781C17.1428 9.26592 16.687 10.662 15.9143 11.8047C15.487 11.5754 15.0204 11.4097 14.5256 11.3223C14.555 11.2378 14.5963 11.1568 14.6497 11.083C15.3179 10.1597 15.7141 9.00693 15.7141 7.75781C15.714 6.50885 15.3178 5.35683 14.6497 4.43359C14.4111 4.10385 14.406 3.63172 14.6848 3.33886Z" fill="white"/>
<path d="M4.33228 3.36621C4.57994 3.04392 5.03574 3.04614 5.3147 3.33886C5.59355 3.63165 5.58926 4.10382 5.35083 4.43359C4.68268 5.35683 4.28549 6.50885 4.2854 7.75781C4.2854 9.00693 4.68261 10.1597 5.35083 11.083C5.40404 11.1566 5.44355 11.2381 5.4729 11.3223C4.97868 11.4097 4.51213 11.5746 4.08521 11.8037C3.3129 10.6612 2.85669 9.26552 2.85669 7.75781C2.85679 6.09476 3.40957 4.56706 4.33228 3.36621Z" fill="white"/>
<path d="M10.0002 4.00097C12.0456 4.00115 13.7034 5.6801 13.7034 7.75097C13.7033 9.82178 12.0455 11.5008 10.0002 11.501C7.9548 11.501 6.29622 9.82189 6.29614 7.75097C6.29614 5.67999 7.95475 4.00097 10.0002 4.00097Z" fill="white"/>
</svg>
