<svg width="6" height="12" viewBox="0 0 6 12" fill="none" xmlns="http://www.w3.org/2000/svg">
<path d="M0.5625 7.76471C0.25184 7.76471 7.22514e-08 8.00173 7.22514e-08 8.29412L0 9.17647C0 10.7359 1.34315 12 3 12C4.65685 12 6 10.7359 6 9.17647V7.05882C6 5.49943 4.65685 4.23529 3 4.23529C2.58662 4.23529 2.40738 4.31399 2.15355 4.45632C1.98106 4.55305 1.875 4.72941 1.875 4.91839L1.875 5.15396C1.875 5.42518 2.23166 5.51556 2.48849 5.39256C2.62166 5.32879 2.78308 5.29412 3 5.29412C4.03553 5.29412 4.875 6.0842 4.875 7.05882L4.875 9.17647C4.875 10.1511 4.03553 10.9412 3 10.9412C1.96447 10.9412 1.125 10.1511 1.125 9.17647V8.29412C1.125 8.00173 0.87316 7.76471 0.5625 7.76471Z" fill="#757575"/>
<path d="M5.4375 4.23529C5.74816 4.23529 6 3.99827 6 3.70588V2.82353C6 1.26414 4.65685 0 3 0C1.34315 0 0 1.26414 0 2.82353L7.22514e-08 4.94118C7.22514e-08 6.50057 1.34315 7.76471 3 7.76471C3.41338 7.76471 3.59262 7.68601 3.84644 7.54368C4.01894 7.44695 4.125 7.27059 4.125 7.08161V6.84604C4.125 6.57482 3.76834 6.48444 3.51151 6.60744C3.37834 6.67121 3.21692 6.70588 3 6.70588C1.96447 6.70588 1.125 5.9158 1.125 4.94118L1.125 2.82353C1.125 1.84891 1.96447 1.05882 3 1.05882C4.03553 1.05882 4.875 1.84891 4.875 2.82353V3.70588C4.875 3.99827 5.12684 4.23529 5.4375 4.23529Z" fill="#757575"/>
</svg>
