<svg width="129" height="49" viewBox="0 0 129 49" fill="none" xmlns="http://www.w3.org/2000/svg">
<path fill-rule="evenodd" clip-rule="evenodd" d="M80.7526 39.3C80.3206 39.252 79.9366 39.24 79.4686 39.24H76.6846V48H77.8366V44.472H79.4686C79.9366 44.472 80.3206 44.46 80.7526 44.412C81.9166 44.268 82.9846 43.536 82.9846 41.76C82.9846 40.08 81.9166 39.444 80.7526 39.3ZM79.5286 43.44H77.8366V40.272H79.5286C80.8726 40.272 81.7966 40.536 81.7966 41.832C81.7966 43.26 80.8006 43.44 79.5286 43.44Z" fill="white" fill-opacity="0.8"/>
<path fill-rule="evenodd" clip-rule="evenodd" d="M90.4249 47.928V48H89.0569C88.9249 47.448 88.7929 46.704 88.6969 45.9C88.5529 44.736 88.1689 44.388 86.8009 44.388H85.0969V48H83.9329V39.24H86.7289C87.1969 39.24 87.5809 39.252 88.0009 39.3C89.2849 39.444 90.1969 40.128 90.1969 41.652C90.1969 42.744 89.5969 43.5 88.6369 43.836C89.3569 44.112 89.7649 44.676 89.8729 45.636C89.9689 46.512 90.0649 47.028 90.2209 47.664L90.4249 47.928ZM85.0969 43.356H86.8609C88.0849 43.356 89.0209 43.056 89.0209 41.82C89.0209 40.728 88.3969 40.272 86.8849 40.272H85.0969V43.356Z" fill="white" fill-opacity="0.8"/>
<path d="M97.4568 40.272V39.24H91.6968V48H97.5648V46.968H92.8488V44.1H97.2048V43.068H92.8488V40.272H97.4568Z" fill="white" fill-opacity="0.8"/>
<path d="M107.181 39.24V48H106.017V43.212C106.017 42.9711 106.016 42.7163 106.014 42.4547L106.014 42.4535C106.012 41.9075 106.009 41.3311 106.017 40.788C105.765 41.592 105.477 42.468 105.213 43.212L103.461 48H102.441L100.713 43.212C100.449 42.492 100.173 41.64 99.921 40.836C99.933 41.628 99.933 42.48 99.933 43.212V48H98.781V39.24H100.389C101.469 42.192 102.177 44.16 102.981 46.428C103.519 44.9321 104.021 43.5668 104.61 41.9635L104.61 41.9624L104.613 41.9562C104.916 41.1307 105.242 40.242 105.609 39.24H107.181Z" fill="white" fill-opacity="0.8"/>
<path d="M109.935 48V39.24H108.783V48H109.935Z" fill="white" fill-opacity="0.8"/>
<path d="M118.118 44.604C118.118 44.88 118.106 45.132 118.07 45.552C117.974 47.076 117.098 48.168 114.806 48.168C112.514 48.168 111.614 47.076 111.506 45.552C111.482 45.144 111.482 44.88 111.482 44.604V39.24H112.646V44.94C112.646 46.224 113.114 47.112 114.806 47.112C116.51 47.112 116.978 46.212 116.978 44.94V39.24H118.118V44.604Z" fill="white" fill-opacity="0.8"/>
<path d="M128.059 39.24V48H126.895V43.212C126.895 42.9707 126.893 42.7156 126.892 42.4535C126.889 41.9074 126.887 41.3313 126.895 40.788C126.643 41.592 126.355 42.468 126.091 43.212L124.339 48H123.319L121.591 43.212C121.327 42.492 121.051 41.64 120.799 40.836C120.811 41.628 120.811 42.48 120.811 43.212V48H119.659V39.24H121.267C122.347 42.192 123.055 44.16 123.859 46.428C124.397 44.9323 124.898 43.5671 125.487 41.9641C125.791 41.1365 126.119 40.2451 126.487 39.24H128.059Z" fill="white" fill-opacity="0.8"/>
<path d="M0.000244141 44.0625H7.79889V32.0706C8.50023 32.8625 9.36167 33.5021 10.3832 33.9893C11.42 34.4766 12.7159 34.7203 14.2711 34.7203C16.9545 34.7203 19.1347 33.7533 20.8119 31.8194C22.489 29.8855 23.3276 27.2739 23.3276 23.9847V23.2538C23.3276 19.9037 22.5119 17.3073 20.8805 15.4648C19.2491 13.6222 17.0841 12.7009 14.3854 12.7009C12.8455 12.7009 11.4886 12.9979 10.3146 13.5918C9.14059 14.1856 8.27153 14.9242 7.70741 15.8074H7.6388V13.2491H0.000244141V44.0625ZM7.79889 26.8399V20.6498C8.05808 19.9646 8.50786 19.3707 9.14821 18.8682C9.78857 18.3504 10.5814 18.0916 11.5267 18.0916C12.8379 18.0916 13.8137 18.5408 14.454 19.4392C15.1096 20.3224 15.4374 21.533 15.4374 23.071V24.2816C15.4374 25.7892 15.1096 27.0303 14.454 28.0048C13.8137 28.9642 12.8226 29.4439 11.4809 29.4439C10.5814 29.4439 9.81144 29.185 9.17108 28.6672C8.53073 28.1343 8.07333 27.5252 7.79889 26.8399Z" fill="white"/>
<path d="M26.1177 34.2634H34.145V21.9746C34.7244 20.9239 35.502 20.0864 36.4778 19.4621C37.4536 18.8225 38.437 18.5027 39.428 18.5027C39.9311 18.5027 40.3885 18.5332 40.8002 18.5941C41.2118 18.6398 41.5549 18.7235 41.8293 18.8453V13.1349C41.6769 13.074 41.3948 13.0207 40.9831 12.975C40.5715 12.9141 40.137 12.8837 39.6796 12.8837C38.4446 12.8837 37.3468 13.1882 36.3863 13.7973C35.441 14.4064 34.6634 15.1983 34.0536 16.1729H34.0307V13.2491H26.1177V34.2634Z" fill="white"/>
<path d="M43.9334 34.2634H51.8921V13.2491H43.9334V34.2634ZM43.5446 5.87129C43.5446 6.96769 43.9181 7.91181 44.6652 8.70366C45.4123 9.48027 46.4872 9.86858 47.8899 9.86858C49.2925 9.86858 50.3751 9.48027 51.1374 8.70366C51.915 7.91181 52.3038 6.96008 52.3038 5.84845C52.3038 4.7216 51.9302 3.78509 51.1831 3.03893C50.436 2.29277 49.3535 1.91969 47.9356 1.91969C46.5329 1.91969 45.4504 2.30038 44.6881 3.06177C43.9257 3.80793 43.5446 4.74444 43.5446 5.87129Z" fill="white"/>
<path d="M55.8029 34.2634H63.6244V21.061C63.975 20.3148 64.4248 19.6981 64.9737 19.2108C65.5378 18.7083 66.2087 18.457 66.9862 18.457C67.8553 18.457 68.5262 18.6931 68.9988 19.1651C69.4867 19.6372 69.7306 20.4671 69.7306 21.6549V34.2634H77.575V21.061C77.9257 20.2996 78.3831 19.6753 78.9472 19.188C79.5113 18.7007 80.1822 18.457 80.9598 18.457C81.8288 18.457 82.4997 18.6931 82.9723 19.1651C83.445 19.622 83.6813 20.4519 83.6813 21.6549V34.2634H91.5257V20.33C91.5257 17.5891 90.8929 15.6323 89.6275 14.4597C88.362 13.272 86.6773 12.6781 84.5732 12.6781C82.9113 12.6781 81.4095 13.0207 80.0678 13.706C78.7261 14.376 77.6513 15.3049 76.8432 16.4927H76.7974C76.3858 15.244 75.6235 14.2999 74.5105 13.6603C73.3974 13.0207 72.071 12.7009 70.5311 12.7009C68.9454 12.7009 67.5656 13.0283 66.3916 13.6831C65.2176 14.3379 64.2647 15.2287 63.5329 16.3556H63.4643V13.272H55.8029V34.2634Z" fill="white"/>
<path d="M94.2243 28.2333C94.2243 30.3042 94.8723 31.8803 96.1683 32.9615C97.4795 34.0274 99.2786 34.5604 101.566 34.5604C103.487 34.5604 105.08 34.233 106.345 33.5782C107.626 32.9082 108.526 32.162 109.044 31.3397C109.105 31.9031 109.197 32.4361 109.318 32.9386C109.456 33.4411 109.646 33.8827 109.89 34.2634H117.597V33.9437C117.292 33.365 117.064 32.6874 116.911 31.9108C116.759 31.1341 116.683 30.3042 116.683 29.421V20.2844C116.683 17.6195 115.844 15.6932 114.167 14.5054C112.49 13.3024 109.944 12.7009 106.528 12.7009C103.159 12.7009 100.506 13.3177 98.5696 14.5511C96.6485 15.7693 95.688 17.3911 95.688 19.4164V19.9874L102.801 20.0103V19.5306C102.801 18.7387 103.067 18.1296 103.601 17.7033C104.15 17.2617 104.935 17.0409 105.957 17.0409C106.993 17.0409 107.74 17.2921 108.198 17.7946C108.655 18.2971 108.884 19.0205 108.884 19.9646V21.3122H103.51C100.689 21.3122 98.4324 21.9442 96.74 23.2081C95.0629 24.4568 94.2243 26.1318 94.2243 28.2333ZM101.931 27.6622C101.931 26.7333 102.267 26.0785 102.938 25.6978C103.609 25.3171 104.638 25.1268 106.025 25.1268H108.884V26.7485C108.884 27.6622 108.465 28.4845 107.626 29.2154C106.803 29.9464 105.88 30.3118 104.859 30.3118C103.914 30.3118 103.189 30.091 102.686 29.6494C102.183 29.2078 101.931 28.5454 101.931 27.6622Z" fill="white"/>
<path d="M120.548 34.2634H128.438V0.9375H120.548V34.2634Z" fill="white"/>
</svg>
