<svg width="20" height="20" viewBox="0 0 20 20" fill="none" xmlns="http://www.w3.org/2000/svg">
<path fill-rule="evenodd" clip-rule="evenodd" d="M14.1455 12.9237C15.9041 12.9237 17.3298 14.3669 17.3301 16.1473C17.33 17.9279 15.9042 19.3709 14.1455 19.3709H6.18457C4.42604 19.3707 3.00012 17.9277 3 16.1473C3.00029 14.367 4.42614 12.9238 6.18457 12.9237H14.1455ZM6.18457 13.9989C5.10401 13.999 4.19538 14.8332 4.08594 15.9256L4.0752 16.1473C4.07532 17.3468 5.03218 18.2965 6.18457 18.2967H14.1455C15.298 18.2967 16.2548 17.3469 16.2549 16.1473C16.2546 14.948 15.2981 13.9989 14.1455 13.9989H6.18457Z" fill="#AAAAAA"/>
<path d="M16.8135 0.822093C17.0352 0.589529 17.3844 0.595053 17.5801 0.832835C18.9939 2.55709 19.8495 4.80354 19.8496 7.25959C19.8494 9.47601 19.1507 11.5198 17.9756 13.1649C17.78 12.8021 17.5398 12.4665 17.2627 12.1658C18.1805 10.7712 18.7215 9.08144 18.7217 7.25959C18.7216 5.14794 17.9994 3.21037 16.7998 1.70783C16.5885 1.44264 16.5926 1.05466 16.8135 0.822093Z" fill="#AAAAAA"/>
<path d="M2.41992 0.832835C2.61539 0.59526 2.96369 0.58972 3.18555 0.822093C3.40672 1.05478 3.41125 1.44279 3.2002 1.70783C2.00067 3.21035 1.27841 5.14799 1.27832 7.25959C1.27849 9.08105 1.81782 10.7713 2.73535 12.1658C2.45859 12.4662 2.218 12.8015 2.02246 13.1639C0.848016 11.5191 0.150575 9.47537 0.150391 7.25959C0.150485 4.80355 1.00612 2.55709 2.41992 0.832835Z" fill="#AAAAAA"/>
<path fill-rule="evenodd" clip-rule="evenodd" d="M10.165 3.2508C12.3633 3.251 14.1454 5.05542 14.1455 7.28108C14.1454 9.50672 12.3633 11.3112 10.165 11.3114C7.96699 11.3109 6.18467 9.50659 6.18457 7.28108C6.18465 5.05556 7.96698 3.25121 10.165 3.2508ZM10.165 4.326C8.67261 4.32638 7.42382 5.47763 7.27344 6.97639L7.25879 7.28108C7.25888 8.92555 8.57303 10.2367 10.165 10.2371C11.6574 10.237 12.9053 9.08492 13.0557 7.58576L13.0703 7.28108C13.0702 5.73922 11.9168 4.491 10.4609 4.34065L10.165 4.326Z" fill="#AAAAAA"/>
<path d="M14.793 2.94319C15.0159 2.70939 15.3627 2.71836 15.5479 2.95881C16.4505 4.13373 16.992 5.62947 16.9922 7.25862C16.9921 8.68844 16.5727 10.0145 15.8604 11.1121C15.5103 10.937 15.1371 10.799 14.7441 10.7127C14.7526 10.6991 14.7611 10.6847 14.7705 10.6717L14.8965 10.491C15.5065 9.57494 15.8642 8.45931 15.8643 7.25862C15.8641 5.97791 15.4567 4.79481 14.7705 3.84651C14.5673 3.56518 14.573 3.17484 14.793 2.94319Z" fill="#AAAAAA"/>
<path d="M4.45117 2.95881C4.63614 2.7184 4.98296 2.70939 5.20605 2.94319C5.42633 3.17493 5.43253 3.56528 5.22949 3.84651C4.54341 4.79472 4.13494 5.97789 4.13477 7.25862C4.13488 8.53947 4.54332 9.7234 5.22949 10.6717C5.2386 10.6844 5.24565 10.6993 5.25391 10.7127C4.86115 10.7989 4.48775 10.9361 4.1377 11.1112C3.42582 10.0138 3.00694 8.68776 3.00684 7.25862C3.00702 5.62959 3.54863 4.1337 4.45117 2.95881Z" fill="#AAAAAA"/>
</svg>
