<svg width="28" height="20" viewBox="0 0 28 20" fill="none" xmlns="http://www.w3.org/2000/svg">
<path fill-rule="evenodd" clip-rule="evenodd" d="M6.44433 12.529L6.44303 12.5278C6.42861 12.5146 6.4087 12.4961 6.38383 12.4726C6.3341 12.4257 6.26443 12.3587 6.17899 12.2732C6.00835 12.1025 5.77348 11.8569 5.50841 11.5496C4.98264 10.9402 4.31707 10.0643 3.80476 9.03059C3.29476 8.00159 2.90424 6.75052 3.02069 5.41906C3.14016 4.05307 3.78406 2.71533 5.14073 1.54239C6.47484 0.388945 7.81567 -0.0741596 9.10133 0.00954861C10.3591 0.0914431 11.4146 0.687282 12.225 1.36045C12.8984 1.91982 13.4449 2.56707 13.8503 3.12282C14.2558 2.56707 14.8023 1.91983 15.4756 1.36046C16.286 0.687281 17.3414 0.0914414 18.5993 0.00954724C19.8849 -0.0741597 21.2258 0.388937 22.56 1.54236C23.8644 2.67003 24.5896 3.86443 24.8675 5.06594C25.1444 6.26281 24.9536 7.3635 24.6052 8.26743C24.2594 9.16441 23.7493 9.89381 23.3391 10.3905C23.1317 10.6414 22.9441 10.84 22.8056 10.9782C22.7362 11.0474 22.6787 11.102 22.6367 11.1408C22.62 11.1561 22.6058 11.1691 22.5942 11.1795L14.2055 19.6418C14.0099 19.8391 13.6909 19.8391 13.4953 19.6418L6.44433 12.529Z" fill="#BC1870"/>
</svg>
