<svg width="30" height="22" viewBox="0 0 30 22" fill="none" xmlns="http://www.w3.org/2000/svg">
<rect x="1" y="1" width="28" height="20" rx="2" stroke="#666666" stroke-width="2"/>
<path d="M5.76908 7.32652C6.40633 7.32652 6.92293 6.77932 6.92293 6.1043C6.92293 5.42929 6.40633 4.88208 5.76908 4.88208C5.13183 4.88208 4.61523 5.42929 4.61523 6.1043C4.61523 6.77932 5.13183 7.32652 5.76908 7.32652Z" fill="#666666"/>
<path d="M6.92293 10.9932C6.92293 11.6682 6.40633 12.2154 5.76908 12.2154C5.13183 12.2154 4.61523 11.6682 4.61523 10.9932C4.61523 10.3182 5.13183 9.77097 5.76908 9.77097C6.40633 9.77097 6.92293 10.3182 6.92293 10.9932Z" fill="#666666"/>
<path d="M6.92293 15.8821C6.92293 16.5571 6.40633 17.1043 5.76908 17.1043C5.13183 17.1043 4.61523 16.5571 4.61523 15.8821C4.61523 15.2071 5.13183 14.6599 5.76908 14.6599C6.40633 14.6599 6.92293 15.2071 6.92293 15.8821Z" fill="#666666"/>
<path d="M10.3845 12.2154C11.0217 12.2154 11.5383 11.6682 11.5383 10.9932C11.5383 10.3182 11.0217 9.77097 10.3845 9.77097C9.74721 9.77097 9.23062 10.3182 9.23062 10.9932C9.23062 11.6682 9.74721 12.2154 10.3845 12.2154Z" fill="#666666"/>
<path d="M20.7691 10.9932C20.7691 11.6682 20.2525 12.2154 19.6152 12.2154C18.978 12.2154 18.4614 11.6682 18.4614 10.9932C18.4614 10.3182 18.978 9.77097 19.6152 9.77097C20.2525 9.77097 20.7691 10.3182 20.7691 10.9932Z" fill="#666666"/>
<path d="M24.2306 12.2154C24.8679 12.2154 25.3845 11.6682 25.3845 10.9932C25.3845 10.3182 24.8679 9.77097 24.2306 9.77097C23.5934 9.77097 23.0768 10.3182 23.0768 10.9932C23.0768 11.6682 23.5934 12.2154 24.2306 12.2154Z" fill="#666666"/>
<path d="M25.3845 15.8821C25.3845 16.5571 24.8679 17.1043 24.2306 17.1043C23.5934 17.1043 23.0768 16.5571 23.0768 15.8821C23.0768 15.2071 23.5934 14.6599 24.2306 14.6599C24.8679 14.6599 25.3845 15.2071 25.3845 15.8821Z" fill="#666666"/>
<path d="M11.5383 6.1043C11.5383 6.77932 11.0217 7.32652 10.3845 7.32652C9.74721 7.32652 9.23062 6.77932 9.23062 6.1043C9.23062 5.42929 9.74721 4.88208 10.3845 4.88208C11.0217 4.88208 11.5383 5.42929 11.5383 6.1043Z" fill="#666666"/>
<path d="M14.9999 12.2154C15.6371 12.2154 16.1537 11.6682 16.1537 10.9932C16.1537 10.3182 15.6371 9.77097 14.9999 9.77097C14.3626 9.77097 13.846 10.3182 13.846 10.9932C13.846 11.6682 14.3626 12.2154 14.9999 12.2154Z" fill="#666666"/>
<path d="M16.1537 6.1043C16.1537 6.77932 15.6371 7.32652 14.9999 7.32652C14.3626 7.32652 13.846 6.77932 13.846 6.1043C13.846 5.42929 14.3626 4.88208 14.9999 4.88208C15.6371 4.88208 16.1537 5.42929 16.1537 6.1043Z" fill="#666666"/>
<path d="M19.6152 7.32652C20.2525 7.32652 20.7691 6.77932 20.7691 6.1043C20.7691 5.42929 20.2525 4.88208 19.6152 4.88208C18.978 4.88208 18.4614 5.42929 18.4614 6.1043C18.4614 6.77932 18.978 7.32652 19.6152 7.32652Z" fill="#666666"/>
<path d="M25.3845 6.1043C25.3845 6.77932 24.8679 7.32652 24.2306 7.32652C23.5934 7.32652 23.0768 6.77932 23.0768 6.1043C23.0768 5.42929 23.5934 4.88208 24.2306 4.88208C24.8679 4.88208 25.3845 5.42929 25.3845 6.1043Z" fill="#666666"/>
<path d="M10.3845 14.6599C9.74721 14.6599 9.23062 15.2071 9.23062 15.8821C9.23062 16.5571 9.74721 17.1043 10.3845 17.1043H19.6152C20.2525 17.1043 20.7691 16.5571 20.7691 15.8821C20.7691 15.2071 20.2525 14.6599 19.6152 14.6599H10.3845Z" fill="#666666"/>
</svg>
