<svg width="69" height="68" viewBox="0 0 69 68" fill="none" xmlns="http://www.w3.org/2000/svg">
<path d="M27.1602 18.7637C33.1628 17.7503 37.9339 18.7758 41.5928 20.7324C38.358 19.8326 34.5015 19.7786 30.1055 21.0371C19.449 24.472 15.8963 34.9173 17.4189 46.4834C20.0764 60.976 34.2865 66.1703 41.3691 67.2129C39.0156 67.7283 36.5708 68 34.0625 68C27.1776 68 20.7699 65.9534 15.416 62.4355C14.0871 60.5347 13.4906 59.4879 13.0557 58.7246C12.8403 58.3467 12.6646 58.038 12.459 57.7295C10.4309 54.4678 9.36913 50.278 9.1377 45.3555C8.42093 30.1029 17.6907 20.3626 27.1602 18.7637ZM34.0625 0C52.84 0 68.0625 15.2223 68.0625 34C68.0625 45.6866 62.1663 55.9954 53.1865 62.1152C50.7341 63.7867 48.0515 65.1456 45.1963 66.1348C43.8255 65.8961 42.3067 65.599 41.2373 65.3896C40.7305 65.2904 40.3242 65.2111 40.083 65.167C33.6154 63.9856 22.0519 59.8177 19.5186 46.1523C18.8028 40.6575 19.3155 35.5991 21.1309 31.5869C22.9194 27.6343 26.0058 24.604 30.7129 23.0742C36.1839 21.5837 40.7174 22.3232 44.085 24.1318C43.256 23.957 42.3992 23.8652 41.5225 23.8652C34.2359 23.8653 28.3293 30.1939 28.3291 38.001C28.3291 41.1185 29.2707 44.0006 30.8662 46.3379C30.8867 46.3765 35.4614 54.9637 47.8662 54.1943C58.9516 53.5067 64.7084 43.5625 65.3945 39.8896C65.7511 37.9809 65.9375 36.0122 65.9375 34C65.9375 16.3959 51.6664 2.125 34.0625 2.125C20.7417 2.12509 9.32914 10.2966 4.56445 21.9004C2.9551 23.997 1.56977 26.3216 0.453125 28.835C2.94148 12.5087 17.0411 0.00010577 34.0625 0ZM27.3135 12.043C38.2497 12.043 47.7173 18.8785 52.2949 28.832C52.3563 28.9657 52.3096 29.1216 52.1934 29.2002C49.4093 22.8172 41.333 14.2176 26.8066 16.6699C16.1498 18.4691 6.25391 29.2637 7.01465 45.4561C7.23896 50.228 9.0344 55.4802 11.0166 59C4.32396 52.827 0.115852 44.0006 0.0625 34.1904C3.81496 20.9515 14.8954 12.043 27.3135 12.043Z" fill="url(#paint0_linear_7634_2383)"/>
<defs>
<linearGradient id="paint0_linear_7634_2383" x1="34.0625" y1="0" x2="34.0625" y2="68" gradientUnits="userSpaceOnUse">
<stop stop-color="#FFB700"/>
<stop offset="0.49" stop-color="#FFB700"/>
<stop offset="0.5" stop-color="#CB721E"/>
<stop offset="1" stop-color="#FFB700"/>
</linearGradient>
</defs>
</svg>
