<svg width="40" height="40" viewBox="0 0 40 40" fill="none" xmlns="http://www.w3.org/2000/svg">
<circle cx="20" cy="20" r="20" fill="black" fill-opacity="0.25"/>
<path d="M21.6113 4.04237C21.7774 3.93168 21.9999 4.05078 22 4.25037V7.18592C28.23 8.14792 32.9998 13.5332 33 20.0326C33 27.2123 27.1797 33.0326 20 33.0326C12.8203 33.0326 7 27.2123 7 20.0326C7.00013 15.2985 9.53121 11.1562 13.3135 8.88319C13.5448 8.74422 13.836 8.75703 14.0605 8.90662C14.5275 9.21814 14.4775 9.92849 13.999 10.2221C10.7009 12.2435 8.50013 15.8809 8.5 20.0326C8.5 26.3839 13.6487 31.5326 20 31.5326C26.3513 31.5326 31.5 26.3839 31.5 20.0326C31.4998 14.3639 27.3975 9.65615 22 8.70936V11.3158C22 11.5154 21.7774 11.6345 21.6113 11.5238L16.3125 7.99061C16.1641 7.89164 16.1641 7.67354 16.3125 7.57459L21.6113 4.04237Z" fill="white"/>
<path d="M25.3965 16.5931H21.5195L21.1719 19.2211C21.5078 18.4771 22.1679 18.2729 23.0078 18.2728C24.6038 18.2728 25.7197 19.257 25.7197 21.1889C25.7197 22.8808 24.6159 24.2006 22.6719 24.2006C20.668 24.2005 19.684 23.4087 19.54 21.6928H21.0645C21.1844 22.4367 21.616 22.8568 22.5879 22.8568C23.5839 22.8568 24.1963 22.245 24.1963 21.225C24.1963 20.0852 23.5002 19.6167 22.6484 19.6166C21.8804 19.6166 21.4003 19.8934 21.1123 20.4574H19.6484L20.248 15.2728H25.3965V16.5931Z" fill="white"/>
<path d="M17.0244 24.0326H15.5371V17.0609H13.6406V16.1967L15.8369 15.2494H17.0244V24.0326Z" fill="white"/>
</svg>
