<svg width="28" height="28" viewBox="0 0 28 28" fill="none" xmlns="http://www.w3.org/2000/svg">
<path d="M4.45455 5.15447C4.45455 4.76787 4.76795 4.45447 5.15455 4.45447H7.57274C7.95933 4.45447 8.27274 4.76787 8.27274 5.15447V7.57265C8.27274 7.95925 7.95933 8.27265 7.57274 8.27265H5.15455C4.76795 8.27265 4.45455 7.95925 4.45455 7.57265V5.15447Z" fill="#111111"/>
<path fill-rule="evenodd" clip-rule="evenodd" d="M2.54545 0C1.13964 0 0 1.13964 0 2.54545V10.1818C0 11.5876 1.13964 12.7273 2.54545 12.7273H10.1818C11.5876 12.7273 12.7273 11.5876 12.7273 10.1818V2.54545C12.7273 1.13964 11.5876 0 10.1818 0H2.54545ZM10.1818 1.90909H2.54545C2.194 1.90909 1.90909 2.194 1.90909 2.54545V10.1818C1.90909 10.5333 2.194 10.8182 2.54545 10.8182H10.1818C10.5333 10.8182 10.8182 10.5333 10.8182 10.1818V2.54545C10.8182 2.194 10.5333 1.90909 10.1818 1.90909Z" fill="#111111"/>
<path d="M19.7273 5.15447C19.7273 4.76787 20.0407 4.45447 20.4273 4.45447H22.8455C23.2321 4.45447 23.5455 4.76787 23.5455 5.15447V7.57265C23.5455 7.95925 23.2321 8.27265 22.8455 8.27265H20.4273C20.0407 8.27265 19.7273 7.95925 19.7273 7.57265V5.15447Z" fill="#111111"/>
<path fill-rule="evenodd" clip-rule="evenodd" d="M15.2727 2.54545C15.2727 1.13964 16.4124 0 17.8182 0H25.4545C26.8604 0 28 1.13964 28 2.54545V10.1818C28 11.5876 26.8604 12.7273 25.4545 12.7273H17.8182C16.4124 12.7273 15.2727 11.5876 15.2727 10.1818V2.54545ZM17.8182 1.90909H25.4545C25.806 1.90909 26.0909 2.194 26.0909 2.54545V10.1818C26.0909 10.5333 25.806 10.8182 25.4545 10.8182H17.8182C17.4667 10.8182 17.1818 10.5333 17.1818 10.1818V2.54545C17.1818 2.194 17.4667 1.90909 17.8182 1.90909Z" fill="#111111"/>
<path d="M4.45455 20.4273C4.45455 20.0407 4.76795 19.7273 5.15455 19.7273H7.57274C7.95933 19.7273 8.27274 20.0407 8.27274 20.4273V22.8455C8.27274 23.2321 7.95933 23.5455 7.57274 23.5455H5.15455C4.76795 23.5455 4.45455 23.2321 4.45455 22.8455V20.4273Z" fill="#111111"/>
<path fill-rule="evenodd" clip-rule="evenodd" d="M0 17.8181C0 16.4123 1.13964 15.2727 2.54545 15.2727H10.1818C11.5876 15.2727 12.7273 16.4123 12.7273 17.8181V25.4545C12.7273 26.8603 11.5876 28 10.1818 28H2.54545C1.13964 28 0 26.8603 0 25.4545V17.8181ZM2.54545 17.1818H10.1818C10.5333 17.1818 10.8182 17.4667 10.8182 17.8181V25.4545C10.8182 25.806 10.5333 26.0909 10.1818 26.0909H2.54545C2.194 26.0909 1.90909 25.806 1.90909 25.4545V17.8181C1.90909 17.4667 2.194 17.1818 2.54545 17.1818Z" fill="#111111"/>
<path d="M15.9727 15.2727C15.5861 15.2727 15.2727 15.5861 15.2727 15.9727V18.3909C15.2727 18.7775 15.5861 19.0909 15.9727 19.0909H18.3909C18.7775 19.0909 19.0909 18.7775 19.0909 18.3909V15.9727C19.0909 15.5861 18.7775 15.2727 18.3909 15.2727H15.9727Z" fill="#111111"/>
<path d="M19.7273 20.4273C19.7273 20.0407 20.0407 19.7273 20.4273 19.7273H22.8455C23.2321 19.7273 23.5455 20.0407 23.5455 20.4273V22.8455C23.5455 23.2321 23.2321 23.5455 22.8455 23.5455H20.4273C20.0407 23.5455 19.7273 23.2321 19.7273 22.8455V20.4273Z" fill="#111111"/>
<path d="M24.8818 24.1818C24.4952 24.1818 24.1818 24.4952 24.1818 24.8818V27.3C24.1818 27.6866 24.4952 28 24.8818 28H27.3C27.6866 28 28 27.6866 28 27.3V24.8818C28 24.4952 27.6866 24.1818 27.3 24.1818H24.8818Z" fill="#111111"/>
<path d="M15.2727 24.8818C15.2727 24.4952 15.5861 24.1818 15.9727 24.1818H18.3909C18.7775 24.1818 19.0909 24.4952 19.0909 24.8818V27.3C19.0909 27.6866 18.7775 28 18.3909 28H15.9727C15.5861 28 15.2727 27.6866 15.2727 27.3V24.8818Z" fill="#111111"/>
<path d="M24.8818 15.2727C24.4952 15.2727 24.1818 15.5861 24.1818 15.9727V18.3909C24.1818 18.7775 24.4952 19.0909 24.8818 19.0909H27.3C27.6866 19.0909 28 18.7775 28 18.3909V15.9727C28 15.5861 27.6866 15.2727 27.3 15.2727H24.8818Z" fill="#111111"/>
</svg>
