<svg width="40" height="36" viewBox="0 0 40 36" fill="none" xmlns="http://www.w3.org/2000/svg">
<path d="M29.8318 5.73885C29.5926 5.70243 29.3853 5.55658 29.2737 5.34609L26.6524 0.401737C26.461 0.0406066 26.0091 -0.10319 25.6375 0.0787784L20.4747 2.6071C20.2606 2.71194 20.0086 2.71194 19.7946 2.60709L14.6369 0.0811137C14.2653 -0.100874 13.8134 0.0429368 13.6219 0.404095L11.002 5.34651C10.8904 5.55697 10.6832 5.70282 10.444 5.73927L4.74291 6.60802C4.32628 6.67151 4.04192 7.05492 4.10907 7.46266L5.00704 12.9152C5.04633 13.1537 4.96503 13.3961 4.78896 13.5654L0.727793 17.4695C0.42404 17.7615 0.424073 18.2408 0.727867 18.5328L4.78949 22.4363C4.96565 22.6055 5.04698 22.848 5.00764 23.0867L4.10885 28.5387C4.04161 28.9466 4.3261 29.3301 4.74289 29.3935L10.4469 30.2611C10.6863 30.2975 10.8936 30.4434 11.0052 30.654L13.6244 35.5969C13.8159 35.9581 14.2679 36.102 14.6396 35.9199L19.7944 33.3943C20.0085 33.2894 20.2605 33.2894 20.4747 33.3943L25.6343 35.9212C26.0059 36.1032 26.4578 35.9594 26.6493 35.5982L29.2702 30.6539C29.3818 30.4434 29.5891 30.2976 29.8284 30.2612L35.5296 29.3937C35.9463 29.3303 36.2308 28.9468 36.1636 28.539L35.2657 23.0867C35.2264 22.8481 35.3077 22.6057 35.4838 22.4365L39.5449 18.5324C39.8487 18.2403 39.8487 17.761 39.5449 17.4691L35.4833 13.5656C35.3071 13.3963 35.2258 13.1538 35.2651 12.9151L36.1648 7.46113C36.2321 7.05328 35.9477 6.66971 35.5309 6.60628L29.8318 5.73885Z" fill="url(#paint0_linear_1764_11435)"/>
<path d="M29.8318 5.73885C29.5926 5.70243 29.3853 5.55658 29.2737 5.34609L26.6524 0.401737C26.461 0.0406066 26.0091 -0.10319 25.6375 0.0787784L20.4747 2.6071C20.2606 2.71194 20.0086 2.71194 19.7946 2.60709L14.6369 0.0811137C14.2653 -0.100874 13.8134 0.0429368 13.6219 0.404095L11.002 5.34651C10.8904 5.55697 10.6832 5.70282 10.444 5.73927L4.74291 6.60802C4.32628 6.67151 4.04192 7.05492 4.10907 7.46266L5.00704 12.9152C5.04633 13.1537 4.96503 13.3961 4.78896 13.5654L0.727793 17.4695C0.42404 17.7615 0.424073 18.2408 0.727867 18.5328L4.78949 22.4363C4.96565 22.6055 5.04698 22.848 5.00764 23.0867L4.10885 28.5387C4.04161 28.9466 4.3261 29.3301 4.74289 29.3935L10.4469 30.2611C10.6863 30.2975 10.8936 30.4434 11.0052 30.654L13.6244 35.5969C13.8159 35.9581 14.2679 36.102 14.6396 35.9199L19.7944 33.3943C20.0085 33.2894 20.2605 33.2894 20.4747 33.3943L25.6343 35.9212C26.0059 36.1032 26.4578 35.9594 26.6493 35.5982L29.2702 30.6539C29.3818 30.4434 29.5891 30.2976 29.8284 30.2612L35.5296 29.3937C35.9463 29.3303 36.2308 28.9468 36.1636 28.539L35.2657 23.0867C35.2264 22.8481 35.3077 22.6057 35.4838 22.4365L39.5449 18.5324C39.8487 18.2403 39.8487 17.761 39.5449 17.4691L35.4833 13.5656C35.3071 13.3963 35.2258 13.1538 35.2651 12.9151L36.1648 7.46113C36.2321 7.05328 35.9477 6.66971 35.5309 6.60628L29.8318 5.73885Z" fill="#CA077C"/>
<path d="M16.6126 26.2642L11.4624 21.1278C10.7369 20.4042 10.7369 19.2447 11.4624 18.5211C12.2067 17.7789 13.4277 17.7789 14.1719 18.5211L16.8095 21.1517L26.101 11.885C26.8452 11.1428 28.0663 11.1428 28.8105 11.885C29.536 12.6086 29.536 13.7681 28.8105 14.4917L17.0064 26.2642C16.8982 26.3721 16.7208 26.3721 16.6126 26.2642Z" fill="white"/>
<defs>
<linearGradient id="paint0_linear_1764_11435" x1="5.87804" y1="-0.24924" x2="34.5378" y2="38.7628" gradientUnits="userSpaceOnUse">
<stop stop-color="#EF404A"/>
<stop offset="1" stop-color="#5B12A4"/>
</linearGradient>
</defs>
</svg>
