<svg width="28" height="28" viewBox="0 0 28 28" fill="none" xmlns="http://www.w3.org/2000/svg">
<path d="M15.5556 20.2222C15.5556 21.0813 14.8591 21.7778 14 21.7778C13.1409 21.7778 12.4444 21.0813 12.4444 20.2222C12.4444 19.3631 13.1409 18.6667 14 18.6667C14.8591 18.6667 15.5556 19.3631 15.5556 20.2222Z" fill="#FA3C3C"/>
<path d="M14 6.22222C13.1409 6.22222 12.4444 6.91867 12.4444 7.77778V15.5556C12.4444 16.4147 13.1409 17.1111 14 17.1111C14.8591 17.1111 15.5556 16.4147 15.5556 15.5556V7.77778C15.5556 6.91867 14.8591 6.22222 14 6.22222Z" fill="#FA3C3C"/>
<path fill-rule="evenodd" clip-rule="evenodd" d="M14 28C21.732 28 28 21.732 28 14C28 6.26801 21.732 0 14 0C6.26801 0 0 6.26801 0 14C0 21.732 6.26801 28 14 28ZM14 25.6667C20.4433 25.6667 25.6667 20.4433 25.6667 14C25.6667 7.55668 20.4433 2.33333 14 2.33333C7.55668 2.33333 2.33333 7.55668 2.33333 14C2.33333 20.4433 7.55668 25.6667 14 25.6667Z" fill="#FA3C3C"/>
</svg>
