<svg width="22" height="22" viewBox="0 0 22 22" fill="none" xmlns="http://www.w3.org/2000/svg">
<g clip-path="url(#clip0_6872_411)">
<path fill-rule="evenodd" clip-rule="evenodd" d="M20.6245 0.235986C20.9391 -0.0786619 21.4489 -0.0786619 21.7636 0.235986C22.0782 0.550633 22.0782 1.06076 21.7636 1.37501L20.692 2.44688C22.3979 4.62688 22.4599 7.55245 20.729 9.28292L18.4398 11.5724C17.8074 12.2043 16.7822 12.2043 16.1502 11.5724L10.4265 5.84891C9.7945 5.21697 9.7945 4.19178 10.4265 3.55984L12.7161 1.27037C14.4467 -0.460204 17.3726 -0.398415 19.5528 1.30763L20.6245 0.235986ZM19.0121 2.98717C20.7645 4.73994 20.6894 7.03336 19.5844 8.13838L17.8671 9.85519C17.6928 10.0299 17.4588 10.1081 17.2308 10.0899C17.0454 10.0753 16.8644 9.99707 16.7225 9.85519L12.1438 5.27664C12.0963 5.22922 12.056 5.17744 12.0228 5.1229C11.962 5.02252 11.9252 4.91147 11.9121 4.79804C11.9074 4.75852 11.9058 4.719 11.907 4.67948C11.9078 4.65853 11.9094 4.63758 11.9118 4.61664C11.9307 4.43958 12.0082 4.26766 12.1438 4.13211L13.8606 2.41491C14.9657 1.30989 17.2592 1.2348 19.0121 2.98717Z" fill="white"/>
<path fill-rule="evenodd" clip-rule="evenodd" d="M11.5715 18.4404C12.2034 17.8081 12.2034 16.7829 11.5715 16.1509L10.9992 15.5787L12.8994 13.6781C13.2156 13.3624 13.2156 12.8498 12.8994 12.5336C12.803 12.4372 12.6887 12.3704 12.567 12.3328C12.2896 12.2471 11.9742 12.3139 11.7548 12.5336L9.85418 14.4341L7.565 12.1447L9.46523 10.2441C9.78141 9.92834 9.78141 9.41576 9.46523 9.09958C9.14904 8.78341 8.63682 8.78341 8.32064 9.09958L6.42001 11.0001L5.84772 10.4275C5.21574 9.79551 4.19051 9.79551 3.55854 10.4275L1.26896 12.7169C-0.46169 14.4475 -0.399898 17.3733 1.30623 19.5533L0.234511 20.625C0.0881933 20.7713 0.00992108 20.9597 -0.000305448 21.1509C-0.0121053 21.3715 0.066167 21.5961 0.234511 21.7644C0.354083 21.884 0.501581 21.9579 0.656159 21.9866C0.908282 22.0335 1.1785 21.9595 1.37359 21.7644L2.44533 20.6924C4.62546 22.3983 7.55128 22.4604 9.28189 20.7295L11.5715 18.4404ZM8.13729 19.5849L9.85418 17.8677C10.1704 17.552 10.1704 17.0394 9.85418 16.7232L5.27542 12.1447C5.13512 12.0044 4.95568 11.9261 4.77229 11.9103C4.54266 11.8909 4.30632 11.9688 4.13083 12.1447L2.41355 13.8615C1.30849 14.9665 1.23339 17.2603 2.98585 19.0127C4.7387 20.765 7.03223 20.69 8.13729 19.5849Z" fill="white"/>
</g>
<defs>
<clipPath id="clip0_6872_411">
<rect width="22.001" height="22" fill="white" transform="translate(-0.00146484)"/>
</clipPath>
</defs>
</svg>
