<svg width="20" height="20" viewBox="0 0 20 20" fill="none" xmlns="http://www.w3.org/2000/svg">
<path fill-rule="evenodd" clip-rule="evenodd" d="M2.7108 8.33337C2.7108 3.84606 5.51515 0.208374 10.0025 0.208374C14.4898 0.208374 17.2941 3.84606 17.2941 8.33337V10.7038C17.2941 11.3664 17.4206 12.0229 17.6666 12.6381L18.5186 14.7679C18.6828 15.1785 18.3804 15.625 17.9383 15.625H13.9608V15.8334C13.9608 18.0195 12.1886 19.7917 10.0025 19.7917C7.81634 19.7917 6.04413 18.0195 6.04413 15.8334V15.625H2.06666C1.62449 15.625 1.32214 15.1785 1.48636 14.7679L2.33828 12.6381C2.58436 12.0229 2.7108 11.3664 2.7108 10.7038V8.33337ZM10.0025 1.45837C6.20551 1.45837 3.9608 4.53642 3.9608 8.33337V10.7038C3.9608 11.5254 3.80402 12.3395 3.49887 13.1024L2.9898 14.375H17.0151L16.506 13.1024C16.2009 12.3395 16.0441 11.5254 16.0441 10.7038V8.33337C16.0441 4.53642 13.7994 1.45837 10.0025 1.45837ZM12.7108 15.8334V15.625H7.29413V15.8334C7.29413 17.3291 8.50669 18.5417 10.0025 18.5417C11.4982 18.5417 12.7108 17.3291 12.7108 15.8334Z" fill="#AAAAAA"/>
</svg>
