<svg width="24" height="24" viewBox="0 0 24 24" fill="none" xmlns="http://www.w3.org/2000/svg">
<path d="M4.98275 3.83732C4.66646 3.52093 4.15361 3.52093 3.83732 3.83732C3.521 4.15361 3.521 4.66646 3.83732 4.98275L10.8546 12L3.83732 19.0173C3.52102 19.3337 3.52102 19.8465 3.83732 20.1629C4.15363 20.4792 4.66648 20.4792 4.98277 20.1629L12.0001 13.1455L19.0174 20.1628C19.3337 20.4792 19.8465 20.4792 20.1629 20.1628C20.4792 19.8465 20.4792 19.3336 20.1629 19.0173L13.1456 12L20.1629 4.98275C20.4792 4.66646 20.4792 4.15361 20.1629 3.83732C19.8466 3.52102 19.3337 3.52102 19.0174 3.83732L12.0001 10.8546L4.98275 3.83732Z" fill="#AAAAAA"/>
</svg>
