<svg width="160" height="160" viewBox="0 0 160 160" fill="none" xmlns="http://www.w3.org/2000/svg">
<circle cx="80" cy="80" r="75" fill="black" fill-opacity="0.7" stroke="#FA3C3C" stroke-width="10"/>
<path d="M50.5994 57.1147L73.4847 79.9999L50.5994 102.885L50.5993 102.885C48.8004 104.685 48.8004 107.601 50.5993 109.401L50.5994 109.401C52.3985 111.2 55.3155 111.2 57.1145 109.401L56.5842 108.87L57.1146 109.401L80 86.515L102.885 109.4C102.885 109.4 102.885 109.4 102.885 109.4C104.684 111.2 107.601 111.2 109.4 109.4C111.2 107.601 111.2 104.684 109.4 102.885L86.5151 79.9999L109.4 57.1147L108.87 56.5844L109.4 57.1147C111.199 55.3157 111.199 52.3987 109.4 50.5996L109.4 50.5996C107.601 48.8006 104.684 48.8006 102.885 50.5996L102.885 50.5996L79.9998 73.4849L57.1145 50.5997C57.1145 50.5997 57.1145 50.5997 57.1144 50.5996C55.3154 48.8001 52.3984 48.8001 50.5994 50.5996C50.5994 50.5996 50.5994 50.5996 50.5993 50.5997C50.5993 50.5997 50.5993 50.5997 50.5993 50.5997C48.8002 52.3988 48.8002 55.3157 50.5994 57.1147C50.5994 57.1147 50.5994 57.1147 50.5994 57.1147Z" fill="#FA3C3C" stroke="#FA3C3C" stroke-width="1.5"/>
</svg>
