<svg width="24" height="24" viewBox="0 0 24 24" fill="none" xmlns="http://www.w3.org/2000/svg">
<path d="M9.00293 2C9.00293 0.895431 9.89836 0 11.0029 0H13.0029C14.1075 0 15.0029 0.895431 15.0029 2H21.4029C22.2866 2 23.0029 2.71634 23.0029 3.6C23.0029 3.82091 22.8238 4 22.6029 4H1.40293C1.18202 4 1.00293 3.82091 1.00293 3.6C1.00293 2.71634 1.71927 2 2.60293 2H9.00293Z" fill="#AAAAAA"/>
<path d="M8.50293 8C8.50293 7.44771 8.95064 7 9.50293 7C10.0552 7 10.5029 7.44772 10.5029 8V18C10.5029 18.5523 10.0552 19 9.50293 19C8.95064 19 8.50293 18.5523 8.50293 18V8Z" fill="#AAAAAA"/>
<path d="M14.5029 7C13.9506 7 13.5029 7.44771 13.5029 8V18C13.5029 18.5523 13.9506 19 14.5029 19C15.0552 19 15.5029 18.5523 15.5029 18V8C15.5029 7.44772 15.0552 7 14.5029 7Z" fill="#AAAAAA"/>
<path d="M4.00293 6C3.45064 6 3.00293 6.44772 3.00293 7V22C3.00293 23.1046 3.89836 24 5.00293 24H19.0029C20.1075 24 21.0029 23.1046 21.0029 22V7C21.0029 6.44772 20.5552 6 20.0029 6C19.4506 6 19.0029 6.44772 19.0029 7V21C19.0029 21.5523 18.5552 22 18.0029 22H6.00293C5.45064 22 5.00293 21.5523 5.00293 21V7C5.00293 6.44772 4.55521 6 4.00293 6Z" fill="#AAAAAA"/>
</svg>
