<svg width="60" height="60" viewBox="0 0 60 60" fill="none" xmlns="http://www.w3.org/2000/svg">
<circle cx="30" cy="30" r="30" fill="black"/>
<g clip-path="url(#clip0_3501_78)">
<path fill-rule="evenodd" clip-rule="evenodd" d="M30.1697 16.7839C30.2707 16.5064 30.5783 16.3636 30.8568 16.465L32.4024 17.0275C32.6809 17.1289 32.8248 17.436 32.7238 17.7135L31.6022 20.7952C31.5012 21.0727 31.6451 21.3798 31.9236 21.4812L32.8797 21.8292C33.1582 21.9306 33.4659 21.7878 33.5669 21.5103L34.6885 18.4286C34.7895 18.1511 35.0972 18.0083 35.3757 18.1097L36.9213 18.6722C37.1998 18.7736 37.3437 19.0808 37.2427 19.3583L36.1097 22.4712C36.0115 22.741 36.1462 23.0399 36.4091 23.1581C39.9317 24.7418 41.4066 27.1194 40.3203 30.104C39.5147 32.3174 38.7168 33.0362 36.2919 33.0098L36.2605 33.0961C38.7149 34.2641 39.5627 36.6971 38.5269 39.5429C37.4517 42.4971 34.0421 43.8202 29.4726 42.4393C29.0486 42.3112 28.589 42.5228 28.438 42.9375L27.3794 45.8461C27.2784 46.1236 26.9707 46.2664 26.6922 46.165L25.1467 45.6025C24.8681 45.5011 24.7242 45.194 24.8252 44.9165L25.9738 41.7608C26.0748 41.4833 25.9309 41.1761 25.6524 41.0748L24.6963 40.7268C24.4178 40.6254 24.1101 40.7682 24.0091 41.0457L22.8605 44.2014C22.7595 44.4789 22.4518 44.6217 22.1733 44.5203L20.6278 43.9578C20.3493 43.8564 20.2054 43.5493 20.3064 43.2717L21.3635 40.3673C21.515 39.951 21.2992 39.4903 20.8814 39.3383L16.8748 37.88C16.6286 37.7904 16.5247 37.4984 16.6587 37.2725L17.95 35.0963C18.0528 34.9231 18.2639 34.8475 18.4528 34.9162L21.0743 35.8704L25.5889 23.4664C25.7868 22.9227 25.5074 22.3219 24.9649 22.1244L23.1966 21.4808C22.9796 21.4019 22.8679 21.1615 22.947 20.9441L23.6811 18.9271C23.7603 18.7097 24.0004 18.5974 24.2174 18.6764L28.3608 20.1845C28.6394 20.2858 28.947 20.1431 29.048 19.8655L30.1697 16.7839ZM29.1305 29.5471C28.9135 29.4681 28.8017 29.2278 28.8809 29.0103L30.4011 24.8335C30.4803 24.616 30.7204 24.5038 30.9374 24.5828L33.1418 25.3851C34.7769 25.9802 35.5425 27.1655 34.9566 28.7752C34.3288 30.5 32.7692 30.8715 31.2776 30.3286L29.1305 29.5471ZM26.2235 37.534C26.0065 37.4551 25.8947 37.2147 25.9739 36.9973L27.5987 32.533C27.6779 32.3155 27.918 32.2033 28.135 32.2823L30.4829 33.1368C32.3187 33.805 33.7467 35.3616 33.1398 37.0288C32.5226 38.7248 30.3785 39.0463 28.7148 38.4408L26.2235 37.534Z" fill="#FEFFFF"/>
</g>
<defs>
<clipPath id="clip0_3501_78">
<rect width="30" height="30" fill="white" transform="translate(15 16)"/>
</clipPath>
</defs>
</svg>
