<svg width="20" height="15" viewBox="0 0 20 15" fill="none" xmlns="http://www.w3.org/2000/svg">
<path fill-rule="evenodd" clip-rule="evenodd" d="M14.1667 7.49999C14.1667 9.80117 12.3012 11.6667 10 11.6667C7.69883 11.6667 5.83334 9.80117 5.83334 7.49999C5.83334 5.19881 7.69883 3.33333 10 3.33333C12.3012 3.33333 14.1667 5.19881 14.1667 7.49999ZM12.5 7.49999C12.5 8.8807 11.3807 9.99999 10 9.99999C8.61928 9.99999 7.5 8.8807 7.5 7.49999C7.5 6.11928 8.61928 4.99999 10 4.99999C11.3807 4.99999 12.5 6.11928 12.5 7.49999Z" fill="#CCCCCC"/>
<path fill-rule="evenodd" clip-rule="evenodd" d="M0.292778 8.69361C-0.0975925 7.94354 -0.0975925 7.05645 0.292778 6.30637C2.25775 2.53086 5.8696 0 10 0C14.1304 0 17.7422 2.53086 19.7072 6.30637C20.0976 7.05645 20.0976 7.94354 19.7072 8.69361C17.7422 12.4691 14.1304 15 10 15C5.8696 15 2.25775 12.4691 0.292778 8.69361ZM1.81713 7.06057C3.54971 3.7316 6.63402 1.66666 10 1.66666C13.366 1.66666 16.4503 3.7316 18.1829 7.06057C18.3266 7.33662 18.3266 7.66337 18.1829 7.93942C16.4503 11.2684 13.366 13.3333 10 13.3333C6.63402 13.3333 3.54971 11.2684 1.81713 7.93942C1.67344 7.66337 1.67344 7.33662 1.81713 7.06057Z" fill="#CCCCCC"/>
</svg>
