<svg width="36" height="36" viewBox="0 0 36 36" fill="none" xmlns="http://www.w3.org/2000/svg">
<path d="M13.2757 13.9575C14.8222 13.9575 16.0085 14.6451 16.4621 15.5332C16.5659 15.7335 16.6038 15.9016 16.6038 16.0803C16.6038 16.5839 16.2536 16.9251 15.74 16.9251C15.3358 16.925 15.0349 16.768 14.7891 16.4107C14.412 15.8206 13.9424 15.5547 13.2812 15.5546C12.1446 15.5546 11.4721 16.4377 11.4721 17.9594C11.4721 19.508 12.2154 20.4452 13.3683 20.4454C14.2754 20.4454 14.9096 19.9143 14.9643 19.1291L14.9699 19.0095H14.1886C13.7296 19.0095 13.423 18.7657 13.423 18.3271C13.4232 17.8888 13.7243 17.6458 14.1886 17.6458H15.904C16.5379 17.6458 16.904 18.0195 16.904 18.6801V18.7343C16.9038 20.6564 15.6198 22.0425 13.3248 22.0425C10.8931 22.0424 9.42857 20.5532 9.42857 17.9865C9.42857 15.4521 10.8931 13.9575 13.2757 13.9575Z" fill="white"/>
<path d="M18.904 13.9744C19.5379 13.9744 19.904 14.3481 19.904 15.0087V20.9924C19.9039 21.6528 19.5378 22.0267 18.904 22.0267C18.2702 22.0267 17.8986 21.6528 17.8984 20.9924V15.0087C17.8984 14.3481 18.2701 13.9744 18.904 13.9744Z" fill="white"/>
<path d="M25.6808 14.0929C26.2218 14.0929 26.5714 14.3858 26.5714 14.8948C26.5712 15.4035 26.2107 15.6956 25.6808 15.6956H23.1071V17.4721H25.4241C25.9323 17.4721 26.26 17.7538 26.26 18.2357C26.26 18.7122 25.9432 18.9937 25.4241 18.9937H23.1071V20.9924C23.107 21.6527 22.7409 22.0267 22.1071 22.0267C21.4734 22.0267 21.1017 21.6528 21.1016 20.9924V15.1328C21.1016 14.4721 21.4732 14.0929 22.1071 14.0929H25.6808Z" fill="white"/>
<path fill-rule="evenodd" clip-rule="evenodd" d="M25.4286 7.5C27.9533 7.5 30 9.56844 30 12.12V23.88C30 26.3517 28.0794 28.3705 25.6641 28.4944L25.4286 28.5H10.5714L10.3359 28.4944C7.99863 28.3745 6.12417 26.4801 6.00558 24.118L6 23.88V12.12C6 9.56844 8.0467 7.5 10.5714 7.5H25.4286ZM10.5714 9.2325C8.99347 9.2325 7.71429 10.5253 7.71429 12.12V23.88C7.71429 25.4747 8.99347 26.7675 10.5714 26.7675H25.4286C27.0065 26.7675 28.2857 25.4747 28.2857 23.88V12.12C28.2857 10.5253 27.0065 9.2325 25.4286 9.2325H10.5714Z" fill="white"/>
</svg>
