<svg width="24" height="24" viewBox="0 0 24 24" fill="none" xmlns="http://www.w3.org/2000/svg">
<path d="M19.2 14.7405C19.2 15.7632 18.3941 16.5924 17.4 16.5924C16.4059 16.5924 15.6 15.7632 15.6 14.7405C15.6 13.7177 16.4059 12.8886 17.4 12.8886C18.3941 12.8886 19.2 13.7177 19.2 14.7405Z" fill="#AAAAAA"/>
<path fill-rule="evenodd" clip-rule="evenodd" d="M19.2 5.48093V2.47043C19.2 0.86403 17.7327 -0.314668 16.2179 0.0749407L1.81791 3.77875C0.749514 4.05356 0 5.0412 0 6.17424V21.5308C0 22.8945 1.07452 24 2.4 24H21.6C22.9255 24 24 22.8945 24 21.5308V7.95014C24 6.58643 22.9255 5.48093 21.6 5.48093H19.2ZM3.85857 5.48093H17.1V2.47043C17.1 2.26962 16.9166 2.12229 16.7272 2.17099L3.85857 5.48093ZM2.7 7.64149C2.36863 7.64149 2.1 7.91787 2.1 8.25879V21.2221C2.1 21.5631 2.36863 21.8394 2.7 21.8394H21.3C21.6314 21.8394 21.9 21.5631 21.9 21.2221V8.25879C21.9 7.91786 21.6314 7.64149 21.3 7.64149H2.7Z" fill="#AAAAAA"/>
</svg>
