<svg width="16" height="16" viewBox="0 0 16 16" fill="none" xmlns="http://www.w3.org/2000/svg">
<g clip-path="url(#clip0_5164_8346)">
<path fill-rule="evenodd" clip-rule="evenodd" d="M15 0.171626C15.2288 -0.0572087 15.5995 -0.0572087 15.8284 0.171626C16.0572 0.400461 16.0572 0.771459 15.8284 1.00001L15.0491 1.77955C16.2897 3.365 16.3348 5.49269 15.076 6.75121L13.4112 8.41628C12.9513 8.87588 12.2057 8.87588 11.7461 8.41628L7.5836 4.25375C7.12401 3.79416 7.12401 3.04857 7.5836 2.58897L9.24867 0.923904C10.5073 -0.334694 12.6351 -0.289756 14.2206 0.951003L15 0.171626ZM13.8274 2.17249C15.1018 3.44723 15.0472 5.11517 14.2436 5.91882L12.9947 7.16741C12.868 7.29445 12.6978 7.35136 12.532 7.33814C12.3972 7.32751 12.2655 7.27059 12.1623 7.16741L8.83248 3.83756C8.79799 3.80307 8.76867 3.76541 8.74452 3.72575C8.70026 3.65274 8.67353 3.57197 8.66404 3.48948C8.66059 3.46074 8.65944 3.432 8.66031 3.40325C8.66088 3.38802 8.66203 3.37279 8.66376 3.35755C8.67755 3.22879 8.73389 3.10376 8.83248 3.00517L10.0811 1.75629C10.8847 0.952647 12.5527 0.898035 13.8274 2.17249Z" fill="#CA067C"/>
<path fill-rule="evenodd" clip-rule="evenodd" d="M8.41628 13.4112C8.87588 12.9513 8.87588 12.2057 8.41628 11.7461L8.00009 11.3299L9.382 9.94773C9.61195 9.71807 9.61195 9.34528 9.382 9.11534C9.31187 9.04521 9.22881 8.99663 9.14028 8.96932C8.9385 8.90695 8.70914 8.95553 8.54961 9.11534L7.16741 10.4975L5.50263 8.83248L6.88455 7.45027C7.11449 7.22061 7.11449 6.84782 6.88455 6.61788C6.6546 6.38794 6.2821 6.38794 6.05216 6.61788L4.66995 8.00009L4.25375 7.5836C3.79416 7.12401 3.04857 7.12401 2.58897 7.5836L0.923904 9.24867C-0.334694 10.5073 -0.289756 12.6351 0.951003 14.2206L0.171611 15C0.0652029 15.1064 0.00828028 15.2434 0.000843157 15.3824C-0.00773814 15.5429 0.0491845 15.7062 0.171611 15.8287C0.258568 15.9156 0.365834 15.9694 0.478249 15.9903C0.661603 16.0243 0.858115 15.9706 0.999992 15.8287L1.77941 15.049C3.36488 16.2897 5.49265 16.3348 6.75121 15.076L8.41628 13.4112ZM5.91882 14.2436L7.16741 12.9947C7.39735 12.7651 7.39735 12.3923 7.16741 12.1623L3.83756 8.83248C3.73552 8.73044 3.60503 8.67353 3.47166 8.66203C3.30467 8.64795 3.13279 8.70457 3.00517 8.83248L1.75629 10.0811C0.952647 10.8847 0.898035 12.5529 2.17249 13.8274C3.44723 15.1018 5.11517 15.0472 5.91882 14.2436Z" fill="#CA067C"/>
</g>
<defs>
<clipPath id="clip0_5164_8346">
<rect width="16" height="16" fill="white"/>
</clipPath>
</defs>
</svg>
