<svg width="16" height="16" viewBox="0 0 16 16" fill="none" xmlns="http://www.w3.org/2000/svg">
<path fill-rule="evenodd" clip-rule="evenodd" d="M4.02757 10.2128L3.7865 12.9962L6.55082 11.1548L7.04363 11.2132C7.3544 11.25 7.67381 11.2692 8.00002 11.2692C9.73768 11.2692 11.2597 10.7254 12.3177 9.91102C13.3747 9.09738 13.9091 8.07382 13.9091 7.05269C13.9091 6.03156 13.3747 5.00801 12.3177 4.19437C11.2597 3.37996 9.73768 2.83619 8.00002 2.83619C6.26237 2.83619 4.74036 3.37996 3.68234 4.19437C2.62532 5.00801 2.09093 6.03156 2.09093 7.05269C2.09093 8.00953 2.55802 8.96332 3.48364 9.75029L4.02757 10.2128ZM2.96643 15.196C2.64895 15.4075 2.23071 15.1544 2.26392 14.7709L2.60709 10.8087C1.43888 9.81544 0.727295 8.49803 0.727295 7.05269C0.727295 3.96092 3.98341 1.45454 8.00002 1.45454C12.0166 1.45454 15.2727 3.96092 15.2727 7.05269C15.2727 10.1445 12.0166 12.6508 8.00002 12.6508C7.621 12.6508 7.24874 12.6285 6.88536 12.5855L2.96643 15.196Z" fill="#666666"/>
</svg>
