<svg width="20" height="20" viewBox="0 0 20 20" fill="none" xmlns="http://www.w3.org/2000/svg">
<path fill-rule="evenodd" clip-rule="evenodd" d="M11.1258 5.67504L10.8702 6.17914C10.6594 6.59499 10.0578 6.595 9.84694 6.17916L9.59179 5.6759L9.5878 5.66823C9.58403 5.66102 9.5776 5.64886 9.56857 5.63219C9.55051 5.59883 9.52213 5.54757 9.48387 5.4819C9.40717 5.35027 9.29176 5.16243 9.14123 4.94576C8.8362 4.50671 8.40574 3.9766 7.88237 3.5515C7.3574 3.12511 6.79105 2.84584 6.20055 2.80825C5.63379 2.77217 4.91742 2.95037 4.05236 3.68167C3.20653 4.3967 2.89728 5.11559 2.83823 5.77574C2.7766 6.46466 2.98006 7.18539 3.33195 7.87961C3.68187 8.56994 4.15142 9.18016 4.54349 9.62452C4.73767 9.84459 4.90842 10.019 5.02889 10.1369C5.08903 10.1957 5.13634 10.2401 5.16743 10.2688C5.18296 10.2831 5.19441 10.2935 5.20135 10.2998L5.20818 10.3059L5.20916 10.3067L5.22701 10.3224L10.0074 15.0376C10.2021 15.2296 10.515 15.2296 10.7097 15.0376L16.6397 9.18849L16.6625 9.16922L16.6636 9.16826L16.6657 9.16641L16.6874 9.14707C16.7084 9.12818 16.7415 9.09757 16.784 9.05608C16.8693 8.97285 16.9909 8.84734 17.1271 8.68618C17.4031 8.35941 17.7193 7.90921 17.9251 7.38709C18.1287 6.87077 18.2164 6.30685 18.0769 5.71736C17.9384 5.13173 17.5553 4.43446 16.6648 3.68169C15.7996 2.95038 15.0832 2.77217 14.5164 2.80825C13.9259 2.84584 13.3596 3.12511 12.8346 3.55149C12.3113 3.97658 11.8809 4.50669 11.5759 4.94574C11.4253 5.16241 11.31 5.35024 11.2333 5.48187C11.195 5.54754 11.1666 5.5988 11.1486 5.63216C11.1395 5.64882 11.1331 5.66098 11.1293 5.6682L11.1258 5.67504ZM4.04659 11.5519L4.04549 11.551C4.03319 11.5399 4.01622 11.5245 3.99503 11.505C3.95265 11.4659 3.89327 11.41 3.82045 11.3388C3.67502 11.1965 3.47484 10.9918 3.24893 10.7358C2.80084 10.2279 2.23358 9.49796 1.79696 8.63657C1.3623 7.77907 1.02947 6.73652 1.12872 5.62697C1.23054 4.48864 1.77932 3.37386 2.93557 2.39641C4.07259 1.4352 5.21535 1.04928 6.31108 1.11904C7.38308 1.18729 8.28262 1.68382 8.97329 2.2448C9.54719 2.71094 10.013 3.25031 10.3585 3.71343C10.7041 3.25031 11.1698 2.71094 11.7437 2.2448C12.4344 1.68382 13.3339 1.18729 14.4059 1.11904C15.5017 1.04928 16.6444 1.4352 17.7815 2.39638C18.8932 3.33611 19.5113 4.33144 19.7482 5.3327C19.9841 6.33009 19.8216 7.24733 19.5246 8.00061C19.2299 8.74809 18.7951 9.35593 18.4455 9.76979C18.2688 9.97895 18.1089 10.1444 17.9908 10.2596C17.9317 10.3173 17.8827 10.3627 17.8469 10.3951C17.8327 10.4079 17.8206 10.4186 17.8107 10.4273L10.7097 17.4314C10.515 17.6235 10.2021 17.6235 10.0074 17.4314L4.04659 11.5519Z" fill="#666666"/>
</svg>
