<svg width="10" height="10" viewBox="0 0 10 10" fill="none" xmlns="http://www.w3.org/2000/svg">
<path d="M2.97966 8.95905L0.212177 5.63947C-0.0697111 5.36126 -0.0708615 4.92404 0.20956 4.64453C0.424655 4.43012 0.744536 4.3678 1.02053 4.45805C1.2458 4.53171 1.39454 4.73538 1.53835 4.92378L3.10849 6.98083C3.11568 6.99025 3.12333 6.99941 3.13265 7.00673C3.19716 7.05739 3.29385 7.05341 3.3533 6.99484L8.67784 1.16083C8.9813 0.861857 9.48898 0.86325 9.79058 1.16388C10.0708 1.44321 10.0697 1.88014 9.78796 2.15816L3.49308 8.95905C3.35332 9.09699 3.11943 9.09699 2.97966 8.95905Z" fill="#AAAAAA"/>
</svg>
