<svg width="40" height="40" viewBox="0 0 40 40" fill="none" xmlns="http://www.w3.org/2000/svg">
<circle cx="20" cy="20" r="20" fill="black" fill-opacity="0.25"/>
<path d="M18 4.25037C18.0001 4.05078 18.2226 3.93168 18.3887 4.04237L23.6875 7.57459C23.8359 7.67354 23.8359 7.89164 23.6875 7.99061L18.3887 11.5238C18.2226 11.6345 18 11.5154 18 11.3158V8.70936C12.6025 9.65615 8.50018 14.3639 8.5 20.0326C8.5 26.3839 13.6487 31.5326 20 31.5326C26.3513 31.5326 31.5 26.3839 31.5 20.0326C31.4999 15.8809 29.2991 12.2435 26.001 10.2221C25.5225 9.92849 25.4725 9.21814 25.9395 8.90662C26.164 8.75703 26.4552 8.74422 26.6865 8.88319C30.4688 11.1562 32.9999 15.2985 33 20.0326C33 27.2123 27.1797 33.0326 20 33.0326C12.8203 33.0326 7 27.2123 7 20.0326C7.00018 13.5332 11.77 8.14792 18 7.18592V4.25037Z" fill="white"/>
<path d="M16.4883 15.1049C18.2283 15.1049 19.3926 15.9094 19.3926 17.4574C19.3924 18.5252 18.6965 19.2573 17.7246 19.5453C18.8886 19.8213 19.5127 20.5893 19.5127 21.7533C19.5125 23.3731 18.2042 24.2006 16.4883 24.2006C14.5445 24.2005 13.477 23.4925 13.333 21.5726H14.8447C14.9407 22.4006 15.3966 22.8567 16.4404 22.8568C17.3284 22.8568 17.9883 22.4366 17.9883 21.5726C17.9881 20.6489 17.2441 20.2533 15.9482 20.2533H15.3125V18.933H15.9482C16.8722 18.933 17.8691 18.7165 17.8691 17.6605C17.8689 16.8809 17.3286 16.4487 16.4648 16.4486C15.5769 16.4486 15.0726 16.9169 14.9766 17.7328H13.4648C13.5489 16.149 14.4727 15.105 16.4883 15.1049Z" fill="white"/>
<path fill-rule="evenodd" clip-rule="evenodd" d="M23.5996 15.1049C25.9155 15.1049 26.7324 16.7009 26.7324 19.6527C26.7324 22.5927 25.9156 24.2006 23.5996 24.2006C21.2839 24.2004 20.4678 22.5926 20.4678 19.6527C20.4678 16.7011 21.284 15.105 23.5996 15.1049ZM23.5996 16.4486C22.388 16.4488 21.9922 17.4452 21.9922 19.6527C21.9922 21.8485 22.3879 22.8566 23.5996 22.8568C24.8116 22.8568 25.208 21.8487 25.208 19.6527C25.208 17.4449 24.8116 16.4486 23.5996 16.4486Z" fill="white"/>
</svg>
