<svg width="20" height="20" viewBox="0 0 20 20" fill="none" xmlns="http://www.w3.org/2000/svg">
<path fill-rule="evenodd" clip-rule="evenodd" d="M6.72887 10C6.72887 8.216 8.19359 6.76976 10.0002 6.76976C11.8067 6.76976 13.2715 8.216 13.2715 10C13.2715 11.784 11.8067 13.2302 10.0002 13.2302C8.19359 13.2302 6.72887 11.784 6.72887 10ZM10.0002 8.01444C8.88972 8.01444 7.98937 8.90344 7.98937 10C7.98937 11.0966 8.88972 11.9856 10.0002 11.9856C11.1106 11.9856 12.011 11.0966 12.011 10C12.011 8.90344 11.1106 8.01444 10.0002 8.01444Z" fill="#AAAAAA"/>
<path fill-rule="evenodd" clip-rule="evenodd" d="M7.34392 1.14051C7.41786 0.629536 7.86105 0.25 8.38378 0.25H11.6166C12.1393 0.25 12.5825 0.629537 12.6564 1.14051L12.9974 3.49725L13.0993 3.54503C13.4532 3.71098 13.7912 3.90443 14.1105 4.12251L14.2034 4.18599L16.4418 3.29874C16.927 3.10645 17.4815 3.29567 17.7428 3.7427L19.3592 6.50721C19.6206 6.95425 19.5093 7.52304 19.0981 7.84175L17.2006 9.31235L17.2097 9.42337C17.2251 9.61356 17.233 9.80587 17.233 10C17.233 10.1941 17.2251 10.3864 17.2097 10.5766L17.2006 10.6876L19.0981 12.1582C19.5093 12.4769 19.6206 13.0457 19.3592 13.4927L17.7428 16.2572C17.4815 16.7042 16.927 16.8935 16.4419 16.7012L14.2034 15.814L14.1105 15.8775C13.7912 16.0956 13.4532 16.289 13.0993 16.455L12.9974 16.5028L12.6564 18.8595C12.5825 19.3705 12.1393 19.75 11.6166 19.75H8.38378C7.86105 19.75 7.41786 19.3705 7.34392 18.8595L7.00289 16.5028L6.90098 16.455C6.54703 16.289 6.20888 16.0956 5.88953 15.8774L5.79661 15.8139L3.55816 16.7012C3.07304 16.8935 2.51855 16.7042 2.25718 16.2572L0.640802 13.4927C0.379435 13.0457 0.490716 12.4769 0.901902 12.1582L2.79945 10.6874L2.79049 10.5764C2.77511 10.3862 2.76729 10.1939 2.76729 10C2.76729 9.80607 2.77511 9.61382 2.79049 9.42357L2.79945 9.31262L0.901882 7.84173C0.490709 7.52301 0.379435 6.95425 0.640798 6.50723L2.25719 3.74269C2.51855 3.29568 3.07302 3.10645 3.55813 3.29871L5.79691 4.18598L5.88983 4.1225C6.20909 3.90439 6.5471 3.71096 6.90099 3.54502L7.00289 3.49724L7.34392 1.14051ZM11.4344 1.49468H8.56597L8.16579 4.26019C8.15511 4.33397 8.10517 4.39642 8.03497 4.4238L7.80788 4.51234C7.25565 4.72765 6.74333 5.02208 6.28562 5.38172L6.09435 5.53201C6.03523 5.57846 5.9554 5.58999 5.88529 5.5622L3.25771 4.52084L1.82352 6.97376L4.04941 8.69915C4.10871 8.74512 4.13852 8.81893 4.12753 8.89257L4.09199 9.13075C4.04972 9.41401 4.02779 9.70426 4.02779 10C4.02779 10.2957 4.04972 10.586 4.09199 10.8692L4.12753 11.1074C4.13852 11.1811 4.10871 11.2549 4.04941 11.3009L1.82353 13.0262L3.2577 15.4791L5.88495 14.4377C5.95507 14.4099 6.0349 14.4214 6.09402 14.4679L6.2853 14.6182C6.74296 14.9778 7.25559 15.2723 7.80788 15.4877L8.03497 15.5762C8.10517 15.6036 8.15511 15.666 8.16579 15.7398L8.56597 18.5053H11.4344L11.8345 15.7398C11.8452 15.666 11.8952 15.6036 11.9654 15.5762L12.1925 15.4877C12.7447 15.2723 13.257 14.9779 13.7147 14.6183L13.906 14.468C13.9651 14.4215 14.0449 14.41 14.1151 14.4378L16.7423 15.4791L18.1765 13.0262L15.9506 11.301C15.8913 11.2551 15.8615 11.1813 15.8725 11.1076L15.908 10.8694C15.9504 10.5857 15.9725 10.2954 15.9725 10C15.9725 9.70459 15.9504 9.41433 15.908 9.13047L15.8725 8.89229C15.8615 8.81864 15.8913 8.74484 15.9506 8.69888L18.1765 6.97373L16.7423 4.52086L14.1151 5.5622C14.045 5.58999 13.9652 5.57846 13.906 5.53202L13.7148 5.38176C13.257 5.02214 12.7446 4.72764 12.1925 4.51234L11.9654 4.4238C11.8952 4.39642 11.8452 4.33397 11.8345 4.26019L11.4344 1.49468Z" fill="#AAAAAA"/>
</svg>
