<svg width="24" height="24" viewBox="0 0 24 24" fill="none" xmlns="http://www.w3.org/2000/svg">
<path d="M14.0654 18.1504C14.652 18.1505 15.1416 18.6129 15.1416 19.2002C15.1415 19.7874 14.652 20.2499 14.0654 20.25H3.32617C2.73955 20.25 2.25011 19.7875 2.25 19.2002C2.25 18.6128 2.73949 18.1504 3.32617 18.1504H14.0654Z" fill="white" fill-opacity="0.75"/>
<path d="M20.6738 13.3496C21.2605 13.3496 21.75 13.813 21.75 14.4004C21.7498 14.9876 21.2604 15.4502 20.6738 15.4502H3.32617C2.73962 15.4502 2.25022 14.9876 2.25 14.4004C2.25 13.813 2.73949 13.3496 3.32617 13.3496H20.6738Z" fill="white" fill-opacity="0.75"/>
<path d="M20.6738 8.5498C21.2604 8.5498 21.7498 9.01239 21.75 9.59961C21.75 10.187 21.2605 10.6504 20.6738 10.6504H3.32617C2.73949 10.6504 2.25 10.187 2.25 9.59961C2.25022 9.01239 2.73962 8.5498 3.32617 8.5498H20.6738Z" fill="white" fill-opacity="0.75"/>
<path d="M20.6738 3.75C21.2604 3.75 21.7499 4.2125 21.75 4.7998C21.75 5.3872 21.2605 5.84961 20.6738 5.84961H3.32617C2.73949 5.84961 2.25 5.3872 2.25 4.7998C2.25011 4.2125 2.73955 3.75 3.32617 3.75H20.6738Z" fill="white" fill-opacity="0.75"/>
</svg>
