<svg width="17" height="14" viewBox="0 0 17 14" fill="none" xmlns="http://www.w3.org/2000/svg">
<path fill-rule="evenodd" clip-rule="evenodd" d="M0.698811 4.13952C0.43373 4.40653 0.43373 4.83944 0.698811 5.10645C0.963892 5.37347 1.39367 5.37347 1.65875 5.10645L3.64871 3.102V11.3187C3.64871 11.697 3.95319 12.0037 4.32877 12.0037C4.70436 12.0037 5.00883 11.697 5.00883 11.3187V2.91885L7.18062 5.10645C7.4457 5.37347 7.87549 5.37347 8.14057 5.10645C8.40565 4.83944 8.40565 4.40653 8.14057 4.13952L4.60349 0.576687C4.50198 0.474438 4.3374 0.474438 4.23589 0.576687L0.698811 4.13952Z" fill="#CA079F"/>
<path fill-rule="evenodd" clip-rule="evenodd" d="M16.3012 9.86048C16.5663 9.59347 16.5663 9.16056 16.3012 8.89355C16.0361 8.62654 15.6063 8.62653 15.3412 8.89355L13.1695 11.0811V2.68127C13.1695 2.30295 12.8651 1.99626 12.4895 1.99626C12.1139 1.99626 11.8094 2.30295 11.8094 2.68127V10.8981L9.81938 8.89355C9.5543 8.62653 9.12451 8.62653 8.85943 8.89355C8.59435 9.16056 8.59435 9.59347 8.85943 9.86048L12.3965 13.4233C12.498 13.5256 12.6626 13.5256 12.7641 13.4233L16.3012 9.86048Z" fill="#CA079F"/>
</svg>
