<svg width="30" height="30" viewBox="0 0 30 30" fill="none" xmlns="http://www.w3.org/2000/svg">
<path fill-rule="evenodd" clip-rule="evenodd" d="M15 30C23.2843 30 30 23.2843 30 15C30 6.7157 23.2843 0 15 0C6.7157 0 0 6.7157 0 15C0 23.2843 6.7157 30 15 30ZM15 28C22.1797 28 28 22.1797 28 15C28 7.82031 22.1797 2 15 2C7.82031 2 2 7.82031 2 15C2 22.1797 7.82031 28 15 28Z" fill="#D9D9D9" fill-opacity="0.5"/>
<path fill-rule="evenodd" clip-rule="evenodd" d="M15 28C22.1797 28 28 22.1797 28 15C28 7.82031 22.1797 2 15 2C7.82031 2 2 7.82031 2 15C2 22.1797 7.82031 28 15 28Z" fill="#222222" fill-opacity="0.2"/>
</svg>
