<svg width="24" height="24" viewBox="0 0 24 24" fill="none" xmlns="http://www.w3.org/2000/svg">
<path d="M8.33572 3C7.83116 3 7.34342 3.17111 6.96853 3.51306C5.5395 4.81659 2.00054 8.40829 2.00054 12L2 16.5C2 18.9854 3.99002 21 6.44444 21H8.66667C9.89388 21 10.8889 19.9926 10.8889 18.75V14.25C10.8889 13.0074 9.89388 12 8.66667 12H6.44499C6.44444 8.35858 8.6276 4.71689 9.4604 3.46005C9.58843 3.26752 9.45171 3 9.22276 3H8.33572Z" fill="white"/>
<path d="M18.0796 3.51306C18.2511 3.35651 18.4464 3.23566 18.6564 3.15079C18.8251 3.0824 19.003 3.03735 19.1853 3.01566C19.2716 3.00522 19.3589 3 19.4468 3H20.3339C20.463 3 20.5628 3.08487 20.6024 3.19363C20.6328 3.27768 20.6274 3.37601 20.5715 3.46005C19.7387 4.71689 17.5556 8.35858 17.5561 12H19.7778C21.005 12 22 13.0074 22 14.25V18.75C22 19.9926 21.005 21 19.7778 21H17.5556C15.1011 21 13.1111 18.9854 13.1111 16.5L13.1117 12C13.1117 8.40829 16.6506 4.81659 18.0796 3.51306Z" fill="white"/>
</svg>
