<svg width="24" height="24" viewBox="0 0 24 24" fill="none" xmlns="http://www.w3.org/2000/svg">
<path d="M2.625 4.5C2.625 4.15482 2.90482 3.875 3.25 3.875H20.75C21.0952 3.875 21.375 4.15482 21.375 4.5C21.375 4.84518 21.0952 5.125 20.75 5.125H3.25C2.90482 5.125 2.625 4.84518 2.625 4.5Z" fill="#AAAAAA"/>
<path d="M2.625 9.5C2.625 9.15482 2.90482 8.875 3.25 8.875H20.75C21.0952 8.875 21.375 9.15482 21.375 9.5C21.375 9.84518 21.0952 10.125 20.75 10.125H3.25C2.90482 10.125 2.625 9.84518 2.625 9.5Z" fill="#AAAAAA"/>
<path d="M2.625 14.5C2.625 14.1548 2.90482 13.875 3.25 13.875H20.75C21.0952 13.875 21.375 14.1548 21.375 14.5C21.375 14.8452 21.0952 15.125 20.75 15.125H3.25C2.90482 15.125 2.625 14.8452 2.625 14.5Z" fill="#AAAAAA"/>
<path d="M2.625 19.5C2.625 19.1548 2.90482 18.875 3.25 18.875H14.0833C14.4285 18.875 14.7083 19.1548 14.7083 19.5C14.7083 19.8452 14.4285 20.125 14.0833 20.125H3.25C2.90482 20.125 2.625 19.8452 2.625 19.5Z" fill="#AAAAAA"/>
</svg>
