<svg width="24" height="24" viewBox="0 0 24 24" fill="none" xmlns="http://www.w3.org/2000/svg">
<path d="M3.24996 3.66667C2.78972 3.66667 2.41663 4.03977 2.41663 4.5C2.41663 4.96024 2.78972 5.33334 3.24996 5.33334H20.75C21.2102 5.33334 21.5833 4.96024 21.5833 4.5C21.5833 4.03977 21.2102 3.66667 20.75 3.66667H3.24996Z" fill="white"/>
<path d="M3.24996 8.66667C2.78972 8.66667 2.41663 9.03977 2.41663 9.5C2.41663 9.96024 2.78972 10.3333 3.24996 10.3333H20.75C21.2102 10.3333 21.5833 9.96024 21.5833 9.5C21.5833 9.03977 21.2102 8.66667 20.75 8.66667H3.24996Z" fill="white"/>
<path d="M2.41663 14.5C2.41663 14.0398 2.78972 13.6667 3.24996 13.6667H20.75C21.2102 13.6667 21.5833 14.0398 21.5833 14.5C21.5833 14.9602 21.2102 15.3333 20.75 15.3333H3.24996C2.78972 15.3333 2.41663 14.9602 2.41663 14.5Z" fill="white"/>
<path d="M3.24996 18.6667C2.78972 18.6667 2.41663 19.0398 2.41663 19.5C2.41663 19.9602 2.78972 20.3333 3.24996 20.3333H14.0833C14.5435 20.3333 14.9166 19.9602 14.9166 19.5C14.9166 19.0398 14.5435 18.6667 14.0833 18.6667H3.24996Z" fill="white"/>
</svg>
