<svg width="20" height="20" viewBox="0 0 20 20" fill="none" xmlns="http://www.w3.org/2000/svg">
<path fill-rule="evenodd" clip-rule="evenodd" d="M14.5832 1.73372H5.4165C4.95627 1.73372 4.58317 2.12182 4.58317 2.60057V17.4587L8.91856 14.2753C9.56679 13.7993 10.4329 13.7993 11.0811 14.2753L15.4165 17.4587V2.60057C15.4165 2.12182 15.0434 1.73372 14.5832 1.73372ZM5.4165 0C4.03579 0 2.9165 1.16432 2.9165 2.60057V19.1316C2.9165 19.8345 3.6784 20.2452 4.23041 19.8398L9.87969 15.6917C9.95172 15.6388 10.048 15.6388 10.12 15.6917L15.7693 19.8398C16.3213 20.2452 17.0832 19.8345 17.0832 19.1316V2.60057C17.0832 1.16432 15.9639 0 14.5832 0H5.4165Z" fill="#808080"/>
</svg>
