<svg width="24" height="24" viewBox="0 0 24 24" fill="none" xmlns="http://www.w3.org/2000/svg">
<path d="M3.81819 4.41811C3.81819 4.08674 4.08682 3.81811 4.41819 3.81811H6.49092C6.82229 3.81811 7.09092 4.08674 7.09092 4.41811V6.49084C7.09092 6.82221 6.82229 7.09084 6.49092 7.09084H4.41819C4.08682 7.09084 3.81819 6.82221 3.81819 6.49084V4.41811Z" fill="#666666"/>
<path fill-rule="evenodd" clip-rule="evenodd" d="M2.18182 0C0.976833 0 0 0.976833 0 2.18182V8.72727C0 9.93226 0.976833 10.9091 2.18182 10.9091H8.72727C9.93226 10.9091 10.9091 9.93226 10.9091 8.72727V2.18182C10.9091 0.976833 9.93226 0 8.72727 0H2.18182ZM8.72727 1.63636H2.18182C1.88057 1.63636 1.63636 1.88057 1.63636 2.18182V8.72727C1.63636 9.02852 1.88057 9.27273 2.18182 9.27273H8.72727C9.02852 9.27273 9.27273 9.02852 9.27273 8.72727V2.18182C9.27273 1.88057 9.02852 1.63636 8.72727 1.63636Z" fill="#666666"/>
<path d="M16.9091 4.41811C16.9091 4.08674 17.1777 3.81811 17.5091 3.81811H19.5818C19.9132 3.81811 20.1818 4.08674 20.1818 4.41811V6.49084C20.1818 6.82221 19.9132 7.09084 19.5818 7.09084H17.5091C17.1777 7.09084 16.9091 6.82221 16.9091 6.49084V4.41811Z" fill="#666666"/>
<path fill-rule="evenodd" clip-rule="evenodd" d="M13.0909 2.18182C13.0909 0.976833 14.0677 0 15.2727 0H21.8182C23.0232 0 24 0.976833 24 2.18182V8.72727C24 9.93226 23.0232 10.9091 21.8182 10.9091H15.2727C14.0677 10.9091 13.0909 9.93226 13.0909 8.72727V2.18182ZM15.2727 1.63636H21.8182C22.1194 1.63636 22.3636 1.88057 22.3636 2.18182V8.72727C22.3636 9.02852 22.1194 9.27273 21.8182 9.27273H15.2727C14.9715 9.27273 14.7273 9.02852 14.7273 8.72727V2.18182C14.7273 1.88057 14.9715 1.63636 15.2727 1.63636Z" fill="#666666"/>
<path d="M3.81819 17.5091C3.81819 17.1778 4.08682 16.9091 4.41819 16.9091H6.49092C6.82229 16.9091 7.09092 17.1778 7.09092 17.5091V19.5819C7.09092 19.9132 6.82229 20.1819 6.49092 20.1819H4.41819C4.08682 20.1819 3.81819 19.9132 3.81819 19.5819V17.5091Z" fill="#666666"/>
<path fill-rule="evenodd" clip-rule="evenodd" d="M0 15.2727C0 14.0677 0.976833 13.0909 2.18182 13.0909H8.72727C9.93226 13.0909 10.9091 14.0677 10.9091 15.2727V21.8181C10.9091 23.0231 9.93226 24 8.72727 24H2.18182C0.976833 24 0 23.0231 0 21.8181V15.2727ZM2.18182 14.7272H8.72727C9.02852 14.7272 9.27273 14.9714 9.27273 15.2727V21.8181C9.27273 22.1194 9.02852 22.3636 8.72727 22.3636H2.18182C1.88057 22.3636 1.63636 22.1194 1.63636 21.8181V15.2727C1.63636 14.9714 1.88057 14.7272 2.18182 14.7272Z" fill="#666666"/>
<path d="M13.6909 13.0909C13.3595 13.0909 13.0909 13.3595 13.0909 13.6909V15.7636C13.0909 16.095 13.3595 16.3636 13.6909 16.3636H15.7636C16.095 16.3636 16.3636 16.095 16.3636 15.7636V13.6909C16.3636 13.3595 16.095 13.0909 15.7636 13.0909H13.6909Z" fill="#666666"/>
<path d="M16.9091 17.5091C16.9091 17.1778 17.1777 16.9091 17.5091 16.9091H19.5818C19.9132 16.9091 20.1818 17.1778 20.1818 17.5091V19.5819C20.1818 19.9132 19.9132 20.1819 19.5818 20.1819H17.5091C17.1777 20.1819 16.9091 19.9132 16.9091 19.5819V17.5091Z" fill="#666666"/>
<path d="M21.3273 20.7272C20.9959 20.7272 20.7273 20.9959 20.7273 21.3272V23.4C20.7273 23.7313 20.9959 24 21.3273 24H23.4C23.7314 24 24 23.7313 24 23.4V21.3272C24 20.9959 23.7314 20.7272 23.4 20.7272H21.3273Z" fill="#666666"/>
<path d="M13.0909 21.3272C13.0909 20.9959 13.3595 20.7272 13.6909 20.7272H15.7636C16.095 20.7272 16.3636 20.9959 16.3636 21.3272V23.4C16.3636 23.7313 16.095 24 15.7636 24H13.6909C13.3595 24 13.0909 23.7313 13.0909 23.4V21.3272Z" fill="#666666"/>
<path d="M21.3273 13.0909C20.9959 13.0909 20.7273 13.3595 20.7273 13.6909V15.7636C20.7273 16.095 20.9959 16.3636 21.3273 16.3636H23.4C23.7314 16.3636 24 16.095 24 15.7636V13.6909C24 13.3595 23.7314 13.0909 23.4 13.0909H21.3273Z" fill="#666666"/>
</svg>
