<svg width="28" height="24" viewBox="0 0 28 24" fill="none" xmlns="http://www.w3.org/2000/svg">
<path d="M3.76471 21.4501C3.76471 21.939 4.2716 22.1839 4.56805 21.8382L9.41177 16.1896H14.0022C14.0007 16.1266 14 16.0634 14 16C14 12.2723 16.5495 9.14012 20 8.25204V6.3903C20 3.9656 18.3145 2 16.2353 2H3.76471C1.68552 2 0 3.9656 0 6.3903V11.7993C0 14.224 1.68552 16.1896 3.76471 16.1896L3.76471 21.4501Z" fill="#808080"/>
<path d="M19.1848 16.7453C19.1848 17.4907 19.3756 18.0911 19.7573 18.5466C20.1427 19.0021 20.6633 19.2298 21.3191 19.2298C21.6267 19.2298 21.9194 19.1304 22.1973 18.9317C22.4752 18.7288 22.6994 18.4555 22.8698 18.1118C23.0032 18.4472 23.2256 18.7184 23.5368 18.9255C23.8518 19.1284 24.2186 19.2298 24.6373 19.2298C25.5822 19.2298 26.3789 18.8571 27.0273 18.1118C27.6758 17.3665 28 16.3934 28 15.1925C28 13.9917 27.2785 12.3383 26.3993 11.5093C25.3321 10.5031 23.937 10 22.214 10C20.5317 10 19.0755 10.6273 17.8453 11.882C16.6151 13.1366 16 14.6335 16 16.3727C16 18.1118 16.5632 19.4845 17.6897 20.4907C18.8198 21.4969 20.1593 22 21.7082 22C22.1677 22 22.5512 21.9524 22.8587 21.8571C23.0731 21.7915 23.2682 21.7053 23.4439 21.5984C23.5928 21.5079 23.6702 21.3394 23.6702 21.1652V20.9656C23.6702 20.5892 23.2264 20.3392 22.8698 20.4596C22.5549 20.5714 22.1677 20.6273 21.7082 20.6273C20.604 20.6273 19.6869 20.2588 18.9569 19.5217C18.227 18.7888 17.862 17.7433 17.862 16.3851C17.862 14.9979 18.2788 13.8157 19.1126 12.8385C19.9463 11.8571 20.9801 11.3665 22.214 11.3665C23.4627 11.3665 24.4317 11.7516 25.1209 12.5217C25.8138 13.2878 26.1603 14.1822 26.1603 15.205C26.1603 16.0663 26.0324 16.7619 25.7767 17.2919C25.5211 17.8219 25.1894 18.087 24.7818 18.087C24.5706 18.087 24.4113 18.0104 24.3038 17.8571C24.2001 17.7039 24.1742 17.4369 24.226 17.0559L24.7231 13.9326C24.7714 13.629 24.5368 13.354 24.2293 13.354H23.6369C23.4738 13.1884 23.2682 13.0373 23.0199 12.9006C22.7754 12.764 22.4956 12.6957 22.1806 12.6957C21.3988 12.6957 20.704 13.0745 20.0963 13.8323C19.4887 14.5901 19.1848 15.5611 19.1848 16.7453ZM20.8578 16.7391C20.8578 15.94 20.9893 15.2733 21.2524 14.7391C21.5192 14.205 21.8546 13.9379 22.2585 13.9379C22.3918 13.9379 22.5252 13.9607 22.6586 14.0062C22.792 14.0476 22.9088 14.1097 23.0088 14.1925L22.6753 16.5901C22.5938 17.0994 22.453 17.4555 22.2529 17.6584C22.0528 17.8571 21.8305 17.9565 21.5859 17.9565C21.3488 17.9565 21.1672 17.8551 21.0412 17.6522C20.9189 17.4451 20.8578 17.1408 20.8578 16.7391Z" fill="#111111"/>
</svg>
