<svg width="19" height="18" viewBox="0 0 19 18" fill="none" xmlns="http://www.w3.org/2000/svg">
<path fill-rule="evenodd" clip-rule="evenodd" d="M18.2169 6.20776C18.5824 6.20776 18.7949 6.60596 18.5825 6.89259L10.6228 17.6339C10.0659 18.3854 8.83841 17.8873 9.00686 16.9781L10.1036 11.0585H5.61715C5.24566 11.0585 5.0346 10.6486 5.25931 10.3635L13.1526 0.345895C13.7285 -0.38486 14.9333 0.135947 14.7501 1.03644L13.6981 6.20776H18.2169ZM11.7872 7.7236L12.6479 3.49271L7.88084 9.54266H11.9819L11.0804 14.4083L16.034 7.7236H11.7872Z" fill="#666666"/>
<path d="M2.46699 4.38751C2.46699 3.95256 2.81954 3.60001 3.25449 3.60001H6.62949C7.06444 3.60001 7.41699 3.95256 7.41699 4.38751C7.41699 4.82246 7.06444 5.17501 6.62949 5.17501H3.25449C2.81954 5.17501 2.46699 4.82246 2.46699 4.38751Z" fill="#666666"/>
<path d="M1.45449 8.10001C1.01954 8.10001 0.666992 8.45256 0.666992 8.88751C0.666992 9.32246 1.01954 9.67501 1.45449 9.67501H3.47949C3.91444 9.67501 4.26699 9.32246 4.26699 8.88751C4.26699 8.45256 3.91444 8.10001 3.47949 8.10001H1.45449Z" fill="#666666"/>
<path d="M1.56699 13.3875C1.56699 12.9526 1.91954 12.6 2.35449 12.6H6.17949C6.61444 12.6 6.96699 12.9526 6.96699 13.3875C6.96699 13.8225 6.61444 14.175 6.17949 14.175H2.35449C1.91954 14.175 1.56699 13.8225 1.56699 13.3875Z" fill="#666666"/>
</svg>
