<svg width="20" height="19" viewBox="0 0 20 19" fill="none" xmlns="http://www.w3.org/2000/svg">
<path d="M8.52713 0C8.09903 0 7.75194 0.339539 7.75194 0.758315C7.75194 1.17709 8.09903 1.51663 8.52713 1.51663H13.7984C14.2265 1.51663 14.5736 1.17709 14.5736 0.758315C14.5736 0.339539 14.2265 0 13.7984 0H8.52713Z" fill="white"/>
<path d="M5.42636 4.54989C5.42636 4.13111 5.77345 3.79157 6.20155 3.79157H16.124C16.5521 3.79157 16.8992 4.13111 16.8992 4.54989C16.8992 4.96867 16.5521 5.3082 16.124 5.3082H6.20155C5.77345 5.3082 5.42636 4.96867 5.42636 4.54989Z" fill="white"/>
<path d="M4.65116 7.58315C3.36687 7.58315 2.32558 8.60176 2.32558 9.85809V11.3148C2.61045 11.1907 2.92507 11.122 3.25581 11.122C3.47058 11.122 3.67854 11.151 3.87597 11.2052V10.2373C3.87597 9.6089 4.39642 9.09978 5.03876 9.09978H17.2868C17.9292 9.09978 18.4496 9.6089 18.4496 10.2373V14.0288C18.4496 14.6572 17.9292 15.1663 17.2868 15.1663H7.83096C7.88056 15.3546 7.90698 15.5523 7.90698 15.7561C7.90698 16.0856 7.83793 16.3991 7.71347 16.6829H17.6744C18.9587 16.6829 20 15.6643 20 14.408V9.85809C20 8.60176 18.9587 7.58315 17.6744 7.58315H4.65116Z" fill="white"/>
<path d="M2.32558 13.439C2.32558 12.9272 2.74206 12.5122 3.25581 12.5122C3.76957 12.5122 4.18605 12.9272 4.18605 13.439V14.8293H5.5814C6.09515 14.8293 6.51163 15.2442 6.51163 15.7561C6.51163 16.268 6.09515 16.6829 5.5814 16.6829H4.18605V18.0732C4.18605 18.585 3.76957 19 3.25581 19C2.74206 19 2.32558 18.585 2.32558 18.0732V16.6829H0.930233C0.416479 16.6829 0 16.268 0 15.7561C0 15.2442 0.416479 14.8293 0.930233 14.8293H2.32558V13.439Z" fill="white"/>
</svg>
