<svg width="28" height="12" viewBox="0 0 28 12" fill="none" xmlns="http://www.w3.org/2000/svg">
<path fill-rule="evenodd" clip-rule="evenodd" d="M24.3535 3.16886C26.9014 3.16892 27.9999 4.93802 28 7.43102C28 7.60794 28.0004 7.8495 27.9844 8.09076H22.0446C22.172 9.98881 22.968 10.6962 24.3535 10.6962C25.4523 10.6962 26.1686 10.214 26.4075 9.29715H27.8891C27.5706 11.0182 26.2964 11.9999 24.3059 12C21.7897 12 20.4997 10.4872 20.4997 7.60799C20.4998 4.745 21.7896 3.16886 24.3535 3.16886ZM24.2893 4.4873C22.9996 4.48745 22.1875 5.09917 22.0601 6.88437H26.4717C26.3603 5.13112 25.4996 4.4873 24.2893 4.4873Z" fill="white"/>
<path d="M1.52929 10.3915H7.34163V11.7748H0V0.0324636H1.52929V10.3915Z" fill="white"/>
<path d="M15.7968 10.4397L18.393 3.39401H20.001L16.6096 11.7748H14.9051L11.465 3.39401H13.1695L15.7968 10.4397Z" fill="white"/>
<path d="M10.3722 11.7738H8.87506V3.39401H10.3722V11.7738Z" fill="white"/>
<path d="M9.60809 0C10.1175 2.12982e-05 10.515 0.401849 10.5153 0.91631C10.5153 1.41494 10.1177 1.81794 9.60809 1.81796C9.1144 1.81796 8.71643 1.41495 8.71643 0.91631C8.7167 0.401836 9.11457 0 9.60809 0Z" fill="white"/>
</svg>
