<svg width="28" height="20" viewBox="0 0 28 20" fill="none" xmlns="http://www.w3.org/2000/svg">
<path d="M10.1877 6.83767C10.515 7.10061 11 6.8666 11 6.44569V4.47826H19C20.6569 4.47826 22 5.82671 22 7.49012V11.2599C22 11.6016 21.9433 11.93 21.8389 12.2362C21.7624 12.4605 21.8139 12.7168 21.9984 12.8649L22.8223 13.5266C23.0571 13.7153 23.4056 13.655 23.5328 13.3814C23.8326 12.737 24 12.0181 24 11.2599V7.49012C24 4.71778 21.7614 2.47035 19 2.47035H11V0.502919C11 0.0820082 10.515 -0.152 10.1877 0.110941L6.48804 3.08233C6.23784 3.28328 6.23784 3.66533 6.48804 3.86628L10.1877 6.83767Z" fill="#52CE0A"/>
<path d="M5.1777 6.47335C4.94286 6.28474 4.59444 6.34501 4.46719 6.61857C4.16743 7.26301 4 7.98193 4 8.74012V12.5099C4 15.2822 6.23858 17.5296 9 17.5296H17V19.4971C17 19.918 17.485 20.152 17.8123 19.8891L21.512 16.9177C21.7622 16.7167 21.7622 16.3347 21.512 16.1337L17.8123 13.1623C17.485 12.8994 17 13.1334 17 13.5543V15.5217H9C7.34315 15.5217 6 14.1733 6 12.5099V8.74012C6 8.39841 6.05668 8.06998 6.16112 7.76381C6.23764 7.5395 6.18607 7.28324 6.00165 7.13512L5.1777 6.47335Z" fill="#52CE0A"/>
</svg>
