<svg width="20" height="20" viewBox="0 0 20 20" fill="none" xmlns="http://www.w3.org/2000/svg">
<g clip-path="url(#clip0_5699_15)">
<path d="M6.95498 6.4578C7.26417 6.70613 7.7222 6.48513 7.7222 6.0876V4.22947H15.2778C16.8426 4.22947 18.1111 5.50301 18.1111 7.074V10.6343C18.1111 10.9571 18.0576 11.2672 17.9589 11.5564C17.8866 11.7683 17.9354 12.0103 18.1095 12.1502L18.8877 12.7752C19.1095 12.9533 19.4386 12.8964 19.5587 12.638C19.8418 12.0294 20 11.3504 20 10.6343V7.074C20 4.45568 17.8858 2.33311 15.2778 2.33311H7.7222V0.474979C7.7222 0.0774522 7.26417 -0.143555 6.95498 0.104778L3.4609 2.91109C3.2246 3.10088 3.2246 3.4617 3.4609 3.65149L6.95498 6.4578Z" fill="#52CE0A"/>
<path d="M2.22335 6.11372C2.00156 5.93559 1.6725 5.99251 1.55232 6.25087C1.26921 6.85951 1.11108 7.53849 1.11108 8.25456V11.8149C1.11108 14.4332 3.2253 16.5558 5.83331 16.5558H13.3889V18.4139C13.3889 18.8114 13.8469 19.0324 14.1561 18.7841L17.6502 15.9778C17.8865 15.788 17.8865 15.4272 17.6502 15.2374L14.1561 12.4311C13.8469 12.1828 13.3889 12.4038 13.3889 12.8013V14.6594H5.83331C4.2685 14.6594 2.99997 13.3859 2.99997 11.8149V8.25456C2.99997 7.93183 3.05351 7.62165 3.15214 7.33249C3.22441 7.12064 3.1757 6.87861 3.00153 6.73872L2.22335 6.11372Z" fill="#52CE0A"/>
</g>
<defs>
<clipPath id="clip0_5699_15">
<rect width="20" height="20" fill="white"/>
</clipPath>
</defs>
</svg>
