<svg width="16" height="16" viewBox="0 0 16 16" fill="none" xmlns="http://www.w3.org/2000/svg">
<path d="M2.54546 2.94541C2.54546 2.7245 2.72455 2.54541 2.94546 2.54541H4.32728C4.54819 2.54541 4.72728 2.7245 4.72728 2.94541V4.32723C4.72728 4.54814 4.54819 4.72723 4.32728 4.72723H2.94546C2.72455 4.72723 2.54546 4.54814 2.54546 4.32723V2.94541Z" fill="#111111"/>
<path fill-rule="evenodd" clip-rule="evenodd" d="M1.45455 0C0.651222 0 0 0.651222 0 1.45455V5.81818C0 6.62151 0.651222 7.27273 1.45455 7.27273H5.81818C6.62151 7.27273 7.27273 6.62151 7.27273 5.81818V1.45455C7.27273 0.651222 6.62151 0 5.81818 0H1.45455ZM5.81818 1.09091H1.45455C1.25371 1.09091 1.09091 1.25371 1.09091 1.45455V5.81818C1.09091 6.01901 1.25371 6.18182 1.45455 6.18182H5.81818C6.01901 6.18182 6.18182 6.01901 6.18182 5.81818V1.45455C6.18182 1.25371 6.01901 1.09091 5.81818 1.09091Z" fill="#111111"/>
<path d="M11.2727 2.94541C11.2727 2.7245 11.4518 2.54541 11.6727 2.54541H13.0545C13.2755 2.54541 13.4545 2.7245 13.4545 2.94541V4.32723C13.4545 4.54814 13.2755 4.72723 13.0545 4.72723H11.6727C11.4518 4.72723 11.2727 4.54814 11.2727 4.32723V2.94541Z" fill="#111111"/>
<path fill-rule="evenodd" clip-rule="evenodd" d="M8.72727 1.45455C8.72727 0.651222 9.37849 0 10.1818 0H14.5455C15.3488 0 16 0.651222 16 1.45455V5.81818C16 6.62151 15.3488 7.27273 14.5455 7.27273H10.1818C9.37849 7.27273 8.72727 6.62151 8.72727 5.81818V1.45455ZM10.1818 1.09091H14.5455C14.7463 1.09091 14.9091 1.25371 14.9091 1.45455V5.81818C14.9091 6.01901 14.7463 6.18182 14.5455 6.18182H10.1818C9.98099 6.18182 9.81818 6.01901 9.81818 5.81818V1.45455C9.81818 1.25371 9.98099 1.09091 10.1818 1.09091Z" fill="#111111"/>
<path d="M2.54546 11.6728C2.54546 11.4518 2.72455 11.2728 2.94546 11.2728H4.32728C4.54819 11.2728 4.72728 11.4518 4.72728 11.6728V13.0546C4.72728 13.2755 4.54819 13.4546 4.32728 13.4546H2.94546C2.72455 13.4546 2.54546 13.2755 2.54546 13.0546V11.6728Z" fill="#111111"/>
<path fill-rule="evenodd" clip-rule="evenodd" d="M0 10.1818C0 9.37847 0.651222 8.72725 1.45455 8.72725H5.81818C6.62151 8.72725 7.27273 9.37847 7.27273 10.1818V14.5454C7.27273 15.3488 6.62151 16 5.81818 16H1.45455C0.651222 16 0 15.3488 0 14.5454V10.1818ZM1.45455 9.81816H5.81818C6.01901 9.81816 6.18182 9.98096 6.18182 10.1818V14.5454C6.18182 14.7463 6.01901 14.9091 5.81818 14.9091H1.45455C1.25371 14.9091 1.09091 14.7463 1.09091 14.5454V10.1818C1.09091 9.98096 1.25371 9.81816 1.45455 9.81816Z" fill="#111111"/>
<path d="M9.12727 8.72725C8.90636 8.72725 8.72727 8.90633 8.72727 9.12725V10.5091C8.72727 10.73 8.90636 10.9091 9.12727 10.9091H10.5091C10.73 10.9091 10.9091 10.73 10.9091 10.5091V9.12725C10.9091 8.90633 10.73 8.72725 10.5091 8.72725H9.12727Z" fill="#111111"/>
<path d="M11.2727 11.6728C11.2727 11.4518 11.4518 11.2728 11.6727 11.2728H13.0545C13.2755 11.2728 13.4545 11.4518 13.4545 11.6728V13.0546C13.4545 13.2755 13.2755 13.4546 13.0545 13.4546H11.6727C11.4518 13.4546 11.2727 13.2755 11.2727 13.0546V11.6728Z" fill="#111111"/>
<path d="M14.2182 13.8182C13.9973 13.8182 13.8182 13.9973 13.8182 14.2182V15.6C13.8182 15.8209 13.9973 16 14.2182 16H15.6C15.8209 16 16 15.8209 16 15.6V14.2182C16 13.9973 15.8209 13.8182 15.6 13.8182H14.2182Z" fill="#111111"/>
<path d="M8.72727 14.2182C8.72727 13.9973 8.90636 13.8182 9.12727 13.8182H10.5091C10.73 13.8182 10.9091 13.9973 10.9091 14.2182V15.6C10.9091 15.8209 10.73 16 10.5091 16H9.12727C8.90636 16 8.72727 15.8209 8.72727 15.6V14.2182Z" fill="#111111"/>
<path d="M14.2182 8.72725C13.9973 8.72725 13.8182 8.90633 13.8182 9.12725V10.5091C13.8182 10.73 13.9973 10.9091 14.2182 10.9091H15.6C15.8209 10.9091 16 10.73 16 10.5091V9.12725C16 8.90633 15.8209 8.72725 15.6 8.72725H14.2182Z" fill="#111111"/>
</svg>
