<svg width="19" height="28" viewBox="0 0 19 28" fill="none" xmlns="http://www.w3.org/2000/svg">
<path d="M12.0216 27.1699C12.5113 27.6351 13.283 27.6378 13.7444 27.1445C17.0141 23.6483 19 19.0445 19 14C19 8.95552 17.0141 4.35166 13.7444 0.855473C13.283 0.36216 12.5113 0.364919 12.0216 0.830108C11.495 1.33033 11.4987 2.16702 11.9863 2.70528C14.7339 5.73812 16.3947 9.68481 16.3947 14C16.3947 18.3152 14.7339 22.2619 11.9863 25.2947C11.4987 25.833 11.495 26.6697 12.0216 27.1699Z" fill="#AAAAAA"/>
<path d="M8.33719 23.6699C8.82689 24.1351 9.59986 24.1387 10.0513 23.6363C12.3822 21.0427 13.7894 17.6775 13.7894 14C13.7894 10.3225 12.3822 6.95727 10.0513 4.3637C9.59986 3.86133 8.82689 3.86492 8.3372 4.33011C7.81062 4.83033 7.81612 5.66623 8.28724 6.219C10.0989 8.34465 11.1842 11.0519 11.1842 14C11.1842 16.9481 10.0989 19.6553 8.28724 21.781C7.81611 22.3338 7.81061 23.1697 8.33719 23.6699Z" fill="#AAAAAA"/>
<path d="M4.65277 20.1699C5.14247 20.6351 5.91825 20.6401 6.34934 20.1201C7.74577 18.4358 8.5789 16.3103 8.5789 14C8.5789 11.6897 7.74577 9.56419 6.34935 7.87987C5.91825 7.35991 5.14248 7.36491 4.65278 7.8301C4.1262 8.33033 4.13669 9.16508 4.56728 9.74997C5.45363 10.954 5.97362 12.4193 5.97362 14C5.97362 15.5807 5.45363 17.046 4.56727 18.25C4.13669 18.8349 4.12619 19.6697 4.65277 20.1699Z" fill="#AAAAAA"/>
<path d="M0.968361 16.6699C1.45806 17.1351 2.24429 17.1424 2.60925 16.574C3.09087 15.824 3.36835 14.9428 3.36835 14C3.36835 13.0572 3.09087 12.176 2.60925 11.426C2.24429 10.8576 1.45806 10.8649 0.968362 11.3301C0.441782 11.8303 0.490293 12.679 0.680637 13.38C0.734448 13.5781 0.763072 13.7859 0.763072 14C0.763072 14.2141 0.734448 14.4219 0.680636 14.62C0.490292 15.3209 0.441781 16.1697 0.968361 16.6699Z" fill="#AAAAAA"/>
</svg>
