<svg width="104" height="28" viewBox="0 0 104 28" fill="none" xmlns="http://www.w3.org/2000/svg">
<path d="M36 24.5769C36 24.8106 36.1894 25 36.4231 25H39.2551C39.4887 25 39.6782 24.8106 39.6782 24.5769V19.1078C39.6782 19.0674 39.7301 19.0494 39.756 19.0804C40.0765 19.4637 40.495 19.772 41.0115 20.0052C41.5785 20.2502 42.2452 20.3727 43.0115 20.3727C44.4368 20.3727 45.5939 19.8559 46.4828 18.8225C47.3716 17.7815 47.8161 16.3883 47.8161 14.643V14.2756C47.8161 12.5073 47.3716 11.118 46.4828 10.1075C45.6015 9.09708 44.433 8.59186 42.977 8.59186C42.2184 8.59186 41.5364 8.74495 40.931 9.05115C40.3322 9.34648 39.8983 9.71672 39.6294 10.1619C39.624 10.1709 39.6142 10.1764 39.6037 10.1764C39.5876 10.1764 39.5744 10.1635 39.574 10.1474L39.551 9.26798C39.545 9.0387 39.3574 8.85595 39.1281 8.85595H36.4231C36.1894 8.85595 36 9.04537 36 9.27903V24.5769ZM40.058 16.9058C39.7456 16.5294 39.6782 16.0221 39.6782 15.5329V13.4924C39.6782 12.964 39.7603 12.4156 40.1119 12.0211C40.2187 11.9013 40.3385 11.7878 40.4713 11.6806C40.8391 11.3897 41.295 11.2443 41.8391 11.2443C42.59 11.2443 43.1494 11.5007 43.5172 12.0136C43.8851 12.5188 44.069 13.2269 44.069 14.1378V14.8038C44.069 15.707 43.8851 16.4266 43.5172 16.9624C43.1571 17.4906 42.5977 17.7547 41.8391 17.7547C41.318 17.7547 40.8659 17.6093 40.4828 17.3184C40.3213 17.19 40.1797 17.0525 40.058 16.9058Z" fill="#111111"/>
<path d="M49.6552 19.7199C49.6552 19.9536 49.8446 20.143 50.0782 20.143H52.9792C53.2129 20.143 53.4023 19.9536 53.4023 19.7199V13.4995C53.4023 13.3075 53.4423 13.1159 53.5407 12.951C53.7729 12.5619 54.0754 12.238 54.4483 11.9791C54.9004 11.6653 55.3831 11.5084 55.8966 11.5084C56.1188 11.5084 56.318 11.5198 56.4943 11.5428C56.5638 11.5515 56.63 11.5618 56.6929 11.5738C56.8347 11.6007 56.977 11.4971 56.977 11.3527V9.02768C56.977 8.85462 56.8699 8.70198 56.6999 8.66951C56.6646 8.66276 56.6267 8.65602 56.5862 8.64927C56.4023 8.61865 56.2107 8.60334 56.0115 8.60334C55.4368 8.60334 54.9195 8.76026 54.4598 9.07411C54.0037 9.38547 53.6418 9.77593 53.3742 10.2455C53.3703 10.2525 53.3629 10.2568 53.3548 10.2568C53.3429 10.2568 53.333 10.2473 53.3326 10.2353L53.3008 9.26515C53.2933 9.03701 53.1062 8.85595 52.8779 8.85595H50.0782C49.8446 8.85595 49.6552 9.04537 49.6552 9.27903V19.7199Z" fill="#111111"/>
<path d="M58.4253 19.7199C58.4253 19.9536 58.6147 20.143 58.8484 20.143H61.7378C61.9715 20.143 62.1609 19.9536 62.1609 19.7199V9.27903C62.1609 9.04537 61.9715 8.85595 61.7378 8.85595H58.8484C58.6147 8.85595 58.4253 9.04537 58.4253 9.27903V19.7199ZM58.1839 5.30793C58.1839 5.84377 58.364 6.29923 58.7241 6.67432C59.092 7.04941 59.613 7.23695 60.2874 7.23695C60.9617 7.23695 61.4828 7.04941 61.8506 6.67432C62.2184 6.29923 62.4023 5.84377 62.4023 5.30793C62.4023 4.76444 62.2222 4.30898 61.8621 3.94154C61.5019 3.57411 60.9808 3.3904 60.2989 3.3904C59.6245 3.3904 59.1034 3.57411 58.7356 3.94154C58.3678 4.30898 58.1839 4.76444 58.1839 5.30793Z" fill="#111111"/>
<path d="M64.6207 19.7199C64.6207 19.9536 64.8101 20.143 65.0438 20.143H67.8873C68.1209 20.143 68.3103 19.9536 68.3103 19.7199V12.8173C68.5019 12.3657 68.7625 12.0097 69.092 11.7495C69.4215 11.4892 69.8084 11.3591 70.2529 11.3591C70.7663 11.3591 71.1571 11.5045 71.4253 11.7954C71.7011 12.0863 71.8391 12.5647 71.8391 13.2307V19.7199C71.8391 19.9536 72.0285 20.143 72.2622 20.143H75.1172C75.3508 20.143 75.5402 19.9536 75.5402 19.7199V12.8058C75.7318 12.3695 75.9923 12.0212 76.3218 11.761C76.659 11.493 77.0498 11.3591 77.4943 11.3591C78.0077 11.3667 78.3985 11.516 78.6667 11.8069C78.9349 12.0901 79.069 12.5571 79.069 13.2077V19.7199C79.069 19.9536 79.2584 20.143 79.492 20.143H82.3355C82.5692 20.143 82.7586 19.9536 82.7586 19.7199V12.9551C82.7586 11.3859 82.4138 10.2683 81.7241 9.6023C81.0421 8.92867 80.1341 8.59186 79 8.59186C78.1877 8.59186 77.4329 8.76409 76.7356 9.10856C76.046 9.45303 75.4981 9.94676 75.092 10.5898H75.0575C74.8123 9.93911 74.3946 9.44537 73.8046 9.10856C73.2222 8.76409 72.5249 8.59186 71.7126 8.59186C70.9693 8.59186 70.2989 8.74495 69.7011 9.05115C69.1111 9.35734 68.6322 9.78218 68.2644 10.3257H68.2184L68.1936 9.2691C68.1882 9.03937 68.0004 8.85595 67.7706 8.85595H65.0438C64.8101 8.85595 64.6207 9.04537 64.6207 9.27903V19.7199Z" fill="#111111"/>
<path d="M84.5402 16.8591C84.5402 18.0073 84.9004 18.8723 85.6207 19.4541C86.3487 20.0358 87.295 20.3267 88.4598 20.3267C89.4406 20.3267 90.2529 20.1545 90.8965 19.81C91.5479 19.4656 92 19.079 92.2529 18.6503C92.2759 18.9259 92.3218 19.1976 92.3908 19.4656C92.4384 19.6318 92.4904 19.7819 92.5468 19.9158C92.6071 20.0588 92.7518 20.143 92.907 20.143H96.1151C96.2102 20.143 96.2874 20.0659 96.2874 19.9708C96.1341 19.6722 96.0153 19.3163 95.931 18.9029C95.8544 18.4819 95.8161 18.0418 95.8161 17.5825V12.5303C95.8161 11.1447 95.3755 10.1343 94.4943 9.49896C93.6207 8.8636 92.3487 8.54593 90.6782 8.54593C89.023 8.54593 87.6973 8.87891 86.7011 9.54489C85.7126 10.2032 85.2184 11.0567 85.2184 12.1054V12.1242C85.2184 12.2408 85.3127 12.3354 85.4292 12.3358L88.4945 12.3459C88.6085 12.3463 88.7011 12.2539 88.7011 12.1399C88.7011 11.7342 88.8429 11.4088 89.1264 11.1639C89.41 10.9189 89.8544 10.7965 90.4598 10.7965C91.0651 10.7965 91.4943 10.9419 91.7471 11.2328C92 11.5237 92.1264 11.9217 92.1264 12.4269V13.1044H89.5977C88.1035 13.112 86.8851 13.4412 85.9425 14.0919C85.0077 14.7425 84.5402 15.6649 84.5402 16.8591ZM88.2069 16.572C88.2069 16.0668 88.3908 15.6955 88.7586 15.4582C89.1341 15.2209 89.7126 15.1023 90.4943 15.1023H92.1264V16.0668C92.1264 16.6103 91.9042 17.0887 91.4598 17.5021C91.023 17.9078 90.4981 18.1106 89.8851 18.1106C89.318 18.1106 88.8966 17.9767 88.6207 17.7088C88.3448 17.4332 88.2069 17.0543 88.2069 16.572Z" fill="#111111"/>
<path d="M98.2874 19.7199C98.2874 19.9536 98.4768 20.143 98.7104 20.143H101.577C101.811 20.143 102 19.9536 102 19.7199V3.42308C102 3.18942 101.811 3 101.577 3H98.7104C98.4768 3 98.2874 3.18942 98.2874 3.42308V19.7199Z" fill="#111111"/>
<path d="M13.8283 0C21.5426 0 27.7963 6.26801 27.7963 14C27.7963 21.732 21.5426 28 13.8283 28C8.35225 28 3.61232 24.8415 1.32273 20.243C0.645364 18.8202 0.279358 17.2215 0.279358 15.54C0.279358 9.50905 5.15723 4.62 11.1744 4.62C15.5784 4.62 19.372 7.23909 21.0895 11.008C21.1718 11.1885 20.9057 11.3514 20.7579 11.2193C19.7704 10.3366 18.4683 9.8 17.041 9.8C13.9552 9.8 11.4538 12.3072 11.4538 15.4C11.4538 15.6371 11.4686 15.8707 11.4971 16.1V16.1027C12.1522 20.16 15.3045 22.19 18.9965 22.19C22.6884 22.19 25.7704 19.5797 26.5089 16.1C26.6207 15.4166 26.6789 14.7151 26.6789 14C26.6789 6.88657 20.9255 1.12 13.8283 1.12C9.5509 1.12 5.76157 3.21463 3.42574 6.43636C3.37252 6.50976 3.31131 6.57704 3.24334 6.63698C2.53863 7.25834 1.90712 7.96114 1.36348 8.73071C1.21679 8.93836 0.860642 8.7814 0.959594 8.54709C3.08086 3.52414 8.04393 0 13.8283 0Z" fill="#111111"/>
<path d="M13.8283 0C21.5426 0 27.7963 6.26801 27.7963 14C27.7963 21.732 21.5426 28 13.8283 28C8.35225 28 3.61232 24.8415 1.32273 20.243C0.645364 18.8202 0.279358 17.2215 0.279358 15.54C0.279358 9.50905 5.15723 4.62 11.1744 4.62C15.5784 4.62 19.372 7.23909 21.0895 11.008C21.1718 11.1885 20.9057 11.3514 20.7579 11.2193C19.7704 10.3366 18.4683 9.8 17.041 9.8C13.9552 9.8 11.4538 12.3072 11.4538 15.4C11.4538 15.6371 11.4686 15.8707 11.4971 16.1V16.1027C12.1522 20.16 15.3045 22.19 18.9965 22.19C22.6884 22.19 25.7704 19.5797 26.5089 16.1C26.6207 15.4166 26.6789 14.7151 26.6789 14C26.6789 6.88657 20.9255 1.12 13.8283 1.12C9.5509 1.12 5.76157 3.21463 3.42574 6.43636C3.37252 6.50976 3.31131 6.57704 3.24334 6.63698C2.53863 7.25834 1.90712 7.96114 1.36348 8.73071C1.21679 8.93836 0.860642 8.7814 0.959594 8.54709C3.08086 3.52414 8.04393 0 13.8283 0Z" fill="url(#paint0_linear_1834_20643)"/>
<path d="M13.8283 0C21.5426 0 27.7963 6.26801 27.7963 14C27.7963 21.732 21.5426 28 13.8283 28C8.35225 28 3.61232 24.8415 1.32273 20.243C0.645364 18.8202 0.279358 17.2215 0.279358 15.54C0.279358 9.50905 5.15723 4.62 11.1744 4.62C15.5784 4.62 19.372 7.23909 21.0895 11.008C21.1718 11.1885 20.9057 11.3514 20.7579 11.2193C19.7704 10.3366 18.4683 9.8 17.041 9.8C13.9552 9.8 11.4538 12.3072 11.4538 15.4C11.4538 15.6371 11.4686 15.8707 11.4971 16.1V16.1027C12.1522 20.16 15.3045 22.19 18.9965 22.19C22.6884 22.19 25.7704 19.5797 26.5089 16.1C26.6207 15.4166 26.6789 14.7151 26.6789 14C26.6789 6.88657 20.9255 1.12 13.8283 1.12C9.5509 1.12 5.76157 3.21463 3.42574 6.43636C3.37252 6.50976 3.31131 6.57704 3.24334 6.63698C2.53863 7.25834 1.90712 7.96114 1.36348 8.73071C1.21679 8.93836 0.860642 8.7814 0.959594 8.54709C3.08086 3.52414 8.04393 0 13.8283 0Z" fill="url(#paint1_linear_1834_20643)"/>
<defs>
<linearGradient id="paint0_linear_1834_20643" x1="14.0378" y1="0" x2="14.0378" y2="28" gradientUnits="userSpaceOnUse">
<stop stop-color="#FA3C3C"/>
<stop offset="1" stop-color="#CA077C"/>
</linearGradient>
<linearGradient id="paint1_linear_1834_20643" x1="1.10959" y1="0.392524" x2="28.5862" y2="27.8063" gradientUnits="userSpaceOnUse">
<stop stop-color="#00E0FF"/>
<stop offset="0.355769" stop-color="#0090F8"/>
<stop offset="0.716346" stop-color="#2554ED"/>
</linearGradient>
</defs>
</svg>
