<svg width="20" height="20" viewBox="0 0 20 20" fill="none" xmlns="http://www.w3.org/2000/svg">
<path d="M20 10.625H2.44141L10.127 18.3105L9.24805 19.1895L0.0585938 10L9.24805 0.810547L10.127 1.68945L2.44141 9.375H20V10.625Z" fill="white"/>
<path d="M20 10.625V11.125H20.5V10.625H20ZM2.44141 10.625V10.125H1.2343L2.08785 10.9786L2.44141 10.625ZM10.127 18.3105L10.4805 18.6641L10.8341 18.3105L10.4805 17.957L10.127 18.3105ZM9.24805 19.1895L8.89449 19.543L9.24805 19.8966L9.6016 19.543L9.24805 19.1895ZM0.0585938 10L-0.29496 9.64645L-0.648513 10L-0.29496 10.3536L0.0585938 10ZM9.24805 0.810547L9.6016 0.456993L9.24805 0.10344L8.89449 0.456993L9.24805 0.810547ZM10.127 1.68945L10.4805 2.04301L10.8341 1.68945L10.4805 1.3359L10.127 1.68945ZM2.44141 9.375L2.08785 9.02145L1.2343 9.875H2.44141V9.375ZM20 9.375H20.5V8.875H20V9.375ZM20 10.125H2.44141V11.125H20V10.125ZM2.08785 10.9786L9.7734 18.6641L10.4805 17.957L2.79496 10.2714L2.08785 10.9786ZM9.7734 17.957L8.89449 18.8359L9.6016 19.543L10.4805 18.6641L9.7734 17.957ZM9.6016 18.8359L0.412147 9.64645L-0.29496 10.3536L8.89449 19.543L9.6016 18.8359ZM0.412147 10.3536L9.6016 1.1641L8.89449 0.456993L-0.29496 9.64645L0.412147 10.3536ZM8.89449 1.1641L9.7734 2.04301L10.4805 1.3359L9.6016 0.456993L8.89449 1.1641ZM9.7734 1.3359L2.08785 9.02145L2.79496 9.72855L10.4805 2.04301L9.7734 1.3359ZM2.44141 9.875H20V8.875H2.44141V9.875ZM19.5 9.375V10.625H20.5V9.375H19.5Z" fill="white"/>
</svg>
