<svg width="16" height="16" viewBox="0 0 16 16" fill="none" xmlns="http://www.w3.org/2000/svg">
<path fill-rule="evenodd" clip-rule="evenodd" d="M8.49627 5.3587L8.29803 5.74976C8.13449 6.07236 7.66775 6.07237 7.5042 5.74977L7.30627 5.35937L7.30317 5.35342C7.30024 5.34782 7.29526 5.33839 7.28826 5.32546C7.27424 5.29958 7.25223 5.25982 7.22254 5.20887C7.16304 5.10675 7.07352 4.96104 6.95674 4.79296C6.72011 4.45236 6.38618 4.04112 5.98017 3.71135C5.57293 3.38057 5.13358 3.16393 4.67549 3.13476C4.23581 3.10677 3.68009 3.24502 3.00902 3.81232C2.35285 4.36702 2.11295 4.9247 2.06714 5.43682C2.01933 5.97125 2.17717 6.53036 2.45015 7.06891C2.7216 7.60444 3.08586 8.07782 3.39001 8.42254C3.54065 8.59326 3.6731 8.72857 3.76657 8.82C3.81322 8.86563 3.84992 8.9001 3.87403 8.92235C3.88608 8.93347 3.89497 8.94151 3.90035 8.94635L3.90565 8.9511L3.90641 8.95176L3.92025 8.9639L7.54998 12.5441C7.74467 12.7361 8.05752 12.7361 8.25221 12.5441L12.7737 8.08428L12.7914 8.06934L12.7923 8.06859L12.7939 8.06716L12.8108 8.05215C12.827 8.0375 12.8527 8.01375 12.8857 7.98157C12.9519 7.917 13.0462 7.81963 13.1518 7.69461C13.366 7.44112 13.6112 7.09187 13.7709 6.68684C13.9288 6.2863 13.9969 5.84883 13.8887 5.39153C13.7812 4.93723 13.484 4.39631 12.7932 3.81234C12.1221 3.24502 11.5663 3.10677 11.1266 3.13476C10.6685 3.16393 10.2292 3.38057 9.82194 3.71134C9.41594 4.04111 9.08204 4.45234 8.84543 4.79294C8.72866 4.96102 8.63915 5.10673 8.57965 5.20885C8.54997 5.25979 8.52796 5.29955 8.51395 5.32543C8.50695 5.33836 8.50196 5.3478 8.49903 5.35339L8.49627 5.3587ZM3.00453 9.91775L3.00368 9.91698C2.99414 9.90841 2.98098 9.89647 2.96453 9.8813C2.93166 9.85097 2.88559 9.80764 2.8291 9.75238C2.71629 9.64203 2.561 9.48322 2.38575 9.2846C2.03813 8.89062 1.59808 8.32436 1.25937 7.65613C0.922178 6.99092 0.663982 6.18215 0.740975 5.32141C0.819964 4.43834 1.24568 3.57354 2.14265 2.81527C3.02471 2.06962 3.91121 1.77023 4.76123 1.82435C5.59284 1.87729 6.29067 2.26248 6.82646 2.69766C7.27167 3.05927 7.63299 3.4777 7.90107 3.83697C8.16914 3.4777 8.53044 3.05928 8.97563 2.69767C9.51141 2.26248 10.2092 1.87729 11.0409 1.82435C11.8909 1.77023 12.7774 2.06961 13.6595 2.81526C14.5219 3.54426 15.0014 4.31639 15.1852 5.09313C15.3682 5.86686 15.2421 6.57842 15.0117 7.16278C14.7831 7.74264 14.4458 8.21418 14.1746 8.53524C14.0375 8.69749 13.9135 8.82585 13.8219 8.91518C13.776 8.95995 13.738 8.9952 13.7102 9.0203C13.6992 9.03022 13.6898 9.03857 13.6822 9.04532L8.25221 14.4011C8.05752 14.5932 7.74467 14.5932 7.54998 14.4011L3.00453 9.91775Z" fill="#666666"/>
</svg>
