<svg width="12" height="14" viewBox="0 0 12 14" fill="none" xmlns="http://www.w3.org/2000/svg">
<path fill-rule="evenodd" clip-rule="evenodd" d="M9 3V2C9 0.895431 8.10457 0 7 0H2C0.895431 0 0 0.895431 0 2V9C0 10.1046 0.89543 11 2 11H3V12C3 13.1046 3.89543 14 5 14H10C11.1046 14 12 13.1046 12 12V5C12 3.89543 11.1046 3 10 3H9ZM7 1.5H2C1.72386 1.5 1.5 1.72386 1.5 2V9C1.5 9.27614 1.72386 9.5 2 9.5H3V5C3 3.89543 3.89543 3 5 3H7.5V2C7.5 1.72386 7.27614 1.5 7 1.5ZM4.5 5C4.5 4.72386 4.72386 4.5 5 4.5H10C10.2761 4.5 10.5 4.72386 10.5 5V12C10.5 12.2761 10.2761 12.5 10 12.5H5C4.72386 12.5 4.5 12.2761 4.5 12V5Z" fill="#AAAAAA"/>
</svg>
