<svg width="20" height="20" viewBox="0 0 20 20" fill="none" xmlns="http://www.w3.org/2000/svg">
<path fill-rule="evenodd" clip-rule="evenodd" d="M15 5C15 7.76142 12.7614 10 10 10C7.23858 10 5 7.76142 5 5C5 2.23858 7.23858 0 10 0C12.7614 0 15 2.23858 15 5ZM13.75 5C13.75 7.07107 12.0711 8.75 10 8.75C7.92893 8.75 6.25 7.07107 6.25 5C6.25 2.92893 7.92893 1.25 10 1.25C12.0711 1.25 13.75 2.92893 13.75 5Z" fill="#AAAAAA"/>
<path fill-rule="evenodd" clip-rule="evenodd" d="M1 16C1 13.7909 2.79086 12 5 12H15C17.2091 12 19 13.7909 19 16C19 18.2091 17.2091 20 15 20H5C2.79086 20 1 18.2091 1 16ZM2.25 16C2.25 14.4812 3.48122 13.25 5 13.25H15C16.5188 13.25 17.75 14.4812 17.75 16C17.75 17.5188 16.5188 18.75 15 18.75H5C3.48122 18.75 2.25 17.5188 2.25 16Z" fill="#AAAAAA"/>
</svg>
