<svg width="36" height="36" viewBox="0 0 36 36" fill="none" xmlns="http://www.w3.org/2000/svg">
<rect width="36" height="36" rx="18" fill="black" fill-opacity="0.5"/>
<path fill-rule="evenodd" clip-rule="evenodd" d="M19.8375 21.6097C18.834 22.2775 17.6291 22.6667 16.3333 22.6667C12.8355 22.6667 10 19.8311 10 16.3333C10 12.8355 12.8355 10 16.3333 10C19.8311 10 22.6667 12.8355 22.6667 16.3333C22.6667 17.6291 22.2775 18.834 21.6097 19.8375L25.1139 23.3418C25.6033 23.8311 25.6033 24.6245 25.1139 25.1139C24.6245 25.6033 23.8311 25.6033 23.3418 25.1139L19.8375 21.6097ZM21.3333 16.3333C21.3333 19.0948 19.0948 21.3333 16.3333 21.3333C13.5719 21.3333 11.3333 19.0948 11.3333 16.3333C11.3333 13.5719 13.5719 11.3333 16.3333 11.3333C19.0948 11.3333 21.3333 13.5719 21.3333 16.3333Z" fill="white"/>
</svg>
