<svg width="30" height="30" viewBox="0 0 30 30" fill="none" xmlns="http://www.w3.org/2000/svg">
<g clip-path="url(#clip0_2793_1006)">
<path d="M21.2973 16.5099L20.9432 16.506L20.822 16.8388L20.7906 16.925L20.6352 17.3522L21.0456 17.5475C22.1658 18.0806 22.8902 18.8848 23.2307 19.8558C23.5735 20.8333 23.5449 22.0316 23.057 23.3719C22.5742 24.6984 21.5723 25.6616 20.1498 26.1432C18.7158 26.6286 16.8315 26.6299 14.6172 25.9607C13.9576 25.7614 13.2163 26.0848 12.9682 26.7665L11.9096 29.6751C11.9036 29.6915 11.8839 29.7027 11.8632 29.6952L10.3177 29.1327C10.297 29.1252 10.2891 29.1039 10.2951 29.0875L11.4437 25.9318C11.6397 25.3932 11.3598 24.8002 10.8234 24.6049L9.86729 24.2569C9.33089 24.0617 8.73528 24.3361 8.53925 24.8747L7.39067 28.0304C7.3847 28.0468 7.36498 28.058 7.34434 28.0505L5.79879 27.4879C5.77815 27.4804 5.77024 27.4592 5.77621 27.4428L6.83335 24.5383C7.07989 23.8609 6.72805 23.1143 6.05239 22.8684L2.13841 21.4438L3.34567 19.4093L5.90327 20.3402L6.37312 20.5112L6.54413 20.0414L11.0588 7.63744C11.3508 6.8352 10.9389 5.94686 10.1359 5.65459L8.44454 5.03899L9.12326 3.17421L13.1898 4.65432C13.7262 4.84955 14.3218 4.57516 14.5179 4.03656L15.6395 0.954903C15.6455 0.938489 15.6652 0.927304 15.6858 0.934815L17.2314 1.49735C17.252 1.50486 17.2599 1.5261 17.254 1.54252L16.1323 4.62417C15.9363 5.16277 16.2162 5.75582 16.7526 5.95105L17.7087 6.29905C18.2451 6.49429 18.8407 6.2199 19.0368 5.68129L20.1584 2.59964C20.1644 2.58323 20.1841 2.57204 20.2047 2.57955L21.7503 3.14209C21.7709 3.1496 21.7788 3.17084 21.7728 3.18725L20.6398 6.30021C20.4473 6.82909 20.7151 7.3943 21.204 7.61412C22.9123 8.38214 24.0586 9.31475 24.6601 10.3558C25.2498 11.3767 25.3499 12.5607 24.8504 13.933C24.4532 15.0243 24.0929 15.6367 23.6131 15.9971C23.1423 16.3506 22.4724 16.5226 21.2973 16.5099ZM13.4111 12.8393C13.2378 13.3153 13.4821 13.8432 13.9595 14.0169L16.1066 14.7984C16.9342 15.0996 17.8218 15.1625 18.6135 14.8716C19.4197 14.5754 20.0672 13.9332 20.4264 12.9463C20.7591 12.0323 20.7254 11.1772 20.3176 10.4541C19.9176 9.74491 19.2003 9.23828 18.3128 8.91526L16.1084 8.11292C15.631 7.93916 15.1045 8.18645 14.9313 8.66251L13.4111 12.8393ZM10.504 20.8262C10.3308 21.3023 10.5751 21.8301 11.0525 22.0039L13.5438 22.9106C14.4589 23.2437 15.5154 23.3272 16.4473 23.0813C17.3891 22.8328 18.2329 22.2351 18.6097 21.1998C18.9827 20.1749 18.7166 19.1941 18.1274 18.4082C17.5464 17.6332 16.6418 17.0266 15.6539 16.667L13.306 15.8124C12.8286 15.6386 12.3022 15.886 12.1289 16.362L10.504 20.8262Z" fill="#AAAAAA" stroke="#AAAAAA"/>
</g>
<defs>
<clipPath id="clip0_2793_1006">
<rect width="30" height="30" fill="white"/>
</clipPath>
</defs>
</svg>
