<svg width="140" height="38" viewBox="0 0 140 38" fill="none" xmlns="http://www.w3.org/2000/svg">
<path d="M20.4175 33.2429C19.2541 33.4979 18.0456 33.6323 16.8058 33.6323C13.4026 33.6323 10.2358 32.6201 7.58944 30.8801C6.93253 29.9399 6.63779 29.4223 6.42279 29.0447C6.31626 28.8576 6.22931 28.7049 6.12757 28.5522C5.1251 26.9389 4.6006 24.8667 4.48622 22.4319C4.13193 14.8878 8.71377 10.0702 13.3945 9.27949C16.3615 8.77825 18.7194 9.28586 20.528 10.2536C18.9291 9.8086 17.0231 9.78183 14.8502 10.4043C9.58279 12.1032 7.82686 17.2691 8.57947 22.9898C9.89293 30.1581 16.9167 32.7273 20.4175 33.2429Z" fill="url(#paint0_linear_2563_3957)"/>
<path d="M5.41438 29.1817C4.43461 27.4408 3.54735 24.8432 3.43648 22.483C3.06036 14.474 7.95152 9.13469 13.2191 8.24482C20.3993 7.03181 24.3911 11.2854 25.7673 14.4425C25.8248 14.4036 25.8482 14.3268 25.8178 14.2606C23.5552 9.33738 18.8755 5.95654 13.4698 5.95654C7.33171 5.95654 1.85479 10.3625 0 16.9106C0.0263419 21.7628 2.10629 26.1285 5.41438 29.1817Z" fill="url(#paint1_linear_2563_3957)"/>
<path d="M26.2587 30.7226C25.0465 31.5494 23.7206 32.2215 22.3093 32.7108C21.6317 32.5927 20.8809 32.4457 20.3523 32.3421C20.1018 32.2931 19.9011 32.2537 19.7819 32.2319C16.5851 31.6476 10.8693 29.5863 9.61709 22.8273C9.26329 20.1095 9.51667 17.6077 10.414 15.6232C11.298 13.6682 12.8236 12.1695 15.1503 11.4128C17.8546 10.6756 20.0955 11.041 21.76 11.9355C21.3502 11.8491 20.9267 11.8037 20.4934 11.8037C16.8916 11.8037 13.9718 14.9341 13.9718 18.7957C13.9718 20.3376 14.4373 21.763 15.2259 22.919C15.2259 22.919 17.4834 27.186 23.6287 26.8047C29.1082 26.4646 31.9537 21.5464 32.2928 19.7297C32.4691 18.7856 32.5612 17.8119 32.5612 16.8167C32.5612 8.10955 25.5074 1.05104 16.806 1.05104C10.2217 1.05104 4.58073 5.09272 2.22561 10.8321C1.43011 11.8691 0.745129 13.0187 0.193176 14.2618C1.42313 6.18671 8.39257 0 16.806 0C26.0875 0 33.6116 7.52908 33.6116 16.8167C33.6116 22.5969 30.6972 27.6957 26.2587 30.7226Z" fill="url(#paint2_linear_2563_3957)"/>
<path d="M44.068 32.9347H49.8929V23.9719C50.4168 24.5637 51.0602 25.0417 51.8232 25.406C52.5976 25.7702 53.5655 25.9523 54.7271 25.9523C56.7314 25.9523 58.3599 25.2295 59.6125 23.7841C60.8652 22.3387 61.4916 20.3868 61.4916 17.9284V17.3821C61.4916 14.8782 60.8823 12.9376 59.6638 11.5605C58.4453 10.1833 56.8282 9.49476 54.8125 9.49476C53.6623 9.49476 52.6488 9.7167 51.7719 10.1606C50.8951 10.6045 50.246 11.1564 49.8246 11.8166H49.7734V9.90449H44.068V32.9347ZM49.8929 20.0624V15.4359C50.0865 14.9237 50.4225 14.4798 50.9008 14.1042C51.3791 13.7173 51.9712 13.5238 52.6773 13.5238C53.6566 13.5238 54.3855 13.8595 54.8638 14.531C55.3534 15.1912 55.5983 16.096 55.5983 17.2455V18.1503C55.5983 19.2771 55.3534 20.2047 54.8638 20.9331C54.3855 21.6501 53.6453 22.0086 52.6431 22.0086C51.9712 22.0086 51.3961 21.8151 50.9178 21.4282C50.4395 21.0298 50.0979 20.5746 49.8929 20.0624Z" fill="#DDDDDD"/>
<path d="M63.5755 25.6108H69.5713V16.426C70.004 15.6407 70.5848 15.0147 71.3137 14.5481C72.0425 14.0701 72.777 13.8311 73.5172 13.8311C73.893 13.8311 74.2347 13.8538 74.5421 13.8994C74.8496 13.9335 75.1058 13.9961 75.3108 14.0872V9.81913C75.1969 9.77361 74.9863 9.73377 74.6788 9.69963C74.3713 9.6541 74.0468 9.63134 73.7051 9.63134C72.7827 9.63134 71.9628 9.85897 71.2453 10.3142C70.5393 10.7695 69.9585 11.3613 69.503 12.0897H69.4859V9.90449H63.5755V25.6108Z" fill="#DDDDDD"/>
<path d="M76.8824 25.6108H82.8269V9.90449H76.8824V25.6108ZM76.592 4.39021C76.592 5.20967 76.871 5.91532 77.429 6.50715C77.987 7.0876 78.7898 7.37782 79.8375 7.37782C80.8852 7.37782 81.6938 7.0876 82.2632 6.50715C82.8439 5.91532 83.1343 5.20398 83.1343 4.37314C83.1343 3.53091 82.8553 2.83096 82.2973 2.27327C81.7393 1.71558 80.9308 1.43674 79.8717 1.43674C78.824 1.43674 78.0155 1.72127 77.4461 2.29034C76.8767 2.84803 76.592 3.54799 76.592 4.39021Z" fill="#DDDDDD"/>
<path d="M85.7479 25.6108H91.5899V15.7431C91.8518 15.1855 92.1878 14.7245 92.5977 14.3603C93.0191 13.9847 93.5201 13.7969 94.1009 13.7969C94.75 13.7969 95.2511 13.9733 95.6041 14.3262C95.9686 14.679 96.1508 15.2993 96.1508 16.187V25.6108H102.01V15.7431C102.272 15.1741 102.613 14.7074 103.035 14.3432C103.456 13.979 103.957 13.7969 104.538 13.7969C105.187 13.7969 105.688 13.9733 106.041 14.3262C106.394 14.6676 106.571 15.2879 106.571 16.187V25.6108H112.43V15.1968C112.43 13.1482 111.957 11.6857 111.012 10.8093C110.067 9.92157 108.808 9.47769 107.237 9.47769C105.996 9.47769 104.874 9.73377 103.872 10.2459C102.87 10.7467 102.067 11.441 101.463 12.3287H101.429C101.122 11.3955 100.552 10.6898 99.7209 10.2118C98.8896 9.73377 97.8988 9.49476 96.7486 9.49476C95.5643 9.49476 94.5337 9.73946 93.6568 10.2289C92.7799 10.7183 92.0682 11.3841 91.5216 12.2263H91.4703V9.92157H85.7479V25.6108Z" fill="#DDDDDD"/>
<path d="M114.446 21.1038C114.446 22.6517 114.929 23.8296 115.897 24.6377C116.877 25.4344 118.221 25.8328 119.929 25.8328C121.364 25.8328 122.554 25.5881 123.499 25.0987C124.456 24.5979 125.127 24.0402 125.515 23.4256C125.56 23.8467 125.628 24.2451 125.72 24.6206C125.822 24.9962 125.964 25.3263 126.147 25.6108H131.903V25.3718C131.675 24.9393 131.505 24.4328 131.391 23.8524C131.277 23.2719 131.22 22.6517 131.22 21.9915V15.1627C131.22 13.171 130.594 11.7312 129.341 10.8435C128.088 9.94433 126.186 9.49476 123.636 9.49476C121.119 9.49476 119.137 9.95571 117.691 10.8776C116.256 11.7881 115.539 13.0002 115.539 14.514V14.9408L120.851 14.9578V14.5993C120.851 14.0075 121.051 13.5522 121.449 13.2336C121.859 12.9035 122.446 12.7385 123.209 12.7385C123.983 12.7385 124.541 12.9263 124.883 13.3018C125.224 13.6774 125.395 14.218 125.395 14.9237V15.9309H121.381C119.274 15.9309 117.589 16.4033 116.325 17.3479C115.072 18.2812 114.446 19.5332 114.446 21.1038ZM120.202 20.677C120.202 19.9827 120.453 19.4933 120.954 19.2088C121.455 18.9242 122.223 18.782 123.26 18.782H125.395V19.9941C125.395 20.677 125.082 21.2916 124.456 21.8379C123.841 22.3842 123.152 22.6573 122.389 22.6573C121.683 22.6573 121.142 22.4923 120.766 22.1623C120.39 21.8322 120.202 21.3371 120.202 20.677Z" fill="#DDDDDD"/>
<path d="M134.107 25.6108H140V0.702637H134.107V25.6108Z" fill="#DDDDDD"/>
<path opacity="0.8" d="M139.718 29.3271V35.8745H138.848V32.2959C138.848 31.7398 138.839 31.0851 138.848 30.4841C138.66 31.0851 138.445 31.7398 138.248 32.2959L136.939 35.8745H136.177L134.886 32.2959C134.689 31.7577 134.483 31.1209 134.295 30.52C134.304 31.112 134.304 31.7488 134.304 32.2959V35.8745H133.443V29.3271H134.644C135.451 31.5335 135.98 33.0044 136.58 34.6995C137.19 33.0044 137.737 31.5335 138.543 29.3271H139.718Z" fill="#DDDDDD"/>
<path opacity="0.8" d="M132.292 33.3363C132.292 33.5425 132.283 33.7309 132.256 34.0448C132.185 35.1839 131.53 36 129.818 36C128.106 36 127.434 35.1839 127.354 34.0448C127.336 33.7399 127.336 33.5425 127.336 33.3363V29.3271H128.205V33.5874C128.205 34.5471 128.555 35.2108 129.818 35.2108C131.091 35.2108 131.441 34.5381 131.441 33.5874V29.3271H132.292V33.3363Z" fill="#DDDDDD"/>
<path opacity="0.8" d="M126.18 29.3271V35.8745H125.32V29.3271H126.18Z" fill="#DDDDDD"/>
<path opacity="0.8" d="M124.123 29.3271V35.8745H123.254V32.2959C123.254 31.7398 123.245 31.0851 123.254 30.4841C123.065 31.0851 122.85 31.7398 122.653 32.2959L121.345 35.8745H120.583L119.292 32.2959C119.095 31.7577 118.889 31.1209 118.7 30.52C118.709 31.112 118.709 31.7488 118.709 32.2959V35.8745H117.849V29.3271H119.05C119.857 31.5335 120.386 33.0044 120.986 34.6995C121.596 33.0044 122.142 31.5335 122.949 29.3271H124.123Z" fill="#DDDDDD"/>
<path opacity="0.8" d="M116.861 29.3271V30.0985H113.419V32.1882H116.672V32.9596H113.419V35.1031H116.941V35.8745H112.558V29.3271H116.861Z" fill="#DDDDDD"/>
<path opacity="0.8" d="M111.608 35.8207V35.8745H110.586C110.487 35.4619 110.389 34.9058 110.317 34.3049C110.21 33.4349 109.923 33.1748 108.901 33.1748H107.628V35.8745H106.759V29.3271H108.847C109.197 29.3271 109.484 29.3361 109.797 29.372C110.756 29.4796 111.437 29.9908 111.437 31.1299C111.437 31.9461 110.989 32.5111 110.272 32.7622C110.81 32.9685 111.115 33.3901 111.195 34.1076C111.267 34.7623 111.339 35.148 111.455 35.6233L111.608 35.8207ZM107.628 32.4035H108.946C109.86 32.4035 110.559 32.1793 110.559 31.2555C110.559 30.4393 110.093 30.0985 108.964 30.0985H107.628V32.4035Z" fill="#DDDDDD"/>
<path opacity="0.8" d="M103.425 29.3271C103.774 29.3271 104.061 29.3361 104.384 29.372C105.253 29.4796 106.051 29.955 106.051 31.2106C106.051 32.538 105.253 33.0851 104.384 33.1928C104.061 33.2286 103.774 33.2376 103.425 33.2376H102.206V35.8745H101.345V29.3271H103.425ZM102.206 32.4663H103.469C104.42 32.4663 105.163 32.3317 105.163 31.2644C105.163 30.2958 104.473 30.0985 103.469 30.0985H102.206V32.4663Z" fill="#DDDDDD"/>
<defs>
<linearGradient id="paint0_linear_2563_3957" x1="10.4956" y1="13.9311" x2="10.4699" y2="28.877" gradientUnits="userSpaceOnUse">
<stop offset="0.0297309" stop-color="#FA3C3C"/>
<stop offset="1" stop-color="#BC1870"/>
</linearGradient>
<linearGradient id="paint1_linear_2563_3957" x1="8.20717" y1="6.83475" x2="7.3739" y2="21.7849" gradientUnits="userSpaceOnUse">
<stop stop-color="#FF9F2F"/>
<stop offset="1" stop-color="#FA3C3C"/>
</linearGradient>
<linearGradient id="paint2_linear_2563_3957" x1="19.9569" y1="33.283" x2="20.0031" y2="15.9409" gradientUnits="userSpaceOnUse">
<stop stop-color="#5B09AD"/>
<stop offset="1" stop-color="#BC1870"/>
</linearGradient>
</defs>
</svg>
