<svg width="24" height="24" viewBox="0 0 24 24" fill="none" xmlns="http://www.w3.org/2000/svg">
<path fill-rule="evenodd" clip-rule="evenodd" d="M11.5486 1.40099C11.8159 1.19967 12.1841 1.19967 12.4513 1.40099L23.4376 9.67839C23.7747 9.93233 23.8528 10.4278 23.604 10.7822C23.3589 11.1314 22.8938 11.2045 22.5622 10.9547L20.7929 9.62164L19.75 20.7362V20.7479C19.75 21.7144 18.9665 22.4979 18 22.4979H6.00007C5.03357 22.4979 4.25007 21.7144 4.25007 20.7479V20.7362L3.20715 9.62157L1.43776 10.9547C1.10616 11.2045 0.641075 11.1314 0.395909 10.7822C0.147121 10.4278 0.225253 9.93233 0.562296 9.67839L11.5486 1.40099ZM12.7521 3.56355C12.3068 3.22803 11.6931 3.22803 11.2478 3.56355L4.73858 8.46775L5.75011 19.6879C5.75647 20.3728 6.31366 20.926 7.00006 20.926H17C17.6864 20.926 18.2435 20.3728 18.2499 19.6879L19.2614 8.46783L12.7521 3.56355Z" fill="#AAAAAA"/>
</svg>
