<svg width="24" height="24" viewBox="0 0 24 24" fill="none" xmlns="http://www.w3.org/2000/svg">
<path fill-rule="evenodd" clip-rule="evenodd" d="M11.6239 3.16749C11.8465 2.99973 12.1534 2.99973 12.376 3.16749L21.5313 10.0653C21.8122 10.2769 21.8773 10.6899 21.67 10.9852C21.4657 11.2762 21.0781 11.3371 20.8018 11.1289L19.3274 10.018L18.4583 19.2802V19.29C18.4583 20.0954 17.8054 20.7483 16.9999 20.7483H7.00004C6.19462 20.7483 5.54171 20.0954 5.54171 19.29V19.2802L4.67261 10.018L3.19811 11.1289C2.92178 11.3371 2.53421 11.2762 2.32991 10.9852C2.12258 10.6899 2.18769 10.2769 2.46856 10.0653L11.6239 3.16749ZM12.6268 4.96963C12.2557 4.69003 11.7442 4.69003 11.3731 4.96963L5.9488 9.05646L6.79174 18.4066C6.79704 18.9773 7.26136 19.4384 7.83336 19.4384H16.1666C16.7386 19.4384 17.2029 18.9773 17.2082 18.4066L18.0512 9.05653L12.6268 4.96963Z" fill="#AAAAAA"/>
</svg>
