<svg width="22" height="20" viewBox="0 0 22 20" fill="none" xmlns="http://www.w3.org/2000/svg">
<path fill-rule="evenodd" clip-rule="evenodd" d="M21.6224 7.79726L11.5516 0.185135C11.225 -0.0617119 10.775 -0.0617115 10.4484 0.185135L0.377572 7.79726C-0.0318574 8.10673 -0.122378 8.70256 0.175389 9.12809C0.473156 9.55361 1.04645 9.64769 1.45588 9.33821L2.7501 8.35997L3.66676 18.1607C3.66676 19.1765 4.48757 20 5.5001 20H16.5C17.5125 20 18.3333 19.1765 18.3333 18.1607L19.25 8.36004L20.5441 9.33821C20.9535 9.64769 21.5268 9.55361 21.8246 9.12809C22.1224 8.70256 22.0319 8.10673 21.6224 7.79726ZM17.4167 6.97431L11.5516 2.54114C11.225 2.29429 10.775 2.29429 10.4484 2.54114L4.58342 6.97424L5.50009 17.175C5.50009 17.6829 5.91049 18.0946 6.41675 18.0946H15.5833C16.0896 18.0946 16.5 17.6829 16.5 17.175L17.4167 6.97431Z" fill="#AAAAAA"/>
</svg>
