<svg width="36" height="36" viewBox="0 0 36 36" fill="none" xmlns="http://www.w3.org/2000/svg">
<path d="M8 22.1006C9.95904 22.4983 11.5017 24.041 11.8994 26H9C8.44772 26 8 25.5523 8 25V22.1006Z" fill="white"/>
<path d="M8 19.0645C11.6185 19.5158 14.4842 22.3815 14.9355 26H13.4229C12.9921 23.2109 10.7891 21.0068 8 20.5762V19.0645Z" fill="white"/>
<path d="M8 16.0479C13.277 16.5235 17.4775 20.723 17.9531 26H16.4473C15.9819 21.552 12.448 18.0171 8 17.5518V16.0479Z" fill="white"/>
<path d="M26.2041 10.0107C27.2128 10.113 28 10.9643 28 12V24C28 25.0357 27.2128 25.887 26.2041 25.9893L26 26H20C20 25.491 19.9624 24.9906 19.8955 24.5H26C26.2761 24.5 26.5 24.2761 26.5 24V12C26.5 11.7239 26.2761 11.5 26 11.5H10C9.72386 11.5 9.5 11.7239 9.5 12V14.1045C9.00942 14.0376 8.50895 14 8 14V12C8 10.8954 8.89543 10 10 10H26L26.2041 10.0107Z" fill="white"/>
</svg>
