<svg width="24" height="24" viewBox="0 0 24 24" fill="none" xmlns="http://www.w3.org/2000/svg">
<path d="M9 9.43066C9.00034 8.83271 9.62988 8.44374 10.165 8.71094L15.3047 11.2803C15.8981 11.5769 15.8981 12.4231 15.3047 12.7197L10.165 15.2891C9.62979 15.5564 9.00017 15.1675 9 14.5693V9.43066Z" fill="black"/>
<path fill-rule="evenodd" clip-rule="evenodd" d="M19.417 2.5C21.2578 2.50017 22.7499 3.96514 22.75 5.77246V18.2275C22.7499 20.0349 21.2578 21.4998 19.417 21.5H4.08301C2.24222 21.4998 0.750146 20.0349 0.75 18.2275V5.77246C0.750147 3.96514 2.24222 2.50017 4.08301 2.5H19.417ZM4.08301 3.75C2.91087 3.75017 2.00015 4.67701 2 5.77246V18.2275C2.00015 19.323 2.91087 20.2498 4.08301 20.25H19.417C20.5891 20.2498 21.4999 19.323 21.5 18.2275V5.77246C21.4999 4.67701 20.5891 3.75017 19.417 3.75H4.08301Z" fill="black"/>
</svg>
