<svg width="40" height="40" viewBox="0 0 40 40" fill="none" xmlns="http://www.w3.org/2000/svg">
<path fill-rule="evenodd" clip-rule="evenodd" d="M20 40C31.0457 40 40 31.0457 40 20C40 8.9543 31.0457 0 20 0C8.9543 0 0 8.9543 0 20C0 31.0457 8.9543 40 20 40ZM15.647 29.6956L8.56756 22.4266C7.8109 21.6456 7.8108 20.4049 8.56734 19.6238C9.35871 18.8067 10.6693 18.8065 11.4608 19.6234L16.1696 24.4447L28.6392 11.6127C29.4307 10.7957 30.7413 10.7958 31.5327 11.6129C32.2892 12.3941 32.2891 13.6347 31.5325 14.4157L16.6922 29.6956C16.4063 29.9907 15.9329 29.9907 15.647 29.6956Z" fill="white" fill-opacity="0.8"/>
</svg>
