<svg width="24" height="24" viewBox="0 0 24 24" fill="none" xmlns="http://www.w3.org/2000/svg">
<path d="M8.74912 1.04945C8.1804 1.23416 7.97899 1.91718 8.30562 2.42201C8.55683 2.81028 9.04307 2.96091 9.48281 2.82637C13.4172 1.62255 17.8244 3.11212 20.1854 6.76135C22.4532 10.2663 22.1543 14.7137 19.7572 17.8516L19.4126 16.3621C19.2934 15.8467 18.7828 15.5265 18.2721 15.6468C17.7614 15.7671 17.444 16.2825 17.5633 16.7978L18.3728 20.297C18.5219 20.9412 19.1602 21.3415 19.7985 21.1911L23.2661 20.3742C23.7768 20.2539 24.0942 19.7386 23.9749 19.2232C23.8557 18.7078 23.345 18.3876 22.8344 18.5079L21.3922 18.8477C24.1485 15.0931 24.4552 9.8551 21.7756 5.71362C18.9056 1.27777 13.5162 -0.498845 8.74912 1.04945Z" fill="#AAAAAA"/>
<path d="M14.9864 21.1736C15.4262 21.0391 15.9124 21.1897 16.1636 21.578C16.4902 22.0828 16.2888 22.7658 15.7201 22.9506C10.953 24.4988 5.56364 22.7222 2.69361 18.2864C0.174191 14.3925 0.294772 9.52913 2.60912 5.84092L1.16565 6.181C0.654958 6.30132 0.144308 5.98108 0.025079 5.46573C-0.09415 4.95038 0.223192 4.43506 0.733881 4.31475L4.20145 3.49779C4.83981 3.34739 5.47813 3.74769 5.62716 4.39188L6.43672 7.89112C6.55595 8.40647 6.23861 8.92179 5.72792 9.0421C5.21723 9.16242 4.70658 8.84218 4.58735 8.32683L4.23997 6.82529C2.28571 9.90383 2.17465 13.9789 4.28378 17.2387C6.64487 20.8879 11.052 22.3774 14.9864 21.1736Z" fill="#AAAAAA"/>
<path d="M11.63 5.81145C11.63 5.51941 11.8532 5.28267 12.1285 5.28267H12.5249C12.8002 5.28267 13.0234 5.51941 13.0234 5.81145V6.76343C13.8649 6.88756 14.5286 7.22134 15.0045 7.77223C15.3274 8.14294 15.5436 8.5872 15.6538 9.10256C15.7691 9.64165 15.3292 10.0714 14.8424 10.0714H14.6318C14.1297 10.0714 13.7756 9.62501 13.6079 9.17546C13.5424 9.00009 13.4518 8.84756 13.3361 8.71688L13.335 8.71567C13.0785 8.41669 12.7266 8.26317 12.267 8.26317C11.8036 8.26317 11.4556 8.37538 11.2104 8.58648C10.9693 8.79407 10.8443 9.09268 10.8443 9.49854C10.8443 9.85606 10.9644 10.1369 11.2037 10.3512C11.4572 10.5691 11.8946 10.7843 12.5278 10.9922C13.1665 11.2018 13.6712 11.3969 14.0401 11.5777C14.4101 11.7589 14.7244 11.9686 14.9816 12.2077C15.2401 12.4435 15.4403 12.7174 15.5808 13.0293C15.7228 13.3442 15.7921 13.7096 15.7921 14.1224C15.7921 14.9035 15.5217 15.5428 14.9811 16.0309C14.4654 16.5009 13.7574 16.779 12.8667 16.8743V17.656C12.8667 17.9481 12.6435 18.1848 12.3681 18.1848H11.9793C11.7039 18.1848 11.4807 17.9481 11.4807 17.656V16.8803C10.5243 16.7709 9.77239 16.4521 9.23581 15.914C8.8739 15.5477 8.63086 15.1018 8.50801 14.5794C8.38126 14.0403 8.82533 13.6096 9.31094 13.6096H9.52902C10.0312 13.6096 10.3821 14.0602 10.5663 14.4972C10.6379 14.6671 10.7371 14.814 10.8642 14.9385C11.1587 15.2222 11.5794 15.3711 12.1401 15.3711C12.696 15.3711 13.1006 15.2509 13.3696 15.0267C13.6433 14.8024 13.7792 14.5082 13.7792 14.1358C13.7792 13.7883 13.6574 13.5063 13.411 13.2819C13.1588 13.0481 12.7272 12.8303 12.1045 12.6359C11.476 12.4352 10.983 12.2488 10.6287 12.0769C10.0385 11.7938 9.58853 11.4392 9.286 11.0097C8.98251 10.5788 8.83147 10.0781 8.83147 9.51188C8.83147 8.74451 9.09403 8.10824 9.61849 7.61148C10.1227 7.13387 10.7959 6.8484 11.63 6.7478V5.81145Z" fill="#AAAAAA"/>
</svg>
