<svg width="24" height="24" viewBox="0 0 24 24" fill="none" xmlns="http://www.w3.org/2000/svg">
<path d="M3.32609 4C2.86985 4 2.5 4.35817 2.5 4.8C2.5 5.24183 2.86985 5.6 3.32609 5.6H20.6739C21.1301 5.6 21.5 5.24183 21.5 4.8C21.5 4.35817 21.1301 4 20.6739 4H3.32609Z" fill="white"/>
<path d="M3.32609 8.8C2.86985 8.8 2.5 9.15817 2.5 9.6C2.5 10.0418 2.86985 10.4 3.32609 10.4H20.6739C21.1301 10.4 21.5 10.0418 21.5 9.6C21.5 9.15817 21.1301 8.8 20.6739 8.8H3.32609Z" fill="white"/>
<path d="M2.5 14.4C2.5 13.9582 2.86985 13.6 3.32609 13.6H20.6739C21.1301 13.6 21.5 13.9582 21.5 14.4C21.5 14.8418 21.1301 15.2 20.6739 15.2H3.32609C2.86985 15.2 2.5 14.8418 2.5 14.4Z" fill="white"/>
<path d="M3.32609 18.4C2.86985 18.4 2.5 18.7582 2.5 19.2C2.5 19.6418 2.86985 20 3.32609 20H14.0652C14.5215 20 14.8913 19.6418 14.8913 19.2C14.8913 18.7582 14.5215 18.4 14.0652 18.4H3.32609Z" fill="white"/>
<path d="M3.32609 4C2.86985 4 2.5 4.35817 2.5 4.8C2.5 5.24183 2.86985 5.6 3.32609 5.6H20.6739C21.1301 5.6 21.5 5.24183 21.5 4.8C21.5 4.35817 21.1301 4 20.6739 4H3.32609Z" stroke="white" stroke-width="0.5"/>
<path d="M3.32609 8.8C2.86985 8.8 2.5 9.15817 2.5 9.6C2.5 10.0418 2.86985 10.4 3.32609 10.4H20.6739C21.1301 10.4 21.5 10.0418 21.5 9.6C21.5 9.15817 21.1301 8.8 20.6739 8.8H3.32609Z" stroke="white" stroke-width="0.5"/>
<path d="M2.5 14.4C2.5 13.9582 2.86985 13.6 3.32609 13.6H20.6739C21.1301 13.6 21.5 13.9582 21.5 14.4C21.5 14.8418 21.1301 15.2 20.6739 15.2H3.32609C2.86985 15.2 2.5 14.8418 2.5 14.4Z" stroke="white" stroke-width="0.5"/>
<path d="M3.32609 18.4C2.86985 18.4 2.5 18.7582 2.5 19.2C2.5 19.6418 2.86985 20 3.32609 20H14.0652C14.5215 20 14.8913 19.6418 14.8913 19.2C14.8913 18.7582 14.5215 18.4 14.0652 18.4H3.32609Z" stroke="white" stroke-width="0.5"/>
</svg>
