<svg width="52" height="52" viewBox="0 0 52 52" fill="none" xmlns="http://www.w3.org/2000/svg">
<path fill-rule="evenodd" clip-rule="evenodd" d="M26 50C39.2548 50 50 39.2548 50 26C50 12.7452 39.2548 2 26 2C12.7452 2 2 12.7452 2 26C2 39.2548 12.7452 50 26 50ZM26 52C40.3594 52 52 40.3594 52 26C52 11.6406 40.3594 0 26 0C11.6406 0 0 11.6406 0 26C0 40.3594 11.6406 52 26 52Z" fill="#444444"/>
<path d="M13.1364 32H9.01136V20.3636H13.1705C14.3409 20.3636 15.3485 20.5966 16.1932 21.0625C17.0379 21.5246 17.6875 22.1894 18.142 23.0568C18.6004 23.9242 18.8295 24.9621 18.8295 26.1705C18.8295 27.3826 18.6004 28.4242 18.142 29.2955C17.6875 30.1667 17.0341 30.8352 16.1818 31.3011C15.3333 31.767 14.3182 32 13.1364 32ZM11.4716 29.892H13.0341C13.7614 29.892 14.3731 29.7633 14.8693 29.5057C15.3693 29.2443 15.7443 28.8409 15.9943 28.2955C16.2481 27.7462 16.375 27.0379 16.375 26.1705C16.375 25.3106 16.2481 24.608 15.9943 24.0625C15.7443 23.517 15.3712 23.1155 14.875 22.858C14.3788 22.6004 13.767 22.4716 13.0398 22.4716H11.4716V29.892ZM22.098 20.3636L24.9105 29.2045H25.0185L27.8366 20.3636H30.5639L26.5526 32H23.3821L19.3651 20.3636H22.098ZM31.9645 20.3636H34.9986L38.2031 28.1818H38.3395L41.544 20.3636H44.5781V32H42.1918V24.4261H42.0952L39.0838 31.9432H37.4588L34.4474 24.3977H34.3509V32H31.9645V20.3636Z" fill="#444444"/>
</svg>
