<svg width="22" height="22" viewBox="0 0 22 22" fill="none" xmlns="http://www.w3.org/2000/svg">
<path fill-rule="evenodd" clip-rule="evenodd" d="M19.2064 14.0161H2.79365C2.60079 14.0161 2.44444 14.1651 2.44444 14.3488V19.3387C2.44444 19.5224 2.60079 19.6714 2.79365 19.6714H19.2064C19.3992 19.6714 19.5556 19.5224 19.5556 19.3387V14.3488C19.5556 14.1651 19.3992 14.0161 19.2064 14.0161ZM2.79365 11.6875C1.25076 11.6875 0 12.879 0 14.3488V19.3387C0 20.8085 1.25076 22 2.79365 22H19.2064C20.7492 22 22 20.8085 22 19.3387V14.3488C22 12.879 20.7492 11.6875 19.2064 11.6875H2.79365Z" fill="#666666"/>
<path d="M5.5 1.375C5.5 0.615609 6.11561 0 6.875 0H15.125C15.8844 0 16.5 0.615609 16.5 1.375C16.5 2.13439 15.8844 2.75 15.125 2.75H6.875C6.11561 2.75 5.5 2.13439 5.5 1.375Z" fill="#666666"/>
<path d="M2.75 6.875C2.75 6.11561 3.36561 5.5 4.125 5.5H17.875C18.6344 5.5 19.25 6.11561 19.25 6.875C19.25 7.63439 18.6344 8.25 17.875 8.25H4.125C3.36561 8.25 2.75 7.63439 2.75 6.875Z" fill="#666666"/>
</svg>
