<svg width="20" height="20" viewBox="0 0 20 20" fill="none" xmlns="http://www.w3.org/2000/svg">
<g clip-path="url(#clip0_5476_3417)">
<path fill-rule="evenodd" clip-rule="evenodd" d="M4.53788 12.5106L4.20641 16.288L8.00735 13.7891L8.68496 13.8683C9.11227 13.9182 9.55146 13.9443 10 13.9443C12.3893 13.9443 14.482 13.2063 15.9368 12.1011C17.3902 10.9969 18.125 9.60789 18.125 8.22213C18.125 6.83637 17.3902 5.44733 15.9368 4.34316C14.482 3.23795 12.3893 2.5 10 2.5C7.61072 2.5 5.51797 3.23795 4.06319 4.34316C2.60979 5.44733 1.875 6.83637 1.875 8.22213C1.875 9.52064 2.51725 10.815 3.78997 11.883L4.53788 12.5106ZM3.07881 19.2732C2.64227 19.5602 2.06719 19.2168 2.11286 18.6964L2.58471 13.3193C0.978425 11.9714 0 10.1836 0 8.22213C0 4.02635 4.47715 0.625 10 0.625C15.5228 0.625 20 4.02635 20 8.22213C20 12.4179 15.5228 15.8193 10 15.8193C9.47884 15.8193 8.96699 15.789 8.46734 15.7306L3.07881 19.2732Z" fill="#666666"/>
</g>
<defs>
<clipPath id="clip0_5476_3417">
<rect width="20" height="20" fill="white"/>
</clipPath>
</defs>
</svg>
