<svg width="30" height="56" viewBox="0 0 30 56" fill="none" xmlns="http://www.w3.org/2000/svg">
<path fill-rule="evenodd" clip-rule="evenodd" d="M21.1942 25.4364C26.4577 23.2786 30.0856 18.5108 29.9985 13.0449C29.8811 5.68354 23.0704 -0.155133 14.7875 0.00314339C6.50469 0.16142 -0.115811 6.25675 0.00153616 13.6181C0.0886678 19.084 3.86629 23.7103 9.19541 25.6657L9.6061 51.4291C9.61816 52.1856 9.86129 52.9158 10.2969 53.4983L11.7132 55.3965C12.2507 56.1154 13.2132 56.2052 13.8496 55.5949L20.876 48.8571C21.0376 48.7027 21.1236 48.4919 21.1349 48.2769C21.1483 48.0187 21.0547 47.7552 20.8556 47.5767L16.9912 44.1246L20.7432 40.5269C20.925 40.3526 21.0119 40.1068 21.0022 39.8645C20.9941 39.6335 20.9011 39.4058 20.7228 39.2465L16.8584 35.7944L21.026 31.7982C21.1948 31.6363 21.2892 31.4001 21.2853 31.1528L21.1942 25.4364ZM19.4464 8.26635C19.4904 11.0265 17.5121 12.3054 15.0266 12.3529C12.541 12.4004 10.4913 11.1985 10.4473 8.43832C10.4033 5.67812 12.3816 4.16514 14.8672 4.11765C17.3528 4.07015 19.4024 5.50616 19.4464 8.26635Z" fill="white" fill-opacity="0.8"/>
</svg>
