<svg width="20" height="20" viewBox="0 0 20 20" fill="none" xmlns="http://www.w3.org/2000/svg">
<path d="M7.50236 1.66667C7.50236 0.746192 8.24855 0 9.16903 0H10.8357C11.7562 0 12.5024 0.746192 12.5024 1.66667H17.8357C18.5721 1.66667 19.169 2.26362 19.169 3C19.169 3.18409 19.0198 3.33333 18.8357 3.33333H1.16903C0.984931 3.33333 0.835693 3.18409 0.835693 3C0.835693 2.26362 1.43265 1.66667 2.16903 1.66667H7.50236Z" fill="#FA3C3C"/>
<path d="M7.08569 6.66667C7.08569 6.20643 7.45879 5.83333 7.91903 5.83333C8.37926 5.83333 8.75236 6.20643 8.75236 6.66667V15C8.75236 15.4602 8.37926 15.8333 7.91903 15.8333C7.45879 15.8333 7.08569 15.4602 7.08569 15V6.66667Z" fill="#FA3C3C"/>
<path d="M12.0857 5.83333C11.6255 5.83333 11.2524 6.20643 11.2524 6.66667V15C11.2524 15.4602 11.6255 15.8333 12.0857 15.8333C12.5459 15.8333 12.919 15.4602 12.919 15V6.66667C12.919 6.20643 12.5459 5.83333 12.0857 5.83333Z" fill="#FA3C3C"/>
<path d="M3.33569 5C2.87546 5 2.50236 5.3731 2.50236 5.83333V18.3333C2.50236 19.2538 3.24855 20 4.16903 20H15.8357C16.7562 20 17.5024 19.2538 17.5024 18.3333V5.83333C17.5024 5.3731 17.1293 5 16.669 5C16.2088 5 15.8357 5.3731 15.8357 5.83333V17.5C15.8357 17.9602 15.4626 18.3333 15.0024 18.3333H5.00236C4.54212 18.3333 4.16903 17.9602 4.16903 17.5V5.83333C4.16903 5.3731 3.79593 5 3.33569 5Z" fill="#FA3C3C"/>
</svg>
